<svg width="155" height="155" viewBox="0 0 155 155" xmlns="http://www.w3.org/2000/svg" xmlns:xlink="http://www.w3.org/1999/xlink"><defs><path id="a" d="M0 199.75h199.75V0H0z"/><path id="c" d="M.42 74.709h79.76V.246H.42z"/><path d="M75.31 5.766a5.495 5.495 0 0 1-5.495 5.495h-.761a5.496 5.496 0 0 0 0 10.991h1.617a6.552 6.552 0 1 1 0 13.105h-8.687c-5.434 0-9.84 4.404-9.84 9.839 0 5.432 4.406 9.836 9.84 9.836h8.36c5.432 0 9.837 4.405 9.837 9.839 0 5.433-4.405 9.838-9.838 9.838H32.481h1.194a7.444 7.444 0 0 1 0-14.888h2.574a1.903 1.903 0 1 0 0-3.808H13.403C6.233 56.013.42 50.199.42 43.029s5.813-12.984 12.984-12.984h17.713a7.444 7.444 0 1 0 0-14.888H20.99a7.443 7.443 0 0 1-7.444-7.444c0-1.937-.04-7.467-.04-7.467s5.31.024 7.484.024h48.825a5.496 5.496 0 0 1 5.495 5.496" id="e"/><linearGradient x1="-57.032%" y1="138.202%" x2="156.893%" y2="-31.626%" id="g"><stop offset="0%"/><stop offset="10.27%"/><stop stop-color="#7E5FAA" offset="100%"/></linearGradient><path d="M.933 29.168c0-16.06 13.019-29.08 29.08-29.08 16.06 0 29.08 13.02 29.08 29.08s-13.02 29.08-29.08 29.08c-16.061 0-29.08-13.02-29.08-29.08" id="h"/><linearGradient x1="60.639%" y1="-11.954%" x2="38.08%" y2="119.415%" id="j"><stop stop-color="#A9AEFF" offset="0%"/><stop stop-color="#A992FF" offset="19.27%"/><stop stop-color="#A992FF" offset="25.483%"/><stop stop-color="#ACA5FF" offset="43.311%"/><stop stop-color="#ACECFE" offset="100%"/></linearGradient><path id="k" d="M0 199.75h199.75V0H0z"/><path id="m" d="M.573 27.867h26.603V.837H.573z"/><path d="M14.09 6.617c.908 0 1.647-.745 1.647-1.663 0-.922-.739-1.671-1.648-1.671-.908 0-1.648.749-1.648 1.67 0 .919.74 1.664 1.648 1.664m12.409 17.12c-.71 2.857-1.925 4.13-3.94 4.13h-2.796v-3.419c0-3.426-2.858-6.323-6.24-6.323H4.494c-2.125 0-3.922-1.83-3.922-3.998V5.524c0-2.453 2.563-3.571 4.09-4.02 3.025-.89 5.625-.89 8.692.001 2.713.786 4.088 2.137 4.088 4.02v2.847H8.417v2.34h14.14c2.171 0 3.035 1.405 3.954 4.172.89 2.672.887 5.236-.013 8.852" id="o"/><linearGradient x1="0%" y1="49.998%" x2="99.999%" y2="49.998%" id="q"><stop stop-color="#844EC6" offset="0%"/><stop stop-color="#844EC6" offset="6.795%"/><stop stop-color="#9071FF" offset="100%"/></linearGradient></defs><g fill="none" fill-rule="evenodd"><g transform="matrix(1 0 0 -1 -22 177.75)"><mask id="b" fill="#fff"><use xlink:href="#a"/></mask><g mask="url(#b)"><g transform="translate(51.935 60.924)"><mask id="d" fill="#fff"><use xlink:href="#c"/></mask><g mask="url(#d)"><mask id="f" fill="#fff"><use xlink:href="#e"/></mask><g mask="url(#f)" fill-rule="nonzero" fill="url(#g)"><path d="M75.31 5.766a5.495 5.495 0 0 1-5.495 5.495h-.761a5.496 5.496 0 0 0 0 10.991h1.617a6.552 6.552 0 1 1 0 13.105h-8.687c-5.434 0-9.84 4.404-9.84 9.839 0 5.432 4.406 9.836 9.84 9.836h8.36c5.432 0 9.837 4.405 9.837 9.839 0 5.433-4.405 9.838-9.838 9.838H32.481h1.194a7.444 7.444 0 0 1 0-14.888h2.574a1.903 1.903 0 1 0 0-3.808H13.403C6.233 56.013.42 50.199.42 43.029s5.813-12.984 12.984-12.984h17.713a7.444 7.444 0 1 0 0-14.888H20.99a7.443 7.443 0 0 1-7.444-7.444c0-1.937-.04-7.467-.04-7.467s5.31.024 7.484.024h48.825a5.496 5.496 0 0 1 5.495 5.496"/></g></g></g></g></g><g transform="matrix(1 0 0 -1 61.895 90.859)"><mask id="i" fill="#fff"><use xlink:href="#h"/></mask><g mask="url(#i)" fill-rule="nonzero" fill="url(#j)"><path d="M.933 29.168c0-16.06 13.019-29.08 29.08-29.08 16.06 0 29.08 13.02 29.08 29.08s-13.02 29.08-29.08 29.08c-16.061 0-29.08-13.02-29.08-29.08"/></g></g><g transform="matrix(1 0 0 -1 -22 177.75)"><mask id="l" fill="#fff"><use xlink:href="#k"/></mask><g mask="url(#l)"><path d="M108.795 128.958a1.54 1.54 0 0 0-1.532 1.546c0 .413.158.803.446 1.096.29.295.676.458 1.086.458.845 0 1.533-.697 1.533-1.554 0-.853-.688-1.546-1.533-1.546zm13.518.974c0 2.259-2.023 3.778-4.02 4.11-1.465.244-3.057.358-4.608.362a25.445 25.445 0 0 1-4.216-.36c-3.467-.613-4.026-1.714-4.026-4.11v-2.85h9.035v-2.338h-13.023c-2.515 0-4.457-1.582-5.066-4.125-.823-3.414-.823-5.493 0-8.907.451-1.88 1.551-4.125 4.224-4.125h2.51v3.534c0 3.366 2.859 6.21 6.242 6.21h9.025c2.163 0 3.923 1.792 3.923 3.994v8.605z" fill="#FFF" fill-rule="nonzero"/><g transform="translate(104.869 96.879)"><mask id="n" fill="#fff"><use xlink:href="#m"/></mask><g opacity=".8" mask="url(#n)"><mask id="p" fill="#fff"><use xlink:href="#o"/></mask><g mask="url(#p)" fill-rule="nonzero" fill="url(#q)"><path d="M14.09 6.617c.908 0 1.647-.745 1.647-1.663 0-.922-.739-1.671-1.648-1.671-.908 0-1.648.749-1.648 1.67 0 .919.74 1.664 1.648 1.664m12.409 17.12c-.71 2.857-1.925 4.13-3.94 4.13h-2.796v-3.419c0-3.426-2.858-6.323-6.24-6.323H4.494c-2.125 0-3.922-1.83-3.922-3.998V5.524c0-2.453 2.563-3.571 4.09-4.02 3.025-.89 5.625-.89 8.692.001 2.713.786 4.088 2.137 4.088 4.02v2.847H8.417v2.34h14.14c2.171 0 3.035 1.405 3.954 4.172.89 2.672.887 5.236-.013 8.852"/></g></g></g><path d="M74.696 68.165a2.188 2.188 0 1 0-4.376 0 2.188 2.188 0 0 0 4.376 0M64.808 108.88a2.188 2.188 0 1 0-4.377 0 2.189 2.189 0 0 0 4.377 0" fill="#FFF" fill-rule="nonzero"/></g></g></g></svg>