<svg width="155" height="155" viewBox="0 0 155 155" xmlns="http://www.w3.org/2000/svg" xmlns:xlink="http://www.w3.org/1999/xlink"><defs><path id="a" d="M0 199.75h199.75V0H0z"/><path id="c" d="M.856 18.786H18.87V.772H.856z"/><path d="M18.87 9.779A9.007 9.007 0 0 0 9.864.773a9.007 9.007 0 1 0 0 18.014 9.007 9.007 0 0 0 9.006-9.008" id="e"/><linearGradient x1="-47.861%" y1="49.997%" x2="260.962%" y2="49.997%" id="g"><stop stop-color="#844EC6" offset="0%"/><stop stop-color="#844EC6" offset="6.795%"/><stop stop-color="#9071FF" offset="100%"/></linearGradient><path id="h" d="M.42 74.709h79.76V.246H.42z"/><path d="M75.31 5.766a5.495 5.495 0 0 1-5.495 5.495h-.761a5.496 5.496 0 1 0 0 10.991h1.617a6.552 6.552 0 1 1 0 13.104h-8.687c-5.434 0-9.84 4.405-9.84 9.839 0 5.433 4.406 9.838 9.84 9.838h8.36c5.432 0 9.837 4.405 9.837 9.838 0 5.433-4.405 9.838-9.838 9.838H32.481h1.194a7.444 7.444 0 0 1 0-14.888h2.574a1.904 1.904 0 0 0 0-3.808H13.403C6.233 56.013.42 50.2.42 43.029c0-7.17 5.813-12.984 12.984-12.984h17.713a7.444 7.444 0 1 0 0-14.887H20.99a7.444 7.444 0 0 1-7.444-7.444c0-1.938-.04-7.468-.04-7.468s5.31.025 7.484.025h48.825a5.494 5.494 0 0 1 5.495 5.495" id="j"/><linearGradient x1="-57.032%" y1="138.202%" x2="156.893%" y2="-31.626%" id="l"><stop offset="0%"/><stop offset="10.27%"/><stop stop-color="#7E5FAA" offset="100%"/></linearGradient><path d="M.933 29.168c0-16.06 13.019-29.08 29.08-29.08 16.06 0 29.08 13.02 29.08 29.08 0 16.061-13.02 29.08-29.08 29.08-16.061 0-29.08-13.019-29.08-29.08" id="m"/><linearGradient x1="60.639%" y1="-11.954%" x2="38.08%" y2="119.415%" id="o"><stop stop-color="#A9AEFF" offset="0%"/><stop stop-color="#A992FF" offset="19.27%"/><stop stop-color="#A992FF" offset="25.483%"/><stop stop-color="#ACA5FF" offset="43.311%"/><stop stop-color="#ACECFE" offset="100%"/></linearGradient><path id="p" d="M0 199.75h199.75V0H0z"/><path id="r" d="M.573 27.867h26.603V.837H.573z"/><path d="M14.09 6.617c.908 0 1.647-.746 1.647-1.663 0-.922-.739-1.672-1.648-1.672-.908 0-1.648.75-1.648 1.672 0 .917.74 1.663 1.648 1.663m12.409 17.12c-.71 2.856-1.925 4.13-3.94 4.13h-2.796v-3.418c0-3.428-2.858-6.324-6.24-6.324H4.494c-2.125 0-3.922-1.83-3.922-3.997V5.523c0-2.452 2.563-3.57 4.09-4.019 3.025-.89 5.625-.89 8.692.001 2.713.785 4.088 2.137 4.088 4.018v2.849H8.417v2.34h14.14c2.171 0 3.035 1.406 3.954 4.171.89 2.673.887 5.237-.013 8.853" id="t"/><linearGradient x1="0%" y1="50.002%" x2="99.999%" y2="50.002%" id="v"><stop stop-color="#844EC6" offset="0%"/><stop stop-color="#844EC6" offset="6.795%"/><stop stop-color="#9071FF" offset="100%"/></linearGradient><path id="w" d="M.875 9.06h8.988V.073H.875z"/><path d="M9.864 4.565a4.495 4.495 0 1 0-8.99.001 4.495 4.495 0 0 0 8.99 0" id="y"/><linearGradient x1="-47.866%" y1="50.006%" x2="260.958%" y2="50.006%" id="A"><stop stop-color="#844EC6" offset="0%"/><stop stop-color="#844EC6" offset="6.795%"/><stop stop-color="#9071FF" offset="100%"/></linearGradient></defs><g fill="none" fill-rule="evenodd"><g transform="matrix(1 0 0 -1 -22 177.75)"><mask id="b" fill="#fff"><use xlink:href="#a"/></mask><g mask="url(#b)"><g transform="translate(75.905 79.9)"><mask id="d" fill="#fff"><use xlink:href="#c"/></mask><g opacity=".5" mask="url(#d)"><mask id="f" fill="#fff"><use xlink:href="#e"/></mask><g mask="url(#f)" fill-rule="nonzero" fill="url(#g)"><path d="M18.87 9.779A9.007 9.007 0 0 0 9.864.773a9.007 9.007 0 1 0 0 18.014 9.007 9.007 0 0 0 9.006-9.008"/></g></g></g><g transform="translate(51.935 60.924)"><mask id="i" fill="#fff"><use xlink:href="#h"/></mask><g mask="url(#i)"><mask id="k" fill="#fff"><use xlink:href="#j"/></mask><g mask="url(#k)" fill-rule="nonzero" fill="url(#l)"><path d="M75.31 5.766a5.495 5.495 0 0 1-5.495 5.495h-.761a5.496 5.496 0 1 0 0 10.991h1.617a6.552 6.552 0 1 1 0 13.104h-8.687c-5.434 0-9.84 4.405-9.84 9.839 0 5.433 4.406 9.838 9.84 9.838h8.36c5.432 0 9.837 4.405 9.837 9.838 0 5.433-4.405 9.838-9.838 9.838H32.481h1.194a7.444 7.444 0 0 1 0-14.888h2.574a1.904 1.904 0 0 0 0-3.808H13.403C6.233 56.013.42 50.2.42 43.029c0-7.17 5.813-12.984 12.984-12.984h17.713a7.444 7.444 0 1 0 0-14.887H20.99a7.444 7.444 0 0 1-7.444-7.444c0-1.938-.04-7.468-.04-7.468s5.31.025 7.484.025h48.825a5.494 5.494 0 0 1 5.495 5.495"/></g></g></g></g></g><g transform="matrix(1 0 0 -1 61.895 90.859)"><mask id="n" fill="#fff"><use xlink:href="#m"/></mask><g mask="url(#n)" fill-rule="nonzero" fill="url(#o)"><path d="M.933 29.168c0-16.06 13.019-29.08 29.08-29.08 16.06 0 29.08 13.02 29.08 29.08 0 16.061-13.02 29.08-29.08 29.08-16.061 0-29.08-13.019-29.08-29.08"/></g></g><g transform="matrix(1 0 0 -1 -22 177.75)"><mask id="q" fill="#fff"><use xlink:href="#p"/></mask><g mask="url(#q)"><path d="M108.795 128.958a1.54 1.54 0 0 0-1.532 1.546c0 .413.158.803.446 1.097.29.293.676.457 1.086.457.845 0 1.533-.698 1.533-1.554 0-.853-.688-1.546-1.533-1.546zm13.518.975c0 2.257-2.023 3.777-4.02 4.11-1.465.242-3.057.356-4.608.36a25.34 25.34 0 0 1-4.216-.36c-3.467-.612-4.026-1.713-4.026-4.11v-2.848h9.035v-2.34h-13.023c-2.515 0-4.457-1.58-5.066-4.125-.823-3.412-.823-5.493 0-8.905.451-1.881 1.551-4.125 4.224-4.125h2.51v3.533c0 3.366 2.859 6.209 6.242 6.209h9.025c2.163 0 3.923 1.793 3.923 3.996v8.605z" fill="#FFF" fill-rule="nonzero"/><g transform="translate(104.869 96.879)"><mask id="s" fill="#fff"><use xlink:href="#r"/></mask><g opacity=".8" mask="url(#s)"><mask id="u" fill="#fff"><use xlink:href="#t"/></mask><g mask="url(#u)" fill-rule="nonzero" fill="url(#v)"><path d="M14.09 6.617c.908 0 1.647-.746 1.647-1.663 0-.922-.739-1.672-1.648-1.672-.908 0-1.648.75-1.648 1.672 0 .917.74 1.663 1.648 1.663m12.409 17.12c-.71 2.856-1.925 4.13-3.94 4.13h-2.796v-3.418c0-3.428-2.858-6.324-6.24-6.324H4.494c-2.125 0-3.922-1.83-3.922-3.997V5.523c0-2.452 2.563-3.57 4.09-4.019 3.025-.89 5.625-.89 8.692.001 2.713.785 4.088 2.137 4.088 4.018v2.849H8.417v2.34h14.14c2.171 0 3.035 1.406 3.954 4.171.89 2.673.887 5.237-.013 8.853"/></g></g></g><path d="M74.696 68.166a2.188 2.188 0 1 0-4.377 0 2.189 2.189 0 0 0 4.377 0" fill="#FFF" fill-rule="nonzero"/><g transform="translate(75.905 129.838)"><mask id="x" fill="#fff"><use xlink:href="#w"/></mask><g opacity=".5" mask="url(#x)"><mask id="z" fill="#fff"><use xlink:href="#y"/></mask><g mask="url(#z)" fill-rule="nonzero" fill="url(#A)"><path d="M9.864 4.565a4.495 4.495 0 1 0-8.99.001 4.495 4.495 0 0 0 8.99 0"/></g></g></g></g></g></g></svg>