<svg width="155" height="155" viewBox="0 0 155 155" xmlns="http://www.w3.org/2000/svg" xmlns:xlink="http://www.w3.org/1999/xlink"><defs><path id="a" d="M0 199.75h199.75V0H0z"/><path id="c" d="M.42 74.709h79.76V.246H.42z"/><path d="M75.31 5.766a5.495 5.495 0 0 1-5.495 5.495h-.761a5.496 5.496 0 0 0 0 10.991h1.617a6.552 6.552 0 1 1 0 13.105h-8.687c-5.434 0-9.84 4.404-9.84 9.838 0 5.433 4.406 9.837 9.84 9.837h8.36c5.432 0 9.837 4.405 9.837 9.838 0 5.434-4.405 9.839-9.838 9.839H32.481h1.194a7.444 7.444 0 0 1 0-14.888h2.574a1.904 1.904 0 0 0 0-3.809H13.403C6.233 56.012.42 50.199.42 43.028c0-7.17 5.813-12.984 12.984-12.984h17.713a7.444 7.444 0 1 0 0-14.887H20.99a7.444 7.444 0 0 1-7.444-7.444c0-1.937-.04-7.467-.04-7.467s5.31.024 7.484.024h48.825a5.496 5.496 0 0 1 5.495 5.496" id="e"/><linearGradient x1="-57.032%" y1="138.202%" x2="156.893%" y2="-31.626%" id="g"><stop offset="0%"/><stop offset="10.27%"/><stop stop-color="#7E5FAA" offset="100%"/></linearGradient><path id="h" d="M.799 27.114h26.966V.148H.8z"/><path d="M.933 29.168c0-16.061 13.019-29.08 29.08-29.08 16.06 0 29.08 13.019 29.08 29.08s-13.02 29.08-29.08 29.08c-16.061 0-29.08-13.019-29.08-29.08" id="j"/><linearGradient x1="60.639%" y1="-11.954%" x2="38.08%" y2="119.415%" id="l"><stop stop-color="#A9AEFF" offset="0%"/><stop stop-color="#A992FF" offset="19.27%"/><stop stop-color="#A992FF" offset="25.483%"/><stop stop-color="#ACA5FF" offset="43.311%"/><stop stop-color="#ACECFE" offset="100%"/></linearGradient><path id="m" d="M0 199.75h199.75V0H0z"/><path d="M19.762 27.867v-3.419c0-3.427-2.857-6.323-6.24-6.323H4.494c-2.125 0-3.922-1.831-3.922-3.997V5.524c0-2.453 2.562-3.571 4.09-4.02 3.026-.89 5.625-.89 8.692 0 2.713.786 4.088 2.138 4.088 4.02v2.848H8.417v2.34h14.14c2.17 0 3.034 1.406 3.954 4.171.89 2.672.886 5.237-.013 8.853-.71 2.857-1.925 4.131-3.94 4.131h-2.796zm-7.32-22.914c0 .918.74 1.663 1.647 1.663.91 0 1.65-.745 1.65-1.663 0-.92-.74-1.671-1.65-1.671-.907 0-1.648.751-1.648 1.67z" id="o"/><linearGradient x1="0%" y1="49.999%" x2="100.001%" y2="49.999%" id="q"><stop stop-color="#844EC6" offset="0%"/><stop stop-color="#844EC6" offset="6.795%"/><stop stop-color="#9071FF" offset="100%"/></linearGradient><path id="r" d="M0 199.75h199.75V0H0z"/><path id="t" d="M.875 9.06h8.988V.073H.875z"/><path d="M9.864 4.566a4.494 4.494 0 1 0-8.989 0 4.494 4.494 0 0 0 8.989 0" id="v"/><linearGradient x1="-47.866%" y1="49.994%" x2="260.958%" y2="49.994%" id="x"><stop stop-color="#844EC6" offset="0%"/><stop stop-color="#844EC6" offset="6.795%"/><stop stop-color="#9071FF" offset="100%"/></linearGradient></defs><g fill="none" fill-rule="evenodd"><g transform="matrix(1 0 0 -1 -22 177.75)"><mask id="b" fill="#fff"><use xlink:href="#a"/></mask><g mask="url(#b)"><g transform="translate(51.935 60.924)"><mask id="d" fill="#fff"><use xlink:href="#c"/></mask><g mask="url(#d)"><mask id="f" fill="#fff"><use xlink:href="#e"/></mask><g mask="url(#f)" fill-rule="nonzero" fill="url(#g)"><path d="M75.31 5.766a5.495 5.495 0 0 1-5.495 5.495h-.761a5.496 5.496 0 0 0 0 10.991h1.617a6.552 6.552 0 1 1 0 13.105h-8.687c-5.434 0-9.84 4.404-9.84 9.838 0 5.433 4.406 9.837 9.84 9.837h8.36c5.432 0 9.837 4.405 9.837 9.838 0 5.434-4.405 9.839-9.838 9.839H32.481h1.194a7.444 7.444 0 0 1 0-14.888h2.574a1.904 1.904 0 0 0 0-3.809H13.403C6.233 56.012.42 50.199.42 43.028c0-7.17 5.813-12.984 12.984-12.984h17.713a7.444 7.444 0 1 0 0-14.887H20.99a7.444 7.444 0 0 1-7.444-7.444c0-1.937-.04-7.467-.04-7.467s5.31.024 7.484.024h48.825a5.496 5.496 0 0 1 5.495 5.496"/></g></g></g><g transform="translate(113.858 74.906)"><mask id="i" fill="#fff"><use xlink:href="#h"/></mask><g opacity=".25" mask="url(#i)"><path d="M27.765 13.63C27.765 6.185 21.73.149 14.282.149 6.835.148.8 6.184.8 13.63c0 7.446 6.036 13.483 13.483 13.483 7.447 0 13.483-6.037 13.483-13.483" fill="#FF7D4A" fill-rule="nonzero"/></g></g></g></g><g transform="matrix(1 0 0 -1 61.895 90.859)"><mask id="k" fill="#fff"><use xlink:href="#j"/></mask><g mask="url(#k)" fill-rule="nonzero" fill="url(#l)"><path d="M.933 29.168c0-16.061 13.019-29.08 29.08-29.08 16.06 0 29.08 13.019 29.08 29.08s-13.02 29.08-29.08 29.08c-16.061 0-29.08-13.019-29.08-29.08"/></g></g><g transform="matrix(1 0 0 -1 -22 177.75)"><mask id="n" fill="#fff"><use xlink:href="#m"/></mask><g mask="url(#n)"><path d="M108.795 128.958a1.54 1.54 0 0 0-1.532 1.546c0 .413.158.803.446 1.096.29.295.676.458 1.086.458.845 0 1.533-.698 1.533-1.554 0-.853-.688-1.546-1.533-1.546zm13.518.975c0 2.257-2.023 3.776-4.02 4.109-1.465.244-3.057.357-4.608.361a25.338 25.338 0 0 1-4.216-.36c-3.467-.611-4.026-1.713-4.026-4.109v-2.85h9.035v-2.339h-13.023c-2.515 0-4.457-1.58-5.066-4.124-.823-3.413-.823-5.494 0-8.906.451-1.88 1.551-4.125 4.224-4.125h2.51v3.533c0 3.366 2.859 6.209 6.242 6.209h9.025c2.163 0 3.923 1.792 3.923 3.996v8.605z" fill="#FFF" fill-rule="nonzero"/></g></g><g transform="matrix(1 0 0 -1 82.869 80.871)"><mask id="p" fill="#fff"><use xlink:href="#o"/></mask><g mask="url(#p)" fill-rule="nonzero" fill="url(#q)"><path d="M19.762 27.867v-3.419c0-3.427-2.857-6.323-6.24-6.323H4.494c-2.125 0-3.922-1.831-3.922-3.997V5.524c0-2.453 2.562-3.571 4.09-4.02 3.026-.89 5.625-.89 8.692 0 2.713.786 4.088 2.138 4.088 4.02v2.848H8.417v2.34h14.14c2.17 0 3.034 1.406 3.954 4.171.89 2.672.886 5.237-.013 8.853-.71 2.857-1.925 4.131-3.94 4.131h-2.796zm-7.32-22.914c0 .918.74 1.663 1.647 1.663.91 0 1.65-.745 1.65-1.663 0-.92-.74-1.671-1.65-1.671-.907 0-1.648.751-1.648 1.67z"/></g></g><g transform="matrix(1 0 0 -1 -22 177.75)"><mask id="s" fill="#fff"><use xlink:href="#r"/></mask><g mask="url(#s)"><path d="M74.696 68.166a2.188 2.188 0 1 0-4.377 0 2.189 2.189 0 0 0 4.377 0" fill="#FFF" fill-rule="nonzero"/><g transform="translate(75.905 129.838)"><mask id="u" fill="#fff"><use xlink:href="#t"/></mask><g opacity=".5" mask="url(#u)"><mask id="w" fill="#fff"><use xlink:href="#v"/></mask><g mask="url(#w)" fill-rule="nonzero" fill="url(#x)"><path d="M9.864 4.566a4.494 4.494 0 1 0-8.989 0 4.494 4.494 0 0 0 8.989 0"/></g></g></g></g></g></g></svg>