<svg width="155" height="155" viewBox="0 0 155 155" xmlns="http://www.w3.org/2000/svg" xmlns:xlink="http://www.w3.org/1999/xlink"><defs><path id="a" d="M0 199.75h199.75V0H0z"/><path id="c" d="M.42 74.709h79.76V.246H.42z"/><path d="M75.31 5.766a5.495 5.495 0 0 1-5.495 5.495h-.761a5.496 5.496 0 0 0 0 10.991h1.617a6.552 6.552 0 1 1 0 13.105h-8.687c-5.434 0-9.84 4.404-9.84 9.838 0 5.433 4.406 9.837 9.84 9.837h8.36c5.432 0 9.837 4.405 9.837 9.838 0 5.434-4.405 9.839-9.838 9.839H32.481h1.194a7.444 7.444 0 0 1 0-14.888h2.574a1.904 1.904 0 0 0 0-3.809H13.403C6.233 56.012.42 50.199.42 43.028c0-7.17 5.813-12.984 12.984-12.984h17.713a7.444 7.444 0 1 0 0-14.887H20.99a7.444 7.444 0 0 1-7.444-7.444c0-1.937-.04-7.467-.04-7.467s5.31.024 7.484.024h48.825a5.496 5.496 0 0 1 5.495 5.496" id="e"/><linearGradient x1="-57.032%" y1="138.202%" x2="156.893%" y2="-31.626%" id="g"><stop offset="0%"/><stop offset="10.27%"/><stop stop-color="#7E5FAA" offset="100%"/></linearGradient><path id="h" d="M.799 27.114h26.966V.148H.8z"/><path d="M.933 29.168c0-16.061 13.019-29.08 29.08-29.08 16.06 0 29.08 13.019 29.08 29.08s-13.02 29.08-29.08 29.08c-16.061 0-29.08-13.019-29.08-29.08" id="j"/><linearGradient x1="60.639%" y1="-11.954%" x2="38.08%" y2="119.415%" id="l"><stop stop-color="#A9AEFF" offset="0%"/><stop stop-color="#A992FF" offset="19.27%"/><stop stop-color="#A992FF" offset="25.483%"/><stop stop-color="#ACA5FF" offset="43.311%"/><stop stop-color="#ACECFE" offset="100%"/></linearGradient><path id="m" d="M0 199.75h199.75V0H0z"/><linearGradient x1="0%" y1="49.999%" x2="100.001%" y2="49.999%" id="o"><stop stop-color="#844EC6" offset="0%"/><stop stop-color="#844EC6" offset="6.795%"/><stop stop-color="#9071FF" offset="100%"/></linearGradient><linearGradient x1="-14.766%" y1="52.704%" x2="121.159%" y2="76.159%" id="p"><stop stop-color="#844EC6" offset="0%"/><stop stop-color="#844EC6" offset="6.795%"/><stop stop-color="#9071FF" offset="100%"/></linearGradient><path id="q" d="M0 199.75h199.75V0H0z"/><linearGradient x1="-47.855%" y1="49.994%" x2="260.969%" y2="49.994%" id="s"><stop stop-color="#844EC6" offset="0%"/><stop stop-color="#844EC6" offset="6.795%"/><stop stop-color="#9071FF" offset="100%"/></linearGradient><path id="t" d="M0 199.75h199.75V0H0z"/><path id="v" d="M.797 1.76h1.446V.314H.797z"/><path id="x" d="M.587 1.43H1.2V.817H.587z"/><path id="z" d="M.75 1.128h.614V.515H.75z"/><path id="B" d="M.577.836h.614V.223H.577z"/><path id="D" d="M.287.79h.347V.443H.287z"/><path id="F" d="M.714 1.231h.347V.884H.714z"/><path id="H" d="M.105.388h.347V.041H.105z"/><path id="J" d="M.997 1.126h.347V.78H.997z"/><path id="L" d="M.742 1.302h.348V.955H.742z"/><path id="N" d="M.757.914h.347V.567H.757z"/><path id="P" d="M.983 1.206h.614V.592H.983z"/><path id="R" d="M.375 1.227h.614V.613H.375z"/><path id="T" d="M.397.516h.347V.169H.397z"/><path id="V" d="M.858 1.236h.346V.89H.858z"/><path id="X" d="M.54 1.057h.346V.71H.54z"/><path id="Z" d="M.776.576h.348V.23H.776z"/><path id="ab" d="M.428 1.16h.347V.811H.428z"/><path id="ad" d="M.12.554h.346V.207H.12z"/><path id="af" d="M.024.993h.614V.379H.024z"/><path id="ah" d="M.414 1.014h.615V.4H.414z"/><path id="aj" d="M.437 1.302h.347V.955H.437z"/><path id="al" d="M.898 1.024h.346V.676H.898z"/><path id="an" d="M.58.845h.346V.497H.579z"/><path id="ap" d="M.816.364h.348V.016H.816z"/><path id="ar" d="M.467.947h.348V.6H.467z"/><path id="at" d="M.16 1.34h.346V.993H.16z"/></defs><g fill="none" fill-rule="evenodd"><g transform="matrix(1 0 0 -1 -22 177.75)"><mask id="b" fill="#fff"><use xlink:href="#a"/></mask><g mask="url(#b)"><g transform="translate(51.935 60.924)"><mask id="d" fill="#fff"><use xlink:href="#c"/></mask><g mask="url(#d)"><mask id="f" fill="#fff"><use xlink:href="#e"/></mask><g mask="url(#f)" fill-rule="nonzero" fill="url(#g)"><path d="M75.31 5.766a5.495 5.495 0 0 1-5.495 5.495h-.761a5.496 5.496 0 0 0 0 10.991h1.617a6.552 6.552 0 1 1 0 13.105h-8.687c-5.434 0-9.84 4.404-9.84 9.838 0 5.433 4.406 9.837 9.84 9.837h8.36c5.432 0 9.837 4.405 9.837 9.838 0 5.434-4.405 9.839-9.838 9.839H32.481h1.194a7.444 7.444 0 0 1 0-14.888h2.574a1.904 1.904 0 0 0 0-3.809H13.403C6.233 56.012.42 50.199.42 43.028c0-7.17 5.813-12.984 12.984-12.984h17.713a7.444 7.444 0 1 0 0-14.887H20.99a7.444 7.444 0 0 1-7.444-7.444c0-1.937-.04-7.467-.04-7.467s5.31.024 7.484.024h48.825a5.496 5.496 0 0 1 5.495 5.496"/></g></g></g><g transform="translate(113.858 74.906)"><mask id="i" fill="#fff"><use xlink:href="#h"/></mask><g opacity=".56" mask="url(#i)"><path d="M27.765 13.63C27.765 6.185 21.73.149 14.282.149 6.835.148.8 6.184.8 13.63c0 7.446 6.036 13.483 13.483 13.483 7.447 0 13.483-6.037 13.483-13.483" fill="#FF7D4A" fill-rule="nonzero"/></g></g></g></g><g transform="matrix(1 0 0 -1 61.895 90.859)"><mask id="k" fill="#fff"><use xlink:href="#j"/></mask><g mask="url(#k)" fill-rule="nonzero" fill="url(#l)"><path d="M.933 29.168c0-16.061 13.019-29.08 29.08-29.08 16.06 0 29.08 13.019 29.08 29.08s-13.02 29.08-29.08 29.08c-16.061 0-29.08-13.019-29.08-29.08"/></g></g><g transform="matrix(1 0 0 -1 -22 177.75)"><mask id="n" fill="#fff"><use xlink:href="#m"/></mask><g mask="url(#n)"><path d="M108.795 128.958a1.54 1.54 0 0 0-1.532 1.546c0 .413.158.803.446 1.096.29.295.676.458 1.086.458.845 0 1.533-.698 1.533-1.554 0-.853-.688-1.546-1.533-1.546zm13.518.975c0 2.257-2.023 3.776-4.02 4.109-1.465.244-3.057.357-4.608.361a25.338 25.338 0 0 1-4.216-.36c-3.467-.611-4.026-1.713-4.026-4.109v-2.85h9.035v-2.339h-13.023c-2.515 0-4.457-1.58-5.066-4.124-.823-3.413-.823-5.494 0-8.906.451-1.88 1.551-4.125 4.224-4.125h2.51v3.533c0 3.366 2.859 6.209 6.242 6.209h9.025c2.163 0 3.923 1.792 3.923 3.996v8.605z" fill="#FFF" fill-rule="nonzero"/></g></g><path d="M19.762 27.867V24.45c0-3.427-2.857-6.324-6.24-6.324H4.494c-2.125 0-3.922-1.831-3.922-3.997V5.524c0-2.453 2.562-3.571 4.09-4.02 3.026-.89 5.625-.89 8.692 0 2.713.786 4.088 2.138 4.088 4.02v2.848H8.417v2.34h14.14c2.17 0 3.034 1.406 3.954 4.171.89 2.672.886 5.237-.013 8.853-.71 2.858-1.925 4.131-3.94 4.131h-2.796zm-7.32-22.914c0 .918.74 1.663 1.647 1.663.91 0 1.65-.745 1.65-1.663 0-.92-.74-1.671-1.65-1.671-.907 0-1.648.751-1.648 1.67z" transform="matrix(1 0 0 -1 82.869 80.871)" fill-rule="nonzero" fill="url(#o)"/><path d="M7.41 17.06c-2.367 0-4.588-.634-6.5-1.741.019-.037.037-.073.057-.109l1.618-2.99a2.48 2.48 0 0 0 .028-2.307L1.069 6.885c-.935-1.831.637-3.94 2.66-3.567l3.341.614a2.48 2.48 0 0 0 2.205-.685L11.676.842C13.13-.613 15.621.23 15.892 2.268l.448 3.37c.106.81.605 1.514 1.333 1.884l3.03 1.542c1.833.933 1.8 3.562-.055 4.45l-3.065 1.465a2.486 2.486 0 0 0-1.381 1.852l-.036.23H7.41z" transform="matrix(1 0 0 -1 35.928 77.875)" fill-rule="nonzero" fill="url(#p)"/><g transform="matrix(1 0 0 -1 -22 177.75)"><mask id="r" fill="#fff"><use xlink:href="#q"/></mask><g mask="url(#r)"><path d="M74.696 68.166a2.188 2.188 0 1 0-4.377 0 2.189 2.189 0 0 0 4.377 0" fill="#FFF" fill-rule="nonzero"/></g></g><path d="M.874 4.566A4.494 4.494 0 0 1 5.368.072a4.494 4.494 0 1 1 0 8.989A4.495 4.495 0 0 1 .874 4.566" transform="matrix(1 0 0 -1 53.905 47.913)" fill-rule="nonzero" fill="url(#s)"/><g transform="matrix(1 0 0 -1 -22 177.75)"><mask id="u" fill="#fff"><use xlink:href="#t"/></mask><g mask="url(#u)"><path d="M91.232 143.143a1.998 1.998 0 1 0-3.995 0 1.998 1.998 0 0 0 3.995 0" fill="#F2D581" fill-rule="nonzero"/><g transform="translate(99.875 83.895)"><mask id="w" fill="#fff"><use xlink:href="#v"/></mask><g opacity=".95" mask="url(#w)" fill-rule="nonzero" fill="#FFF"><path d="M1.518.314a.721.721 0 1 0 .005 1.446.723.723 0 0 0-.005-1.446"/></g></g><g transform="translate(94.881 79.9)"><mask id="y" fill="#fff"><use xlink:href="#x"/></mask><g opacity=".95" mask="url(#y)"><path d="M.892.817a.307.307 0 1 0 .003.613.307.307 0 0 0-.003-.613" fill="#FFF" fill-rule="nonzero"/></g></g><g transform="translate(67.915 61.923)"><mask id="A" fill="#fff"><use xlink:href="#z"/></mask><g opacity=".95" mask="url(#A)" fill-rule="nonzero" fill="#FFF"><path d="M1.056.514a.307.307 0 1 0 .002.614.307.307 0 0 0-.002-.614"/></g></g><g transform="translate(79.9 96.879)"><mask id="C" fill="#fff"><use xlink:href="#B"/></mask><g opacity=".95" mask="url(#C)"><path d="M.883.223a.307.307 0 1 0 .003.613.307.307 0 0 0-.003-.613" fill="#FFF" fill-rule="nonzero"/></g></g><g transform="translate(91.885 80.899)"><mask id="E" fill="#fff"><use xlink:href="#D"/></mask><g opacity=".95" mask="url(#E)"><path d="M.46.443a.173.173 0 1 0 0 .347.172.172 0 0 0 .173-.174A.172.172 0 0 0 .46.443" fill="#FFF" fill-rule="nonzero"/></g></g><g transform="translate(71.91 82.896)"><mask id="G" fill="#fff"><use xlink:href="#F"/></mask><g opacity=".95" mask="url(#G)"><path d="M.887.885a.173.173 0 1 0 0 .346.172.172 0 0 0 .173-.173.172.172 0 0 0-.173-.173" fill="#FFF" fill-rule="nonzero"/></g></g><g transform="translate(70.911 63.92)"><mask id="I" fill="#fff"><use xlink:href="#H"/></mask><g opacity=".95" mask="url(#I)"><path d="M.277.041a.173.173 0 0 0-.172.174A.173.173 0 1 0 .45.214.173.173 0 0 0 .277.041" fill="#FFF" fill-rule="nonzero"/></g></g><g transform="translate(73.908 93.883)"><mask id="K" fill="#fff"><use xlink:href="#J"/></mask><g opacity=".95" mask="url(#K)" fill-rule="nonzero" fill="#FFF"><path d="M1.17.78a.173.173 0 1 0 0 .346.172.172 0 0 0 .174-.174A.172.172 0 0 0 1.17.78"/></g></g><g transform="translate(103.87 82.896)"><mask id="M" fill="#fff"><use xlink:href="#L"/></mask><g opacity=".95" mask="url(#M)"><path d="M.915.955a.173.173 0 1 0 .001.347.172.172 0 0 0 .173-.174.172.172 0 0 0-.174-.173" fill="#FFF" fill-rule="nonzero"/></g></g><g transform="translate(106.866 84.894)"><mask id="O" fill="#fff"><use xlink:href="#N"/></mask><g opacity=".95" mask="url(#O)"><path d="M.93.567a.173.173 0 1 0 0 .347.172.172 0 0 0 .174-.174A.172.172 0 0 0 .93.567" fill="#FFF" fill-rule="nonzero"/></g></g><g transform="translate(96.879 66.916)"><mask id="Q" fill="#fff"><use xlink:href="#P"/></mask><g opacity=".95" mask="url(#Q)" fill-rule="nonzero" fill="#FFF"><path d="M1.012 1.03c.072.152.255.219.408.146a.306.306 0 1 0-.26-.555.307.307 0 0 0-.148.408"/></g></g><g transform="translate(104.869 70.911)"><mask id="S" fill="#fff"><use xlink:href="#R"/></mask><g opacity=".95" mask="url(#S)"><path d="M.404 1.05A.307.307 0 1 0 .959.789a.307.307 0 0 0-.555.26" fill="#FFF" fill-rule="nonzero"/></g></g><g transform="translate(90.886 67.915)"><mask id="U" fill="#fff"><use xlink:href="#T"/></mask><g opacity=".95" mask="url(#U)"><path d="M.413.416C.454.503.557.54.644.5A.175.175 0 0 0 .728.269a.173.173 0 1 0-.315.147" fill="#FFF" fill-rule="nonzero"/></g></g><g transform="translate(100.874 83.895)"><mask id="W" fill="#fff"><use xlink:href="#V"/></mask><g opacity=".95" mask="url(#W)"><path d="M.874 1.137c.04.086.144.123.23.082A.173.173 0 1 0 .959.906a.173.173 0 0 0-.084.23" fill="#FFF" fill-rule="nonzero"/></g></g><g transform="translate(83.895 93.883)"><mask id="Y" fill="#fff"><use xlink:href="#X"/></mask><g opacity=".95" mask="url(#Y)"><path d="M.556.957A.173.173 0 1 0 .87.811a.173.173 0 0 0-.314.146" fill="#FFF" fill-rule="nonzero"/></g></g><g transform="translate(109.863 77.903)"><mask id="aa" fill="#fff"><use xlink:href="#Z"/></mask><g opacity=".95" mask="url(#aa)"><path d="M.792.476C.833.563.936.6 1.023.56A.173.173 0 1 0 .876.246a.173.173 0 0 0-.084.23" fill="#FFF" fill-rule="nonzero"/></g></g><g transform="translate(87.89 54.931)"><mask id="ac" fill="#fff"><use xlink:href="#ab"/></mask><g opacity=".95" mask="url(#ac)"><path d="M.444 1.06c.04.086.144.123.23.083A.175.175 0 0 0 .76.913a.173.173 0 1 0-.315.147" fill="#FFF" fill-rule="nonzero"/></g></g><g transform="translate(78.901 58.926)"><mask id="ae" fill="#fff"><use xlink:href="#ad"/></mask><g opacity=".95" mask="url(#ae)"><path d="M.136.454A.173.173 0 1 0 .45.308a.173.173 0 0 0-.314.146" fill="#FFF" fill-rule="nonzero"/></g></g><g transform="translate(133.833 88.889)"><mask id="ag" fill="#fff"><use xlink:href="#af"/></mask><g opacity=".95" mask="url(#ag)"><path d="M.053.817c.072.152.255.22.408.146A.306.306 0 1 0 .2.408a.307.307 0 0 0-.148.409" fill="#FFF" fill-rule="nonzero"/></g></g><g transform="translate(140.824 92.884)"><mask id="ai" fill="#fff"><use xlink:href="#ah"/></mask><g opacity=".95" mask="url(#ai)"><path d="M.444.837c.072.153.255.22.407.147A.306.306 0 1 0 .591.43a.306.306 0 0 0-.147.407" fill="#FFF" fill-rule="nonzero"/></g></g><g transform="translate(126.841 88.889)"><mask id="ak" fill="#fff"><use xlink:href="#aj"/></mask><g opacity=".95" mask="url(#ak)"><path d="M.454 1.202c.04.087.143.124.23.084A.174.174 0 0 0 .536.97a.174.174 0 0 0-.082.23" fill="#FFF" fill-rule="nonzero"/></g></g><g transform="translate(136.829 105.868)"><mask id="am" fill="#fff"><use xlink:href="#al"/></mask><g opacity=".95" mask="url(#am)"><path d="M.914.924a.173.173 0 1 0 .084-.23.173.173 0 0 0-.084.23" fill="#FFF" fill-rule="nonzero"/></g></g><g transform="translate(119.85 115.855)"><mask id="ao" fill="#fff"><use xlink:href="#an"/></mask><g opacity=".95" mask="url(#ao)"><path d="M.596.744A.173.173 0 1 0 .91.598a.173.173 0 0 0-.314.146" fill="#FFF" fill-rule="nonzero"/></g></g><g transform="translate(145.818 99.875)"><mask id="aq" fill="#fff"><use xlink:href="#ap"/></mask><g opacity=".95" mask="url(#aq)"><path d="M.832.264c.041.087.144.124.231.083A.173.173 0 1 0 .916.033a.173.173 0 0 0-.084.23" fill="#FFF" fill-rule="nonzero"/></g></g><g transform="translate(123.845 76.904)"><mask id="as" fill="#fff"><use xlink:href="#ar"/></mask><g opacity=".95" mask="url(#as)"><path d="M.484.847c.04.087.144.124.23.084A.175.175 0 0 0 .8.7a.173.173 0 1 0-.315.147" fill="#FFF" fill-rule="nonzero"/></g></g><g transform="translate(114.856 79.9)"><mask id="au" fill="#fff"><use xlink:href="#at"/></mask><g opacity=".95" mask="url(#au)"><path d="M.176 1.24a.173.173 0 1 0 .314-.146.173.173 0 0 0-.314.146" fill="#FFF" fill-rule="nonzero"/></g></g></g></g></g></svg>