<?xml version="1.0" encoding="utf-8"?>
<!-- Generator: Adobe Illustrator 21.1.0, SVG Export Plug-In . SVG Version: 6.00 Build 0)  -->
<svg version="1.1" id="Layer_1" xmlns="http://www.w3.org/2000/svg" xmlns:xlink="http://www.w3.org/1999/xlink" x="0px" y="0px"
	 viewBox="0 0 69.3 64" style="enable-background:new 0 0 69.3 64;" width="160px" height="160px" xml:space="preserve">
<style type="text/css">
	.st0{fill:#010101;}
</style>
<path class="st0" d="M60.9,48.7c-2.6-2.4-5-5.1-7.9-7.1c-1-0.7-1.8,0.7-1.2,1.5c1.7,2.1,3.7,3.9,5.7,5.8
	c-10.8,0.3-21.5-2.8-30.3-9.3C17.2,32.1,12.3,22,8.4,10.4c-0.2-0.6-1.1-0.5-1.1,0.1c2.3,23.1,24.4,39,46.3,40.4
	c-0.5,0.2-1.1,0.5-1.6,0.7c-1.2,0.5-0.3,2.6,0.9,2.2c2.7-1,5.4-1.9,8.1-2.9C62.2,50.6,62.2,48.7,60.9,48.7z"/>
</svg>
