<?xml version="1.0" encoding="utf-8"?>
<!-- Generator: Adobe Illustrator 21.1.0, SVG Export Plug-In . SVG Version: 6.00 Build 0)  -->
<svg version="1.1" id="Layer_1" xmlns="http://www.w3.org/2000/svg" xmlns:xlink="http://www.w3.org/1999/xlink" x="0px" y="0px"
	 viewBox="0 0 160 160" style="enable-background:new 0 0 160 160;" width="160px" height="160px" xml:space="preserve">
<style type="text/css">
	.st0{fill:#010101;}
</style>
<path class="st0" d="M18.9,123.6c6.2,2.3,12.5,4.4,18.7,6.7c2.8,0.9,4.8-3.9,2.1-5.1c-1.2-0.5-2.5-1.2-3.7-1.6
	c50.6-3.2,101.6-39.9,106.9-93.3c0-1.4-2.1-1.6-2.5-0.2c-9,26.8-20.3,50.1-43.4,67.4c-20.3,15-45,22.2-70,21.5
	c4.6-4.4,9.2-8.5,13.2-13.4c1.4-1.8-0.5-5.1-2.8-3.5c-6.7,4.6-12.2,10.9-18.2,16.4C16.1,118.6,16.1,122.9,18.9,123.6z"/>
</svg>
