<svg width="155" height="155" viewBox="0 0 155 155" xmlns="http://www.w3.org/2000/svg" xmlns:xlink="http://www.w3.org/1999/xlink"><defs><path id="a" d="M0 199.75h199.75V0H0z"/><path d="M.575 12.173L12.648.1l11.13 12.072a16.352 16.352 0 0 1-11.601 4.806A16.354 16.354 0 0 1 .575 12.173" id="c"/><linearGradient x1="25.001%" y1="105.894%" x2="77.035%" y2="34.362%" id="e"><stop stop-color="#A0A5D3" offset="0%"/><stop stop-color="#D4CFDD" offset="75.617%"/><stop stop-color="#D4CFDD" offset="100%"/></linearGradient><path id="f" d="M0 199.75h199.75V0H0z"/><path id="h" d="M.442 23.436H17.32V.233H.442z"/><path d="M12.515 23.436c6.407-6.408 6.407-16.795 0-23.203L.441 12.307" id="j"/><linearGradient x1="34.369%" y1="77.034%" x2="105.895%" y2="25.001%" id="l"><stop stop-color="#A0A5D3" offset="0%"/><stop stop-color="#D4CFDD" offset="75.617%"/><stop stop-color="#D4CFDD" offset="100%"/></linearGradient><path id="m" d="M.152 7.352h6.715V.637H.152z"/><path d="M3.51 7.352a3.357 3.357 0 1 0 0-6.715 3.357 3.357 0 0 0 0 6.715" id="o"/><linearGradient x1=".003%" y1="50.007%" x2="100.001%" y2="50.007%" id="q"><stop stop-color="#1554FF" offset="0%"/><stop stop-color="#1554FF" offset="13.048%"/><stop stop-color="#4690F9" offset="100%"/></linearGradient><path d="M29.937 50.15l-.008.006-.07-.08c-.07-.068-.141-.13-.211-.2l.02-.018L.236 15.963 15.307.891 49.2 30.325l.02-.02c.068.068.131.142.2.212l.081.069-.008.008C60.92 42.327 60.636 61.292 60.636 61.292h-.124c-1.65 0-19.394-.256-30.575-11.143" id="r"/><linearGradient x1="20.168%" y1="51.302%" x2="113.929%" y2="48.417%" id="t"><stop stop-color="#A0A5D3" offset="0%"/><stop stop-color="#D4CFDD" offset="75.617%"/><stop stop-color="#D4CFDD" offset="100%"/></linearGradient><path d="M.423 8.783L8.316.891l33.893 29.434.02-.02c.068.068.131.142.2.212l.08.069-.007.008c11.426 11.733 11.143 30.698 11.143 30.698L.423 8.783z" id="u"/><linearGradient x1="-115.914%" y1="48.212%" x2="56.03%" y2="49.986%" id="w"><stop stop-color="#A0A5D3" offset="0%"/><stop stop-color="#D4CFDD" offset="75.617%"/><stop stop-color="#D4CFDD" offset="100%"/></linearGradient><path id="x" d="M0 199.75h199.75V0H0z"/></defs><g fill="none" fill-rule="evenodd"><g transform="matrix(1 0 0 -1 -22 177.75)"><mask id="b" fill="#fff"><use xlink:href="#a"/></mask><g mask="url(#b)"><path d="M58.161 77.043L80.91 54.294A8.645 8.645 0 0 1 93.135 66.52l-8.429 8.43.026-.025a1.268 1.268 0 0 0 1.792 1.793l3.548-3.55-.35.352 1.135-1.136-.3.3a4.954 4.954 0 0 1 7.01 0 4.955 4.955 0 0 1 0 7.009L79.189 98.07M124.429 143.492l28.694-28.694c2.406-2.407 2.378-6.335-.063-8.776-2.44-2.44-6.369-2.468-8.775-.063l-1.04 1.042.435-.437c-2.406 2.406-6.334 2.377-8.775-.063-2.441-2.44-2.469-6.369-.064-8.775l7.443-7.442c4.196-4.197 4.146-11.049-.11-15.306-4.258-4.257-11.11-4.306-15.306-.11L116.39 85.345l.031-.031a1.588 1.588 0 0 1-2.244-.017 1.587 1.587 0 0 1-.016-2.244l4.41-4.41-.436.436 1.412-1.413-.373.374c2.405-2.405 2.377-6.334-.063-8.775-2.441-2.441-6.37-2.469-8.775-.064l-30.1 30.1" fill="#000" fill-rule="nonzero"/><path d="M66.792 80.9c-5.653-5.653-13.61-6.862-13.61-6.862s1.208 7.957 6.86 13.61c5.654 5.653 13.61 6.861 13.61 6.861s-1.208-7.957-6.86-13.61" fill="#FF7D4A" fill-rule="nonzero"/><path d="M70.836 87.577c-3.191-3.19-7.683-3.873-7.683-3.873s.683 4.491 3.874 7.681c3.19 3.192 7.68 3.873 7.68 3.873s-.681-4.491-3.871-7.681" fill="#FFCA9F" fill-rule="nonzero"/><path fill="#615777" fill-rule="nonzero" d="M74.138 84.872L64.24 94.77l4.5 4.5 9.898-9.899z"/></g></g><g transform="matrix(1 0 0 -1 42.919 75.878)"><mask id="d" fill="#fff"><use xlink:href="#c"/></mask><g mask="url(#d)" fill-rule="nonzero" fill="url(#e)"><path d="M.575 12.173L12.648.1l11.13 12.072a16.352 16.352 0 0 1-11.601 4.806A16.354 16.354 0 0 1 .575 12.173"/></g></g><g transform="matrix(1 0 0 -1 -22 177.75)"><mask id="g" fill="#fff"><use xlink:href="#f"/></mask><g mask="url(#g)"><g transform="translate(80.899 85.893)"><mask id="i" fill="#fff"><use xlink:href="#h"/></mask><g opacity=".95" mask="url(#i)"><mask id="k" fill="#fff"><use xlink:href="#j"/></mask><g mask="url(#k)" fill-rule="nonzero" fill="url(#l)"><path d="M12.515 23.436c6.407-6.408 6.407-16.795 0-23.203L.441 12.307"/></g></g></g><g transform="translate(128.839 114.856)"><mask id="n" fill="#fff"><use xlink:href="#m"/></mask><g opacity=".95" mask="url(#n)"><mask id="p" fill="#fff"><use xlink:href="#o"/></mask><g mask="url(#p)" fill-rule="nonzero" fill="url(#q)"><path d="M3.51 7.352a3.357 3.357 0 1 0 0-6.715 3.357 3.357 0 0 0 0 6.715"/></g></g></g></g></g><g transform="matrix(1 0 0 -1 43.918 91.858)"><mask id="s" fill="#fff"><use xlink:href="#r"/></mask><g mask="url(#s)" fill-rule="nonzero" fill="url(#t)"><path d="M29.937 50.15l-.008.006-.07-.08c-.07-.068-.141-.13-.211-.2l.02-.018L.236 15.963 15.307.891 49.2 30.325l.02-.02c.068.068.131.142.2.212l.081.069-.008.008C60.92 42.327 60.636 61.292 60.636 61.292h-.124c-1.65 0-19.394-.256-30.575-11.143"/></g></g><g transform="matrix(1 0 0 -1 50.909 91.858)"><mask id="v" fill="#fff"><use xlink:href="#u"/></mask><g mask="url(#v)" fill-rule="nonzero" fill="url(#w)"><path d="M.423 8.783L8.316.891l33.893 29.434.02-.02c.068.068.131.142.2.212l.08.069-.007.008c11.426 11.733 11.143 30.698 11.143 30.698L.423 8.783z"/></g></g><g transform="matrix(1 0 0 -1 -22 177.75)"><mask id="y" fill="#fff"><use xlink:href="#x"/></mask><g mask="url(#y)"><path d="M104.67 119.418a5.398 5.398 0 0 0-3.842 1.592 5.393 5.393 0 0 0-1.591 3.84c0 1.453.564 2.817 1.59 3.843a5.402 5.402 0 0 0 3.843 1.592 5.402 5.402 0 0 0 3.842-1.592 5.394 5.394 0 0 0 1.591-3.842 5.393 5.393 0 0 0-1.59-3.841 5.398 5.398 0 0 0-3.843-1.592" fill="#9CD7FF" fill-rule="nonzero"/><path d="M104.67 131.209a6.315 6.315 0 0 1-4.495-1.862 6.364 6.364 0 0 1 0-8.99 6.315 6.315 0 0 1 4.495-1.862c1.698 0 3.295.66 4.495 1.861a6.364 6.364 0 0 1 0 8.991 6.317 6.317 0 0 1-4.495 1.862m0-1.849a4.508 4.508 0 1 0 0-9.018 4.51 4.51 0 1 0 0 9.018" fill="#403559" fill-rule="nonzero"/></g></g></g></svg>