<svg width="155" height="155" viewBox="0 0 155 155" xmlns="http://www.w3.org/2000/svg" xmlns:xlink="http://www.w3.org/1999/xlink"><defs><path id="a" d="M0 199.75h199.75V0H0z"/><path d="M.338 32.384L30.436 2.285c2.406-2.405 6.334-2.376 8.775.063 2.44 2.441 2.469 6.37.063 8.776l-1.039 1.039.436-.437-4.409 4.41a1.588 1.588 0 0 0 .016 2.245 1.587 1.587 0 0 0 2.244.016l-.032.032L46.967 7.951c4.197-4.196 11.05-4.147 15.306.112 4.258 4.256 4.307 11.109.111 15.305l-7.443 7.442c-2.405 2.405-2.378 6.334.063 8.776 2.421 2.42 6.305 2.466 8.716.122l.665-.665c2.406-2.406 6.335-2.378 8.775.063 2.44 2.44 2.468 6.37.063 8.775L44.528 76.575.338 32.384zm38.936-21.26l.373-.373-.373.373z" id="c"/><linearGradient x1="0%" y1="50%" y2="50%" id="e"><stop offset="0%"/><stop offset="10.27%"/><stop stop-color="#7E5FAA" offset="100%"/></linearGradient><path id="f" d="M0 199.75h199.75V0H0z"/><path d="M.575 12.173L12.648.1l11.13 12.073a16.352 16.352 0 0 1-11.601 4.806A16.354 16.354 0 0 1 .575 12.173" id="h"/><linearGradient x1="25.001%" y1="105.893%" x2="77.035%" y2="34.366%" id="j"><stop stop-color="#A0A5D3" offset="0%"/><stop stop-color="#D4CFDD" offset="75.617%"/><stop stop-color="#D4CFDD" offset="100%"/></linearGradient><path id="k" d="M0 199.75h199.75V0H0z"/><path id="m" d="M.442 23.436H17.32V.233H.442z"/><path d="M12.515 23.436c6.407-6.407 6.407-16.795 0-23.203L.441 12.306" id="o"/><linearGradient x1="34.369%" y1="77.034%" x2="105.895%" y2="25.001%" id="q"><stop stop-color="#5C8EFF" offset="0%"/><stop stop-color="#1554FF" offset="21.15%"/><stop stop-color="#4690F9" offset="100%"/></linearGradient><path id="r" d="M.715 3.92h3.26V.66H.716z"/><path d="M2.346 3.921A1.631 1.631 0 1 0 2.344.66a1.631 1.631 0 0 0 .002 3.262" id="t"/><linearGradient x1=".005%" y1="49.987%" x2="99.994%" y2="49.987%" id="v"><stop stop-color="#1554FF" offset="0%"/><stop stop-color="#1554FF" offset="13.048%"/><stop stop-color="#4690F9" offset="100%"/></linearGradient><path d="M29.937 50.15l-.008.006-.07-.08c-.07-.068-.141-.13-.211-.2l.02-.02L.236 15.965 15.307.891 49.2 30.326l.02-.02c.068.068.131.14.2.21l.081.07-.008.007c11.426 11.734 11.143 30.7 11.143 30.7h-.123c-1.642 0-19.393-.255-30.576-11.144" id="w"/><linearGradient x1="20.168%" y1="51.301%" x2="113.929%" y2="48.416%" id="y"><stop stop-color="#A0A5D3" offset="0%"/><stop stop-color="#D4CFDD" offset="75.617%"/><stop stop-color="#D4CFDD" offset="100%"/></linearGradient><path d="M.423 8.783L8.316.891l33.893 29.435.02-.02c.068.068.131.14.2.21l.08.07-.007.007c11.426 11.734 11.143 30.7 11.143 30.7L.423 8.783z" id="z"/><linearGradient x1="-115.914%" y1="48.211%" x2="56.03%" y2="49.985%" id="B"><stop stop-color="#A0A5D3" offset="0%"/><stop stop-color="#D4CFDD" offset="75.617%"/><stop stop-color="#D4CFDD" offset="100%"/></linearGradient><path id="C" d="M0 199.75h199.75V0H0z"/><path d="M.338 32.384L30.436 2.285c2.406-2.405 6.334-2.376 8.775.063 2.44 2.441 2.469 6.37.063 8.776l-1.039 1.039.436-.437-4.409 4.41a1.588 1.588 0 0 0 .016 2.245 1.587 1.587 0 0 0 2.244.016l-.032.032L46.967 7.951c4.197-4.196 11.05-4.147 15.306.112 4.258 4.256 4.307 11.109.111 15.305l-7.443 7.442c-2.405 2.405-2.378 6.334.063 8.776 2.421 2.42 6.305 2.466 8.716.122l.665-.665c2.406-2.406 6.335-2.378 8.775.063 2.44 2.44 2.468 6.37.063 8.775L44.528 76.575.338 32.384zm38.936-21.26l.373-.373-.373.373z" id="E"/><path id="G" d="M.646 33.376h32.85V.526H.646z"/><path d="M33.496 16.952C33.496 7.88 26.142.526 17.072.526 8 .526.646 7.88.646 16.952c0 9.071 7.354 16.424 16.426 16.424 9.07 0 16.424-7.353 16.424-16.424" id="I"/><linearGradient x1=".001%" y1="50%" y2="50%" id="K"><stop stop-color="#844EC6" offset="0%"/><stop stop-color="#844EC6" offset="6.795%"/><stop stop-color="#9071FF" offset="100%"/></linearGradient></defs><g fill="none" fill-rule="evenodd"><g transform="matrix(1 0 0 -1 -22 177.75)"><mask id="b" fill="#fff"><use xlink:href="#a"/></mask><g mask="url(#b)"><path d="M58.161 77.042L80.91 54.295a8.644 8.644 0 0 1 12.225 0 8.644 8.644 0 0 1 0 12.225l-8.429 8.43.026-.026a1.265 1.265 0 0 0 0 1.793 1.266 1.266 0 0 0 1.792 0l3.548-3.548-.35.35 1.135-1.136-.3.3a4.956 4.956 0 1 1 7.01 7.01L79.189 98.071" fill="#000" fill-rule="nonzero"/></g></g><g transform="matrix(1 0 0 -1 57.9 110.834)"><mask id="d" fill="#fff"><use xlink:href="#c"/></mask><g mask="url(#d)" fill-rule="nonzero" fill="url(#e)"><path d="M.338 32.384L30.436 2.285c2.406-2.405 6.334-2.376 8.775.063 2.44 2.441 2.469 6.37.063 8.776l-1.039 1.039.436-.437-4.409 4.41a1.588 1.588 0 0 0 .016 2.245 1.587 1.587 0 0 0 2.244.016l-.032.032L46.967 7.951c4.197-4.196 11.05-4.147 15.306.112 4.258 4.256 4.307 11.109.111 15.305l-7.443 7.442c-2.405 2.405-2.378 6.334.063 8.776 2.421 2.42 6.305 2.466 8.716.122l.665-.665c2.406-2.406 6.335-2.378 8.775.063 2.44 2.44 2.468 6.37.063 8.775L44.528 76.575.338 32.384zm38.936-21.26l.373-.373-.373.373z"/></g></g><g transform="matrix(1 0 0 -1 -22 177.75)"><mask id="g" fill="#fff"><use xlink:href="#f"/></mask><g mask="url(#g)"><path d="M66.792 80.899c-5.653-5.653-13.61-6.86-13.61-6.86s1.208 7.957 6.86 13.61c5.654 5.651 13.61 6.86 13.61 6.86s-1.208-7.957-6.86-13.61" fill="#FF7D4A" fill-rule="nonzero"/><path d="M70.836 87.577c-3.191-3.19-7.683-3.873-7.683-3.873s.683 4.491 3.874 7.681c3.19 3.191 7.68 3.874 7.68 3.874s-.681-4.492-3.871-7.682" fill="#FFCA9F" fill-rule="nonzero"/><path fill="#615777" fill-rule="nonzero" d="M74.138 84.872L64.24 94.77l4.5 4.5 9.898-9.9z"/></g></g><g transform="matrix(1 0 0 -1 42.919 75.878)"><mask id="i" fill="#fff"><use xlink:href="#h"/></mask><g mask="url(#i)" fill-rule="nonzero" fill="url(#j)"><path d="M.575 12.173L12.648.1l11.13 12.073a16.352 16.352 0 0 1-11.601 4.806A16.354 16.354 0 0 1 .575 12.173"/></g></g><g transform="matrix(1 0 0 -1 -22 177.75)"><mask id="l" fill="#fff"><use xlink:href="#k"/></mask><g mask="url(#l)"><g transform="translate(80.899 85.893)"><mask id="n" fill="#fff"><use xlink:href="#m"/></mask><g opacity=".95" mask="url(#n)"><mask id="p" fill="#fff"><use xlink:href="#o"/></mask><g mask="url(#p)" fill-rule="nonzero" fill="url(#q)"><path d="M12.515 23.436c6.407-6.407 6.407-16.795 0-23.203L.441 12.306"/></g></g></g><g transform="translate(53.933 94.881)"><mask id="s" fill="#fff"><use xlink:href="#r"/></mask><g opacity=".95" mask="url(#s)"><mask id="u" fill="#fff"><use xlink:href="#t"/></mask><g mask="url(#u)" fill-rule="nonzero" fill="url(#v)"><path d="M2.346 3.921A1.631 1.631 0 1 0 2.344.66a1.631 1.631 0 0 0 .002 3.262"/></g></g></g><path d="M130.456 112.427a11.183 11.183 0 0 0-.57-3.17c-.358-1-.84-1.924-1.4-2.77-1.148-1.669-2.568-3.02-4.078-4.15-3.045-2.237-6.416-3.708-9.837-4.827-6.872-2.188-14.02-2.94-21.086-2.79-7.06.18-14.132 1.277-20.756 3.733-3.293 1.247-6.494 2.842-9.245 5.066-1.363 1.119-2.595 2.418-3.53 3.915-.453.757-.826 1.56-1.087 2.4a9.297 9.297 0 0 0-.355 2.593 9.232 9.232 0 0 1 .473-2.555 10.99 10.99 0 0 1 1.179-2.303c.985-1.42 2.246-2.628 3.627-3.655 2.789-2.044 5.99-3.453 9.267-4.518 6.589-2.093 13.55-2.831 20.427-2.678 6.873.177 13.757 1.258 20.1 3.621 3.147 1.193 6.177 2.725 8.672 4.755 1.236 1.017 2.308 2.173 3.081 3.422.371.63.664 1.277.865 1.933.178.659.264 1.32.258 1.978v.045a1.997 1.997 0 1 0 3.996.038l-.001-.083" fill="#FFCA9F" fill-rule="nonzero"/></g></g><g transform="matrix(1 0 0 -1 43.918 91.858)"><mask id="x" fill="#fff"><use xlink:href="#w"/></mask><g mask="url(#x)" fill-rule="nonzero" fill="url(#y)"><path d="M29.937 50.15l-.008.006-.07-.08c-.07-.068-.141-.13-.211-.2l.02-.02L.236 15.965 15.307.891 49.2 30.326l.02-.02c.068.068.131.14.2.21l.081.07-.008.007c11.426 11.734 11.143 30.7 11.143 30.7h-.123c-1.642 0-19.393-.255-30.576-11.144"/></g></g><g transform="matrix(1 0 0 -1 50.909 91.858)"><mask id="A" fill="#fff"><use xlink:href="#z"/></mask><g mask="url(#A)" fill-rule="nonzero" fill="url(#B)"><path d="M.423 8.783L8.316.891l33.893 29.435.02-.02c.068.068.131.14.2.21l.08.07-.007.007c11.426 11.734 11.143 30.7 11.143 30.7L.423 8.783z"/></g></g><g transform="matrix(1 0 0 -1 -22 177.75)"><mask id="D" fill="#fff"><use xlink:href="#C"/></mask><g mask="url(#D)"><path d="M104.67 119.418a5.397 5.397 0 0 0-3.842 1.591 5.44 5.44 0 0 0 0 7.685 5.401 5.401 0 0 0 3.842 1.59 5.401 5.401 0 0 0 3.842-1.59 5.44 5.44 0 0 0 0-7.685 5.397 5.397 0 0 0-3.842-1.59" fill="#9CD7FF" fill-rule="nonzero"/><path d="M104.67 131.21a6.315 6.315 0 0 1-4.495-1.863 6.364 6.364 0 0 1 0-8.99 6.312 6.312 0 0 1 4.495-1.863c1.698 0 3.295.661 4.495 1.863a6.364 6.364 0 0 1 0 8.99 6.317 6.317 0 0 1-4.495 1.862m0-1.849a4.508 4.508 0 1 0 0-9.019 4.51 4.51 0 1 0 0 9.019" fill="#403559" fill-rule="nonzero"/></g></g><g transform="matrix(1 0 0 -1 57.9 110.834)"><mask id="F" fill="#fff"><use xlink:href="#E"/></mask><g mask="url(#F)"><g transform="translate(15.98 -6.991)"><mask id="H" fill="#fff"><use xlink:href="#G"/></mask><g opacity=".8" mask="url(#H)"><mask id="J" fill="#fff"><use xlink:href="#I"/></mask><g mask="url(#J)" fill-rule="nonzero" fill="url(#K)"><path d="M33.496 16.952C33.496 7.88 26.142.526 17.072.526 8 .526.646 7.88.646 16.952c0 9.071 7.354 16.424 16.426 16.424 9.07 0 16.424-7.353 16.424-16.424"/></g></g></g></g></g></g></svg>