<svg width="155" height="155" viewBox="0 0 155 155" xmlns="http://www.w3.org/2000/svg" xmlns:xlink="http://www.w3.org/1999/xlink"><defs><path d="M.234 26.106L22.982 3.358a8.645 8.645 0 0 1 12.226 12.226l-8.43 8.429.026-.025a1.266 1.266 0 0 0 0 1.792 1.264 1.264 0 0 0 1.792 0l3.549-3.547-.352.35 1.137-1.136-.3.3a4.957 4.957 0 0 1 7.01 7.008v.001L21.26 47.136.234 26.105z" id="a"/><linearGradient x1="0%" y1="50%" x2="100.001%" y2="50%" id="c"><stop offset="0%"/><stop offset="10.27%"/><stop stop-color="#7E5FAA" offset="100%"/></linearGradient><path id="d" d="M0 199.75h199.75V0H0z"/><path d="M.575 12.173L12.648.1l11.13 12.073a16.352 16.352 0 0 1-11.601 4.806A16.354 16.354 0 0 1 .575 12.173" id="f"/><linearGradient x1="25.001%" y1="105.893%" x2="77.035%" y2="34.366%" id="h"><stop stop-color="#A0A5D3" offset="0%"/><stop stop-color="#D4CFDD" offset="75.617%"/><stop stop-color="#D4CFDD" offset="100%"/></linearGradient><path id="i" d="M0 199.75h199.75V0H0z"/><path id="k" d="M.442 23.436H17.32V.233H.442z"/><path d="M12.515 23.436c6.407-6.407 6.407-16.795 0-23.202L.441 12.307" id="m"/><linearGradient x1="34.369%" y1="77.033%" x2="105.895%" y2="24.998%" id="o"><stop stop-color="#5C8EFF" offset="0%"/><stop stop-color="#1554FF" offset="21.15%"/><stop stop-color="#4690F9" offset="100%"/></linearGradient><path id="p" d="M.715 3.92h3.26V.66H.716z"/><path d="M2.346 3.92a1.63 1.63 0 1 0 0-3.26 1.63 1.63 0 0 0 0 3.26" id="r"/><linearGradient x1=".005%" y1="50.018%" x2="99.994%" y2="50.018%" id="t"><stop stop-color="#1554FF" offset="0%"/><stop stop-color="#1554FF" offset="13.048%"/><stop stop-color="#4690F9" offset="100%"/></linearGradient><path d="M29.937 50.15l-.008.007-.07-.082c-.07-.066-.141-.13-.211-.198l.02-.02L.236 15.963 15.307.892 49.2 30.325l.02-.02c.068.069.131.14.2.21l.081.072-.008.006c11.426 11.734 11.143 30.7 11.143 30.7h-.123c-1.642 0-19.393-.255-30.576-11.144" id="u"/><linearGradient x1="20.168%" y1="51.301%" x2="113.929%" y2="48.416%" id="w"><stop stop-color="#A0A5D3" offset="0%"/><stop stop-color="#D4CFDD" offset="75.617%"/><stop stop-color="#D4CFDD" offset="100%"/></linearGradient><path d="M.423 8.783L8.316.892l33.893 29.433.02-.02c.068.069.131.14.2.21l.08.072-.007.006c11.426 11.734 11.143 30.7 11.143 30.7L.423 8.783z" id="x"/><linearGradient x1="-115.914%" y1="48.21%" x2="56.03%" y2="49.985%" id="z"><stop stop-color="#A0A5D3" offset="0%"/><stop stop-color="#D4CFDD" offset="75.617%"/><stop stop-color="#D4CFDD" offset="100%"/></linearGradient><path id="A" d="M0 199.75h199.75V0H0z"/><path d="M.511 15.231L13.457 2.285c2.406-2.406 6.334-2.377 8.775.064 2.44 2.44 2.47 6.37.063 8.775l.374-.373-1.413 1.412.436-.436-4.409 4.409a1.588 1.588 0 0 0 .016 2.245 1.588 1.588 0 0 0 2.245.016l-.032.032L29.989 7.951a10.616 10.616 0 0 1 2.103-1.633 16.45 16.45 0 0 1 .405 3.643c0 9.07-7.353 16.424-16.424 16.424-7.228 0-13.365-4.668-15.562-11.154" id="C"/><linearGradient x1="-2.7%" y1="36.549%" y2="36.549%" id="E"><stop stop-color="#844EC6" offset="0%"/><stop stop-color="#844EC6" offset="6.795%"/><stop stop-color="#9071FF" offset="100%"/></linearGradient><path id="F" d="M0 199.75h199.75V0H0z"/><path id="H" d="M.537 2.788h1.808V.981H.537z"/><path id="J" d="M.095 1.146h.767V.379H.095z"/><path id="L" d="M.487 1.669h.767V.902H.487z"/><path id="N" d="M.3.85h.767V.083H.3z"/><path id="P" d="M.976 1.36h.433V.925H.976z"/><path id="R" d="M.74 1.227h.433V.794H.739z"/><path id="T" d="M.332.47h.433V.037H.332z"/><path id="V" d="M.75 1.359h.434V.925H.749z"/><path id="X" d="M.564 1.09h.434V.656H.564z"/></defs><g fill="none" fill-rule="evenodd"><g transform="matrix(1 0 0 -1 35.928 126.814)"><mask id="b" fill="#fff"><use xlink:href="#a"/></mask><g mask="url(#b)" fill-rule="nonzero" fill="url(#c)"><path d="M.234 26.106L22.982 3.358a8.645 8.645 0 0 1 12.226 12.226l-8.43 8.429.026-.025a1.266 1.266 0 0 0 0 1.792 1.264 1.264 0 0 0 1.792 0l3.549-3.547-.352.35 1.137-1.136-.3.3a4.957 4.957 0 0 1 7.01 7.008v.001L21.26 47.136.234 26.105z"/></g></g><g transform="matrix(1 0 0 -1 -22 177.75)"><mask id="e" fill="#fff"><use xlink:href="#d"/></mask><g mask="url(#e)"><path d="M124.429 143.492l28.694-28.694c2.406-2.406 2.378-6.334-.063-8.776-2.44-2.44-6.369-2.468-8.775-.062l-1.04 1.04.435-.436c-2.406 2.407-6.334 2.378-8.775-.063-2.441-2.44-2.469-6.37-.064-8.774l7.443-7.443c4.196-4.197 4.146-11.049-.11-15.307-4.258-4.255-11.11-4.305-15.306-.11L116.39 85.346l.031-.032a1.587 1.587 0 0 1-2.244-.017 1.587 1.587 0 0 1-.016-2.244l4.41-4.41-.436.437 1.412-1.412-.373.374c2.405-2.406 2.377-6.336-.063-8.775-2.441-2.442-6.37-2.47-8.775-.064L80.237 99.3" fill="#000" fill-rule="nonzero"/><path d="M66.792 80.9c-5.653-5.654-13.61-6.862-13.61-6.862s1.208 7.958 6.86 13.61c5.654 5.653 13.61 6.861 13.61 6.861s-1.208-7.957-6.86-13.61" fill="#FF7D4A" fill-rule="nonzero"/><path d="M70.836 87.576c-3.191-3.19-7.683-3.872-7.683-3.872s.683 4.49 3.874 7.682c3.19 3.19 7.68 3.872 7.68 3.872s-.681-4.49-3.871-7.682" fill="#FFCA9F" fill-rule="nonzero"/><path fill="#615777" fill-rule="nonzero" d="M74.138 84.872l-9.898 9.897 4.5 4.5 9.898-9.898z"/></g></g><g transform="matrix(1 0 0 -1 42.919 75.878)"><mask id="g" fill="#fff"><use xlink:href="#f"/></mask><g mask="url(#g)" fill-rule="nonzero" fill="url(#h)"><path d="M.575 12.173L12.648.1l11.13 12.073a16.352 16.352 0 0 1-11.601 4.806A16.354 16.354 0 0 1 .575 12.173"/></g></g><g transform="matrix(1 0 0 -1 -22 177.75)"><mask id="j" fill="#fff"><use xlink:href="#i"/></mask><g mask="url(#j)"><g transform="translate(80.899 85.893)"><mask id="l" fill="#fff"><use xlink:href="#k"/></mask><g opacity=".95" mask="url(#l)"><mask id="n" fill="#fff"><use xlink:href="#m"/></mask><g mask="url(#n)" fill-rule="nonzero" fill="url(#o)"><path d="M12.515 23.436c6.407-6.407 6.407-16.795 0-23.202L.441 12.307"/></g></g></g><g transform="translate(53.933 94.881)"><mask id="q" fill="#fff"><use xlink:href="#p"/></mask><g opacity=".95" mask="url(#q)"><mask id="s" fill="#fff"><use xlink:href="#r"/></mask><g mask="url(#s)" fill-rule="nonzero" fill="url(#t)"><path d="M2.346 3.92a1.63 1.63 0 1 0 0-3.26 1.63 1.63 0 0 0 0 3.26"/></g></g></g><path d="M130.456 112.427a11.183 11.183 0 0 0-.57-3.17c-.358-1-.84-1.924-1.4-2.77-1.148-1.668-2.568-3.02-4.078-4.15-3.045-2.237-6.416-3.708-9.837-4.827-6.872-2.188-14.02-2.94-21.086-2.79-7.06.181-14.132 1.277-20.756 3.734-3.293 1.246-6.494 2.841-9.245 5.065-1.363 1.119-2.595 2.418-3.53 3.915-.453.757-.826 1.56-1.087 2.4a9.297 9.297 0 0 0-.355 2.593 9.232 9.232 0 0 1 .473-2.555 10.99 10.99 0 0 1 1.179-2.303c.985-1.42 2.246-2.628 3.627-3.655 2.789-2.044 5.99-3.453 9.267-4.518 6.589-2.093 13.55-2.831 20.427-2.678 6.873.177 13.757 1.258 20.1 3.621 3.147 1.193 6.177 2.725 8.672 4.755 1.236 1.017 2.308 2.174 3.081 3.422.371.63.664 1.277.865 1.934.178.658.264 1.319.258 1.977v.045a1.997 1.997 0 1 0 3.996.038l-.001-.083" fill="#FFCA9F" fill-rule="nonzero"/><path d="M50.227 102.415a3.692 3.692 0 1 0-7.384 0 3.692 3.692 0 0 0 7.384 0" fill="#6ACCEF" fill-rule="nonzero"/></g></g><g transform="matrix(1 0 0 -1 43.918 91.858)"><mask id="v" fill="#fff"><use xlink:href="#u"/></mask><g mask="url(#v)" fill-rule="nonzero" fill="url(#w)"><path d="M29.937 50.15l-.008.007-.07-.082c-.07-.066-.141-.13-.211-.198l.02-.02L.236 15.963 15.307.892 49.2 30.325l.02-.02c.068.069.131.14.2.21l.081.072-.008.006c11.426 11.734 11.143 30.7 11.143 30.7h-.123c-1.642 0-19.393-.255-30.576-11.144"/></g></g><g transform="matrix(1 0 0 -1 50.909 91.858)"><mask id="y" fill="#fff"><use xlink:href="#x"/></mask><g mask="url(#y)" fill-rule="nonzero" fill="url(#z)"><path d="M.423 8.783L8.316.892l33.893 29.433.02-.02c.068.069.131.14.2.21l.08.072-.007.006c11.426 11.734 11.143 30.7 11.143 30.7L.423 8.783z"/></g></g><g transform="matrix(1 0 0 -1 -22 177.75)"><mask id="B" fill="#fff"><use xlink:href="#A"/></mask><g mask="url(#B)"><path d="M104.67 119.418a5.395 5.395 0 0 0-3.842 1.591 5.44 5.44 0 0 0 0 7.685 5.4 5.4 0 0 0 3.842 1.59 5.401 5.401 0 0 0 3.843-1.59 5.442 5.442 0 0 0 0-7.685 5.397 5.397 0 0 0-3.843-1.59" fill="#9CD7FF" fill-rule="nonzero"/><path d="M104.67 131.21a6.317 6.317 0 0 1-4.495-1.862 6.313 6.313 0 0 1-1.863-4.496c0-1.699.661-3.296 1.863-4.496a6.317 6.317 0 0 1 4.495-1.862c1.698 0 3.295.661 4.495 1.862a6.314 6.314 0 0 1 1.863 4.496 6.313 6.313 0 0 1-1.863 4.496 6.317 6.317 0 0 1-4.495 1.861m0-1.848a4.509 4.509 0 1 0 0-9.019 4.509 4.509 0 0 0 0 9.019" fill="#403559" fill-rule="nonzero"/></g></g><g transform="matrix(1 0 0 -1 74.879 110.834)"><mask id="D" fill="#fff"><use xlink:href="#C"/></mask><g mask="url(#D)" fill-rule="nonzero" fill="url(#E)"><path d="M.511 15.231L13.457 2.285c2.406-2.406 6.334-2.377 8.775.064 2.44 2.44 2.47 6.37.063 8.775l.374-.373-1.413 1.412.436-.436-4.409 4.409a1.588 1.588 0 0 0 .016 2.245 1.588 1.588 0 0 0 2.245.016l-.032.032L29.989 7.951a10.616 10.616 0 0 1 2.103-1.633 16.45 16.45 0 0 1 .405 3.643c0 9.07-7.353 16.424-16.424 16.424-7.228 0-13.365-4.668-15.562-11.154"/></g></g><g transform="matrix(1 0 0 -1 -22 177.75)"><mask id="G" fill="#fff"><use xlink:href="#F"/></mask><g mask="url(#G)"><g transform="translate(132.834 86.891)"><mask id="I" fill="#fff"><use xlink:href="#H"/></mask><g opacity=".95" mask="url(#I)"><path d="M.665 2.347a.902.902 0 1 0 1.552-.922.902.902 0 0 0-1.552.922" fill="#FFF" fill-rule="nonzero"/></g></g><g transform="translate(120.849 101.873)"><mask id="K" fill="#fff"><use xlink:href="#J"/></mask><g opacity=".95" mask="url(#K)"><path d="M.15.959A.383.383 0 1 0 .807.566a.383.383 0 0 0-.659.393" fill="#FFF" fill-rule="nonzero"/></g></g><g transform="translate(117.853 141.823)"><mask id="M" fill="#fff"><use xlink:href="#L"/></mask><g opacity=".95" mask="url(#M)"><path d="M.542 1.482A.384.384 0 1 0 .675.957a.383.383 0 0 0-.133.525" fill="#FFF" fill-rule="nonzero"/></g></g><g transform="translate(147.815 107.865)"><mask id="O" fill="#fff"><use xlink:href="#N"/></mask><g opacity=".95" mask="url(#O)"><path d="M.354.663A.384.384 0 1 0 1.012.27a.384.384 0 0 0-.658.394" fill="#FFF" fill-rule="nonzero"/></g></g><g transform="translate(122.846 104.869)"><mask id="Q" fill="#fff"><use xlink:href="#P"/></mask><g opacity=".95" mask="url(#Q)" fill-rule="nonzero" fill="#FFF"><path d="M1.007 1.254a.216.216 0 0 0 .297.074.216.216 0 0 0 .075-.297.217.217 0 1 0-.373.223"/></g></g><g transform="translate(117.853 138.826)"><mask id="S" fill="#fff"><use xlink:href="#R"/></mask><g opacity=".95" mask="url(#S)"><path d="M.77 1.122A.217.217 0 1 0 1.142.9a.217.217 0 0 0-.372.222" fill="#FFF" fill-rule="nonzero"/></g></g><g transform="translate(148.814 115.855)"><mask id="U" fill="#fff"><use xlink:href="#T"/></mask><g opacity=".95" mask="url(#U)"><path d="M.362.365A.217.217 0 1 0 .735.143a.217.217 0 0 0-.373.222" fill="#FFF" fill-rule="nonzero"/></g></g><g transform="translate(117.853 89.888)"><mask id="W" fill="#fff"><use xlink:href="#V"/></mask><g opacity=".95" mask="url(#W)"><path d="M.78 1.253a.216.216 0 0 0 .298.075.215.215 0 0 0 .075-.297.217.217 0 1 0-.373.222" fill="#FFF" fill-rule="nonzero"/></g></g><g transform="translate(117.853 85.893)"><mask id="Y" fill="#fff"><use xlink:href="#X"/></mask><g opacity=".95" mask="url(#Y)"><path d="M.595.984c.06.103.194.137.297.075A.217.217 0 1 0 .595.984" fill="#FFF" fill-rule="nonzero"/></g></g></g></g></g></svg>