<svg width="155" height="155" viewBox="0 0 155 155" xmlns="http://www.w3.org/2000/svg" xmlns:xlink="http://www.w3.org/1999/xlink"><defs><path id="a" d="M0 199.75h199.75V0H0z"/><path d="M16.576 74.984a7.443 7.443 0 0 1-7.443-7.444 7.443 7.443 0 0 1 7.443-7.444h-.638 6.41-.745a7.443 7.443 0 1 0 0-14.886h.638-13.95a7.444 7.444 0 1 1 0-14.888h24.705a7.443 7.443 0 0 0 7.443-7.445 7.443 7.443 0 0 0-7.443-7.443h.745-11.767a7.445 7.445 0 0 1 0-14.89h50.248l-.426.001c20.556 0 37.219 16.663 37.219 37.22 0 20.555-16.663 37.22-37.219 37.22h.426-55.646z" id="c"/><path d="M6.892 40.369c-9.094-9.096-9.094-23.84 0-32.936 9.095-9.095 23.84-9.095 32.935 0 9.095 9.095 9.095 23.84 0 32.936a23.214 23.214 0 0 1-16.467 6.82c-5.96 0-11.92-2.273-16.468-6.82" id="e"/><linearGradient x1="104.739%" y1="29.814%" x2="-17.479%" y2="74.884%" id="g"><stop stop-color="#D11746" offset="0%"/><stop stop-color="#CA4E4F" offset="40.786%"/><stop stop-color="#CA4E4F" offset="43.311%"/><stop stop-color="#ACECFE" offset="100%"/></linearGradient><path d="M7.376 41.882c-9.378-9.379-9.378-24.586 0-33.964 9.38-9.38 24.585-9.38 33.965 0 9.379 9.378 9.379 24.585 0 33.964a23.941 23.941 0 0 1-16.982 7.034 23.941 23.941 0 0 1-16.983-7.034" id="h"/><path id="j" d="M.784 39.23H39.85V.164H.784z"/><path id="l" d="M.681 55.485h54.492V.993H.681z"/><path d="M16.576 74.984a7.443 7.443 0 0 1-7.443-7.444 7.443 7.443 0 0 1 7.443-7.444h-.638 6.41-.745a7.443 7.443 0 1 0 0-14.886h.638-13.95a7.444 7.444 0 1 1 0-14.888h24.705a7.443 7.443 0 0 0 7.443-7.445 7.443 7.443 0 0 0-7.443-7.443h.745-11.767a7.445 7.445 0 0 1 0-14.89h50.248l-.426.001c20.556 0 37.219 16.663 37.219 37.22 0 20.555-16.663 37.22-37.219 37.22h.426-55.646z" id="n"/></defs><g fill="none" fill-rule="evenodd"><g transform="matrix(1 0 0 -1 -22 177.75)"><mask id="b" fill="#fff"><use xlink:href="#a"/></mask><g mask="url(#b)"><path d="M115.167 63.466H73.91a7.444 7.444 0 0 0 0 14.889h2.778-.745a7.444 7.444 0 0 1 0 14.887H51.237a7.444 7.444 0 0 0 0 14.888h13.95-.638a7.443 7.443 0 0 1 7.443 7.444 7.443 7.443 0 0 1-7.443 7.444h.745-6.41.639a7.443 7.443 0 0 0-7.444 7.443 7.443 7.443 0 0 0 7.444 7.444h55.644-.425c20.556 0 37.22-16.663 37.22-37.218 0-20.557-16.664-37.22-37.22-37.22h.425z" fill="#000" fill-rule="nonzero"/></g></g><g transform="matrix(1 0 0 -1 20.946 114.829)"><mask id="d" fill="#fff"><use xlink:href="#c"/></mask><g mask="url(#d)"><path d="M69.34 60.709l-.612 4.783c-.2 1.571-.319 3.263-.4 4.934-.141 3.07-.227 6.92.56 10.295 1.448 6.18 6.575 7.832 11.406 9.883.732.314 1.523.553 2.275.816 4.816 1.681 11.122 3.417 16.12 4.943 5.092 1.571 9.015 4.182 12.17 9.338 1.653 2.687 4.198 8.957 2.777 11.055-1.573-4.503-2.906-7.425-6.779-10.77-4.492-3.887-9.207-5.167-14.42-6.148-4.26-.802-11.435-2.51-15.33-3.631-2.527-.738-6.883-2.14-9.518-4.34-3.898-3.251-3.555-6.87-3.168-10.745.184-1.846.488-3.498.808-5.232.37-2.022.85-3.532 1.162-5.125.325-1.685.923-3.388 1.363-5.06.278-1.036 1.18-4.226 1.585-4.996" fill="#ED1E24" fill-rule="nonzero"/><path d="M86.86 6.104c.202-2.534-1.395-2.743-3.416-2.667-8.982.337-33.784 12.301-41.484 16.126-7.852 3.896-15.544 8.248-22.392 13.444-1.11.836-6.032 4.453-5.55 6.003.297.982 1.592 1.167 2.239 1.219 2.285.185 5.84-.706 8.225-1.432.688-.212 2.297-.833 2.869-.883-3.37 2.414-15.928 6.41-20.306 4.117-2.757-1.442-.627-3.865.85-5.36 5.541-5.604 19.174-13.178 26.43-17.05C45.175 13.85 71.525.422 84.57 2.083c.76.092 2.281.33 2.798 1.053.638.905-.045 2.414-.509 2.968" fill="#3C8ACE" fill-rule="nonzero"/><path d="M71.59 53.922c1.365-.198 6.238.846 7.648 1.315 1.858.634 5.117 1.896 6.68 4.493 1.414 2.361 1.367 6.406 1.142 8.495-.714 6.602-1.86 10.761 5.355 13.961 2.408 1.06 4.738 1.667 7.397 2.247 3.183.696 8.137 1.337 11.6 1.632l3.968.38c-1.686.606-6.728 1.084-8.693 1.32-2.646.305-5.854.35-8.364.23-8.62-.42-18.248-3.065-19.853-12.75-1.086-6.553 2.446-12.631-.101-16.648-1.56-2.462-5.368-3.769-6.78-4.675" fill="#ED1E24" fill-rule="nonzero"/><path d="M71.306 19.294c-1.641 1.823-2.716 3.51-3.985 5.534-.732 1.176-.35.916-1.878 1.276-6.227 1.485-15.198 6.08-20.91 9.243-1.47.815-5.598 3.105-5.722 4.947-.084 1.162.983 1.43 1.53 1.787-4.199 1.192-9.698.026-5.764-5.327C39.01 30.738 51.5 24.267 58.608 22.071c2.025-.624 11.44-3.04 12.698-2.777M79.454 30.797c-1.368 1.205-2.274 2.913-2.804 4.256-.47 1.153-.275.827-2.237 1.455-7.065 2.264-27.408 10.34-31.775 15.482-.566.667-1.165 1.539-.782 2.41.459 1.035 1.59 1.14 2.23 1.505-4.744 1.744-11.235-.354-6.321-5.48 5.546-5.772 20.03-13.326 27.655-16.11 2.513-.912 11.714-3.59 14.034-3.518M91.458 43.107c-.866.4-2.136.722-3.063 1.024-1.069.365-2.09.706-3.149 1.085-6.39 2.234-13.346 4.962-19.493 7.687-4.8 2.124-22.67 10.588-24.034 14.385.373 1.198 1.988 1.241 2.978 1.266 3.844.065 7.33-1.04 10.775-1.639-3.902 2.497-15.73 4.853-20.657 4.443-5.324-.437.879-4.898 3.212-6.543C51.682 55.194 66.003 49.21 81.614 43.79c2.545-.886 2.983-1.283 5.127-1.088 1.481.136 3.326.132 4.717.405M17.815 24.98c3.219-3.839 11.622-9.494 16.072-12.26 6.249-3.896 13.478-7.457 20.24-10.356 8.752-3.748 19.267-7.937 28.64-7.99 2.23-.007 6.523.505 7.894 2.414-.657.033-1.364-.214-2.034-.293C70.877-5.78 41.367 10.5 26.472 19.562l-8.657 5.418M96.24 45.099c3.727-.65 7.036-3.198 8.138-6.053 1.19-3.091-.698-6.82-3.766-8.884-4.098-2.747-10.313-3.881-15.19-4.296-.837-.073-1.603-.06-2.361-.183 2.507-.973 9.455-1.329 12.283-1.109 3.607.282 7.934 1.178 10.841 3.728 4.137 3.613 3.304 8.425 1.36 11.5-1.121 1.763-2.768 3.321-5.07 4.389-1.761.817-4.91 1.57-6.236.908" fill="#3C8ACE" fill-rule="nonzero"/></g></g><g transform="matrix(1 0 0 -1 68.886 100.846)"><mask id="f" fill="#fff"><use xlink:href="#e"/></mask><g mask="url(#f)" fill-rule="nonzero" fill="url(#g)"><path d="M6.892 40.369c-9.094-9.096-9.094-23.84 0-32.936 9.095-9.095 23.84-9.095 32.935 0 9.095 9.095 9.095 23.84 0 32.936a23.214 23.214 0 0 1-16.467 6.82c-5.96 0-11.92-2.273-16.468-6.82"/></g></g><g transform="matrix(1 0 0 -1 67.888 101.845)"><mask id="i" fill="#fff"><use xlink:href="#h"/></mask><g mask="url(#i)"><g transform="translate(-19.975 -5.993)"><mask id="k" fill="#fff"><use xlink:href="#j"/></mask><g opacity=".35" mask="url(#k)"><path d="M6.505 33.51c7.628 7.628 19.996 7.628 27.624 0 7.629-7.629 7.629-19.996 0-27.625-7.628-7.628-19.996-7.628-27.624 0-7.629 7.629-7.629 19.996 0 27.625" fill="#FFF" fill-rule="nonzero"/></g></g><g transform="translate(13.983 23.97)"><mask id="m" fill="#fff"><use xlink:href="#l"/></mask><g opacity=".16" mask="url(#m)" fill-rule="nonzero" fill="#AA1F61"><path d="M6.538 45.114c9.32 11.813 26.452 13.834 38.265 4.513 11.813-9.32 13.833-26.452 4.513-38.265C39.996-.45 22.864-2.47 11.05 6.85-.762 16.17-2.782 33.302 6.538 45.114"/></g></g></g></g><g transform="matrix(1 0 0 -1 20.946 114.829)"><mask id="o" fill="#fff"><use xlink:href="#n"/></mask><g mask="url(#o)"><path d="M69.34 60.709l-.612 4.783c-.2 1.571-.319 3.263-.4 4.934-.141 3.07-.227 6.92.56 10.295 1.448 6.18 6.575 7.832 11.406 9.883.732.314 1.523.553 2.275.816 4.816 1.681 11.122 3.417 16.12 4.943 5.092 1.571 9.015 4.182 12.17 9.338 1.653 2.687 4.198 8.957 2.777 11.055-1.573-4.503-2.906-7.425-6.779-10.77-4.492-3.887-9.207-5.167-14.42-6.148-4.26-.802-11.435-2.51-15.33-3.631-2.527-.738-6.883-2.14-9.518-4.34-3.898-3.251-3.555-6.87-3.168-10.745.184-1.846.488-3.498.808-5.232.37-2.022.85-3.532 1.162-5.125.325-1.685.923-3.388 1.363-5.06.278-1.036 1.18-4.226 1.585-4.996" fill="#ED1E24" fill-rule="nonzero"/><path d="M71.59 53.922c1.365-.198 6.238.846 7.648 1.315 1.858.634 5.117 1.896 6.68 4.493 1.414 2.361 1.367 6.406 1.142 8.495-.714 6.602-1.86 10.761 5.355 13.961 2.408 1.06 4.738 1.667 7.397 2.247 3.183.696 8.137 1.337 11.6 1.632l3.968.38c-1.686.606-6.728 1.084-8.693 1.32-2.646.305-5.854.35-8.364.23-8.62-.42-18.248-3.065-19.853-12.75-1.086-6.553 2.446-12.631-.101-16.648-1.56-2.462-5.368-3.769-6.78-4.675" fill="#ED1E24" fill-rule="nonzero"/><path d="M79.454 30.797c-1.368 1.205-2.274 2.913-2.804 4.256-.47 1.153-.275.827-2.237 1.455-7.065 2.264-27.408 10.34-31.775 15.482-.566.667-1.165 1.539-.782 2.41.459 1.035 1.59 1.14 2.23 1.505-4.744 1.744-11.235-.354-6.321-5.48 5.546-5.772 20.03-13.326 27.655-16.11 2.513-.912 11.714-3.59 14.034-3.518M91.458 43.107c-.866.4-2.136.722-3.063 1.024-1.069.365-2.09.706-3.149 1.085-6.39 2.234-13.346 4.962-19.493 7.687-4.8 2.124-22.67 10.588-24.034 14.385.373 1.198 1.988 1.241 2.978 1.266 3.844.065 7.33-1.04 10.775-1.639-3.902 2.497-15.73 4.853-20.657 4.443-5.324-.437.879-4.898 3.212-6.543C51.682 55.194 66.003 49.21 81.614 43.79c2.545-.886 2.983-1.283 5.127-1.088 1.481.136 3.326.132 4.717.405" fill="#3C8ACE" fill-rule="nonzero"/><path d="M-.9 46.1c-5.083 5.083-5.083 13.326 0 18.408 5.084 5.084 13.326 5.084 18.41 0 5.082-5.082 5.082-13.325 0-18.408-5.084-5.083-13.326-5.083-18.41 0" fill="#ED1E24" fill-rule="nonzero"/></g></g></g></svg>