<svg width="155" height="155" viewBox="0 0 155 155" xmlns="http://www.w3.org/2000/svg" xmlns:xlink="http://www.w3.org/1999/xlink"><defs><path id="a" d="M0 199.75h199.75V0H0z"/><path d="M71.796 74.984h.426-.426zm-55.22 0a7.443 7.443 0 0 1-7.443-7.443 7.443 7.443 0 0 1 7.443-7.444h-.638 6.41-.745a7.444 7.444 0 0 0 0-14.887h.638-13.95a7.444 7.444 0 0 1-7.444-7.445A7.443 7.443 0 0 1 8.29 30.32h24.705a7.444 7.444 0 1 0 0-14.888h.745-11.767a7.444 7.444 0 0 1 0-14.887h50.248-.426c20.556 0 37.219 16.662 37.219 37.219 0 20.556-16.663 37.22-37.219 37.22h-55.22z" id="c"/><path d="M6.892 40.369c-9.094-9.096-9.094-23.84 0-32.935 9.095-9.096 23.84-9.096 32.935 0 9.095 9.094 9.095 23.839 0 32.935a23.214 23.214 0 0 1-16.467 6.82c-5.96 0-11.92-2.273-16.468-6.82" id="e"/><linearGradient x1="104.739%" y1="29.814%" x2="-17.479%" y2="74.884%" id="g"><stop stop-color="#D11746" offset="0%"/><stop stop-color="#CA4E4F" offset="40.786%"/><stop stop-color="#CA4E4F" offset="43.311%"/><stop stop-color="#ACECFE" offset="100%"/></linearGradient><path d="M7.376 41.88c-9.378-9.378-9.378-24.585 0-33.963 9.38-9.38 24.585-9.38 33.965 0 9.379 9.378 9.379 24.585 0 33.964a23.941 23.941 0 0 1-16.982 7.034A23.941 23.941 0 0 1 7.376 41.88" id="h"/><path id="j" d="M.6 39.08h39.067V.011H.6z"/><path id="l" d="M.728 31.054H30.83V.954H.73z"/><path id="n" d="M.291 54.556h54.49V.066H.29z"/><path d="M71.796 74.984h.426-.426zm-55.22 0a7.443 7.443 0 0 1-7.443-7.443 7.443 7.443 0 0 1 7.443-7.444h-.638 6.41-.745a7.444 7.444 0 0 0 0-14.887h.638-13.95a7.444 7.444 0 0 1-7.444-7.445A7.443 7.443 0 0 1 8.29 30.32h24.705a7.444 7.444 0 1 0 0-14.888h.745-11.767a7.444 7.444 0 0 1 0-14.887h50.248-.426c20.556 0 37.219 16.662 37.219 37.219 0 20.556-16.663 37.22-37.219 37.22h-55.22z" id="p"/><path id="r" d="M.207 26.293h26.034V.26H.207z"/></defs><g fill="none" fill-rule="evenodd"><g transform="matrix(1 0 0 -1 -22 177.75)"><mask id="b" fill="#fff"><use xlink:href="#a"/></mask><g mask="url(#b)"><path d="M115.167 63.467H73.91a7.444 7.444 0 0 0 0 14.887h2.778-.745a7.444 7.444 0 0 1 0 14.888H51.237a7.444 7.444 0 1 0 0 14.888h13.95-.638a7.443 7.443 0 0 1 7.443 7.445 7.443 7.443 0 0 1-7.443 7.443h.745-6.41.639a7.443 7.443 0 0 0-7.444 7.444 7.443 7.443 0 0 0 7.444 7.444h55.644-.425c20.556 0 37.22-16.664 37.22-37.22 0-20.555-16.664-37.22-37.22-37.22h.425z" fill="#000" fill-rule="nonzero"/></g></g><g transform="matrix(1 0 0 -1 20.946 114.829)"><mask id="d" fill="#fff"><use xlink:href="#c"/></mask><g mask="url(#d)"><path d="M69.34 60.71l-.612 4.782c-.2 1.57-.319 3.263-.4 4.933-.141 3.07-.227 6.92.56 10.296 1.448 6.179 6.575 7.832 11.406 9.883.732.315 1.523.552 2.275.815 4.816 1.682 11.122 3.419 16.12 4.945 5.092 1.57 9.015 4.18 12.17 9.337 1.653 2.688 4.198 8.957 2.777 11.054-1.573-4.502-2.906-7.424-6.779-10.77-4.492-3.886-9.207-5.166-14.42-6.148-4.26-.802-11.435-2.51-15.33-3.63-2.527-.737-6.883-2.14-9.518-4.34-3.898-3.252-3.555-6.87-3.168-10.744.184-1.847.488-3.499.808-5.233.37-2.022.85-3.532 1.162-5.125.325-1.685.923-3.389 1.363-5.06.278-1.037 1.18-4.226 1.585-4.996" fill="#ED1E24" fill-rule="nonzero"/><path d="M86.86 6.104c.202-2.535-1.395-2.743-3.416-2.668-8.982.338-33.784 12.302-41.484 16.127-7.852 3.896-15.544 8.249-22.392 13.444-1.11.836-6.032 4.454-5.55 6.004.297.98 1.592 1.165 2.239 1.217 2.285.187 5.84-.705 8.225-1.432.688-.212 2.297-.832 2.869-.883-3.37 2.415-15.928 6.411-20.306 4.119-2.757-1.442-.627-3.866.85-5.362 5.541-5.602 19.174-13.178 26.43-17.048 10.85-5.772 37.2-19.2 50.245-17.538.76.09 2.281.33 2.798 1.052.638.904-.045 2.413-.509 2.968" fill="#3C8ACE" fill-rule="nonzero"/><path d="M71.59 53.923c1.365-.2 6.238.846 7.648 1.313 1.858.634 5.117 1.898 6.68 4.495 1.414 2.36 1.367 6.406 1.142 8.493-.714 6.604-1.86 10.763 5.355 13.962 2.408 1.061 4.738 1.667 7.397 2.248 3.183.695 8.137 1.335 11.6 1.63l3.968.381c-1.686.605-6.728 1.084-8.693 1.32-2.646.304-5.854.35-8.364.231-8.62-.422-18.248-3.066-19.853-12.75-1.086-6.554 2.446-12.633-.101-16.649-1.56-2.462-5.368-3.768-6.78-4.674" fill="#ED1E24" fill-rule="nonzero"/><path d="M71.306 19.293c-1.641 1.823-2.716 3.51-3.985 5.535-.732 1.177-.35.915-1.878 1.276-6.227 1.484-15.198 6.08-20.91 9.243-1.47.815-5.598 3.105-5.722 4.947-.084 1.163.983 1.431 1.53 1.787-4.199 1.192-9.698.027-5.764-5.326C39.01 30.737 51.5 24.266 58.608 22.072c2.025-.625 11.44-3.041 12.698-2.779M79.454 30.798c-1.368 1.204-2.274 2.913-2.804 4.254-.47 1.155-.275.827-2.237 1.455-7.065 2.265-27.408 10.341-31.775 15.482-.566.668-1.165 1.54-.782 2.412.459 1.035 1.59 1.139 2.23 1.503-4.744 1.744-11.235-.352-6.321-5.479 5.546-5.773 20.03-13.325 27.655-16.11 2.513-.912 11.714-3.59 14.034-3.517M91.458 43.107c-.866.4-2.136.721-3.063 1.024-1.069.365-2.09.705-3.149 1.085-6.39 2.234-13.346 4.962-19.493 7.686-4.8 2.125-22.67 10.59-24.034 14.386.373 1.199 1.988 1.242 2.978 1.267 3.844.064 7.33-1.04 10.775-1.64-3.902 2.496-15.73 4.853-20.657 4.443-5.324-.437.879-4.898 3.212-6.543 13.655-9.62 27.976-15.604 43.587-21.026 2.545-.884 2.983-1.282 5.127-1.087 1.481.136 3.326.132 4.717.405M17.815 24.98c3.219-3.839 11.622-9.495 16.072-12.26 6.249-3.896 13.478-7.457 20.24-10.355 8.752-3.748 19.267-7.938 28.64-7.991 2.23-.006 6.523.505 7.894 2.415-.657.032-1.364-.215-2.034-.294C70.877-5.78 41.367 10.5 26.472 19.562l-8.657 5.419M96.24 45.098c3.727-.65 7.036-3.197 8.138-6.052 1.19-3.09-.698-6.82-3.766-8.883-4.098-2.748-10.313-3.881-15.19-4.297-.837-.073-1.603-.059-2.361-.183 2.507-.973 9.455-1.329 12.283-1.108 3.607.281 7.934 1.177 10.841 3.726 4.137 3.615 3.304 8.426 1.36 11.502-1.121 1.762-2.768 3.32-5.07 4.388-1.761.817-4.91 1.571-6.236.907" fill="#3C8ACE" fill-rule="nonzero"/></g></g><g transform="matrix(1 0 0 -1 68.886 100.846)"><mask id="f" fill="#fff"><use xlink:href="#e"/></mask><g mask="url(#f)" fill-rule="nonzero" fill="url(#g)"><path d="M6.892 40.369c-9.094-9.096-9.094-23.84 0-32.935 9.095-9.096 23.84-9.096 32.935 0 9.095 9.094 9.095 23.839 0 32.935a23.214 23.214 0 0 1-16.467 6.82c-5.96 0-11.92-2.273-16.468-6.82"/></g></g><g transform="matrix(1 0 0 -1 67.888 101.845)"><mask id="i" fill="#fff"><use xlink:href="#h"/></mask><g mask="url(#i)"><g transform="translate(-12.984 3.995)"><mask id="k" fill="#fff"><use xlink:href="#j"/></mask><g opacity=".16" mask="url(#k)"><path d="M6.321 33.358c7.629 7.628 19.996 7.628 27.625 0 7.628-7.629 7.628-19.996 0-27.625-7.629-7.628-19.996-7.628-27.625 0-7.628 7.629-7.628 19.996 0 27.625" fill="#FFF" fill-rule="nonzero"/></g></g><g transform="translate(-9.988 7.99)"><mask id="m" fill="#fff"><use xlink:href="#l"/></mask><g opacity=".16" mask="url(#m)" fill-rule="nonzero" fill="#FFF"><path d="M5.136 26.645c5.878 5.878 15.407 5.878 21.285 0 5.878-5.877 5.878-15.406 0-21.284-5.878-5.877-15.407-5.877-21.285 0-5.877 5.878-5.877 15.407 0 21.284"/></g></g><g transform="translate(7.99 14.981)"><mask id="o" fill="#fff"><use xlink:href="#n"/></mask><g opacity=".16" mask="url(#o)"><path d="M8.271 46.576c10.64 10.64 27.89 10.64 38.53 0s10.64-27.89 0-38.53-27.89-10.64-38.53 0-10.64 27.89 0 38.53" fill="#AA1F61" fill-rule="nonzero"/></g></g></g></g><g transform="matrix(1 0 0 -1 20.946 114.829)"><mask id="q" fill="#fff"><use xlink:href="#p"/></mask><g mask="url(#q)"><path d="M69.34 60.71l-.612 4.782c-.2 1.57-.319 3.263-.4 4.933-.141 3.07-.227 6.92.56 10.296 1.448 6.179 6.575 7.832 11.406 9.883.732.315 1.523.552 2.275.815 4.816 1.682 11.122 3.419 16.12 4.945 5.092 1.57 9.015 4.18 12.17 9.337 1.653 2.688 4.198 8.957 2.777 11.054-1.573-4.502-2.906-7.424-6.779-10.77-4.492-3.886-9.207-5.166-14.42-6.148-4.26-.802-11.435-2.51-15.33-3.63-2.527-.737-6.883-2.14-9.518-4.34-3.898-3.252-3.555-6.87-3.168-10.744.184-1.847.488-3.499.808-5.233.37-2.022.85-3.532 1.162-5.125.325-1.685.923-3.389 1.363-5.06.278-1.037 1.18-4.226 1.585-4.996" fill="#ED1E24" fill-rule="nonzero"/><path d="M71.59 53.923c1.365-.2 6.238.846 7.648 1.313 1.858.634 5.117 1.898 6.68 4.495 1.414 2.36 1.367 6.406 1.142 8.493-.714 6.604-1.86 10.763 5.355 13.962 2.408 1.061 4.738 1.667 7.397 2.248 3.183.695 8.137 1.335 11.6 1.63l3.968.381c-1.686.605-6.728 1.084-8.693 1.32-2.646.304-5.854.35-8.364.231-8.62-.422-18.248-3.066-19.853-12.75-1.086-6.554 2.446-12.633-.101-16.649-1.56-2.462-5.368-3.768-6.78-4.674" fill="#ED1E24" fill-rule="nonzero"/><path d="M79.454 30.798c-1.368 1.204-2.274 2.913-2.804 4.254-.47 1.155-.275.827-2.237 1.455-7.065 2.265-27.408 10.341-31.775 15.482-.566.668-1.165 1.54-.782 2.412.459 1.035 1.59 1.139 2.23 1.503-4.744 1.744-11.235-.352-6.321-5.479 5.546-5.773 20.03-13.325 27.655-16.11 2.513-.912 11.714-3.59 14.034-3.517M91.458 43.107c-.866.4-2.136.721-3.063 1.024-1.069.365-2.09.705-3.149 1.085-6.39 2.234-13.346 4.962-19.493 7.686-4.8 2.125-22.67 10.59-24.034 14.386.373 1.199 1.988 1.242 2.978 1.267 3.844.064 7.33-1.04 10.775-1.64-3.902 2.496-15.73 4.853-20.657 4.443-5.324-.437.879-4.898 3.212-6.543 13.655-9.62 27.976-15.604 43.587-21.026 2.545-.884 2.983-1.282 5.127-1.087 1.481.136 3.326.132 4.717.405" fill="#3C8ACE" fill-rule="nonzero"/><g transform="translate(3.995 46.941)"><mask id="s" fill="#fff"><use xlink:href="#r"/></mask><g opacity=".65" mask="url(#s)" fill-rule="nonzero" fill="#546BEF"><path d="M4.02 4.071c-5.084 5.084-5.084 13.325 0 18.41 5.083 5.082 13.325 5.082 18.409 0 5.082-5.085 5.082-13.326 0-18.41-5.084-5.083-13.326-5.083-18.41 0"/></g></g></g></g></g></svg>