<svg width="155" height="155" viewBox="0 0 155 155" xmlns="http://www.w3.org/2000/svg" xmlns:xlink="http://www.w3.org/1999/xlink"><defs><path d="M10.863 36.28a3.552 3.552 0 0 1-3.547-3.559 3.553 3.553 0 0 1 3.547-3.559h-.304 1.151-.355 3.591a.908.908 0 0 0 .907-.91.908.908 0 0 0-.907-.91h.026H6.44c-3.417 0-6.188-2.778-6.188-6.206 0-3.429 2.77-6.207 6.188-6.207h14.7a3.553 3.553 0 0 0 3.547-3.558 3.553 3.553 0 0 0-3.547-3.558h.355-.848a3.554 3.554 0 0 1-3.548-3.56A3.552 3.552 0 0 1 20.646.696H60.27v35.583h.202-49.609zM60.27.695h.202-.202z" id="a"/><linearGradient x1="136.346%" y1="46.531%" x2="-41.632%" y2="55.417%" id="c"><stop offset="0%"/><stop offset="10.27%"/><stop stop-color="#7E5FAA" offset="100%"/></linearGradient><path d="M.447 21.802C.447 9.785 10.158.045 22.137.045c11.98 0 21.692 9.74 21.692 21.757 0 12.015-9.711 21.756-21.691 21.756-11.98 0-21.69-9.74-21.69-21.756" id="d"/><linearGradient x1="-6.423%" y1="10.078%" x2="99.916%" y2="85.315%" id="f"><stop stop-color="#4690F9" offset="0%"/><stop stop-color="#1568FF" offset="19.27%"/><stop stop-color="#1568FF" offset="25.483%"/><stop stop-color="#94C7FF" offset="100%"/></linearGradient><path d="M.447 21.802C.447 9.785 10.158.045 22.137.045c11.98 0 21.692 9.74 21.692 21.757 0 12.015-9.711 21.756-21.691 21.756-11.98 0-21.69-9.74-21.69-21.756" id="g"/><path id="i" d="M.908 44.409H45.04V.144H.91z"/><path d="M.454 28.542C.454 12.874 13.118.172 28.738.172s28.284 12.702 28.284 28.37c0 15.668-12.664 28.37-28.284 28.37S.454 44.21.454 28.542" id="k"/><linearGradient x1="-6.424%" y1="10.08%" x2="99.916%" y2="85.316%" id="m"><stop stop-color="#8A6A98" offset="0%"/><stop stop-color="#B3315A" offset="19.27%"/><stop stop-color="#B3315A" offset="25.483%"/><stop stop-color="#FFBCB9" offset="100%"/></linearGradient></defs><g fill="none" fill-rule="evenodd"><g transform="matrix(1 0 0 -1 25.23 107.65)"><mask id="b" fill="#fff"><use xlink:href="#a"/></mask><g mask="url(#b)" fill-rule="nonzero" fill="url(#c)"><path d="M10.863 36.28a3.552 3.552 0 0 1-3.547-3.559 3.553 3.553 0 0 1 3.547-3.559h-.304 1.151-.355 3.591a.908.908 0 0 0 .907-.91.908.908 0 0 0-.907-.91h.026H6.44c-3.417 0-6.188-2.778-6.188-6.206 0-3.429 2.77-6.207 6.188-6.207h14.7a3.553 3.553 0 0 0 3.547-3.558 3.553 3.553 0 0 0-3.547-3.558h.355-.848a3.554 3.554 0 0 1-3.548-3.56A3.552 3.552 0 0 1 20.646.696H60.27v35.583h.202-49.609zM60.27.695h.202-.202z"/></g></g><g transform="matrix(1 0 0 -1 32.62 81.706)"><mask id="e" fill="#fff"><use xlink:href="#d"/></mask><g mask="url(#e)" fill-rule="nonzero" fill="url(#f)"><path d="M.447 21.802C.447 9.785 10.158.045 22.137.045c11.98 0 21.692 9.74 21.692 21.757 0 12.015-9.711 21.756-21.691 21.756-11.98 0-21.69-9.74-21.69-21.756"/></g></g><g transform="matrix(1 0 0 -1 32.62 81.706)"><mask id="h" fill="#fff"><use xlink:href="#g"/></mask><g mask="url(#h)"><g transform="translate(18.475 10.192)"><mask id="j" fill="#fff"><use xlink:href="#i"/></mask><g opacity=".3" mask="url(#j)" fill-rule="nonzero" fill="#FFF"><path d="M45.04 22.276C45.04 10.053 35.16.143 22.973.143 10.787.143.909 10.053.909 22.276c0 12.223 9.878 22.132 22.065 22.132 12.186 0 22.065-9.91 22.065-22.132"/></g></g></g></g><g transform="matrix(1 0 0 -1 73.266 118.768)"><mask id="l" fill="#fff"><use xlink:href="#k"/></mask><g mask="url(#l)" fill-rule="nonzero" fill="url(#m)"><path d="M.454 28.542C.454 12.874 13.118.172 28.738.172s28.284 12.702 28.284 28.37c0 15.668-12.664 28.37-28.284 28.37S.454 44.21.454 28.542"/></g></g></g></svg>