<svg width="155" height="155" viewBox="0 0 155 155" xmlns="http://www.w3.org/2000/svg" xmlns:xlink="http://www.w3.org/1999/xlink"><defs><path d="M10.864 36.174a3.548 3.548 0 0 1-3.547-3.55 3.547 3.547 0 0 1 3.547-3.546l-.304-.002h1.152-.356 3.592a.907.907 0 0 0 0-1.814h.026H6.44a6.19 6.19 0 0 1 0-12.378v.001h14.701a3.547 3.547 0 1 0 0-7.095h.355-.848a3.549 3.549 0 0 1 0-7.097h39.628v35.481h.203-49.615zM60.276.693h.203-.203z" id="a"/><linearGradient x1="136.346%" y1="46.532%" x2="-41.632%" y2="55.417%" id="c"><stop offset="0%"/><stop offset="10.27%"/><stop stop-color="#7E5FAA" offset="100%"/></linearGradient><path d="M.447 21.738C.447 9.758 10.16.045 22.14.045c11.981 0 21.694 9.713 21.694 21.693 0 11.98-9.713 21.692-21.694 21.692C10.16 43.43.447 33.718.447 21.738" id="d"/><linearGradient x1="-6.423%" y1="10.079%" x2="99.916%" y2="85.317%" id="f"><stop stop-color="#4690F9" offset="0%"/><stop stop-color="#1568FF" offset="19.27%"/><stop stop-color="#1568FF" offset="25.483%"/><stop stop-color="#94C7FF" offset="100%"/></linearGradient><path d="M.447 21.738C.447 9.758 10.16.045 22.14.045c11.981 0 21.694 9.713 21.694 21.693 0 11.98-9.713 21.692-21.694 21.692C10.16 43.43.447 33.718.447 21.738" id="g"/><path id="i" d="M.909 44.279h44.135V.143H.909z"/><path d="M.455 28.46C.455 12.836 13.12.172 28.74.172c15.622 0 28.287 12.664 28.287 28.286 0 15.622-12.665 28.286-28.287 28.286C13.12 56.745.455 44.081.455 28.46" id="k"/><linearGradient x1="-6.424%" y1="10.078%" x2="99.916%" y2="85.316%" id="m"><stop stop-color="#8A6A98" offset="0%"/><stop stop-color="#B3315A" offset="19.27%"/><stop stop-color="#B3315A" offset="25.483%"/><stop stop-color="#FFBCB9" offset="100%"/></linearGradient><path id="n" d="M0 184.769h184.769V0H0z"/><path d="M.455 28.46C.455 12.836 13.12.172 28.74.172c15.622 0 28.287 12.664 28.287 28.286 0 15.622-12.665 28.286-28.287 28.286C13.12 56.745.455 44.081.455 28.46" id="p"/><path id="r" d="M.045 36.145h35.698V.448H.045z"/><path d="M.447 21.738C.447 9.758 10.16.045 22.14.045c11.981 0 21.694 9.713 21.694 21.693 0 11.98-9.713 21.692-21.694 21.692C10.16 43.43.447 33.718.447 21.738" id="t"/><linearGradient x1="2.02%" y1="688.065%" x2="97.979%" y2="573.514%" id="v"><stop stop-color="#704EFD" offset="0%"/><stop stop-color="#704EFD" offset="4.865%"/><stop stop-color="#CA72FE" offset="71.598%"/><stop stop-color="#CA72FE" offset="71.845%"/><stop stop-color="#9071FF" offset="100%"/></linearGradient></defs><g fill="none" fill-rule="evenodd"><g transform="matrix(1 0 0 -1 25.725 107.024)"><mask id="b" fill="#fff"><use xlink:href="#a"/></mask><g mask="url(#b)" fill-rule="nonzero" fill="url(#c)"><path d="M10.864 36.174a3.548 3.548 0 0 1-3.547-3.55 3.547 3.547 0 0 1 3.547-3.546l-.304-.002h1.152-.356 3.592a.907.907 0 0 0 0-1.814h.026H6.44a6.19 6.19 0 0 1 0-12.378v.001h14.701a3.547 3.547 0 1 0 0-7.095h.355-.848a3.549 3.549 0 0 1 0-7.097h39.628v35.481h.203-49.615zM60.276.693h.203-.203z"/></g></g><g transform="matrix(1 0 0 -1 33.116 81.156)"><mask id="e" fill="#fff"><use xlink:href="#d"/></mask><g mask="url(#e)" fill-rule="nonzero" fill="url(#f)"><path d="M.447 21.738C.447 9.758 10.16.045 22.14.045c11.981 0 21.694 9.713 21.694 21.693 0 11.98-9.713 21.692-21.694 21.692C10.16 43.43.447 33.718.447 21.738"/></g></g><g transform="matrix(1 0 0 -1 33.116 81.156)"><mask id="h" fill="#fff"><use xlink:href="#g"/></mask><g mask="url(#h)"><g transform="translate(18.477 10.162)"><mask id="j" fill="#fff"><use xlink:href="#i"/></mask><g opacity=".3" mask="url(#j)" fill-rule="nonzero" fill="#FFF"><path d="M45.044 22.211c0-12.187-9.88-22.068-22.068-22.068C10.789.143.909 10.023.909 22.211s9.88 22.068 22.067 22.068c12.188 0 22.068-9.88 22.068-22.068"/></g></g></g></g><g transform="matrix(1 0 0 -1 73.765 118.11)"><mask id="l" fill="#fff"><use xlink:href="#k"/></mask><g mask="url(#l)" fill-rule="nonzero" fill="url(#m)"><path d="M.455 28.46C.455 12.836 13.12.172 28.74.172c15.622 0 28.287 12.664 28.287 28.286 0 15.622-12.665 28.286-28.287 28.286C13.12 56.745.455 44.081.455 28.46"/></g></g><g transform="matrix(1 0 0 -1 -14 170.769)"><mask id="o" fill="#fff"><use xlink:href="#n"/></mask><g mask="url(#o)"><path d="M142.052 58.464a10.347 10.347 0 0 0-2.446-1.7 11.975 11.975 0 0 0-2.728-.897c-1.841-.34-3.654-.295-5.38-.045-3.455.527-6.624 1.77-9.593 3.276-5.925 3.063-11.093 7.246-15.617 11.966-4.5 4.738-8.408 10.079-11.134 16.019-1.338 2.967-2.389 6.105-2.733 9.36-.16 1.623-.116 3.278.252 4.869.2.792.48 1.56.858 2.28a8.61 8.61 0 0 0 1.464 1.929 8.576 8.576 0 0 1-1.361-1.98 10.164 10.164 0 0 1-.736-2.278c-.284-1.573-.25-3.188-.018-4.764.487-3.16 1.659-6.176 3.107-9.015 2.94-5.68 7.012-10.716 11.609-15.113 4.61-4.38 9.82-8.175 15.515-10.777 2.839-1.28 5.823-2.26 8.782-2.564 1.473-.143 2.931-.087 4.253.224.655.17 1.27.4 1.83.697a6.777 6.777 0 0 1 1.463 1.126l.03.03a1.849 1.849 0 1 0 2.638-2.59l-.055-.053" fill="#FFCA9F" fill-rule="nonzero"/></g></g><g transform="matrix(1 0 0 -1 73.765 118.11)"><mask id="q" fill="#fff"><use xlink:href="#p"/></mask><g mask="url(#q)"><g transform="translate(26.792 10.162)"><mask id="s" fill="#fff"><use xlink:href="#r"/></mask><g opacity=".25" mask="url(#s)"><path d="M35.742 18.297c0-9.858-7.99-17.85-17.848-17.85C8.036.448.045 8.44.045 18.298c0 9.857 7.991 17.847 17.849 17.847 9.857 0 17.848-7.99 17.848-17.847" fill="#FFF" fill-rule="nonzero"/></g></g></g></g><g transform="matrix(1 0 0 -1 33.116 81.156)"><mask id="u" fill="#fff"><use xlink:href="#t"/></mask><g mask="url(#u)"><path d="M0 .924C4.51 3.096 6.598-1.24 11.108.932c4.511 2.172 2.424 6.508 6.935 8.68 4.51 2.173 6.599-2.164 11.11.009 4.514 2.174 2.426 6.51 6.939 8.682 4.512 2.173 6.6-2.163 11.112.01 4.515 2.174 2.427 6.51 6.942 8.685 4.515 2.173 6.602-2.162 11.118.012" stroke="url(#v)" stroke-width="1.848" transform="translate(-14.124 18.031)"/></g></g></g></svg>