<svg width="155" height="155" viewBox="0 0 155 155" xmlns="http://www.w3.org/2000/svg" xmlns:xlink="http://www.w3.org/1999/xlink"><defs><path d="M10.864 36.174a3.548 3.548 0 0 1-3.547-3.55 3.547 3.547 0 0 1 3.547-3.547h-.304 1.152-.356 3.592a.907.907 0 1 0 0-1.814h.026H6.44a6.188 6.188 0 1 1 0-12.377h14.701a3.548 3.548 0 1 0 0-7.097h.355-.848a3.549 3.549 0 0 1 0-7.096h39.628v35.481h.203-49.615zM60.276.693h.203-.203z" id="a"/><linearGradient x1="136.346%" y1="46.532%" x2="-41.632%" y2="55.417%" id="c"><stop offset="0%"/><stop offset="10.27%"/><stop stop-color="#7E5FAA" offset="100%"/></linearGradient><path d="M.447 21.738C.447 9.758 10.16.045 22.14.045c11.981 0 21.694 9.713 21.694 21.693 0 11.98-9.713 21.692-21.694 21.692C10.16 43.43.447 33.718.447 21.738" id="d"/><linearGradient x1="-6.423%" y1="10.079%" x2="99.916%" y2="85.317%" id="f"><stop stop-color="#4690F9" offset="0%"/><stop stop-color="#1568FF" offset="19.27%"/><stop stop-color="#1568FF" offset="25.483%"/><stop stop-color="#94C7FF" offset="100%"/></linearGradient><path d="M.447 21.738C.447 9.758 10.16.045 22.14.045c11.981 0 21.694 9.713 21.694 21.693 0 11.98-9.713 21.692-21.694 21.692C10.16 43.43.447 33.718.447 21.738" id="g"/><path id="i" d="M.909 44.279h44.135V.143H.909z"/><path d="M.455 28.46C.455 12.836 13.12.172 28.74.172c15.622 0 28.287 12.664 28.287 28.286 0 15.621-12.665 28.285-28.287 28.285C13.12 56.744.455 44.08.455 28.46" id="k"/><linearGradient x1="-6.424%" y1="10.079%" x2="99.916%" y2="85.318%" id="m"><stop stop-color="#8A6A98" offset="0%"/><stop stop-color="#B3315A" offset="19.27%"/><stop stop-color="#B3315A" offset="25.483%"/><stop stop-color="#FFBCB9" offset="100%"/></linearGradient><path id="n" d="M0 184.769h184.769V0H0z"/><path d="M.455 28.46C.455 12.836 13.12.172 28.74.172c15.622 0 28.287 12.664 28.287 28.286 0 15.621-12.665 28.285-28.287 28.285C13.12 56.744.455 44.08.455 28.46" id="p"/><path id="r" d="M.354 45.852h45.665V.187H.354z"/><path d="M46.02 23.02C46.02 10.41 35.795.186 23.186.186 10.577.187.354 10.41.354 23.019c0 12.61 10.222 22.833 22.833 22.833 12.61 0 22.832-10.222 22.832-22.833" id="t"/><linearGradient x1="0%" y1="50.001%" x2="99.999%" y2="50.001%" id="v"><stop stop-color="#844EC6" offset="0%"/><stop stop-color="#844EC6" offset="6.795%"/><stop stop-color="#9071FF" offset="100%"/></linearGradient><path id="w" d="M.177 22.087h21.611V.477H.178z"/><path d="M.447 21.738C.447 9.758 10.16.045 22.14.045c11.981 0 21.694 9.713 21.694 21.693 0 11.98-9.713 21.692-21.694 21.692C10.16 43.43.447 33.718.447 21.738" id="y"/><linearGradient x1="1.984%" y1="688.118%" x2="98.015%" y2="573.48%" id="A"><stop stop-color="#704EFD" offset="0%"/><stop stop-color="#704EFD" offset="4.865%"/><stop stop-color="#CA72FE" offset="71.598%"/><stop stop-color="#CA72FE" offset="71.845%"/><stop stop-color="#9071FF" offset="100%"/></linearGradient><path id="B" d="M.734 43.487h52.165V.875H.734z"/></defs><g fill="none" fill-rule="evenodd"><g transform="matrix(1 0 0 -1 25.725 107.024)"><mask id="b" fill="#fff"><use xlink:href="#a"/></mask><g mask="url(#b)" fill-rule="nonzero" fill="url(#c)"><path d="M10.864 36.174a3.548 3.548 0 0 1-3.547-3.55 3.547 3.547 0 0 1 3.547-3.547h-.304 1.152-.356 3.592a.907.907 0 1 0 0-1.814h.026H6.44a6.188 6.188 0 1 1 0-12.377h14.701a3.548 3.548 0 1 0 0-7.097h.355-.848a3.549 3.549 0 0 1 0-7.096h39.628v35.481h.203-49.615zM60.276.693h.203-.203z"/></g></g><g transform="matrix(1 0 0 -1 33.116 81.156)"><mask id="e" fill="#fff"><use xlink:href="#d"/></mask><g mask="url(#e)" fill-rule="nonzero" fill="url(#f)"><path d="M.447 21.738C.447 9.758 10.16.045 22.14.045c11.981 0 21.694 9.713 21.694 21.693 0 11.98-9.713 21.692-21.694 21.692C10.16 43.43.447 33.718.447 21.738"/></g></g><g transform="matrix(1 0 0 -1 33.116 81.156)"><mask id="h" fill="#fff"><use xlink:href="#g"/></mask><g mask="url(#h)"><g transform="translate(18.477 10.162)"><mask id="j" fill="#fff"><use xlink:href="#i"/></mask><g opacity=".3" mask="url(#j)" fill-rule="nonzero" fill="#FFF"><path d="M45.044 22.211c0-12.187-9.88-22.068-22.068-22.068C10.789.143.909 10.024.909 22.211c0 12.188 9.88 22.068 22.067 22.068 12.188 0 22.068-9.88 22.068-22.068"/></g></g></g></g><g transform="matrix(1 0 0 -1 73.765 118.11)"><mask id="l" fill="#fff"><use xlink:href="#k"/></mask><g mask="url(#l)" fill-rule="nonzero" fill="url(#m)"><path d="M.455 28.46C.455 12.836 13.12.172 28.74.172c15.622 0 28.287 12.664 28.287 28.286 0 15.621-12.665 28.285-28.287 28.285C13.12 56.744.455 44.08.455 28.46"/></g></g><g transform="matrix(1 0 0 -1 -14 170.769)"><mask id="o" fill="#fff"><use xlink:href="#n"/></mask><g mask="url(#o)"><path d="M142.052 58.464a10.35 10.35 0 0 0-2.446-1.7 11.972 11.972 0 0 0-2.728-.897c-1.841-.34-3.654-.294-5.38-.046-3.455.528-6.624 1.77-9.593 3.277-5.925 3.062-11.093 7.247-15.617 11.966-4.5 4.737-8.408 10.079-11.134 16.018-1.338 2.968-2.389 6.106-2.733 9.36-.16 1.623-.116 3.278.252 4.87.2.79.48 1.56.858 2.281a8.61 8.61 0 0 0 1.464 1.928 8.596 8.596 0 0 1-1.361-1.98 10.18 10.18 0 0 1-.736-2.278c-.284-1.573-.25-3.188-.018-4.764.487-3.16 1.659-6.176 3.107-9.016 2.94-5.678 7.012-10.715 11.609-15.113 4.61-4.378 9.82-8.174 15.515-10.777 2.839-1.28 5.823-2.26 8.782-2.563 1.473-.143 2.931-.087 4.253.224.655.17 1.27.401 1.83.698.548.314 1.036.69 1.463 1.125l.03.03a1.849 1.849 0 1 0 2.583-2.643" fill="#FFCA9F" fill-rule="nonzero"/><path d="M88.639 63.646a5.04 5.04 0 1 0-10.08.001 5.04 5.04 0 0 0 10.08 0" fill="#6ACCEF" fill-rule="nonzero"/></g></g><g transform="matrix(1 0 0 -1 73.765 118.11)"><mask id="q" fill="#fff"><use xlink:href="#p"/></mask><g mask="url(#q)"><g transform="translate(14.782 12.01)"><mask id="s" fill="#fff"><use xlink:href="#r"/></mask><g opacity=".35" mask="url(#s)"><mask id="u" fill="#fff"><use xlink:href="#t"/></mask><g mask="url(#u)" fill-rule="nonzero" fill="url(#v)"><path d="M46.02 23.02C46.02 10.41 35.795.186 23.186.186 10.577.187.354 10.41.354 23.019c0 12.61 10.222 22.833 22.833 22.833 12.61 0 22.832-10.222 22.832-22.833"/></g></g></g><g transform="translate(20.325 36.954)"><mask id="x" fill="#fff"><use xlink:href="#w"/></mask><g opacity=".25" mask="url(#x)"><path d="M21.788 11.281C21.788 5.314 16.95.477 10.983.477 5.015.477.178 5.314.178 11.28c0 5.968 4.837 10.806 10.805 10.806 5.967 0 10.805-4.838 10.805-10.806" fill="#FFF" fill-rule="nonzero"/></g></g></g></g><g transform="matrix(1 0 0 -1 33.116 81.156)"><mask id="z" fill="#fff"><use xlink:href="#y"/></mask><g mask="url(#z)"><path d="M0 .924C4.51 3.096 6.598-1.24 11.108.932c4.511 2.172 2.424 6.508 6.935 8.68 4.51 2.173 6.599-2.164 11.11.009 4.514 2.174 2.426 6.51 6.939 8.682 4.512 2.173 6.6-2.163 11.112.01 4.515 2.174 2.427 6.51 6.942 8.685 4.515 2.172 6.602-2.162 11.118.012" stroke="url(#A)" stroke-width="3.695" transform="translate(-14.124 18.032)"/><g transform="translate(5.543 -.924)"><mask id="C" fill="#fff"><use xlink:href="#B"/></mask><g opacity=".44" mask="url(#C)" stroke-linecap="round" stroke-linejoin="round"><path d="M2.582 2.723c3.225 3.028 6.52-.48 9.744 2.55 3.226 3.03-.068 6.537 3.157 9.565 3.227 3.03 6.52-.477 9.747 2.552 3.225 3.028-.07 6.536 3.155 9.565 3.228 3.03 6.522-.478 9.749 2.553 3.23 3.032-.065 6.54 3.165 9.573 3.23 3.034 6.523-.474 9.753 2.558" stroke="#FFCCA6" stroke-width="3.695"/></g></g></g></g></g></svg>