<svg width="155" height="155" viewBox="0 0 155 155" xmlns="http://www.w3.org/2000/svg" xmlns:xlink="http://www.w3.org/1999/xlink"><defs><path d="M10.864 36.174a3.548 3.548 0 0 1-3.547-3.55 3.547 3.547 0 0 1 3.547-3.547h-.304 1.152-.356 3.592a.907.907 0 1 0 0-1.814h.026H6.44a6.188 6.188 0 1 1 0-12.377h14.701a3.548 3.548 0 1 0 0-7.097h.355-.848a3.549 3.549 0 0 1 0-7.096h39.628v35.481h.203-49.615zM60.276.693h.203-.203z" id="a"/><linearGradient x1="136.346%" y1="46.532%" x2="-41.632%" y2="55.417%" id="c"><stop offset="0%"/><stop offset="10.27%"/><stop stop-color="#7E5FAA" offset="100%"/></linearGradient><path d="M.447 21.738C.447 9.758 10.16.045 22.14.045c11.981 0 21.694 9.713 21.694 21.693 0 11.98-9.713 21.692-21.694 21.692C10.16 43.43.447 33.718.447 21.738" id="d"/><linearGradient x1="-6.423%" y1="10.079%" x2="99.916%" y2="85.317%" id="f"><stop stop-color="#4690F9" offset="0%"/><stop stop-color="#1568FF" offset="19.27%"/><stop stop-color="#1568FF" offset="25.483%"/><stop stop-color="#94C7FF" offset="100%"/></linearGradient><path d="M.447 21.738C.447 9.758 10.16.045 22.14.045c11.981 0 21.694 9.713 21.694 21.693 0 11.98-9.713 21.692-21.694 21.692C10.16 43.43.447 33.718.447 21.738" id="g"/><path id="i" d="M.909 44.279h44.135V.143H.909z"/><path d="M.455 28.46C.455 12.836 13.12.172 28.74.172c15.622 0 28.287 12.664 28.287 28.286 0 15.621-12.665 28.285-28.287 28.285C13.12 56.744.455 44.08.455 28.46" id="k"/><linearGradient x1="-6.424%" y1="10.079%" x2="99.916%" y2="85.318%" id="m"><stop stop-color="#8A6A98" offset="0%"/><stop stop-color="#B3315A" offset="19.27%"/><stop stop-color="#B3315A" offset="25.483%"/><stop stop-color="#FFBCB9" offset="100%"/></linearGradient><path id="n" d="M0 184.769h184.769V0H0z"/><path d="M.84 2.824a2.24 2.24 0 1 1 4.48 0h.001a2.241 2.241 0 0 1-4.48 0" id="p"/><linearGradient x1=".006%" y1="49.99%" x2="99.993%" y2="49.99%" id="r"><stop stop-color="#844EC6" offset="0%"/><stop stop-color="#844EC6" offset="6.795%"/><stop stop-color="#9071FF" offset="100%"/></linearGradient><path d="M.455 28.46C.455 12.836 13.12.172 28.74.172c15.622 0 28.287 12.664 28.287 28.286 0 15.621-12.665 28.285-28.287 28.285C13.12 56.744.455 44.08.455 28.46" id="s"/><path id="u" d="M.354 45.852h45.665V.187H.354z"/><path d="M46.02 23.02C46.02 10.41 35.795.186 23.186.186 10.577.187.354 10.41.354 23.019c0 12.61 10.222 22.833 22.833 22.833 12.61 0 22.832-10.222 22.832-22.833" id="w"/><linearGradient x1="0%" y1="50.001%" x2="99.999%" y2="50.001%" id="y"><stop stop-color="#844EC6" offset="0%"/><stop stop-color="#844EC6" offset="6.795%"/><stop stop-color="#9071FF" offset="100%"/></linearGradient><path id="z" d="M.285 29.869h29.173V.697H.285z"/><path d="M29.458 15.282c0-8.055-6.53-14.585-14.586-14.585C6.816.697.285 7.227.285 15.282c0 8.056 6.531 14.587 14.587 14.587 8.056 0 14.586-6.53 14.586-14.587" id="B"/><linearGradient x1=".001%" y1="50%" x2="100.001%" y2="50%" id="D"><stop stop-color="#844EC6" offset="0%"/><stop stop-color="#844EC6" offset="6.795%"/><stop stop-color="#9071FF" offset="100%"/></linearGradient><path id="E" d="M.285 29.869h29.173V.697H.285z"/><path d="M29.458 15.282c0-8.055-6.53-14.585-14.586-14.585C6.816.697.285 7.227.285 15.282c0 8.056 6.531 14.587 14.587 14.587 8.056 0 14.586-6.53 14.586-14.587" id="G"/><path id="I" d="M.177 22.087h21.611V.477H.178z"/><path d="M.447 21.738C.447 9.758 10.16.045 22.14.045c11.981 0 21.694 9.713 21.694 21.693 0 11.98-9.713 21.692-21.694 21.692C10.16 43.43.447 33.718.447 21.738" id="K"/><linearGradient x1="1.984%" y1="688.118%" x2="98.015%" y2="573.48%" id="M"><stop stop-color="#704EFD" offset="0%"/><stop stop-color="#704EFD" offset="4.865%"/><stop stop-color="#CA72FE" offset="71.598%"/><stop stop-color="#CA72FE" offset="71.845%"/><stop stop-color="#9071FF" offset="100%"/></linearGradient><path id="N" d="M.734 43.487h52.165V.875H.734z"/><path id="P" d="M0 184.769h184.769V0H0z"/><path id="R" d="M.145 1.8h1.337V.465H.145z"/><path id="T" d="M.446.93h.567V.361H.446z"/><path id="V" d="M.184 1.39H.75V.823H.184z"/><path id="X" d="M.002 1.035h.32V.714h-.32z"/><path id="Z" d="M.306 1.104h.321V.783h-.32z"/><path id="ab" d="M.414.794h.321V.472H.414z"/><path id="ad" d="M.208.467h.32V.146h-.32z"/><path id="af" d="M.36.52h.322V.2H.36z"/><path id="ah" d="M.242 1.096h.321v-.32H.242z"/></defs><g fill="none" fill-rule="evenodd"><g transform="matrix(1 0 0 -1 25.725 107.024)"><mask id="b" fill="#fff"><use xlink:href="#a"/></mask><g mask="url(#b)" fill-rule="nonzero" fill="url(#c)"><path d="M10.864 36.174a3.548 3.548 0 0 1-3.547-3.55 3.547 3.547 0 0 1 3.547-3.547h-.304 1.152-.356 3.592a.907.907 0 1 0 0-1.814h.026H6.44a6.188 6.188 0 1 1 0-12.377h14.701a3.548 3.548 0 1 0 0-7.097h.355-.848a3.549 3.549 0 0 1 0-7.096h39.628v35.481h.203-49.615zM60.276.693h.203-.203z"/></g></g><g transform="matrix(1 0 0 -1 33.116 81.156)"><mask id="e" fill="#fff"><use xlink:href="#d"/></mask><g mask="url(#e)" fill-rule="nonzero" fill="url(#f)"><path d="M.447 21.738C.447 9.758 10.16.045 22.14.045c11.981 0 21.694 9.713 21.694 21.693 0 11.98-9.713 21.692-21.694 21.692C10.16 43.43.447 33.718.447 21.738"/></g></g><g transform="matrix(1 0 0 -1 33.116 81.156)"><mask id="h" fill="#fff"><use xlink:href="#g"/></mask><g mask="url(#h)"><g transform="translate(18.477 10.162)"><mask id="j" fill="#fff"><use xlink:href="#i"/></mask><g opacity=".3" mask="url(#j)" fill-rule="nonzero" fill="#FFF"><path d="M45.044 22.211c0-12.187-9.88-22.068-22.068-22.068C10.789.143.909 10.024.909 22.211c0 12.188 9.88 22.068 22.067 22.068 12.188 0 22.068-9.88 22.068-22.068"/></g></g></g></g><g transform="matrix(1 0 0 -1 73.765 118.11)"><mask id="l" fill="#fff"><use xlink:href="#k"/></mask><g mask="url(#l)" fill-rule="nonzero" fill="url(#m)"><path d="M.455 28.46C.455 12.836 13.12.172 28.74.172c15.622 0 28.287 12.664 28.287 28.286 0 15.621-12.665 28.285-28.287 28.285C13.12 56.744.455 44.08.455 28.46"/></g></g><g transform="matrix(1 0 0 -1 -14 170.769)"><mask id="o" fill="#fff"><use xlink:href="#n"/></mask><g mask="url(#o)"><path d="M142.052 58.464a10.35 10.35 0 0 0-2.446-1.7 11.972 11.972 0 0 0-2.728-.897c-1.841-.34-3.654-.294-5.38-.046-3.455.528-6.624 1.77-9.593 3.277-5.925 3.062-11.093 7.247-15.617 11.966-4.5 4.737-8.408 10.079-11.134 16.018-1.338 2.968-2.389 6.106-2.733 9.36-.16 1.623-.116 3.278.252 4.87.2.79.48 1.56.858 2.281a8.61 8.61 0 0 0 1.464 1.928 8.596 8.596 0 0 1-1.361-1.98 10.18 10.18 0 0 1-.736-2.278c-.284-1.573-.25-3.188-.018-4.764.487-3.16 1.659-6.176 3.107-9.016 2.94-5.678 7.012-10.716 11.609-15.113 4.61-4.378 9.82-8.174 15.515-10.777 2.839-1.28 5.823-2.26 8.782-2.563 1.473-.143 2.931-.087 4.253.223.655.17 1.27.402 1.83.699.548.314 1.036.69 1.463 1.125l.03.03a1.849 1.849 0 1 0 2.583-2.643" fill="#FFCA9F" fill-rule="nonzero"/><path d="M88.639 63.646a5.04 5.04 0 1 0-10.08.001 5.04 5.04 0 0 0 10.08 0" fill="#6ACCEF" fill-rule="nonzero"/></g></g><g transform="matrix(1 0 0 -1 122.73 60.831)"><mask id="q" fill="#fff"><use xlink:href="#p"/></mask><g mask="url(#q)" fill-rule="nonzero" fill="url(#r)"><path d="M.84 2.824a2.24 2.24 0 1 1 4.48 0h.001a2.241 2.241 0 0 1-4.48 0"/></g></g><g transform="matrix(1 0 0 -1 73.765 118.11)"><mask id="t" fill="#fff"><use xlink:href="#s"/></mask><g mask="url(#t)"><g transform="translate(14.782 12.01)"><mask id="v" fill="#fff"><use xlink:href="#u"/></mask><g opacity=".35" mask="url(#v)"><mask id="x" fill="#fff"><use xlink:href="#w"/></mask><g mask="url(#x)" fill-rule="nonzero" fill="url(#y)"><path d="M46.02 23.02C46.02 10.41 35.795.186 23.186.186 10.577.187.354 10.41.354 23.019c0 12.61 10.222 22.833 22.833 22.833 12.61 0 22.832-10.222 22.832-22.833"/></g></g></g><g transform="translate(25.868 21.248)"><mask id="A" fill="#fff"><use xlink:href="#z"/></mask><g opacity=".55" mask="url(#A)"><mask id="C" fill="#fff"><use xlink:href="#B"/></mask><g mask="url(#C)" fill-rule="nonzero" fill="url(#D)"><path d="M29.458 15.282c0-8.055-6.53-14.585-14.586-14.585C6.816.697.285 7.227.285 15.282c0 8.056 6.531 14.587 14.587 14.587 8.056 0 14.586-6.53 14.586-14.587"/></g></g></g><g transform="translate(25.868 21.248)"><mask id="F" fill="#fff"><use xlink:href="#E"/></mask><g opacity=".55" mask="url(#F)"><mask id="H" fill="#fff"><use xlink:href="#G"/></mask><g mask="url(#H)" fill-rule="nonzero" fill="url(#D)"><path d="M29.458 15.282c0-8.055-6.53-14.585-14.586-14.585C6.816.697.285 7.227.285 15.282c0 8.056 6.531 14.587 14.587 14.587 8.056 0 14.586-6.53 14.586-14.587"/></g></g></g><g transform="translate(20.325 36.954)"><mask id="J" fill="#fff"><use xlink:href="#I"/></mask><g opacity=".25" mask="url(#J)"><path d="M21.788 11.281C21.788 5.314 16.95.477 10.983.477 5.015.477.178 5.314.178 11.28c0 5.968 4.837 10.806 10.805 10.806 5.967 0 10.805-4.838 10.805-10.806" fill="#FFF" fill-rule="nonzero"/></g></g></g></g><g transform="matrix(1 0 0 -1 33.116 81.156)"><mask id="L" fill="#fff"><use xlink:href="#K"/></mask><g mask="url(#L)"><path d="M0 .924C4.51 3.096 6.598-1.24 11.108.932c4.511 2.171 2.424 6.508 6.935 8.68 4.51 2.173 6.599-2.164 11.11.009 4.514 2.174 2.426 6.51 6.939 8.682 4.512 2.173 6.6-2.163 11.112.01 4.515 2.174 2.427 6.51 6.942 8.685 4.515 2.172 6.602-2.162 11.118.012" stroke="url(#M)" stroke-width="3.695" transform="translate(-14.124 18.032)"/><g transform="translate(5.543 -.924)"><mask id="O" fill="#fff"><use xlink:href="#N"/></mask><g opacity=".44" mask="url(#O)" stroke-linecap="round" stroke-linejoin="round"><path d="M2.582 2.723c3.225 3.028 6.52-.48 9.744 2.55 3.226 3.03-.068 6.537 3.157 9.565 3.227 3.03 6.52-.477 9.747 2.552 3.225 3.028-.07 6.536 3.155 9.565 3.228 3.03 6.522-.478 9.749 2.553 3.23 3.032-.065 6.54 3.165 9.573 3.23 3.034 6.523-.474 9.753 2.558" stroke="#FFCCA6" stroke-width="3.695"/></g></g></g></g><g transform="matrix(1 0 0 -1 -14 170.769)"><mask id="Q" fill="#fff"><use xlink:href="#P"/></mask><g mask="url(#Q)"><g transform="translate(60.05 81.298)"><mask id="S" fill="#fff"><use xlink:href="#R"/></mask><g opacity=".95" mask="url(#S)"><path d="M.866 1.798A.668.668 0 1 0 .762.467a.668.668 0 0 0 .104 1.331" fill="#FFF" fill-rule="nonzero"/></g></g><g transform="translate(65.593 84.994)"><mask id="U" fill="#fff"><use xlink:href="#T"/></mask><g opacity=".95" mask="url(#U)"><path d="M.752.929A.284.284 0 1 0 .706.363.284.284 0 0 0 .752.93" fill="#FFF" fill-rule="nonzero"/></g></g><g transform="translate(78.527 68.365)"><mask id="W" fill="#fff"><use xlink:href="#V"/></mask><g opacity=".95" mask="url(#W)"><path d="M.49 1.39a.284.284 0 1 0 0 0" fill="#FFF" fill-rule="nonzero"/></g></g><g transform="translate(69.288 84.07)"><mask id="Y" fill="#fff"><use xlink:href="#X"/></mask><g opacity=".95" mask="url(#Y)"><path d="M.175 1.034A.16.16 0 0 0 .322.861.16.16 0 0 0 .149.715a.16.16 0 1 0 .026.32" fill="#FFF" fill-rule="nonzero"/></g></g><g transform="translate(86.841 80.375)"><mask id="aa" fill="#fff"><use xlink:href="#Z"/></mask><g opacity=".95" mask="url(#aa)"><path d="M.48 1.103A.16.16 0 0 0 .626.93.16.16 0 0 0 .455.783a.16.16 0 1 0 .025.32" fill="#FFF" fill-rule="nonzero"/></g></g><g transform="translate(89.613 98.851)"><mask id="ac" fill="#fff"><use xlink:href="#ab"/></mask><g opacity=".95" mask="url(#ac)"><path d="M.587.792A.16.16 0 0 0 .734.62.16.16 0 0 0 .562.473a.16.16 0 0 0-.147.172.16.16 0 0 0 .172.147" fill="#FFF" fill-rule="nonzero"/></g></g><g transform="translate(84.07 71.136)"><mask id="ae" fill="#fff"><use xlink:href="#ad"/></mask><g opacity=".95" mask="url(#ae)"><path d="M.381.467a.161.161 0 0 0-.026-.32.161.161 0 0 0 .026.32" fill="#FFF" fill-rule="nonzero"/></g></g><g transform="translate(57.278 83.146)"><mask id="ag" fill="#fff"><use xlink:href="#af"/></mask><g opacity=".95" mask="url(#ag)"><path d="M.534.52A.16.16 0 1 0 .508.2a.16.16 0 0 0 .026.32" fill="#FFF" fill-rule="nonzero"/></g></g><g transform="translate(54.507 81.298)"><mask id="ai" fill="#fff"><use xlink:href="#ah"/></mask><g opacity=".95" mask="url(#ai)"><path d="M.415 1.095A.16.16 0 0 0 .562.923.161.161 0 0 0 .39.775a.161.161 0 0 0-.146.174.16.16 0 0 0 .172.146" fill="#FFF" fill-rule="nonzero"/></g></g></g></g></g></svg>