<svg width="155" height="155" viewBox="0 0 155 155" xmlns="http://www.w3.org/2000/svg" xmlns:xlink="http://www.w3.org/1999/xlink"><defs><path id="a" d="M0 199.75h199.75V0H0z"/><path d="M56.209 108.269L11.112 63.173l-.296-.296.296.296c-14.304-14.305-14.304-37.497 0-51.8 14.305-14.306 37.497-14.306 51.802 0l-.296-.297 38.722 38.722a7.327 7.327 0 0 1-10.291 10.43l-4.085-4.086.518.52a7.323 7.323 0 0 0-10.36 0 7.324 7.324 0 0 0-.067 10.29L98.2 88.1A7.326 7.326 0 1 1 87.84 98.46L69.26 79.88a7.326 7.326 0 0 0-10.362 0 7.323 7.323 0 0 0 0 10.358l7.67 7.67a7.325 7.325 0 0 1 0 10.36 7.305 7.305 0 0 1-5.18 2.147 7.303 7.303 0 0 1-5.18-2.146zm34.771-48.11l.07.069.375.374-.445-.443z" id="c"/><path id="e" d="M.517 26.589H26.18V.927H.517z"/><path d="M26.18 13.758C26.18 6.672 20.433.927 13.347.927S.518 6.672.518 13.757c0 7.088 5.744 12.833 12.83 12.833S26.18 20.845 26.18 13.758" id="g"/><linearGradient x1="-47.862%" y1="49.999%" x2="260.962%" y2="49.999%" id="i"><stop stop-color="#A9AEFF" offset="0%"/><stop stop-color="#A992FF" offset="19.27%"/><stop stop-color="#A992FF" offset="25.483%"/><stop stop-color="#ACA5FF" offset="43.311%"/><stop stop-color="#ACECFE" offset="100%"/></linearGradient><path id="j" d="M.12 24.23h23.375V.856H.12z"/><path id="l" d="M0 199.75h199.75V0H0z"/><path id="n" d="M.37 58.626h58.16V.465H.37z"/><path d="M58.532 29.545c0-16.06-13.02-29.08-29.08-29.08C13.39.464.37 13.484.37 29.544c0 16.061 13.02 29.08 29.08 29.08s29.08-13.019 29.08-29.08" id="p"/><linearGradient x1="60.638%" y1="-11.953%" x2="38.08%" y2="119.414%" id="r"><stop stop-color="#A9AEFF" offset="0%"/><stop stop-color="#A992FF" offset="19.27%"/><stop stop-color="#A992FF" offset="25.483%"/><stop stop-color="#ACA5FF" offset="43.311%"/><stop stop-color="#ACECFE" offset="100%"/></linearGradient><path d="M.738 15.25a2.751 2.751 0 0 1 1.423-2.372L24.027.604a2.9 2.9 0 0 1 2.848 0l21.866 12.353a2.756 2.756 0 0 1 1.424 2.372l-.009.025-25.234 12.193L.738 15.25z" id="s"/><linearGradient x1="116.95%" y1="-25.552%" x2="15.866%" y2="92.272%" id="u"><stop stop-color="#A9AEFF" offset="0%"/><stop stop-color="#A992FF" offset="19.27%"/><stop stop-color="#A992FF" offset="25.483%"/><stop stop-color="#ACA5FF" offset="43.311%"/><stop stop-color="#ACECFE" offset="100%"/></linearGradient><path id="v" d="M0 199.75h199.75V0H0z"/><path d="M.952 14.563L25.767.907c.271.44.417.946.42 1.463-.048 4.934 0 18.978 0 23.914a3.002 3.002 0 0 1-.665 2.324L.952 14.563z" id="x"/><linearGradient x1="-.002%" y1="50%" y2="50%" id="z"><stop stop-color="#A9AEFF" offset="0%"/><stop stop-color="#A992FF" offset="19.27%"/><stop stop-color="#A992FF" offset="25.483%"/><stop stop-color="#ACA5FF" offset="43.311%"/><stop stop-color="#ACECFE" offset="100%"/></linearGradient><path id="A" d="M0 199.75h199.75V0H0z"/></defs><g fill="none" fill-rule="evenodd"><g transform="matrix(1 0 0 -1 -22 177.75)"><mask id="b" fill="#fff"><use xlink:href="#a"/></mask><g mask="url(#b)"><path d="M58.757 107.82l45.392 45.392a7.325 7.325 0 0 0 10.36 0 7.325 7.325 0 0 0 0-10.36l-8.188-8.188.518.519a7.326 7.326 0 0 1 10.36-10.361l18.581 18.582a7.328 7.328 0 0 0 10.361 0 7.328 7.328 0 0 0 0-10.36l-21.523-21.524.444.445a7.326 7.326 0 0 1 10.36-10.36l-.518-.519 4.46 4.46-.444-.444a7.325 7.325 0 0 0 10.36 0 7.328 7.328 0 0 0 0-10.36L110.558 56.02l.296.296c-14.305-14.306-37.497-14.306-51.802 0-14.304 14.304-14.304 37.496 0 51.8l-.295-.295z" fill="#000" fill-rule="nonzero"/></g></g><g transform="matrix(1 0 0 -1 25.94 132.806)"><mask id="d" fill="#fff"><use xlink:href="#c"/></mask><g mask="url(#d)"><g transform="translate(63.92 75.905)"><mask id="f" fill="#fff"><use xlink:href="#e"/></mask><g opacity=".65" mask="url(#f)"><mask id="h" fill="#fff"><use xlink:href="#g"/></mask><g mask="url(#h)" fill-rule="nonzero" fill="url(#i)"><path d="M26.18 13.758C26.18 6.672 20.433.927 13.347.927S.518 6.672.518 13.757c0 7.088 5.744 12.833 12.83 12.833S26.18 20.845 26.18 13.758"/></g></g></g><g transform="translate(84.894 24.969)"><mask id="k" fill="#fff"><use xlink:href="#j"/></mask><g opacity=".9" mask="url(#k)" fill-rule="nonzero" fill="#AEC7FF"><path d="M20.071 20.807c4.564-4.564 4.564-11.964 0-16.529-4.564-4.563-11.964-4.563-16.527 0-4.565 4.565-4.565 11.965 0 16.529 4.563 4.563 11.963 4.563 16.527 0"/></g></g></g></g><g transform="matrix(1 0 0 -1 -22 177.75)"><mask id="m" fill="#fff"><use xlink:href="#l"/></mask><g mask="url(#m)"><g transform="translate(55.93 52.934)"><mask id="o" fill="#fff"><use xlink:href="#n"/></mask><g opacity=".8" mask="url(#o)"><mask id="q" fill="#fff"><use xlink:href="#p"/></mask><g mask="url(#q)" fill-rule="nonzero" fill="url(#r)"><path d="M58.532 29.545c0-16.06-13.02-29.08-29.08-29.08C13.39.464.37 13.484.37 29.544c0 16.061 13.02 29.08 29.08 29.08s29.08-13.019 29.08-29.08"/></g></g></g></g></g><g transform="matrix(1 0 0 -1 37.925 122.819)"><mask id="t" fill="#fff"><use xlink:href="#s"/></mask><g mask="url(#t)" fill-rule="nonzero" fill="url(#u)"><path d="M.738 15.25a2.751 2.751 0 0 1 1.423-2.372L24.027.604a2.9 2.9 0 0 1 2.848 0l21.866 12.353a2.756 2.756 0 0 1 1.424 2.372l-.009.025-25.234 12.193L.738 15.25z"/></g></g><g transform="matrix(1 0 0 -1 -22 177.75)"><mask id="w" fill="#fff"><use xlink:href="#v"/></mask><g mask="url(#w)"><path d="M85.376 73.353a9.102 9.102 0 1 0 0 18.206 9.104 9.104 0 0 0 9.103-9.08c-.005-5.026-4.078-9.099-9.103-9.103v-.023zm0 27.315c-10.045 0-18.189-8.144-18.189-18.19 0-10.045 8.144-18.187 18.19-18.187 10.045 0 18.189 8.142 18.189 18.188 0 10.045-8.144 18.19-18.19 18.19z" fill="#FFF" fill-rule="nonzero"/></g></g><g transform="matrix(1 0 0 -1 61.895 109.835)"><mask id="y" fill="#fff"><use xlink:href="#x"/></mask><g mask="url(#y)" fill-rule="nonzero" fill="url(#z)"><path d="M.952 14.563L25.767.907c.271.44.417.946.42 1.463-.048 4.934 0 18.978 0 23.914a3.002 3.002 0 0 1-.665 2.324L.952 14.563z"/></g></g><g transform="matrix(1 0 0 -1 -22 177.75)"><mask id="B" fill="#fff"><use xlink:href="#A"/></mask><g mask="url(#B)"><path fill="#FFF" fill-rule="nonzero" d="M102.015 83.396h-1.835v1.827h-1.826v-1.827h-1.835v-1.834h1.835v-1.827h1.826v1.827h1.835zM108.88 83.396h-1.827v1.827h-1.835v-1.827h-1.827v-1.834h1.827v-1.827h1.835v1.827h1.827z"/></g></g></g></svg>