<svg width="155" height="155" viewBox="0 0 155 155" xmlns="http://www.w3.org/2000/svg" xmlns:xlink="http://www.w3.org/1999/xlink"><defs><path id="a" d="M0 199.75h199.75V0H0z"/><path d="M56.209 108.269L10.963 63.022c-14.156-14.316-14.105-37.395.15-51.65 14.304-14.305 37.496-14.305 51.801 0l-.296-.296 38.722 38.722a7.326 7.326 0 0 1 0 10.36 7.325 7.325 0 0 1-10.36 0l.445.444-4.46-4.46.517.52a7.325 7.325 0 0 0-10.36 0 7.325 7.325 0 0 0 0 10.36L98.203 88.1a7.326 7.326 0 0 1 0 10.36 7.328 7.328 0 0 1-10.362 0L69.26 79.878a7.327 7.327 0 0 0-10.453 10.267l7.762 7.765a7.323 7.323 0 0 1 0 10.359 7.305 7.305 0 0 1-5.18 2.146 7.303 7.303 0 0 1-5.18-2.146zM10.816 62.876l.147.146.15.151-.297-.297z" id="c"/><path id="e" d="M.338 25.46h25.001V.458H.338z"/><path d="M25.34 12.96C25.34 6.055 19.741.458 12.838.458 5.935.458.338 6.055.338 12.96c0 6.903 5.597 12.5 12.501 12.5 6.903 0 12.5-5.597 12.5-12.5" id="g"/><linearGradient x1="-47.862%" y1="50.001%" x2="260.962%" y2="50.001%" id="i"><stop stop-color="#A9AEFF" offset="0%"/><stop stop-color="#A992FF" offset="19.27%"/><stop stop-color="#A992FF" offset="25.483%"/><stop stop-color="#ACA5FF" offset="43.311%"/><stop stop-color="#ACECFE" offset="100%"/></linearGradient><path id="j" d="M0 199.75h199.75V0H0z"/><path id="l" d="M.37 58.626h58.16V.465H.37z"/><path d="M58.532 29.545c0-16.06-13.02-29.08-29.08-29.08C13.39.464.37 13.484.37 29.544c0 16.061 13.02 29.08 29.08 29.08s29.08-13.019 29.08-29.08" id="n"/><linearGradient x1="60.638%" y1="-11.953%" x2="38.08%" y2="119.414%" id="p"><stop stop-color="#A9AEFF" offset="0%"/><stop stop-color="#A992FF" offset="19.27%"/><stop stop-color="#A992FF" offset="25.483%"/><stop stop-color="#ACA5FF" offset="43.311%"/><stop stop-color="#ACECFE" offset="100%"/></linearGradient><path d="M.738 15.25a2.754 2.754 0 0 1 1.423-2.373L24.027.605a2.89 2.89 0 0 1 2.848 0l21.866 12.352a2.756 2.756 0 0 1 1.424 2.372v24.515a2.755 2.755 0 0 1-1.424 2.373L.738 15.25z" id="q"/><linearGradient x1="128.906%" y1="5.226%" x2="27.821%" y2="81.88%" id="s"><stop stop-color="#A9AEFF" offset="0%"/><stop stop-color="#A992FF" offset="19.27%"/><stop stop-color="#A992FF" offset="25.483%"/><stop stop-color="#ACA5FF" offset="43.311%"/><stop stop-color="#ACECFE" offset="100%"/></linearGradient><path d="M23.77 42.51L.394 2.252A2.229 2.229 0 0 1 .793.746L49.5 28.523c-.23.313-.527.572-.868.756L26.74 41.512c-.755.398-1.63 1.13-2.428 1.13-.186 0-.368-.04-.543-.131" id="t"/><linearGradient x1="64.053%" y1="-61.475%" x2="34.718%" y2="138.79%" id="v"><stop stop-color="#A9AEFF" offset="0%"/><stop stop-color="#A992FF" offset="19.27%"/><stop stop-color="#A992FF" offset="25.483%"/><stop stop-color="#ACA5FF" offset="43.311%"/><stop stop-color="#ACECFE" offset="100%"/></linearGradient><path id="w" d="M0 199.75h199.75V0H0z"/><path d="M.952 14.564L25.767.907a2.8 2.8 0 0 1 .42 1.462c-.048 4.936 0 18.98 0 23.914a3.006 3.006 0 0 1-.665 2.326L.952 14.564z" id="y"/><linearGradient x1="-.002%" y1="49.999%" y2="49.999%" id="A"><stop stop-color="#A9AEFF" offset="0%"/><stop stop-color="#A992FF" offset="19.27%"/><stop stop-color="#A992FF" offset="25.483%"/><stop stop-color="#ACA5FF" offset="43.311%"/><stop stop-color="#ACECFE" offset="100%"/></linearGradient><path id="B" d="M0 199.75h199.75V0H0z"/><path id="D" d="M.915 27.517h26.539V.977H.915z"/></defs><g fill="none" fill-rule="evenodd"><g transform="matrix(1 0 0 -1 -22 177.75)"><mask id="b" fill="#fff"><use xlink:href="#a"/></mask><g mask="url(#b)"><path d="M58.757 107.82l45.392 45.393a7.326 7.326 0 0 0 10.36-10.36l-8.188-8.19.518.52a7.326 7.326 0 0 1 10.36-10.361l18.581 18.582a7.326 7.326 0 0 0 10.361-10.36l-21.523-21.523.444.443a7.326 7.326 0 0 1 10.36-10.36l-.518-.517 4.46 4.46-.444-.445a7.326 7.326 0 0 0 10.36-10.36L110.558 56.02l.296.296c-14.305-14.305-37.497-14.305-51.802 0-14.304 14.304-14.304 37.497 0 51.801l-.295-.297z" fill="#000" fill-rule="nonzero"/></g></g><g transform="matrix(1 0 0 -1 25.94 132.806)"><mask id="d" fill="#fff"><use xlink:href="#c"/></mask><g mask="url(#d)"><g transform="translate(89.888 35.955)"><mask id="f" fill="#fff"><use xlink:href="#e"/></mask><g opacity=".65" mask="url(#f)"><mask id="h" fill="#fff"><use xlink:href="#g"/></mask><g mask="url(#h)" fill-rule="nonzero" fill="url(#i)"><path d="M25.34 12.96C25.34 6.055 19.741.458 12.838.458 5.935.458.338 6.055.338 12.96c0 6.903 5.597 12.5 12.501 12.5 6.903 0 12.5-5.597 12.5-12.5"/></g></g></g><path d="M61.485 111.995c10.458 0 18.935-8.478 18.935-18.936 0-10.457-8.477-18.935-18.935-18.935-10.458 0-18.935 8.478-18.935 18.935 0 10.458 8.477 18.936 18.935 18.936" fill="#546BEF" fill-rule="nonzero"/></g></g><g transform="matrix(1 0 0 -1 -22 177.75)"><mask id="k" fill="#fff"><use xlink:href="#j"/></mask><g mask="url(#k)"><g transform="translate(55.93 52.934)"><mask id="m" fill="#fff"><use xlink:href="#l"/></mask><g opacity=".8" mask="url(#m)"><mask id="o" fill="#fff"><use xlink:href="#n"/></mask><g mask="url(#o)" fill-rule="nonzero" fill="url(#p)"><path d="M58.532 29.545c0-16.06-13.02-29.08-29.08-29.08C13.39.464.37 13.484.37 29.544c0 16.061 13.02 29.08 29.08 29.08s29.08-13.019 29.08-29.08"/></g></g></g></g></g><g transform="matrix(1 0 0 -1 37.925 122.819)"><mask id="r" fill="#fff"><use xlink:href="#q"/></mask><g mask="url(#r)" fill-rule="nonzero" fill="url(#s)"><path d="M.738 15.25a2.754 2.754 0 0 1 1.423-2.373L24.027.605a2.89 2.89 0 0 1 2.848 0l21.866 12.352a2.756 2.756 0 0 1 1.424 2.372v24.515a2.755 2.755 0 0 1-1.424 2.373L.738 15.25z"/></g></g><g transform="matrix(1 0 0 -1 37.925 109.835)"><mask id="u" fill="#fff"><use xlink:href="#t"/></mask><g mask="url(#u)" fill-rule="nonzero" fill="url(#v)"><path d="M23.77 42.51L.394 2.252A2.229 2.229 0 0 1 .793.746L49.5 28.523c-.23.313-.527.572-.868.756L26.74 41.512c-.755.398-1.63 1.13-2.428 1.13-.186 0-.368-.04-.543-.131"/></g></g><g transform="matrix(1 0 0 -1 -22 177.75)"><mask id="x" fill="#fff"><use xlink:href="#w"/></mask><g mask="url(#x)"><path d="M85.376 73.353a9.103 9.103 0 1 0 9.103 9.126c-.005-5.025-4.078-9.098-9.103-9.102v-.024zm0 27.316c-10.045 0-18.189-8.145-18.189-18.19 0-10.045 8.144-18.189 18.19-18.189 10.045 0 18.189 8.144 18.189 18.19 0 10.044-8.144 18.189-18.19 18.189z" fill="#FFF" fill-rule="nonzero"/></g></g><g transform="matrix(1 0 0 -1 61.895 109.835)"><mask id="z" fill="#fff"><use xlink:href="#y"/></mask><g mask="url(#z)" fill-rule="nonzero" fill="url(#A)"><path d="M.952 14.564L25.767.907a2.8 2.8 0 0 1 .42 1.462c-.048 4.936 0 18.98 0 23.914a3.006 3.006 0 0 1-.665 2.326L.952 14.564z"/></g></g><g transform="matrix(1 0 0 -1 -22 177.75)"><mask id="C" fill="#fff"><use xlink:href="#B"/></mask><g mask="url(#C)"><path fill="#FFF" fill-rule="nonzero" d="M102.015 83.397h-1.835v1.827h-1.826v-1.827h-1.835V81.56h1.835v-1.826h1.826v1.826h1.835zM108.88 83.397h-1.827v1.827h-1.835v-1.827h-1.827V81.56h1.827v-1.826h1.835v1.826h1.827z"/><g transform="translate(88.889 87.89)"><mask id="E" fill="#fff"><use xlink:href="#D"/></mask><g opacity=".65" mask="url(#E)" fill-rule="nonzero" fill="#FFE5A4"><path d="M27.453 14.247c0-7.329-5.94-13.27-13.269-13.27S.914 6.918.914 14.247s5.941 13.27 13.27 13.27 13.27-5.941 13.27-13.27"/></g></g></g></g></g></svg>