<svg width="155" height="155" viewBox="0 0 155 155" xmlns="http://www.w3.org/2000/svg" xmlns:xlink="http://www.w3.org/1999/xlink"><defs><path id="a" d="M0 199.75h199.75V0H0z"/><path d="M56.209 108.269L10.962 63.02c-14.153-14.315-14.103-37.395.15-51.65 14.304-14.303 37.495-14.303 51.8-.001l38.428 38.429a7.325 7.325 0 0 1 0 10.359 7.325 7.325 0 0 1-10.36 0l.445.444-4.46-4.46.517.52a7.325 7.325 0 0 0-10.36 0 7.325 7.325 0 0 0 0 10.36L98.203 88.1a7.326 7.326 0 0 1 0 10.36 7.328 7.328 0 0 1-10.362 0L69.26 79.878a7.328 7.328 0 0 0-10.362 0 7.325 7.325 0 0 0 0 10.36l-.517-.517 8.188 8.189a7.323 7.323 0 0 1 0 10.359 7.305 7.305 0 0 1-5.18 2.146 7.303 7.303 0 0 1-5.18-2.146zM10.816 62.876l.146.145.15.152-.296-.297zM62.911 11.37l-.293-.294.296.296-.003-.002z" id="c"/><path id="e" d="M.338 25.46h25.001V.458H.338z"/><path d="M25.34 12.959c0-6.904-5.598-12.5-12.501-12.5C5.935.458.338 6.054.338 12.958s5.597 12.5 12.501 12.5c6.903 0 12.5-5.596 12.5-12.5" id="g"/><linearGradient x1="-47.862%" y1="50.001%" x2="260.962%" y2="50.001%" id="i"><stop stop-color="#A9AEFF" offset="0%"/><stop stop-color="#A992FF" offset="19.27%"/><stop stop-color="#A992FF" offset="25.483%"/><stop stop-color="#ACA5FF" offset="43.311%"/><stop stop-color="#ACECFE" offset="100%"/></linearGradient><path d="M1.646 21.298a16.435 16.435 0 0 1-.668-4.65C.978 12.4 2.59 8.53 5.235 5.613l3.406 3.407a7.323 7.323 0 0 1 0 10.359 7.298 7.298 0 0 1-5.18 2.145 7.34 7.34 0 0 1-1.815-.227M29.913 9.571L20.949.607c5.648 1.243 10.204 5.39 12.024 10.798a7.304 7.304 0 0 1-3.06-1.834" id="j"/><linearGradient x1="0%" y1="76.683%" x2="102.672%" y2="76.683%" id="l"><stop stop-color="#844EC6" offset="0%"/><stop stop-color="#844EC6" offset="6.795%"/><stop stop-color="#9071FF" offset="100%"/></linearGradient><path id="m" d="M0 199.75h199.75V0H0z"/><path id="o" d="M.37 58.626h58.16V.465H.37z"/><path d="M58.532 29.545c0-16.06-13.02-29.08-29.08-29.08C13.39.464.37 13.484.37 29.544c0 16.061 13.02 29.08 29.08 29.08s29.08-13.019 29.08-29.08" id="q"/><linearGradient x1="60.638%" y1="-11.953%" x2="38.08%" y2="119.414%" id="s"><stop stop-color="#A9AEFF" offset="0%"/><stop stop-color="#A992FF" offset="19.27%"/><stop stop-color="#A992FF" offset="25.483%"/><stop stop-color="#ACA5FF" offset="43.311%"/><stop stop-color="#ACECFE" offset="100%"/></linearGradient><path d="M.523 4.713a4.424 4.424 0 0 1 8.846 0 4.423 4.423 0 1 1-8.846 0" id="t"/><linearGradient x1="-47.864%" y1="50.007%" x2="260.967%" y2="50.007%" id="v"><stop stop-color="#A9AEFF" offset="0%"/><stop stop-color="#A992FF" offset="19.27%"/><stop stop-color="#A992FF" offset="25.483%"/><stop stop-color="#ACA5FF" offset="43.311%"/><stop stop-color="#ACECFE" offset="100%"/></linearGradient><path id="w" d="M0 199.75h199.75V0H0z"/><path d="M.738 15.25a2.752 2.752 0 0 1 1.423-2.372L24.027.604a2.9 2.9 0 0 1 2.848 0l21.866 12.353a2.756 2.756 0 0 1 1.424 2.372v24.516a2.754 2.754 0 0 1-1.424 2.372L.738 15.251z" id="y"/><linearGradient x1="128.906%" y1="5.224%" x2="27.821%" y2="81.88%" id="A"><stop stop-color="#A9AEFF" offset="0%"/><stop stop-color="#A992FF" offset="19.27%"/><stop stop-color="#A992FF" offset="25.483%"/><stop stop-color="#ACA5FF" offset="43.311%"/><stop stop-color="#ACECFE" offset="100%"/></linearGradient><path d="M23.77 42.512L.394 2.252A2.23 2.23 0 0 1 .793.745L49.5 28.523c-.23.313-.527.572-.868.757L26.74 41.513c-.755.398-1.63 1.13-2.43 1.13-.184 0-.366-.04-.54-.131" id="B"/><linearGradient x1="64.053%" y1="-61.475%" x2="34.718%" y2="138.79%" id="D"><stop stop-color="#A9AEFF" offset="0%"/><stop stop-color="#A992FF" offset="19.27%"/><stop stop-color="#A992FF" offset="25.483%"/><stop stop-color="#ACA5FF" offset="43.311%"/><stop stop-color="#ACECFE" offset="100%"/></linearGradient><path id="E" d="M0 199.75h199.75V0H0z"/><path d="M.952 14.564L25.767.907a2.8 2.8 0 0 1 .42 1.462c-.048 4.936 0 18.98 0 23.914a3.005 3.005 0 0 1-.665 2.326L.952 14.564z" id="G"/><linearGradient x1="-.002%" y1="49.999%" y2="49.999%" id="I"><stop stop-color="#A9AEFF" offset="0%"/><stop stop-color="#A992FF" offset="19.27%"/><stop stop-color="#A992FF" offset="25.483%"/><stop stop-color="#ACA5FF" offset="43.311%"/><stop stop-color="#ACECFE" offset="100%"/></linearGradient><path id="J" d="M0 199.75h199.75V0H0z"/><path id="L" d="M.915 27.517h26.539V.977H.915z"/></defs><g fill="none" fill-rule="evenodd"><g transform="matrix(1 0 0 -1 -22 177.75)"><mask id="b" fill="#fff"><use xlink:href="#a"/></mask><g mask="url(#b)"><path d="M58.757 107.82l45.392 45.393a7.326 7.326 0 0 0 10.36-10.36l-8.188-8.189.518.518a7.326 7.326 0 0 1 10.36-10.361l18.581 18.583a7.326 7.326 0 0 0 10.361-10.36l-21.523-21.523.444.443a7.326 7.326 0 0 1 10.36-10.36l-.518-.517 4.46 4.46-.444-.445a7.326 7.326 0 0 0 10.36-10.36L110.558 56.02l.296.296c-14.305-14.305-37.497-14.305-51.802 0-14.304 14.304-14.304 37.497 0 51.801l-.295-.296z" fill="#000" fill-rule="nonzero"/></g></g><g transform="matrix(1 0 0 -1 25.94 132.806)"><mask id="d" fill="#fff"><use xlink:href="#c"/></mask><g mask="url(#d)"><g transform="translate(89.888 35.955)"><mask id="f" fill="#fff"><use xlink:href="#e"/></mask><g opacity=".65" mask="url(#f)"><mask id="h" fill="#fff"><use xlink:href="#g"/></mask><g mask="url(#h)" fill-rule="nonzero" fill="url(#i)"><path d="M25.34 12.959c0-6.904-5.598-12.5-12.501-12.5C5.935.458.338 6.054.338 12.958s5.597 12.5 12.501 12.5c6.903 0 12.5-5.596 12.5-12.5"/></g></g></g></g></g><g transform="matrix(1 0 0 -1 83.868 43.918)"><mask id="k" fill="#fff"><use xlink:href="#j"/></mask><g mask="url(#k)" fill-rule="nonzero" fill="url(#l)"><path d="M1.646 21.298a16.435 16.435 0 0 1-.668-4.65C.978 12.4 2.59 8.53 5.235 5.613l3.406 3.407a7.323 7.323 0 0 1 0 10.359 7.298 7.298 0 0 1-5.18 2.145 7.34 7.34 0 0 1-1.815-.227M29.913 9.571L20.949.607c5.648 1.243 10.204 5.39 12.024 10.798a7.304 7.304 0 0 1-3.06-1.834"/></g></g><g transform="matrix(1 0 0 -1 -22 177.75)"><mask id="n" fill="#fff"><use xlink:href="#m"/></mask><g mask="url(#n)"><g transform="translate(55.93 52.934)"><mask id="p" fill="#fff"><use xlink:href="#o"/></mask><g opacity=".8" mask="url(#p)"><mask id="r" fill="#fff"><use xlink:href="#q"/></mask><g mask="url(#r)" fill-rule="nonzero" fill="url(#s)"><path d="M58.532 29.545c0-16.06-13.02-29.08-29.08-29.08C13.39.464.37 13.484.37 29.544c0 16.061 13.02 29.08 29.08 29.08s29.08-13.019 29.08-29.08"/></g></g></g></g></g><g transform="matrix(1 0 0 -1 57.9 48.911)"><mask id="u" fill="#fff"><use xlink:href="#t"/></mask><g mask="url(#u)" fill-rule="nonzero" fill="url(#v)"><path d="M.523 4.713a4.424 4.424 0 0 1 8.846 0 4.423 4.423 0 1 1-8.846 0"/></g></g><g transform="matrix(1 0 0 -1 -22 177.75)"><mask id="x" fill="#fff"><use xlink:href="#w"/></mask><g mask="url(#x)"><path d="M120.274 126.218a1.966 1.966 0 1 0-3.932 0 1.966 1.966 0 0 0 3.932 0" fill="#F2D581" fill-rule="nonzero"/></g></g><g transform="matrix(1 0 0 -1 37.925 122.819)"><mask id="z" fill="#fff"><use xlink:href="#y"/></mask><g mask="url(#z)" fill-rule="nonzero" fill="url(#A)"><path d="M.738 15.25a2.752 2.752 0 0 1 1.423-2.372L24.027.604a2.9 2.9 0 0 1 2.848 0l21.866 12.353a2.756 2.756 0 0 1 1.424 2.372v24.516a2.754 2.754 0 0 1-1.424 2.372L.738 15.251z"/></g></g><g transform="matrix(1 0 0 -1 37.925 109.835)"><mask id="C" fill="#fff"><use xlink:href="#B"/></mask><g mask="url(#C)" fill-rule="nonzero" fill="url(#D)"><path d="M23.77 42.512L.394 2.252A2.23 2.23 0 0 1 .793.745L49.5 28.523c-.23.313-.527.572-.868.757L26.74 41.513c-.755.398-1.63 1.13-2.43 1.13-.184 0-.366-.04-.54-.131"/></g></g><g transform="matrix(1 0 0 -1 -22 177.75)"><mask id="F" fill="#fff"><use xlink:href="#E"/></mask><g mask="url(#F)"><path d="M85.376 73.353a9.103 9.103 0 1 0 9.103 9.126 9.112 9.112 0 0 0-9.103-9.103v-.023zm0 27.316c-10.045 0-18.189-8.145-18.189-18.19 0-10.046 8.144-18.189 18.19-18.189 10.045 0 18.189 8.143 18.189 18.19 0 10.044-8.144 18.189-18.19 18.189z" fill="#FFF" fill-rule="nonzero"/></g></g><g transform="matrix(1 0 0 -1 61.895 109.835)"><mask id="H" fill="#fff"><use xlink:href="#G"/></mask><g mask="url(#H)" fill-rule="nonzero" fill="url(#I)"><path d="M.952 14.564L25.767.907a2.8 2.8 0 0 1 .42 1.462c-.048 4.936 0 18.98 0 23.914a3.005 3.005 0 0 1-.665 2.326L.952 14.564z"/></g></g><g transform="matrix(1 0 0 -1 -22 177.75)"><mask id="K" fill="#fff"><use xlink:href="#J"/></mask><g mask="url(#K)"><path fill="#FFF" fill-rule="nonzero" d="M102.015 83.396h-1.835v1.827h-1.826v-1.827h-1.835v-1.835h1.835v-1.826h1.826v1.826h1.835zM108.88 83.396h-1.827v1.827h-1.835v-1.827h-1.827v-1.835h1.827v-1.826h1.835v1.826h1.827z"/><g transform="translate(88.889 87.89)"><mask id="M" fill="#fff"><use xlink:href="#L"/></mask><g opacity=".45" mask="url(#M)" fill-rule="nonzero" fill="#FFE5A4"><path d="M27.453 14.247c0-7.329-5.94-13.27-13.269-13.27S.914 6.919.914 14.248s5.941 13.27 13.27 13.27 13.27-5.941 13.27-13.27"/></g></g></g></g></g></svg>