<svg width="155" height="155" viewBox="0 0 155 155" xmlns="http://www.w3.org/2000/svg" xmlns:xlink="http://www.w3.org/1999/xlink"><defs><path id="a" d="M0 199.75h199.75V0H0z"/><path d="M56.209 108.27L10.962 63.022c-14.153-14.316-14.103-37.396.15-51.65 14.305-14.305 37.497-14.305 51.802 0l-.296-.297L101.34 49.8a7.325 7.325 0 0 1 0 10.359 7.325 7.325 0 0 1-10.36 0l.445.444-4.46-4.46.517.52a7.325 7.325 0 0 0-10.36 0 7.325 7.325 0 0 0 0 10.36L98.203 88.1a7.326 7.326 0 0 1 0 10.36 7.328 7.328 0 0 1-10.362 0L69.26 79.878a7.328 7.328 0 0 0-10.362 0 7.325 7.325 0 0 0 0 10.36l-.517-.517 8.188 8.189a7.325 7.325 0 0 1 0 10.36 7.304 7.304 0 0 1-5.18 2.145 7.302 7.302 0 0 1-5.18-2.145zM10.816 62.876l.146.146.15.151-.296-.297z" id="c"/><path id="e" d="M.338 25.46h25.001V.458H.338z"/><path d="M25.34 12.959C25.34 6.055 19.741.457 12.838.457 5.935.457.338 6.055.338 12.96c0 6.904 5.597 12.5 12.501 12.5 6.903 0 12.5-5.596 12.5-12.5" id="g"/><linearGradient x1="-47.862%" y1="50.003%" x2="260.962%" y2="50.003%" id="i"><stop stop-color="#A9AEFF" offset="0%"/><stop stop-color="#A992FF" offset="19.27%"/><stop stop-color="#A992FF" offset="25.483%"/><stop stop-color="#ACA5FF" offset="43.311%"/><stop stop-color="#ACECFE" offset="100%"/></linearGradient><path d="M.48 17.008c0-.627.034-1.248.103-1.857a7.337 7.337 0 0 1 .664 6.835C.748 20.416.48 18.744.48 17.008m20.445-2.443L8.978 2.618A16.349 16.349 0 0 1 16.904.582c7.524 0 13.868 5.06 15.811 11.964a7.301 7.301 0 0 1-1.43 2.019 7.306 7.306 0 0 1-5.18 2.145 7.306 7.306 0 0 1-5.181-2.145" id="j"/><linearGradient x1="-.001%" y1="76.743%" x2="101.904%" y2="76.743%" id="l"><stop stop-color="#844EC6" offset="0%"/><stop stop-color="#844EC6" offset="6.795%"/><stop stop-color="#9071FF" offset="100%"/></linearGradient><path d="M.37 29.545C.37 13.485 13.39.465 29.45.465c16.062 0 29.08 13.02 29.08 29.08 0 16.061-13.018 29.082-29.08 29.082C13.39 58.627.37 45.606.37 29.545" id="m"/><linearGradient x1="60.639%" y1="-11.952%" x2="38.08%" y2="119.412%" id="o"><stop stop-color="#A9AEFF" offset="0%"/><stop stop-color="#A992FF" offset="19.27%"/><stop stop-color="#A992FF" offset="25.483%"/><stop stop-color="#ACA5FF" offset="43.311%"/><stop stop-color="#ACECFE" offset="100%"/></linearGradient><path id="p" d="M0 199.75h199.75V0H0z"/><path id="r" d="M.938 21.531H22.76V.537H.938z"/><path d="M14.04 20.17l1.48-2.998a2.441 2.441 0 0 1 1.838-1.337l3.31-.481c2.003-.29 2.802-2.753 1.352-4.165l-2.395-2.334a2.444 2.444 0 0 1-.702-2.162l.566-3.295C19.83 1.403 17.737-.12 15.946.823l-2.96 1.556a2.44 2.44 0 0 1-2.273 0L7.753.823c-1.791-.942-3.886.58-3.543 2.575l.565 3.295a2.444 2.444 0 0 1-.702 2.162l-2.395 2.334c-1.45 1.412-.65 3.874 1.353 4.165l3.31.481a2.443 2.443 0 0 1 1.839 1.337l1.48 2.999c.895 1.815 3.484 1.815 4.38 0" id="t"/><linearGradient x1="-2.612%" y1="18.523%" x2="116.519%" y2="76.606%" id="v"><stop stop-color="#844EC6" offset="0%"/><stop stop-color="#844EC6" offset="6.795%"/><stop stop-color="#9071FF" offset="100%"/></linearGradient><path d="M.329 5.322a4.422 4.422 0 1 1 8.846 0 4.424 4.424 0 0 1-8.846 0" id="w"/><linearGradient x1="-47.862%" y1="49.992%" x2="260.97%" y2="49.992%" id="y"><stop stop-color="#A9AEFF" offset="0%"/><stop stop-color="#A992FF" offset="19.27%"/><stop stop-color="#A992FF" offset="25.483%"/><stop stop-color="#ACA5FF" offset="43.311%"/><stop stop-color="#ACECFE" offset="100%"/></linearGradient><path id="z" d="M0 199.75h199.75V0H0z"/><path d="M.738 15.25a2.75 2.75 0 0 1 1.423-2.372L24.027.604a2.9 2.9 0 0 1 2.848 0l21.866 12.353a2.756 2.756 0 0 1 1.424 2.372v24.516a2.754 2.754 0 0 1-1.424 2.372L.738 15.251z" id="B"/><linearGradient x1="128.906%" y1="5.224%" x2="27.821%" y2="81.88%" id="D"><stop stop-color="#A9AEFF" offset="0%"/><stop stop-color="#A992FF" offset="19.27%"/><stop stop-color="#A992FF" offset="25.483%"/><stop stop-color="#ACA5FF" offset="43.311%"/><stop stop-color="#ACECFE" offset="100%"/></linearGradient><path d="M23.77 42.512L.394 2.252A2.23 2.23 0 0 1 .793.745L49.5 28.523c-.23.313-.527.572-.868.757L26.74 41.513c-.755.398-1.63 1.13-2.43 1.13-.184 0-.366-.04-.54-.131" id="E"/><linearGradient x1="64.053%" y1="-61.475%" x2="34.718%" y2="138.79%" id="G"><stop stop-color="#A9AEFF" offset="0%"/><stop stop-color="#A992FF" offset="19.27%"/><stop stop-color="#A992FF" offset="25.483%"/><stop stop-color="#ACA5FF" offset="43.311%"/><stop stop-color="#ACECFE" offset="100%"/></linearGradient><path id="H" d="M0 199.75h199.75V0H0z"/><path d="M.952 14.564L25.767.907a2.8 2.8 0 0 1 .42 1.462c-.048 4.936 0 18.98 0 23.914a3.005 3.005 0 0 1-.665 2.326L.952 14.564z" id="J"/><linearGradient x1="-.002%" y1="49.999%" y2="49.999%" id="L"><stop stop-color="#A9AEFF" offset="0%"/><stop stop-color="#A992FF" offset="19.27%"/><stop stop-color="#A992FF" offset="25.483%"/><stop stop-color="#ACA5FF" offset="43.311%"/><stop stop-color="#ACECFE" offset="100%"/></linearGradient><path id="M" d="M0 199.75h199.75V0H0z"/><path id="O" d="M.915 27.517h26.539V.977H.915z"/></defs><g fill="none" fill-rule="evenodd"><g transform="matrix(1 0 0 -1 -22 177.75)"><mask id="b" fill="#fff"><use xlink:href="#a"/></mask><g mask="url(#b)"><path d="M58.757 107.82l45.392 45.393a7.326 7.326 0 0 0 10.36-10.36l-8.188-8.189.518.517a7.326 7.326 0 0 1 10.36-10.36l18.581 18.583a7.326 7.326 0 0 0 10.361-10.36l-21.523-21.523.444.443a7.326 7.326 0 0 1 10.36-10.36l-.518-.517 4.46 4.46-.444-.445a7.326 7.326 0 0 0 10.36-10.36l-38.722-38.723.296.297c-14.305-14.305-37.497-14.305-51.802 0-14.304 14.304-14.304 37.497 0 51.801l-.295-.296z" fill="#000" fill-rule="nonzero"/></g></g><g transform="matrix(1 0 0 -1 25.94 132.806)"><mask id="d" fill="#fff"><use xlink:href="#c"/></mask><g mask="url(#d)"><g transform="translate(89.888 35.955)"><mask id="f" fill="#fff"><use xlink:href="#e"/></mask><g opacity=".65" mask="url(#f)"><mask id="h" fill="#fff"><use xlink:href="#g"/></mask><g mask="url(#h)" fill-rule="nonzero" fill="url(#i)"><path d="M25.34 12.959C25.34 6.055 19.741.457 12.838.457 5.935.457.338 6.055.338 12.96c0 6.904 5.597 12.5 12.501 12.5 6.903 0 12.5-5.596 12.5-12.5"/></g></g></g></g></g><g transform="matrix(1 0 0 -1 92.856 48.911)"><mask id="k" fill="#fff"><use xlink:href="#j"/></mask><g mask="url(#k)" fill-rule="nonzero" fill="url(#l)"><path d="M.48 17.008c0-.627.034-1.248.103-1.857a7.337 7.337 0 0 1 .664 6.835C.748 20.416.48 18.744.48 17.008m20.445-2.443L8.978 2.618A16.349 16.349 0 0 1 16.904.582c7.524 0 13.868 5.06 15.811 11.964a7.301 7.301 0 0 1-1.43 2.019 7.306 7.306 0 0 1-5.18 2.145 7.306 7.306 0 0 1-5.181-2.145"/></g></g><g transform="matrix(1 0 0 -1 33.93 124.816)"><mask id="n" fill="#fff"><use xlink:href="#m"/></mask><g mask="url(#n)" fill-rule="nonzero" fill="url(#o)"><path d="M.37 29.545C.37 13.485 13.39.465 29.45.465c16.062 0 29.08 13.02 29.08 29.08 0 16.061-13.018 29.082-29.08 29.082C13.39 58.627.37 45.606.37 29.545"/></g></g><g transform="matrix(1 0 0 -1 -22 177.75)"><mask id="q" fill="#fff"><use xlink:href="#p"/></mask><g mask="url(#q)"><g transform="translate(74.906 122.846)"><mask id="s" fill="#fff"><use xlink:href="#r"/></mask><g opacity=".65" mask="url(#s)"><mask id="u" fill="#fff"><use xlink:href="#t"/></mask><g mask="url(#u)" fill-rule="nonzero" fill="url(#v)"><path d="M14.04 20.17l1.48-2.998a2.441 2.441 0 0 1 1.838-1.337l3.31-.481c2.003-.29 2.802-2.753 1.352-4.165l-2.395-2.334a2.444 2.444 0 0 1-.702-2.162l.566-3.295C19.83 1.403 17.737-.12 15.946.823l-2.96 1.556a2.44 2.44 0 0 1-2.273 0L7.753.823c-1.791-.942-3.886.58-3.543 2.575l.565 3.295a2.444 2.444 0 0 1-.702 2.162l-2.395 2.334c-1.45 1.412-.65 3.874 1.353 4.165l3.31.481a2.443 2.443 0 0 1 1.839 1.337l1.48 2.999c.895 1.815 3.484 1.815 4.38 0"/></g></g></g></g></g><g transform="matrix(1 0 0 -1 103.843 84.866)"><mask id="x" fill="#fff"><use xlink:href="#w"/></mask><g mask="url(#x)" fill-rule="nonzero" fill="url(#y)"><path d="M.329 5.322a4.422 4.422 0 1 1 8.846 0 4.424 4.424 0 0 1-8.846 0"/></g></g><g transform="matrix(1 0 0 -1 -22 177.75)"><mask id="A" fill="#fff"><use xlink:href="#z"/></mask><g mask="url(#A)"><path d="M120.274 126.219a1.966 1.966 0 1 0-3.932-.001 1.966 1.966 0 0 0 3.932 0" fill="#F2D581" fill-rule="nonzero"/></g></g><g transform="matrix(1 0 0 -1 37.925 122.819)"><mask id="C" fill="#fff"><use xlink:href="#B"/></mask><g mask="url(#C)" fill-rule="nonzero" fill="url(#D)"><path d="M.738 15.25a2.75 2.75 0 0 1 1.423-2.372L24.027.604a2.9 2.9 0 0 1 2.848 0l21.866 12.353a2.756 2.756 0 0 1 1.424 2.372v24.516a2.754 2.754 0 0 1-1.424 2.372L.738 15.251z"/></g></g><g transform="matrix(1 0 0 -1 37.925 109.835)"><mask id="F" fill="#fff"><use xlink:href="#E"/></mask><g mask="url(#F)" fill-rule="nonzero" fill="url(#G)"><path d="M23.77 42.512L.394 2.252A2.23 2.23 0 0 1 .793.745L49.5 28.523c-.23.313-.527.572-.868.757L26.74 41.513c-.755.398-1.63 1.13-2.43 1.13-.184 0-.366-.04-.54-.131"/></g></g><g transform="matrix(1 0 0 -1 -22 177.75)"><mask id="I" fill="#fff"><use xlink:href="#H"/></mask><g mask="url(#I)"><path d="M85.376 73.353a9.103 9.103 0 1 0 9.103 9.126 9.112 9.112 0 0 0-9.103-9.103v-.023zm0 27.316c-10.045 0-18.189-8.145-18.189-18.19 0-10.046 8.144-18.189 18.19-18.189 10.045 0 18.189 8.143 18.189 18.19 0 10.044-8.144 18.189-18.19 18.189z" fill="#FFF" fill-rule="nonzero"/></g></g><g transform="matrix(1 0 0 -1 61.895 109.835)"><mask id="K" fill="#fff"><use xlink:href="#J"/></mask><g mask="url(#K)" fill-rule="nonzero" fill="url(#L)"><path d="M.952 14.564L25.767.907a2.8 2.8 0 0 1 .42 1.462c-.048 4.936 0 18.98 0 23.914a3.005 3.005 0 0 1-.665 2.326L.952 14.564z"/></g></g><g transform="matrix(1 0 0 -1 -22 177.75)"><mask id="N" fill="#fff"><use xlink:href="#M"/></mask><g mask="url(#N)"><path fill="#FFF" fill-rule="nonzero" d="M102.015 83.396h-1.835v1.827h-1.826v-1.827h-1.835v-1.835h1.835v-1.826h1.826v1.826h1.835zM108.88 83.396h-1.827v1.827h-1.835v-1.827h-1.827v-1.835h1.827v-1.826h1.835v1.826h1.827z"/><g transform="translate(88.889 87.89)"><mask id="P" fill="#fff"><use xlink:href="#O"/></mask><g opacity=".45" mask="url(#P)" fill-rule="nonzero" fill="#FFE5A4"><path d="M27.453 14.247c0-7.329-5.94-13.27-13.269-13.27S.914 6.919.914 14.248s5.941 13.27 13.27 13.27 13.27-5.941 13.27-13.27"/></g></g></g></g></g></svg>