<svg width="155" height="155" viewBox="0 0 155 155" xmlns="http://www.w3.org/2000/svg" xmlns:xlink="http://www.w3.org/1999/xlink"><defs><path id="a" d="M0 199.75h199.75V0H0z"/><path d="M.338 7.965c0-2.873.968-5.52 2.598-7.631l8.517 8.516a7.325 7.325 0 0 1 0 10.359 7.315 7.315 0 0 1-1.22.985C4.578 18.995.337 13.977.337 7.965" id="c"/><linearGradient x1="-90.241%" y1="38.427%" x2="492.029%" y2="38.427%" id="e"><stop stop-color="#A9AEFF" offset="0%"/><stop stop-color="#A992FF" offset="19.27%"/><stop stop-color="#A992FF" offset="25.483%"/><stop stop-color="#ACA5FF" offset="43.311%"/><stop stop-color="#ACECFE" offset="100%"/></linearGradient><path d="M.48 17.008c0-.627.034-1.248.103-1.857a7.337 7.337 0 0 1 .664 6.835C.748 20.416.48 18.744.48 17.008m20.445-2.443L8.978 2.618A16.349 16.349 0 0 1 16.904.582c7.524 0 13.868 5.06 15.811 11.964a7.301 7.301 0 0 1-1.43 2.019 7.303 7.303 0 0 1-5.18 2.146 7.303 7.303 0 0 1-5.181-2.146" id="f"/><linearGradient x1="-.001%" y1="76.743%" x2="101.904%" y2="76.743%" id="h"><stop stop-color="#844EC6" offset="0%"/><stop stop-color="#844EC6" offset="6.795%"/><stop stop-color="#9071FF" offset="100%"/></linearGradient><path d="M.37 29.545C.37 13.485 13.39.465 29.45.465c16.062 0 29.08 13.02 29.08 29.08 0 16.061-13.018 29.08-29.08 29.08-16.06 0-29.08-13.019-29.08-29.08" id="i"/><linearGradient x1="60.639%" y1="-11.953%" x2="38.08%" y2="119.416%" id="k"><stop stop-color="#A9AEFF" offset="0%"/><stop stop-color="#A992FF" offset="19.27%"/><stop stop-color="#A992FF" offset="25.483%"/><stop stop-color="#ACA5FF" offset="43.311%"/><stop stop-color="#ACECFE" offset="100%"/></linearGradient><path d="M9.66 20.17l-1.48-2.998a2.444 2.444 0 0 0-1.84-1.337l-3.309-.481C1.03 15.064.23 12.6 1.678 11.189l2.395-2.335a2.44 2.44 0 0 0 .702-2.16L4.21 3.397C3.867 1.402 5.962-.118 7.753.824l2.96 1.555c.712.375 1.56.375 2.273 0l2.96-1.555c1.79-.942 3.885.578 3.544 2.573l-.567 3.297c-.134.792.127 1.6.702 2.16l2.395 2.335c1.45 1.412.65 3.874-1.353 4.165l-3.309.481a2.444 2.444 0 0 0-1.84 1.337L14.04 20.17a2.414 2.414 0 0 1-2.19 1.362c-.87 0-1.742-.454-2.19-1.362" id="l"/><linearGradient x1="-2.612%" y1="18.52%" x2="116.516%" y2="76.604%" id="n"><stop stop-color="#844EC6" offset="0%"/><stop stop-color="#844EC6" offset="6.795%"/><stop stop-color="#9071FF" offset="100%"/></linearGradient><path d="M.329 5.322a4.422 4.422 0 1 1 8.846 0 4.424 4.424 0 0 1-8.846 0" id="o"/><linearGradient x1="-47.862%" y1="49.992%" x2="260.97%" y2="49.992%" id="q"><stop stop-color="#A9AEFF" offset="0%"/><stop stop-color="#A992FF" offset="19.27%"/><stop stop-color="#A992FF" offset="25.483%"/><stop stop-color="#ACA5FF" offset="43.311%"/><stop stop-color="#ACECFE" offset="100%"/></linearGradient><path id="r" d="M0 199.75h199.75V0H0z"/><path d="M.738 15.25a2.75 2.75 0 0 1 1.423-2.372L24.027.604a2.9 2.9 0 0 1 2.848 0l21.866 12.353a2.756 2.756 0 0 1 1.424 2.372v24.516a2.754 2.754 0 0 1-1.424 2.372L.738 15.251z" id="t"/><linearGradient x1="128.906%" y1="5.224%" x2="27.821%" y2="81.88%" id="v"><stop stop-color="#A9AEFF" offset="0%"/><stop stop-color="#A992FF" offset="19.27%"/><stop stop-color="#A992FF" offset="25.483%"/><stop stop-color="#ACA5FF" offset="43.311%"/><stop stop-color="#ACECFE" offset="100%"/></linearGradient><path d="M23.77 42.512L.394 2.252A2.23 2.23 0 0 1 .793.745L49.5 28.523c-.23.313-.527.572-.868.757L26.74 41.513c-.755.398-1.63 1.13-2.43 1.13-.184 0-.366-.04-.54-.131" id="w"/><linearGradient x1="64.053%" y1="-61.475%" x2="34.718%" y2="138.79%" id="y"><stop stop-color="#A9AEFF" offset="0%"/><stop stop-color="#A992FF" offset="19.27%"/><stop stop-color="#A992FF" offset="25.483%"/><stop stop-color="#ACA5FF" offset="43.311%"/><stop stop-color="#ACECFE" offset="100%"/></linearGradient><path id="z" d="M0 199.75h199.75V0H0z"/><path d="M.952 14.564L25.767.907c.271.44.417.945.42 1.463-.048 4.935 0 18.98 0 23.913a3.005 3.005 0 0 1-.665 2.326L.952 14.564z" id="B"/><linearGradient x1="-.002%" y1="49.999%" y2="49.999%" id="D"><stop stop-color="#A9AEFF" offset="0%"/><stop stop-color="#A992FF" offset="19.27%"/><stop stop-color="#A992FF" offset="25.483%"/><stop stop-color="#ACA5FF" offset="43.311%"/><stop stop-color="#ACECFE" offset="100%"/></linearGradient><path id="E" d="M0 199.75h199.75V0H0z"/><path id="G" d="M.915 27.517h26.539V.977H.915z"/><path id="I" d="M.487 1.453h1.446V.007H.487z"/><path id="K" d="M.127.967H.74V.353H.127z"/><path id="M" d="M.998 1.502h.613V.888H.998z"/><path id="O" d="M.02 1.576h.614V.962H.021z"/><path id="Q" d="M.831.357h.348V.01H.83z"/><path id="S" d="M.28 1.025h.347V.678H.28z"/><path id="U" d="M.324.983H.67V.636H.324z"/><path id="W" d="M.849 1.313h.347V.966H.849z"/><path id="Y" d="M.178.884h.347V.537H.178z"/><path id="aa" d="M.663 1.267h.347V.921H.663z"/><path id="ac" d="M.115 1.595H1.56V.149H.115z"/><path id="ae" d="M.545.989h.614V.375H.545z"/><path id="ag" d="M.962.859h.613V.245H.962z"/><path id="ai" d="M.517 1.492h.614V.88H.517z"/><path id="ak" d="M.246.36h.347V.012H.246z"/><path id="am" d="M.779 1.18h.347V.833H.779z"/><path id="ao" d="M.832.688h.348V.341H.832z"/><path id="aq" d="M.896 1.275h.347V.93H.896z"/><path id="as" d="M.487 1.282h.347V.936H.487z"/><path id="au" d="M.924.68h.347V.333H.924z"/></defs><g fill="none" fill-rule="evenodd"><g transform="matrix(1 0 0 -1 -22 177.75)"><mask id="b" fill="#fff"><use xlink:href="#a"/></mask><g mask="url(#b)"><path d="M58.757 107.82l45.392 45.393a7.326 7.326 0 0 0 10.36-10.36l-8.188-8.189.518.518a7.326 7.326 0 0 1 10.36-10.361l18.581 18.583a7.326 7.326 0 0 0 10.361-10.36l-21.523-21.523.444.443a7.326 7.326 0 0 1 10.36-10.36l-.518-.517 4.46 4.46-.444-.445a7.326 7.326 0 0 0 10.36-10.36l-38.722-38.723.296.297c-14.305-14.305-37.497-14.305-51.802 0-14.304 14.304-14.304 37.496 0 51.801l-.295-.296z" fill="#000" fill-rule="nonzero"/></g></g><g transform="matrix(1 0 0 -1 115.828 91.858)"><mask id="d" fill="#fff"><use xlink:href="#c"/></mask><g mask="url(#d)" fill-rule="nonzero" fill="url(#e)"><path d="M.338 7.965c0-2.873.968-5.52 2.598-7.631l8.517 8.516a7.325 7.325 0 0 1 0 10.359 7.315 7.315 0 0 1-1.22.985C4.578 18.995.337 13.977.337 7.965"/></g></g><g transform="matrix(1 0 0 -1 92.856 48.911)"><mask id="g" fill="#fff"><use xlink:href="#f"/></mask><g mask="url(#g)" fill-rule="nonzero" fill="url(#h)"><path d="M.48 17.008c0-.627.034-1.248.103-1.857a7.337 7.337 0 0 1 .664 6.835C.748 20.416.48 18.744.48 17.008m20.445-2.443L8.978 2.618A16.349 16.349 0 0 1 16.904.582c7.524 0 13.868 5.06 15.811 11.964a7.301 7.301 0 0 1-1.43 2.019 7.303 7.303 0 0 1-5.18 2.146 7.303 7.303 0 0 1-5.181-2.146"/></g></g><g transform="matrix(1 0 0 -1 33.93 124.816)"><mask id="j" fill="#fff"><use xlink:href="#i"/></mask><g mask="url(#j)" fill-rule="nonzero" fill="url(#k)"><path d="M.37 29.545C.37 13.485 13.39.465 29.45.465c16.062 0 29.08 13.02 29.08 29.08 0 16.061-13.018 29.08-29.08 29.08-16.06 0-29.08-13.019-29.08-29.08"/></g></g><g transform="matrix(1 0 0 -1 52.906 54.904)"><mask id="m" fill="#fff"><use xlink:href="#l"/></mask><g mask="url(#m)" fill-rule="nonzero" fill="url(#n)"><path d="M9.66 20.17l-1.48-2.998a2.444 2.444 0 0 0-1.84-1.337l-3.309-.481C1.03 15.064.23 12.6 1.678 11.189l2.395-2.335a2.44 2.44 0 0 0 .702-2.16L4.21 3.397C3.867 1.402 5.962-.118 7.753.824l2.96 1.555c.712.375 1.56.375 2.273 0l2.96-1.555c1.79-.942 3.885.578 3.544 2.573l-.567 3.297c-.134.792.127 1.6.702 2.16l2.395 2.335c1.45 1.412.65 3.874-1.353 4.165l-3.309.481a2.444 2.444 0 0 0-1.84 1.337L14.04 20.17a2.414 2.414 0 0 1-2.19 1.362c-.87 0-1.742-.454-2.19-1.362"/></g></g><g transform="matrix(1 0 0 -1 103.843 84.866)"><mask id="p" fill="#fff"><use xlink:href="#o"/></mask><g mask="url(#p)" fill-rule="nonzero" fill="url(#q)"><path d="M.329 5.322a4.422 4.422 0 1 1 8.846 0 4.424 4.424 0 0 1-8.846 0"/></g></g><g transform="matrix(1 0 0 -1 -22 177.75)"><mask id="s" fill="#fff"><use xlink:href="#r"/></mask><g mask="url(#s)"><path d="M120.274 126.219a1.966 1.966 0 1 0-3.932-.001 1.966 1.966 0 0 0 3.932 0" fill="#F2D581" fill-rule="nonzero"/></g></g><g transform="matrix(1 0 0 -1 37.925 122.819)"><mask id="u" fill="#fff"><use xlink:href="#t"/></mask><g mask="url(#u)" fill-rule="nonzero" fill="url(#v)"><path d="M.738 15.25a2.75 2.75 0 0 1 1.423-2.372L24.027.604a2.9 2.9 0 0 1 2.848 0l21.866 12.353a2.756 2.756 0 0 1 1.424 2.372v24.516a2.754 2.754 0 0 1-1.424 2.372L.738 15.251z"/></g></g><g transform="matrix(1 0 0 -1 37.925 109.835)"><mask id="x" fill="#fff"><use xlink:href="#w"/></mask><g mask="url(#x)" fill-rule="nonzero" fill="url(#y)"><path d="M23.77 42.512L.394 2.252A2.23 2.23 0 0 1 .793.745L49.5 28.523c-.23.313-.527.572-.868.757L26.74 41.513c-.755.398-1.63 1.13-2.43 1.13-.184 0-.366-.04-.54-.131"/></g></g><g transform="matrix(1 0 0 -1 -22 177.75)"><mask id="A" fill="#fff"><use xlink:href="#z"/></mask><g mask="url(#A)"><path d="M85.376 73.353a9.103 9.103 0 1 0 9.103 9.126 9.112 9.112 0 0 0-9.103-9.103v-.023zm0 27.315c-10.045 0-18.189-8.144-18.189-18.189 0-10.046 8.144-18.189 18.19-18.189 10.045 0 18.189 8.143 18.189 18.19 0 10.044-8.144 18.188-18.19 18.188z" fill="#FFF" fill-rule="nonzero"/></g></g><g transform="matrix(1 0 0 -1 61.895 109.835)"><mask id="C" fill="#fff"><use xlink:href="#B"/></mask><g mask="url(#C)" fill-rule="nonzero" fill="url(#D)"><path d="M.952 14.564L25.767.907c.271.44.417.945.42 1.463-.048 4.935 0 18.98 0 23.913a3.005 3.005 0 0 1-.665 2.326L.952 14.564z"/></g></g><g transform="matrix(1 0 0 -1 -22 177.75)"><mask id="F" fill="#fff"><use xlink:href="#E"/></mask><g mask="url(#F)"><path fill="#FFF" fill-rule="nonzero" d="M102.015 83.396h-1.835v1.827h-1.826v-1.827h-1.835v-1.835h1.835v-1.826h1.826v1.826h1.835zM108.88 83.396h-1.827v1.827h-1.835v-1.827h-1.827v-1.835h1.827v-1.826h1.835v1.826h1.827z"/><g transform="translate(88.889 87.89)"><mask id="H" fill="#fff"><use xlink:href="#G"/></mask><g opacity=".45" mask="url(#H)" fill-rule="nonzero" fill="#FFE5A4"><path d="M27.453 14.247c0-7.329-5.94-13.27-13.269-13.27S.914 6.919.914 14.248s5.941 13.27 13.27 13.27 13.27-5.941 13.27-13.27"/></g></g><g transform="translate(105.868 112.859)"><mask id="J" fill="#fff"><use xlink:href="#I"/></mask><g opacity=".95" mask="url(#J)"><path d="M1.791.3a.723.723 0 1 0-1.162.86A.723.723 0 0 0 1.79.3" fill="#FFF" fill-rule="nonzero"/></g></g><g transform="translate(115.855 100.874)"><mask id="L" fill="#fff"><use xlink:href="#K"/></mask><g opacity=".95" mask="url(#L)"><path d="M.68.477A.305.305 0 0 0 .253.413a.305.305 0 0 0-.065.429A.307.307 0 0 0 .68.477" fill="#FFF" fill-rule="nonzero"/></g></g><g transform="translate(113.858 67.915)"><mask id="N" fill="#fff"><use xlink:href="#M"/></mask><g opacity=".95" mask="url(#N)" fill-rule="nonzero" fill="#FFF"><path d="M1.55 1.013a.305.305 0 0 0-.428-.064.305.305 0 0 0-.065.428.307.307 0 0 0 .493-.365"/></g></g><g transform="translate(93.883 97.878)"><mask id="P" fill="#fff"><use xlink:href="#O"/></mask><g opacity=".95" mask="url(#P)"><path d="M.574 1.087a.306.306 0 1 0-.493.364.306.306 0 0 0 .493-.364" fill="#FFF" fill-rule="nonzero"/></g></g><g transform="translate(112.859 98.876)"><mask id="R" fill="#fff"><use xlink:href="#Q"/></mask><g opacity=".95" mask="url(#R)"><path d="M1.144.08a.174.174 0 1 0-.279.208.174.174 0 0 0 .28-.208" fill="#FFF" fill-rule="nonzero"/></g></g><g transform="translate(99.875 83.895)"><mask id="T" fill="#fff"><use xlink:href="#S"/></mask><g opacity=".95" mask="url(#T)"><path d="M.593.748a.174.174 0 0 0-.28.206.174.174 0 0 0 .28-.206" fill="#FFF" fill-rule="nonzero"/></g></g><g transform="translate(114.856 70.911)"><mask id="V" fill="#fff"><use xlink:href="#U"/></mask><g opacity=".95" mask="url(#V)"><path d="M.636.706A.174.174 0 1 0 .6.95.174.174 0 0 0 .636.706" fill="#FFF" fill-rule="nonzero"/></g></g><g transform="translate(91.885 91.885)"><mask id="X" fill="#fff"><use xlink:href="#W"/></mask><g opacity=".95" mask="url(#X)" fill-rule="nonzero" fill="#FFF"><path d="M1.162 1.036A.173.173 0 0 0 .919 1a.174.174 0 0 0 .207.279.174.174 0 0 0 .036-.243"/></g></g><g transform="translate(118.851 109.863)"><mask id="Z" fill="#fff"><use xlink:href="#Y"/></mask><g opacity=".95" mask="url(#Z)"><path d="M.491.608A.174.174 0 0 0 .248.57a.174.174 0 0 0 .207.28.174.174 0 0 0 .036-.243" fill="#FFF" fill-rule="nonzero"/></g></g><g transform="translate(118.851 112.859)"><mask id="ab" fill="#fff"><use xlink:href="#aa"/></mask><g opacity=".95" mask="url(#ab)"><path d="M.976.991a.174.174 0 0 0-.28.206.174.174 0 0 0 .28-.206" fill="#FFF" fill-rule="nonzero"/></g></g><g transform="translate(100.874 144.819)"><mask id="ad" fill="#fff"><use xlink:href="#ac"/></mask><g opacity=".95" mask="url(#ad)"><path d="M1.04.178a.723.723 0 1 0-.404 1.39.723.723 0 0 0 .403-1.39" fill="#FFF" fill-rule="nonzero"/></g></g><g transform="translate(100.874 129.838)"><mask id="af" fill="#fff"><use xlink:href="#ae"/></mask><g opacity=".95" mask="url(#af)"><path d="M.938.388a.307.307 0 1 0-.173.588.307.307 0 0 0 .173-.588" fill="#FFF" fill-rule="nonzero"/></g></g><g transform="translate(79.9 104.869)"><mask id="ah" fill="#fff"><use xlink:href="#ag"/></mask><g opacity=".95" mask="url(#ah)"><path d="M1.354.257a.307.307 0 1 0 0 0" fill="#FFF" fill-rule="nonzero"/></g></g><g transform="translate(81.898 140.824)"><mask id="aj" fill="#fff"><use xlink:href="#ai"/></mask><g opacity=".95" mask="url(#aj)"><path d="M.91.89a.307.307 0 1 0 0 0" fill="#FFF" fill-rule="nonzero"/></g></g><g transform="translate(97.878 129.838)"><mask id="al" fill="#fff"><use xlink:href="#ak"/></mask><g opacity=".95" mask="url(#al)"><path d="M.468.019a.173.173 0 1 0-.097.333.173.173 0 0 0 .097-.333" fill="#FFF" fill-rule="nonzero"/></g></g><g transform="translate(77.903 125.843)"><mask id="an" fill="#fff"><use xlink:href="#am"/></mask><g opacity=".95" mask="url(#an)"><path d="M1 .84a.174.174 0 0 0-.096.333A.173.173 0 0 0 1 .839" fill="#FFF" fill-rule="nonzero"/></g></g><g transform="translate(81.898 106.866)"><mask id="ap" fill="#fff"><use xlink:href="#ao"/></mask><g opacity=".95" mask="url(#ap)"><path d="M1.054.347a.174.174 0 0 0-.096.334.173.173 0 0 0 .096-.334" fill="#FFF" fill-rule="nonzero"/></g></g><g transform="translate(76.904 136.829)"><mask id="ar" fill="#fff"><use xlink:href="#aq"/></mask><g opacity=".95" mask="url(#ar)"><path d="M1.118.936a.173.173 0 1 0-.097.333.173.173 0 0 0 .097-.333" fill="#FFF" fill-rule="nonzero"/></g></g><g transform="translate(108.864 134.831)"><mask id="at" fill="#fff"><use xlink:href="#as"/></mask><g opacity=".95" mask="url(#at)"><path d="M.71.942a.174.174 0 0 0-.098.334A.173.173 0 0 0 .71.942" fill="#FFF" fill-rule="nonzero"/></g></g><g transform="translate(110.861 137.828)"><mask id="av" fill="#fff"><use xlink:href="#au"/></mask><g opacity=".95" mask="url(#av)"><path d="M1.146.34a.173.173 0 0 0-.215.118.173.173 0 0 0 .333.097.173.173 0 0 0-.118-.215" fill="#FFF" fill-rule="nonzero"/></g></g></g></g></g></svg>