<svg width="155" height="155" viewBox="0 0 155 155" xmlns="http://www.w3.org/2000/svg" xmlns:xlink="http://www.w3.org/1999/xlink"><defs><path d="M55.647 90.99L19.22 53.564 1.117 35.462A3.72 3.72 0 1 1 6.378 30.2l.364.364a3.72 3.72 0 1 0 5.261-5.261l-5.555-5.556a4.437 4.437 0 0 1 6.273-6.273l8.94 8.941a6.66 6.66 0 0 0 9.418 0 6.662 6.662 0 0 0 0-9.418l-.654-.655a6.658 6.658 0 0 1 0-9.419c2.6-2.6 6.816-2.6 9.417 0l48.314 49.31-.269-.267 4.54 4.54a5.038 5.038 0 0 1 0 7.125 5.038 5.038 0 0 1-7.126 0l-.85-.848.356.355-3.607-3.606a1.29 1.29 0 0 0-1.823 1.824l8.545 8.544a8.79 8.79 0 0 1-12.43 12.43l-6.088-6.088a5.038 5.038 0 1 0-7.126 7.125l.496.496a5.04 5.04 0 0 1 0 7.126 5.024 5.024 0 0 1-3.564 1.475 5.022 5.022 0 0 1-3.563-1.475" id="a"/><linearGradient x1="19.944%" y1="104.88%" x2="77.069%" y2="4.119%" id="c"><stop stop-color="#D2D9FF" offset="0%"/><stop stop-color="#C89EFF" offset="10.191%"/><stop stop-color="#C89EFF" offset="13.477%"/><stop stop-color="#D5FFFE" offset="100%"/></linearGradient><path d="M1.805 20.258a3.488 3.488 0 0 1 0-4.932 3.49 3.49 0 0 1 4.887-.044l.632.633-.246-.247 2.496 2.496a.892.892 0 0 0 1.261 0 .893.893 0 0 0 0-1.261l.018.018-5.93-5.932a6.08 6.08 0 0 1 0-8.601 6.084 6.084 0 0 1 8.601 0L23.74 12.605A3.488 3.488 0 0 0 28.698 7.7l-.37-.37a3.487 3.487 0 0 1 0-4.93 3.488 3.488 0 0 1 4.932 0l21.114 21.114L29.718 48.17 1.805 20.258zm4.887-4.976l-.167-.166.212.21-.045-.044z" id="d"/><linearGradient x1="125.532%" y1="81.945%" x2="-23.77%" y2="15.456%" id="f"><stop offset="0%"/><stop offset="10.27%"/><stop stop-color="#7E5FAA" offset="100%"/></linearGradient><path d="M25.227 52.426L.271 26.771 27.33.789l22.515 23.145a4.957 4.957 0 0 1-.097 7.011 4.956 4.956 0 0 1-7.01-.098L41.912 30l.345.355a4.958 4.958 0 1 0-7.108 6.914l6.563 6.747a3.302 3.302 0 0 1-4.733 4.604l-4.244-4.362.165.17a2.769 2.769 0 0 0-3.916-.054 2.772 2.772 0 0 0-.063 3.908l.442.453-.165-.17a2.77 2.77 0 0 1-.054 3.916 2.76 2.76 0 0 1-1.931.784c-.722 0-1.443-.28-1.986-.838zM.161 26.658l.11.113-.11-.113zM27.132.586l.198.203-.198-.203z" id="g"/><linearGradient x1="20.312%" y1="104.947%" x2="91.739%" y2="-15.813%" id="i"><stop stop-color="#7391FF" offset="0%"/><stop stop-color="#8F6EFF" offset="23.937%"/><stop stop-color="#8F6EFF" offset="31.656%"/><stop stop-color="#AAAAFE" offset="72.547%"/><stop stop-color="#AAAAFE" offset="100%"/></linearGradient><path id="j" d="M0 199.75h199.75V0H0z"/></defs><g fill="none" fill-rule="evenodd"><g transform="matrix(1 0 0 -1 36.925 112.834)"><mask id="b" fill="#fff"><use xlink:href="#a"/></mask><g mask="url(#b)" fill-rule="nonzero" fill="url(#c)"><path d="M55.647 90.99L19.22 53.564 1.117 35.462A3.72 3.72 0 1 1 6.378 30.2l.364.364a3.72 3.72 0 1 0 5.261-5.261l-5.555-5.556a4.437 4.437 0 0 1 6.273-6.273l8.94 8.941a6.66 6.66 0 0 0 9.418 0 6.662 6.662 0 0 0 0-9.418l-.654-.655a6.658 6.658 0 0 1 0-9.419c2.6-2.6 6.816-2.6 9.417 0l48.314 49.31-.269-.267 4.54 4.54a5.038 5.038 0 0 1 0 7.125 5.038 5.038 0 0 1-7.126 0l-.85-.848.356.355-3.607-3.606a1.29 1.29 0 0 0-1.823 1.824l8.545 8.544a8.79 8.79 0 0 1-12.43 12.43l-6.088-6.088a5.038 5.038 0 1 0-7.126 7.125l.496.496a5.04 5.04 0 0 1 0 7.126 5.024 5.024 0 0 1-3.564 1.475 5.022 5.022 0 0 1-3.563-1.475"/></g></g><g transform="matrix(1 0 0 -1 28.935 126.816)"><mask id="e" fill="#fff"><use xlink:href="#d"/></mask><g mask="url(#e)" fill-rule="nonzero" fill="url(#f)"><path d="M1.805 20.258a3.488 3.488 0 0 1 0-4.932 3.49 3.49 0 0 1 4.887-.044l.632.633-.246-.247 2.496 2.496a.892.892 0 0 0 1.261 0 .893.893 0 0 0 0-1.261l.018.018-5.93-5.932a6.08 6.08 0 0 1 0-8.601 6.084 6.084 0 0 1 8.601 0L23.74 12.605A3.488 3.488 0 0 0 28.698 7.7l-.37-.37a3.487 3.487 0 0 1 0-4.93 3.488 3.488 0 0 1 4.932 0l21.114 21.114L29.718 48.17 1.805 20.258zm4.887-4.976l-.167-.166.212.21-.045-.044z"/></g></g><g transform="matrix(1 0 0 -1 61.894 79.875)"><mask id="h" fill="#fff"><use xlink:href="#g"/></mask><g mask="url(#h)" fill-rule="nonzero" fill="url(#i)"><path d="M25.227 52.426L.271 26.771 27.33.789l22.515 23.145a4.957 4.957 0 0 1-.097 7.011 4.956 4.956 0 0 1-7.01-.098L41.912 30l.345.355a4.958 4.958 0 1 0-7.108 6.914l6.563 6.747a3.302 3.302 0 0 1-4.733 4.604l-4.244-4.362.165.17a2.769 2.769 0 0 0-3.916-.054 2.772 2.772 0 0 0-.063 3.908l.442.453-.165-.17a2.77 2.77 0 0 1-.054 3.916 2.76 2.76 0 0 1-1.931.784c-.722 0-1.443-.28-1.986-.838zM.161 26.658l.11.113-.11-.113zM27.132.586l.198.203-.198-.203z"/></g></g><g transform="matrix(1 0 0 -1 -23 179.75)"><mask id="k" fill="#fff"><use xlink:href="#j"/></mask><g mask="url(#k)"><path d="M70.623 130.215c-1.084 0-1.826-.266-2.252-.692-1.258-1.259-1.11-5.246 3.076-12.665 3.958-7.014 10.428-15.169 18.22-22.959 7.791-7.791 15.944-14.262 22.958-18.22 7.42-4.187 11.408-4.335 12.666-3.077 1.257 1.258 1.11 5.245-3.078 12.666-3.957 7.014-10.428 15.167-18.219 22.958-7.791 7.792-15.945 14.262-22.958 18.22-4.901 2.765-8.305 3.769-10.413 3.769zm55.727-58.672h.01-.01zm-3.245-2.609c-8.295 0-23.346 10.635-35.557 22.847-7.978 7.978-14.623 16.36-18.71 23.603-4.446 7.882-5.341 13.502-2.586 16.257 2.755 2.756 8.376 1.86 16.256-2.586 7.244-4.087 15.627-10.731 23.605-18.71 14.824-14.823 27.325-33.832 21.296-39.862-1.063-1.061-2.529-1.549-4.304-1.549z" fill="#006CD8" fill-rule="nonzero"/><path d="M119.027 113.73c-6.575 0-14.791-.794-24.245-2.745-10.79-2.228-20.678-5.483-27.838-9.169-7.575-3.897-9.89-7.148-9.531-8.89.36-1.74 3.772-3.81 12.272-4.39 8.035-.545 18.402.377 29.193 2.605 10.792 2.227 20.678 5.483 27.84 9.167 7.575 3.898 9.89 7.148 9.53 8.891-.524 2.539-6.811 4.53-17.221 4.53M74.44 85.388c-1.73 0-3.386.053-4.96.16-9.027.616-14.214 2.96-15.001 6.774-.788 3.816 3.048 8.02 11.094 12.16 7.396 3.806 17.554 7.157 28.604 9.437 20.531 4.238 43.282 4.237 45.006-4.115 1.723-8.35-19.168-17.359-39.7-21.597-8.954-1.848-17.651-2.819-25.043-2.819" fill="#FFF" fill-rule="nonzero"/><path d="M98.43 88.358a5.602 5.602 0 1 0-11.203 0 5.602 5.602 0 0 0 11.203 0" fill="#FFF" fill-rule="nonzero"/></g></g></g></svg>