<svg width="155" height="155" viewBox="0 0 155 155" xmlns="http://www.w3.org/2000/svg" xmlns:xlink="http://www.w3.org/1999/xlink"><defs><path d="M55.647 90.99L19.22 53.564 1.117 35.462a3.719 3.719 0 1 1 5.261-5.26l.364.362a3.718 3.718 0 0 0 5.261 0 3.719 3.719 0 0 0 0-5.26l-5.555-5.556a4.436 4.436 0 0 1 6.273-6.272l8.94 8.94a6.66 6.66 0 0 0 9.418 0c2.6-2.6 2.6-6.818 0-9.418l-.654-.655a6.66 6.66 0 0 1 9.417-9.418l48.273 49.269 4.312 4.313a5.04 5.04 0 0 1-7.126 7.126l-.85-.848.356.355-3.607-3.607a1.29 1.29 0 0 0-1.823 1.824l8.545 8.543a8.79 8.79 0 0 1 0 12.43 8.788 8.788 0 0 1-12.43 0l-6.088-6.088a5.04 5.04 0 0 0-7.126 0 5.04 5.04 0 0 0 0 7.127l.496.495a5.04 5.04 0 0 1 0 7.126 5.024 5.024 0 0 1-3.564 1.475 5.022 5.022 0 0 1-3.563-1.475" id="a"/><linearGradient x1="11.002%" y1="9.393%" x2="91.07%" y2="91.548%" id="c"><stop stop-color="#D2D9FF" offset="0%"/><stop stop-color="#C89EFF" offset="19.27%"/><stop stop-color="#C89EFF" offset="25.483%"/><stop stop-color="#D5FFFE" offset="100%"/></linearGradient><path d="M25.227 52.426L.271 26.771 27.33.789l-.198-.204 22.713 23.35a4.956 4.956 0 0 1-.097 7.01 4.956 4.956 0 0 1-7.01-.097l-.826-.85.345.357a4.957 4.957 0 0 0-7.011-.098 4.96 4.96 0 0 0-.097 7.011l6.563 6.746a3.3 3.3 0 0 1-.064 4.67 3.3 3.3 0 0 1-4.67-.065l-4.088-4.203a2.77 2.77 0 0 0-3.906-.043 2.772 2.772 0 0 0-.063 3.908l.442.453-.165-.17a2.77 2.77 0 0 1-.054 3.916 2.757 2.757 0 0 1-1.931.785 2.76 2.76 0 0 1-1.986-.839zM.161 26.658l.11.113-.11-.113z" id="d"/><linearGradient x1="31.345%" y1="136.817%" x2="64.124%" y2="-14.543%" id="f"><stop offset="0%"/><stop offset="10.27%"/><stop stop-color="#7E5FAA" offset="100%"/></linearGradient><path d="M29.577 48.03v-.001l.14.14-.14-.139zM1.805 20.258a3.487 3.487 0 1 1 4.932-4.93v-.001l-.212-.212.74.74 2.309 2.308a.892.892 0 0 0 1.261-1.26l.018.019-5.93-5.932a6.082 6.082 0 0 1 0-8.602 6.084 6.084 0 0 1 8.601 0L23.74 12.605a3.488 3.488 0 0 0 4.968-4.895l-.38-.38a3.488 3.488 0 0 1 4.932-4.932V2.4l21.114 21.115-.14-.14-24.657 24.655L1.805 20.258z" id="g"/><linearGradient x1="83.724%" y1="83.976%" x2="-.948%" y2="-17.397%" id="i"><stop offset="0%"/><stop offset="10.27%"/><stop stop-color="#7E5FAA" offset="100%"/></linearGradient><path id="j" d="M0 199.75h199.75V0H0z"/><path d="M.304 7.657a7.52 7.52 0 0 1 7.52-7.52 7.52 7.52 0 0 1 0 15.04 7.52 7.52 0 0 1-7.52-7.52" id="l"/><linearGradient x1="-6.424%" y1="10.085%" x2="99.911%" y2="85.318%" id="n"><stop stop-color="#5C8EFF" offset="0%"/><stop stop-color="#1554FF" offset="21.15%"/><stop stop-color="#4690F9" offset="100%"/></linearGradient><path id="o" d="M0 199.75h199.75V0H0z"/></defs><g fill="none" fill-rule="evenodd"><g transform="matrix(1 0 0 -1 37.925 112.834)"><mask id="b" fill="#fff"><use xlink:href="#a"/></mask><g mask="url(#b)" fill-rule="nonzero" fill="url(#c)"><path d="M55.647 90.99L19.22 53.564 1.117 35.462a3.719 3.719 0 1 1 5.261-5.26l.364.362a3.718 3.718 0 0 0 5.261 0 3.719 3.719 0 0 0 0-5.26l-5.555-5.556a4.436 4.436 0 0 1 6.273-6.272l8.94 8.94a6.66 6.66 0 0 0 9.418 0c2.6-2.6 2.6-6.818 0-9.418l-.654-.655a6.66 6.66 0 0 1 9.417-9.418l48.273 49.269 4.312 4.313a5.04 5.04 0 0 1-7.126 7.126l-.85-.848.356.355-3.607-3.607a1.29 1.29 0 0 0-1.823 1.824l8.545 8.543a8.79 8.79 0 0 1 0 12.43 8.788 8.788 0 0 1-12.43 0l-6.088-6.088a5.04 5.04 0 0 0-7.126 0 5.04 5.04 0 0 0 0 7.127l.496.495a5.04 5.04 0 0 1 0 7.126 5.024 5.024 0 0 1-3.564 1.475 5.022 5.022 0 0 1-3.563-1.475"/></g></g><g transform="matrix(1 0 0 -1 62.894 79.875)"><mask id="e" fill="#fff"><use xlink:href="#d"/></mask><g mask="url(#e)" fill-rule="nonzero" fill="url(#f)"><path d="M25.227 52.426L.271 26.771 27.33.789l-.198-.204 22.713 23.35a4.956 4.956 0 0 1-.097 7.01 4.956 4.956 0 0 1-7.01-.097l-.826-.85.345.357a4.957 4.957 0 0 0-7.011-.098 4.96 4.96 0 0 0-.097 7.011l6.563 6.746a3.3 3.3 0 0 1-.064 4.67 3.3 3.3 0 0 1-4.67-.065l-4.088-4.203a2.77 2.77 0 0 0-3.906-.043 2.772 2.772 0 0 0-.063 3.908l.442.453-.165-.17a2.77 2.77 0 0 1-.054 3.916 2.757 2.757 0 0 1-1.931.785 2.76 2.76 0 0 1-1.986-.839zM.161 26.658l.11.113-.11-.113z"/></g></g><g transform="matrix(1 0 0 -1 29.935 126.816)"><mask id="h" fill="#fff"><use xlink:href="#g"/></mask><g mask="url(#h)" fill-rule="nonzero" fill="url(#i)"><path d="M29.577 48.03v-.001l.14.14-.14-.139zM1.805 20.258a3.487 3.487 0 1 1 4.932-4.93v-.001l-.212-.212.74.74 2.309 2.308a.892.892 0 0 0 1.261-1.26l.018.019-5.93-5.932a6.082 6.082 0 0 1 0-8.602 6.084 6.084 0 0 1 8.601 0L23.74 12.605a3.488 3.488 0 0 0 4.968-4.895l-.38-.38a3.488 3.488 0 0 1 4.932-4.932V2.4l21.114 21.115-.14-.14-24.657 24.655L1.805 20.258z"/></g></g><g transform="matrix(1 0 0 -1 -22 179.75)"><mask id="k" fill="#fff"><use xlink:href="#j"/></mask><g mask="url(#k)"><path d="M70.623 130.214c-1.084 0-1.825-.264-2.253-.69-1.257-1.26-1.11-5.246 3.077-12.666 3.958-7.013 10.428-15.168 18.22-22.96 7.791-7.79 15.945-14.262 22.958-18.219 7.42-4.188 11.408-4.335 12.665-3.077 1.258 1.259 1.11 5.246-3.076 12.665-3.958 7.015-10.428 15.168-18.22 22.96-7.791 7.791-15.944 14.262-22.958 18.219-4.901 2.765-8.305 3.768-10.413 3.768zm55.727-58.67h.01-.01zm-3.245-2.61c-8.296 0-23.346 10.635-35.557 22.846-7.979 7.978-14.623 16.36-18.71 23.605-4.447 7.88-5.34 13.502-2.586 16.256 6.03 6.029 25.038-6.471 39.861-21.296 7.978-7.978 14.623-16.36 18.71-23.604 4.446-7.882 5.341-13.503 2.587-16.257-1.063-1.062-2.53-1.55-4.305-1.55z" fill="#006CD8" fill-rule="nonzero"/><path d="M119.025 113.729c-6.573 0-14.79-.793-24.242-2.744-10.792-2.228-20.679-5.484-27.84-9.168-7.575-3.897-9.89-7.148-9.53-8.89.855-4.142 17.043-6.827 41.465-1.787 10.792 2.227 20.679 5.483 27.839 9.168 7.575 3.898 9.89 7.149 9.53 8.89-.524 2.54-6.81 4.531-17.222 4.531M74.387 85.414c-10.721 0-18.902 2.03-19.908 6.908-1.724 8.35 19.167 17.36 39.698 21.597 20.532 4.24 43.282 4.235 45.005-4.116.788-3.814-3.048-8.019-11.094-12.159-7.396-3.806-17.554-7.157-28.604-9.438-8.539-1.762-17.462-2.792-25.097-2.792" fill="#FFF" fill-rule="nonzero"/></g></g><g transform="matrix(1 0 0 -1 54.904 60.899)"><mask id="m" fill="#fff"><use xlink:href="#l"/></mask><g mask="url(#m)" fill-rule="nonzero" fill="url(#n)"><path d="M.304 7.657a7.52 7.52 0 0 1 7.52-7.52 7.52 7.52 0 0 1 0 15.04 7.52 7.52 0 0 1-7.52-7.52"/></g></g><g transform="matrix(1 0 0 -1 -22 179.75)"><mask id="p" fill="#fff"><use xlink:href="#o"/></mask><g mask="url(#p)"><path d="M98.43 88.357a5.6 5.6 0 0 0-5.602-5.6 5.6 5.6 0 1 0 0 11.202 5.601 5.601 0 0 0 5.602-5.602" fill="#FFF" fill-rule="nonzero"/></g></g></g></svg>