<svg width="155" height="155" viewBox="0 0 155 155" xmlns="http://www.w3.org/2000/svg" xmlns:xlink="http://www.w3.org/1999/xlink"><defs><path d="M55.647 90.99L19.22 53.565 1.117 35.462a3.72 3.72 0 0 1 0-5.26 3.718 3.718 0 0 1 5.261 0l.364.363a3.72 3.72 0 1 0 5.261-5.261l-5.555-5.556a4.437 4.437 0 0 1 6.273-6.273l8.94 8.941a6.66 6.66 0 0 0 9.418 0 6.663 6.663 0 0 0 0-9.42l-.654-.654a6.657 6.657 0 0 1 0-9.418 6.66 6.66 0 0 1 9.417 0l48.27 49.268 4.315 4.314a5.04 5.04 0 0 1 0 7.127 5.041 5.041 0 0 1-7.126 0l-.494-.493-3.607-3.607a1.289 1.289 0 1 0-1.823 1.823l8.545 8.544a8.79 8.79 0 0 1 0 12.43 8.788 8.788 0 0 1-12.43 0l-6.088-6.087a5.04 5.04 0 0 0-7.126 7.126l.496.495a5.04 5.04 0 0 1 0 7.126 5.025 5.025 0 0 1-3.564 1.476 5.023 5.023 0 0 1-3.563-1.476zM84.45 62.784l.357.356-.357-.356z" id="a"/><linearGradient x1="11.002%" y1="9.393%" x2="91.07%" y2="91.547%" id="c"><stop stop-color="#D2D9FF" offset="0%"/><stop stop-color="#C89EFF" offset="19.27%"/><stop stop-color="#C89EFF" offset="25.483%"/><stop stop-color="#D5FFFE" offset="100%"/></linearGradient><path d="M1.805 20.258a3.487 3.487 0 1 1 4.932-4.93v-.001l-.212-.212.74.74 2.309 2.308a.892.892 0 0 0 1.261-1.26L4.923 10.99a6.082 6.082 0 0 1 0-8.602 6.084 6.084 0 0 1 8.601 0L23.74 12.606a3.49 3.49 0 0 0 4.932 0 3.489 3.489 0 0 0 .026-4.906l-.37-.37a3.488 3.488 0 0 1 0-4.931 3.49 3.49 0 0 1 4.932 0l21.114 21.115-.14-.14L29.577 48.03l.14.14L1.806 20.259z" id="d"/><linearGradient x1="83.724%" y1="83.974%" x2="-.948%" y2="-17.397%" id="f"><stop offset="0%"/><stop offset="10.27%"/><stop stop-color="#7E5FAA" offset="100%"/></linearGradient><path d="M25.227 52.426L.271 26.771 27.33.788l22.515 23.146a4.956 4.956 0 0 1-.097 7.01 4.956 4.956 0 0 1-7.01-.096l-.826-.85.345.356a4.96 4.96 0 0 0-7.108 6.914l6.563 6.746a3.303 3.303 0 0 1-4.733 4.605l-4.244-4.363.165.17a2.77 2.77 0 0 0-3.979 3.853l.442.455-.165-.17a2.77 2.77 0 0 1-.054 3.916 2.76 2.76 0 0 1-1.932.785c-.721 0-1.442-.28-1.985-.839zM.161 26.656l.11.115-.11-.114zM27.132.587l.198.202-.198-.203z" id="g"/><linearGradient x1="31.345%" y1="136.817%" x2="64.124%" y2="-14.543%" id="i"><stop offset="0%"/><stop offset="10.27%"/><stop stop-color="#7E5FAA" offset="100%"/></linearGradient><path id="j" d="M0 199.75h199.75V0H0z"/><path d="M.304 7.657a7.52 7.52 0 0 1 7.52-7.52 7.52 7.52 0 1 1 0 15.04v-.001a7.518 7.518 0 0 1-7.52-7.519" id="l"/><linearGradient x1="-6.424%" y1="10.086%" x2="99.911%" y2="85.323%" id="n"><stop stop-color="#5C8EFF" offset="0%"/><stop stop-color="#1554FF" offset="21.15%"/><stop stop-color="#4690F9" offset="100%"/></linearGradient><path id="o" d="M0 199.75h199.75V0H0z"/><path d="M.415 4.172l-.143-.835C-.075 1.309 2.052-.237 3.873.72L6.88 2.302c.723.38 1.587.38 2.31 0l3.008-1.58c1.82-.959 3.947.587 3.6 2.615l-.574 3.349a2.475 2.475 0 0 0 .714 2.195l2.433 2.373c1.472 1.436.66 3.937-1.375 4.234l-3.363.487c-.452.066-.871.254-1.216.535L.415 4.172z" id="q"/><linearGradient x1="-20.465%" y1="24.574%" x2="119.39%" y2="101.631%" id="s"><stop stop-color="#844EC6" offset="0%"/><stop stop-color="#844EC6" offset="6.795%"/><stop stop-color="#9071FF" offset="100%"/></linearGradient></defs><g fill="none" fill-rule="evenodd"><g transform="matrix(1 0 0 -1 37.925 113.834)"><mask id="b" fill="#fff"><use xlink:href="#a"/></mask><g mask="url(#b)" fill-rule="nonzero" fill="url(#c)"><path d="M55.647 90.99L19.22 53.565 1.117 35.462a3.72 3.72 0 0 1 0-5.26 3.718 3.718 0 0 1 5.261 0l.364.363a3.72 3.72 0 1 0 5.261-5.261l-5.555-5.556a4.437 4.437 0 0 1 6.273-6.273l8.94 8.941a6.66 6.66 0 0 0 9.418 0 6.663 6.663 0 0 0 0-9.42l-.654-.654a6.657 6.657 0 0 1 0-9.418 6.66 6.66 0 0 1 9.417 0l48.27 49.268 4.315 4.314a5.04 5.04 0 0 1 0 7.127 5.041 5.041 0 0 1-7.126 0l-.494-.493-3.607-3.607a1.289 1.289 0 1 0-1.823 1.823l8.545 8.544a8.79 8.79 0 0 1 0 12.43 8.788 8.788 0 0 1-12.43 0l-6.088-6.087a5.04 5.04 0 0 0-7.126 7.126l.496.495a5.04 5.04 0 0 1 0 7.126 5.025 5.025 0 0 1-3.564 1.476 5.023 5.023 0 0 1-3.563-1.476zM84.45 62.784l.357.356-.357-.356z"/></g></g><g transform="matrix(1 0 0 -1 29.935 127.816)"><mask id="e" fill="#fff"><use xlink:href="#d"/></mask><g mask="url(#e)" fill-rule="nonzero" fill="url(#f)"><path d="M1.805 20.258a3.487 3.487 0 1 1 4.932-4.93v-.001l-.212-.212.74.74 2.309 2.308a.892.892 0 0 0 1.261-1.26L4.923 10.99a6.082 6.082 0 0 1 0-8.602 6.084 6.084 0 0 1 8.601 0L23.74 12.606a3.49 3.49 0 0 0 4.932 0 3.489 3.489 0 0 0 .026-4.906l-.37-.37a3.488 3.488 0 0 1 0-4.931 3.49 3.49 0 0 1 4.932 0l21.114 21.115-.14-.14L29.577 48.03l.14.14L1.806 20.259z"/></g></g><g transform="matrix(1 0 0 -1 62.894 80.875)"><mask id="h" fill="#fff"><use xlink:href="#g"/></mask><g mask="url(#h)" fill-rule="nonzero" fill="url(#i)"><path d="M25.227 52.426L.271 26.771 27.33.788l22.515 23.146a4.956 4.956 0 0 1-.097 7.01 4.956 4.956 0 0 1-7.01-.096l-.826-.85.345.356a4.96 4.96 0 0 0-7.108 6.914l6.563 6.746a3.303 3.303 0 0 1-4.733 4.605l-4.244-4.363.165.17a2.77 2.77 0 0 0-3.979 3.853l.442.455-.165-.17a2.77 2.77 0 0 1-.054 3.916 2.76 2.76 0 0 1-1.932.785c-.721 0-1.442-.28-1.985-.839zM.161 26.656l.11.115-.11-.114zM27.132.587l.198.202-.198-.203z"/></g></g><g transform="matrix(1 0 0 -1 -22 180.75)"><mask id="k" fill="#fff"><use xlink:href="#j"/></mask><g mask="url(#k)"><path d="M70.623 130.214c-1.084 0-1.825-.264-2.253-.69-1.257-1.26-1.11-5.246 3.077-12.667 3.958-7.013 10.428-15.167 18.22-22.958 7.791-7.791 15.945-14.262 22.958-18.22 7.42-4.186 11.408-4.334 12.665-3.077 1.258 1.259 1.11 5.246-3.076 12.666-3.958 7.014-10.428 15.168-18.22 22.958-7.791 7.792-15.944 14.263-22.958 18.22-4.901 2.766-8.305 3.768-10.413 3.768m52.446-61.295c-3.005 0-7.025 1.391-11.916 4.15-7.244 4.088-15.627 10.732-23.605 18.711-14.824 14.823-27.325 33.832-21.296 39.862 6.03 6.032 25.038-6.473 39.861-21.298 7.978-7.978 14.623-16.36 18.71-23.603 4.446-7.881 5.341-13.502 2.587-16.257-1.046-1.046-2.504-1.565-4.341-1.565" fill="#006CD8" fill-rule="nonzero"/><path d="M119.025 113.73c-6.573 0-14.79-.794-24.242-2.744-10.792-2.229-20.679-5.485-27.84-9.169-7.575-3.897-9.89-7.148-9.53-8.89.36-1.742 3.772-3.81 12.272-4.39 8.034-.55 18.402.375 29.193 2.603 10.792 2.228 20.679 5.484 27.839 9.168 7.575 3.898 9.89 7.149 9.53 8.89-.524 2.54-6.81 4.531-17.222 4.531M74.44 85.388c-1.73 0-3.386.052-4.959.16-9.027.616-14.215 2.958-15.002 6.774-1.724 8.35 19.167 17.36 39.698 21.597 20.532 4.239 43.282 4.236 45.005-4.116v.001c.788-3.815-3.048-8.02-11.094-12.16-7.396-3.806-17.554-7.157-28.604-9.438-8.955-1.848-17.652-2.818-25.044-2.818" fill="#FFF" fill-rule="nonzero"/></g></g><g transform="matrix(1 0 0 -1 54.904 61.899)"><mask id="m" fill="#fff"><use xlink:href="#l"/></mask><g mask="url(#m)" fill-rule="nonzero" fill="url(#n)"><path d="M.304 7.657a7.52 7.52 0 0 1 7.52-7.52 7.52 7.52 0 1 1 0 15.04v-.001a7.518 7.518 0 0 1-7.52-7.519"/></g></g><g transform="matrix(1 0 0 -1 -22 180.75)"><mask id="p" fill="#fff"><use xlink:href="#o"/></mask><g mask="url(#p)"><path d="M98.43 88.358a5.602 5.602 0 1 0-11.203-.001 5.602 5.602 0 0 0 11.203 0" fill="#FFF" fill-rule="nonzero"/></g></g><g transform="matrix(1 0 0 -1 70.884 49.914)"><mask id="r" fill="#fff"><use xlink:href="#q"/></mask><g mask="url(#r)" fill-rule="nonzero" fill="url(#s)"><path d="M.415 4.172l-.143-.835C-.075 1.309 2.052-.237 3.873.72L6.88 2.302c.723.38 1.587.38 2.31 0l3.008-1.58c1.82-.959 3.947.587 3.6 2.615l-.574 3.349a2.475 2.475 0 0 0 .714 2.195l2.433 2.373c1.472 1.436.66 3.937-1.375 4.234l-3.363.487c-.452.066-.871.254-1.216.535L.415 4.172z"/></g></g></g></svg>