<svg width="155" height="155" viewBox="0 0 155 155" xmlns="http://www.w3.org/2000/svg" xmlns:xlink="http://www.w3.org/1999/xlink"><defs><path d="M55.647 90.99L19.22 53.564 1.117 35.462a3.72 3.72 0 0 1 0-5.26 3.718 3.718 0 0 1 5.261 0l.364.363a3.72 3.72 0 1 0 5.261-5.261l-5.555-5.556a4.437 4.437 0 0 1 6.273-6.273l8.94 8.941a6.66 6.66 0 0 0 9.418 0 6.663 6.663 0 0 0 0-9.42l-.654-.654a6.657 6.657 0 0 1 0-9.418c2.6-2.6 6.816-2.6 9.417 0l48.27 49.268 4.315 4.314a5.04 5.04 0 0 1 0 7.127 5.041 5.041 0 0 1-7.126 0l-.494-.493-3.607-3.607a1.289 1.289 0 1 0-1.823 1.823l8.545 8.544a8.79 8.79 0 0 1-12.43 12.43l-6.088-6.087a5.04 5.04 0 0 0-7.126 7.126l.496.494a5.04 5.04 0 0 1 0 7.127 5.024 5.024 0 0 1-3.564 1.475 5.022 5.022 0 0 1-3.563-1.475zM84.45 62.784l.357.356-.357-.356z" id="a"/><linearGradient x1="11.002%" y1="9.394%" x2="91.07%" y2="91.548%" id="c"><stop stop-color="#D2D9FF" offset="0%"/><stop stop-color="#C89EFF" offset="19.27%"/><stop stop-color="#C89EFF" offset="25.483%"/><stop stop-color="#D5FFFE" offset="100%"/></linearGradient><path d="M1.805 20.258a3.487 3.487 0 1 1 4.932-4.93v-.001l-.212-.21.799.798-.246-.247 2.496 2.495a.892.892 0 0 0 1.261-1.26l.018.018-5.93-5.932a6.082 6.082 0 0 1 8.601-8.6L23.74 12.606a3.488 3.488 0 0 0 4.932-4.932l.246.246-.59-.59a3.488 3.488 0 0 1 0-4.931 3.49 3.49 0 0 1 4.932 0l21.114 21.115-.14-.14L29.577 48.03l.14.14L1.806 20.259z" id="d"/><linearGradient x1="83.724%" y1="83.974%" x2="-.948%" y2="-17.398%" id="f"><stop offset="0%"/><stop offset="10.27%"/><stop stop-color="#7E5FAA" offset="100%"/></linearGradient><path d="M25.227 52.426L.271 26.771 27.33.788l22.515 23.146a4.956 4.956 0 0 1-.097 7.01 4.956 4.956 0 0 1-7.01-.096l-.826-.85.345.356a4.96 4.96 0 0 0-7.108 6.914l6.563 6.746a3.302 3.302 0 1 1-4.733 4.605l-4.244-4.363.165.17a2.77 2.77 0 0 0-3.916-.053 2.77 2.77 0 0 0-.063 3.907l.442.454-.165-.17a2.77 2.77 0 0 1-.054 3.916 2.76 2.76 0 0 1-1.932.785c-.721 0-1.442-.28-1.985-.839zM.161 26.656l.11.115-.11-.114zM27.132.587l.198.202-.198-.203z" id="g"/><linearGradient x1="31.345%" y1="136.817%" x2="64.124%" y2="-14.543%" id="i"><stop offset="0%"/><stop offset="10.27%"/><stop stop-color="#7E5FAA" offset="100%"/></linearGradient><path d="M.415 4.172l-.143-.835C-.075 1.309 2.052-.237 3.873.72L6.88 2.302c.723.38 1.587.38 2.31 0l3.008-1.58c1.82-.959 3.947.587 3.6 2.615l-.574 3.349a2.477 2.477 0 0 0 .714 2.196l2.433 2.372c1.472 1.436.66 3.937-1.375 4.234l-3.363.487c-.452.066-.871.254-1.216.535L.415 4.172z" id="j"/><linearGradient x1="-20.465%" y1="24.574%" x2="119.39%" y2="101.631%" id="l"><stop stop-color="#844EC6" offset="0%"/><stop stop-color="#844EC6" offset="6.795%"/><stop stop-color="#9071FF" offset="100%"/></linearGradient><path id="m" d="M0 199.75h199.75V0H0z"/><path d="M.304 7.657a7.52 7.52 0 0 1 15.04 0 7.52 7.52 0 0 1-7.52 7.519 7.518 7.518 0 0 1-7.52-7.519" id="o"/><linearGradient x1="-6.424%" y1="10.08%" x2="99.911%" y2="85.322%" id="q"><stop stop-color="#5C8EFF" offset="0%"/><stop stop-color="#1554FF" offset="21.15%"/><stop stop-color="#4690F9" offset="100%"/></linearGradient><path d="M.688 5.555a5.28 5.28 0 0 1 10.56 0 5.28 5.28 0 0 1-5.28 5.28 5.28 5.28 0 0 1-5.28-5.28" id="r"/><linearGradient x1="-6.426%" y1="10.08%" x2="99.918%" y2="85.319%" id="t"><stop stop-color="#844EC6" offset="0%"/><stop stop-color="#844EC6" offset="6.795%"/><stop stop-color="#9071FF" offset="100%"/></linearGradient><path id="u" d="M0 199.75h199.75V0H0z"/><path d="M.99 5.325a4.494 4.494 0 0 1 8.988 0 4.494 4.494 0 0 1-8.988 0" id="w"/><linearGradient x1="-47.869%" y1="50.007%" x2="260.99%" y2="50.007%" id="y"><stop stop-color="#A9AEFF" offset="0%"/><stop stop-color="#A992FF" offset="19.27%"/><stop stop-color="#A992FF" offset="25.483%"/><stop stop-color="#ACA5FF" offset="43.311%"/><stop stop-color="#ACECFE" offset="100%"/></linearGradient><path id="z" d="M0 199.75h199.75V0H0z"/><path id="B" d="M.911 27.407h26.967V.44H.911z"/></defs><g fill="none" fill-rule="evenodd"><g transform="matrix(1 0 0 -1 37.925 112.834)"><mask id="b" fill="#fff"><use xlink:href="#a"/></mask><g mask="url(#b)" fill-rule="nonzero" fill="url(#c)"><path d="M55.647 90.99L19.22 53.564 1.117 35.462a3.72 3.72 0 0 1 0-5.26 3.718 3.718 0 0 1 5.261 0l.364.363a3.72 3.72 0 1 0 5.261-5.261l-5.555-5.556a4.437 4.437 0 0 1 6.273-6.273l8.94 8.941a6.66 6.66 0 0 0 9.418 0 6.663 6.663 0 0 0 0-9.42l-.654-.654a6.657 6.657 0 0 1 0-9.418c2.6-2.6 6.816-2.6 9.417 0l48.27 49.268 4.315 4.314a5.04 5.04 0 0 1 0 7.127 5.041 5.041 0 0 1-7.126 0l-.494-.493-3.607-3.607a1.289 1.289 0 1 0-1.823 1.823l8.545 8.544a8.79 8.79 0 0 1-12.43 12.43l-6.088-6.087a5.04 5.04 0 0 0-7.126 7.126l.496.494a5.04 5.04 0 0 1 0 7.127 5.024 5.024 0 0 1-3.564 1.475 5.022 5.022 0 0 1-3.563-1.475zM84.45 62.784l.357.356-.357-.356z"/></g></g><g transform="matrix(1 0 0 -1 29.935 126.816)"><mask id="e" fill="#fff"><use xlink:href="#d"/></mask><g mask="url(#e)" fill-rule="nonzero" fill="url(#f)"><path d="M1.805 20.258a3.487 3.487 0 1 1 4.932-4.93v-.001l-.212-.21.799.798-.246-.247 2.496 2.495a.892.892 0 0 0 1.261-1.26l.018.018-5.93-5.932a6.082 6.082 0 0 1 8.601-8.6L23.74 12.606a3.488 3.488 0 0 0 4.932-4.932l.246.246-.59-.59a3.488 3.488 0 0 1 0-4.931 3.49 3.49 0 0 1 4.932 0l21.114 21.115-.14-.14L29.577 48.03l.14.14L1.806 20.259z"/></g></g><g transform="matrix(1 0 0 -1 62.894 79.875)"><mask id="h" fill="#fff"><use xlink:href="#g"/></mask><g mask="url(#h)" fill-rule="nonzero" fill="url(#i)"><path d="M25.227 52.426L.271 26.771 27.33.788l22.515 23.146a4.956 4.956 0 0 1-.097 7.01 4.956 4.956 0 0 1-7.01-.096l-.826-.85.345.356a4.96 4.96 0 0 0-7.108 6.914l6.563 6.746a3.302 3.302 0 1 1-4.733 4.605l-4.244-4.363.165.17a2.77 2.77 0 0 0-3.916-.053 2.77 2.77 0 0 0-.063 3.907l.442.454-.165-.17a2.77 2.77 0 0 1-.054 3.916 2.76 2.76 0 0 1-1.932.785c-.721 0-1.442-.28-1.985-.839zM.161 26.656l.11.115-.11-.114zM27.132.587l.198.202-.198-.203z"/></g></g><g transform="matrix(1 0 0 -1 70.884 48.914)"><mask id="k" fill="#fff"><use xlink:href="#j"/></mask><g mask="url(#k)" fill-rule="nonzero" fill="url(#l)"><path d="M.415 4.172l-.143-.835C-.075 1.309 2.052-.237 3.873.72L6.88 2.302c.723.38 1.587.38 2.31 0l3.008-1.58c1.82-.959 3.947.587 3.6 2.615l-.574 3.349a2.477 2.477 0 0 0 .714 2.196l2.433 2.372c1.472 1.436.66 3.937-1.375 4.234l-3.363.487c-.452.066-.871.254-1.216.535L.415 4.172z"/></g></g><g transform="matrix(1 0 0 -1 -22 179.75)"><mask id="n" fill="#fff"><use xlink:href="#m"/></mask><g mask="url(#n)"><path d="M70.622 130.214c-1.083 0-1.824-.264-2.252-.69-1.257-1.26-1.11-5.246 3.077-12.667 3.957-7.013 10.428-15.167 18.22-22.958 7.792-7.791 15.945-14.262 22.958-18.22 7.42-4.186 11.408-4.333 12.665-3.077 1.258 1.259 1.11 5.246-3.076 12.666-3.958 7.014-10.428 15.168-18.22 22.958-7.792 7.791-15.944 14.262-22.959 18.22-4.9 2.765-8.304 3.768-10.413 3.768M123.07 68.92c-3.005 0-7.025 1.391-11.916 4.15-7.243 4.088-15.627 10.732-23.605 18.711-14.823 14.823-27.325 33.832-21.296 39.862 6.03 6.027 25.037-6.474 39.861-21.298 7.978-7.978 14.623-16.36 18.71-23.603 4.447-7.881 5.34-13.502 2.586-16.257-1.045-1.046-2.503-1.565-4.34-1.565" fill="#006CD8" fill-rule="nonzero"/><path d="M119.205 113.743c-7.18 0-15.66-.95-24.422-2.759-10.791-2.227-20.678-5.483-27.84-9.166-7.575-3.898-9.89-7.15-9.53-8.891.36-1.742 3.772-3.81 12.271-4.39 8.034-.546 18.402.376 29.194 2.603 10.791 2.228 20.678 5.483 27.84 9.169 7.575 3.897 9.89 7.148 9.53 8.89-.36 1.74-3.772 3.81-12.271 4.39a71.16 71.16 0 0 1-4.772.154M74.44 85.387c-1.728 0-3.385.053-4.958.161-9.027.616-14.216 2.957-15.003 6.775-.787 3.814 3.05 8.019 11.095 12.158 7.395 3.806 17.554 7.158 28.604 9.438 11.05 2.28 21.706 3.23 30.003 2.658 9.027-.615 14.216-2.958 15.003-6.773.787-3.815-3.05-8.02-11.095-12.16-7.395-3.806-17.554-7.157-28.604-9.437-8.956-1.849-17.653-2.82-25.045-2.82" fill="#FFF" fill-rule="nonzero"/></g></g><g transform="matrix(1 0 0 -1 54.904 60.899)"><mask id="p" fill="#fff"><use xlink:href="#o"/></mask><g mask="url(#p)" fill-rule="nonzero" fill="url(#q)"><path d="M.304 7.657a7.52 7.52 0 0 1 15.04 0 7.52 7.52 0 0 1-7.52 7.519 7.518 7.518 0 0 1-7.52-7.519"/></g></g><g transform="matrix(1 0 0 -1 108.836 75.88)"><mask id="s" fill="#fff"><use xlink:href="#r"/></mask><g mask="url(#s)" fill-rule="nonzero" fill="url(#t)"><path d="M.688 5.555a5.28 5.28 0 0 1 10.56 0 5.28 5.28 0 0 1-5.28 5.28 5.28 5.28 0 0 1-5.28-5.28"/></g></g><g transform="matrix(1 0 0 -1 -22 179.75)"><mask id="v" fill="#fff"><use xlink:href="#u"/></mask><g mask="url(#v)"><path d="M98.43 88.358a5.602 5.602 0 1 0-11.203 0 5.602 5.602 0 0 0 11.203 0" fill="#FFF" fill-rule="nonzero"/></g></g><g transform="matrix(1 0 0 -1 98.849 113.833)"><mask id="x" fill="#fff"><use xlink:href="#w"/></mask><g mask="url(#x)" fill-rule="nonzero" fill="url(#y)"><path d="M.99 5.325a4.494 4.494 0 0 1 8.988 0 4.494 4.494 0 0 1-8.988 0"/></g></g><g transform="matrix(1 0 0 -1 -22 179.75)"><mask id="A" fill="#fff"><use xlink:href="#z"/></mask><g mask="url(#A)"><g transform="translate(81.898 59.925)"><mask id="C" fill="#fff"><use xlink:href="#B"/></mask><g opacity=".35" mask="url(#C)"><path d="M27.878 13.923C27.878 6.478 21.84.44 14.395.44 6.948.44.91 6.478.91 13.923c0 7.447 6.037 13.483 13.484 13.483 7.446 0 13.483-6.036 13.483-13.483" fill="#FFE5A4" fill-rule="nonzero"/></g></g></g></g></g></svg>