<svg width="155" height="155" viewBox="0 0 155 155" xmlns="http://www.w3.org/2000/svg" xmlns:xlink="http://www.w3.org/1999/xlink"><defs><path d="M37.85 74.98h-.425.426C17.294 74.98.63 58.315.63 37.758.63 17.203 17.293.54 37.85.54h-.426H76.09a7.444 7.444 0 0 1 0 14.887h-5.025a7.445 7.445 0 0 0 0 14.888v.001h29.292a7.444 7.444 0 0 1 0 14.886H91.63a7.444 7.444 0 0 0-7.442 7.444 7.444 7.444 0 0 0 7.442 7.445h3.034a7.443 7.443 0 0 1 7.443 7.444 7.443 7.443 0 0 1-7.443 7.444H37.85zm38.24-59.552h.638-.638z" id="a"/><linearGradient x1="0%" y1="49.999%" y2="49.999%" id="c"><stop offset="0%"/><stop offset="10.27%"/><stop stop-color="#7E5FAA" offset="100%"/></linearGradient><path d="M.767 31.585C.767 14.208 14.851.124 32.227.124s31.461 14.084 31.461 31.46c0 17.375-14.085 31.461-31.46 31.461C14.85 63.045.767 48.96.767 31.585" id="d"/><linearGradient x1="9.179%" y1="21.118%" x2="90.82%" y2="78.88%" id="f"><stop stop-color="#A9AEFF" offset="0%"/><stop stop-color="#A992FF" offset="19.27%"/><stop stop-color="#A992FF" offset="25.483%"/><stop stop-color="#ACA5FF" offset="43.311%"/><stop stop-color="#ACECFE" offset="100%"/></linearGradient><path d="M.767 31.585C.767 14.208 14.851.124 32.227.124s31.461 14.084 31.461 31.46c0 17.375-14.085 31.461-31.46 31.461C14.85 63.045.767 48.96.767 31.585" id="g"/><path id="i" d="M.417 51.362h51.177V.186H.417z"/><path id="k" d="M0 199.75h199.75V0H0z"/><path id="m" d="M.915 37.564h37.426V.138H.915z"/></defs><g fill="none" fill-rule="evenodd"><g transform="matrix(1 0 0 -1 27.938 115.828)"><mask id="b" fill="#fff"><use xlink:href="#a"/></mask><g mask="url(#b)" fill-rule="nonzero" fill="url(#c)"><path d="M37.85 74.98h-.425.426C17.294 74.98.63 58.315.63 37.758.63 17.203 17.293.54 37.85.54h-.426H76.09a7.444 7.444 0 0 1 0 14.887h-5.025a7.445 7.445 0 0 0 0 14.888v.001h29.292a7.444 7.444 0 0 1 0 14.886H91.63a7.444 7.444 0 0 0-7.442 7.444 7.444 7.444 0 0 0 7.442 7.445h3.034a7.443 7.443 0 0 1 7.443 7.444 7.443 7.443 0 0 1-7.443 7.444H37.85zm38.24-59.552h.638-.638z"/></g></g><g transform="matrix(1 0 0 -1 33.93 121.82)"><mask id="e" fill="#fff"><use xlink:href="#d"/></mask><g mask="url(#e)" fill-rule="nonzero" fill="url(#f)"><path d="M.767 31.585C.767 14.208 14.851.124 32.227.124s31.461 14.084 31.461 31.46c0 17.375-14.085 31.461-31.46 31.461C14.85 63.045.767 48.96.767 31.585"/></g></g><g transform="matrix(1 0 0 -1 33.93 121.82)"><mask id="h" fill="#fff"><use xlink:href="#g"/></mask><g mask="url(#h)"><g transform="translate(-13.983 17.978)"><mask id="j" fill="#fff"><use xlink:href="#i"/></mask><g opacity=".16" mask="url(#j)"><path d="M51.594 25.774C51.594 11.643 40.138.186 26.005.186 11.873.186.417 11.643.417 25.774s11.456 25.588 25.588 25.588c14.133 0 25.589-11.457 25.589-25.588" fill="#FFF" fill-rule="nonzero"/></g></g></g></g><g transform="matrix(1 0 0 -1 -22 177.75)"><mask id="l" fill="#fff"><use xlink:href="#k"/></mask><g mask="url(#l)"><path fill="#546BEF" fill-rule="nonzero" d="M90.342 88.454l9.384 8.377 3.522-3.955-6.579-5.86 6.58-5.86-3.523-3.955-9.384 8.377z"/><path fill="#FFF" fill-rule="nonzero" d="M72.482 83.825h14.149v-5.02H72.482z"/><g transform="translate(95.88 104.869)"><mask id="n" fill="#fff"><use xlink:href="#m"/></mask><g opacity=".16" mask="url(#n)"><path d="M38.341 18.851C38.341 8.516 29.964.14 19.628.14 9.293.139.915 8.516.915 18.85c0 10.335 8.378 18.713 18.713 18.713 10.336 0 18.713-8.378 18.713-18.713" fill="#FFF" fill-rule="nonzero"/></g></g></g></g></g></svg>