<svg width="155" height="155" viewBox="0 0 155 155" xmlns="http://www.w3.org/2000/svg" xmlns:xlink="http://www.w3.org/1999/xlink"><defs><path d="M37.85 74.98h-.425.426C17.294 74.98.63 58.314.63 37.758.63 17.202 17.293.539 37.85.539h-.426H76.09a7.445 7.445 0 1 1 0 14.89h-5.025a7.445 7.445 0 0 0 0 14.887h29.292a7.444 7.444 0 0 1 0 14.887H91.63a7.444 7.444 0 0 0 0 14.887h3.034a7.444 7.444 0 1 1 0 14.888v.001H37.85zm38.24-59.551h.638-.638z" id="a"/><linearGradient x1="0%" y1="50%" y2="50%" id="c"><stop offset="0%"/><stop offset="10.27%"/><stop stop-color="#7E5FAA" offset="100%"/></linearGradient><path d="M.767 31.584C.767 14.209 14.851.123 32.227.123s31.461 14.086 31.461 31.46c0 17.377-14.085 31.461-31.46 31.461C14.85 63.044.767 48.96.767 31.584" id="d"/><linearGradient x1="9.179%" y1="21.12%" x2="90.82%" y2="78.882%" id="f"><stop stop-color="#A9AEFF" offset="0%"/><stop stop-color="#A992FF" offset="19.27%"/><stop stop-color="#A992FF" offset="25.483%"/><stop stop-color="#ACA5FF" offset="43.311%"/><stop stop-color="#ACECFE" offset="100%"/></linearGradient><path d="M.767 31.584C.767 14.209 14.851.123 32.227.123s31.461 14.086 31.461 31.46c0 17.377-14.085 31.461-31.46 31.461C14.85 63.044.767 48.96.767 31.584" id="g"/><path id="i" d="M.347 51.399h51.177V.223H.347z"/><path id="k" d="M.907 40.373h39.43V.943H.908z"/><path id="m" d="M0 199.75h199.75V0H0z"/></defs><g fill="none" fill-rule="evenodd"><g transform="matrix(1 0 0 -1 27.938 115.828)"><mask id="b" fill="#fff"><use xlink:href="#a"/></mask><g mask="url(#b)" fill-rule="nonzero" fill="url(#c)"><path d="M37.85 74.98h-.425.426C17.294 74.98.63 58.314.63 37.758.63 17.202 17.293.539 37.85.539h-.426H76.09a7.445 7.445 0 1 1 0 14.89h-5.025a7.445 7.445 0 0 0 0 14.887h29.292a7.444 7.444 0 0 1 0 14.887H91.63a7.444 7.444 0 0 0 0 14.887h3.034a7.444 7.444 0 1 1 0 14.888v.001H37.85zm38.24-59.551h.638-.638z"/></g></g><g transform="matrix(1 0 0 -1 33.93 121.82)"><mask id="e" fill="#fff"><use xlink:href="#d"/></mask><g mask="url(#e)" fill-rule="nonzero" fill="url(#f)"><path d="M.767 31.584C.767 14.209 14.851.123 32.227.123s31.461 14.086 31.461 31.46c0 17.377-14.085 31.461-31.46 31.461C14.85 63.044.767 48.96.767 31.584"/></g></g><g transform="matrix(1 0 0 -1 33.93 121.82)"><mask id="h" fill="#fff"><use xlink:href="#g"/></mask><g mask="url(#h)"><g transform="translate(20.974 22.971)"><mask id="j" fill="#fff"><use xlink:href="#i"/></mask><g opacity=".16" mask="url(#j)"><path d="M51.523 25.812C51.523 11.68 40.068.224 25.935.224 11.803.224.347 11.68.347 25.812c0 14.13 11.456 25.588 25.588 25.588 14.133 0 25.588-11.457 25.588-25.588" fill="#FFF" fill-rule="nonzero"/></g></g><g transform="translate(27.965 28.964)"><mask id="l" fill="#fff"><use xlink:href="#k"/></mask><g opacity=".16" mask="url(#l)" fill-rule="nonzero" fill="#FFF"><path d="M40.337 20.658C40.337 9.769 31.51.943 20.622.943 9.733.943.906 9.769.906 20.658c0 10.888 8.827 19.715 19.716 19.715 10.888 0 19.715-8.827 19.715-19.715"/></g></g></g></g><g transform="matrix(1 0 0 -1 -22 177.75)"><mask id="n" fill="#fff"><use xlink:href="#m"/></mask><g mask="url(#n)"><path d="M138.746 109.251a1.997 1.997 0 1 0-3.994 0 1.997 1.997 0 0 0 3.994 0" fill="#F2D581" fill-rule="nonzero"/><path fill="#546BEF" fill-rule="nonzero" d="M90.342 88.453l9.384 8.378 3.522-3.955-6.579-5.86 6.58-5.86-3.523-3.956-9.384 8.378z"/><path fill="#FFF" fill-rule="nonzero" d="M72.482 83.826h14.149v-5.02H72.482z"/></g></g></g></svg>