<svg width="155" height="155" viewBox="0 0 155 155" xmlns="http://www.w3.org/2000/svg" xmlns:xlink="http://www.w3.org/1999/xlink"><defs><path d="M37.85 74.98h-.425.426C17.294 74.98.63 58.314.63 37.76.63 17.203 17.293.54 37.85.54h-.426H76.09a7.444 7.444 0 0 1 0 14.888h-5.025a7.444 7.444 0 0 0 0 14.887h29.292a7.444 7.444 0 1 1 0 14.888H91.63a7.444 7.444 0 0 0-7.442 7.444 7.443 7.443 0 0 0 7.442 7.444h3.034a7.443 7.443 0 0 1 7.443 7.445 7.444 7.444 0 0 1-7.443 7.443H37.85zm38.24-59.552h.638-.638z" id="a"/><linearGradient x1="0%" y1="50%" y2="50%" id="c"><stop offset="0%"/><stop offset="10.27%"/><stop stop-color="#7E5FAA" offset="100%"/></linearGradient><path d="M.767 31.584C.767 14.209 14.851.123 32.227.123s31.461 14.086 31.461 31.46c0 17.377-14.085 31.461-31.46 31.461C14.85 63.044.767 48.96.767 31.584" id="d"/><linearGradient x1="9.179%" y1="21.12%" x2="90.82%" y2="78.882%" id="f"><stop stop-color="#A9AEFF" offset="0%"/><stop stop-color="#A992FF" offset="19.27%"/><stop stop-color="#A992FF" offset="25.483%"/><stop stop-color="#ACA5FF" offset="43.311%"/><stop stop-color="#ACECFE" offset="100%"/></linearGradient><path d="M.767 31.584C.767 14.209 14.851.123 32.227.123s31.461 14.086 31.461 31.46c0 17.377-14.085 31.461-31.46 31.461C14.85 63.044.767 48.96.767 31.584" id="g"/><path id="i" d="M.347 51.399h51.177V.223H.347z"/><path id="k" d="M.907 40.373h39.43V.943H.908z"/><path d="M8.928 20.688L7.423 17.64a2.481 2.481 0 0 0-1.868-1.356l-3.363-.49C.158 15.5-.655 12.998.817 11.562L3.251 9.19c.584-.569.852-1.39.713-2.196L3.39 3.645C3.042 1.618 5.17.073 6.99 1.03l3.008 1.58a2.474 2.474 0 0 0 2.31 0l3.007-1.58c1.82-.956 3.948.589 3.6 2.616l-.574 3.35a2.477 2.477 0 0 0 .713 2.195l2.434 2.372c1.473 1.436.66 3.938-1.375 4.232l-3.363.49a2.483 2.483 0 0 0-1.869 1.356l-1.503 3.048a2.453 2.453 0 0 1-2.225 1.383c-.886 0-1.77-.461-2.225-1.383" id="m"/><linearGradient x1="-2.613%" y1="18.523%" x2="116.516%" y2="76.607%" id="o"><stop stop-color="#844EC6" offset="0%"/><stop stop-color="#844EC6" offset="6.795%"/><stop stop-color="#9071FF" offset="100%"/></linearGradient><path d="M.268 5.117a4.495 4.495 0 0 1 8.989 0A4.494 4.494 0 0 1 4.761 9.61 4.493 4.493 0 0 1 .268 5.117" id="p"/><linearGradient x1="-47.866%" y1="50.005%" x2="260.959%" y2="50.005%" id="r"><stop stop-color="#A9AEFF" offset="0%"/><stop stop-color="#A992FF" offset="19.27%"/><stop stop-color="#A992FF" offset="25.483%"/><stop stop-color="#ACA5FF" offset="43.311%"/><stop stop-color="#ACECFE" offset="100%"/></linearGradient><path id="s" d="M0 199.75h199.75V0H0z"/><path id="u" d="M.767 27.09h26.966V.122H.767z"/><path id="w" d="M.006.688h.613V.075H.006z"/><path id="y" d="M.74 1.007h.613V.393H.74z"/><path id="A" d="M.435.387h.348V.04H.435z"/><path id="C" d="M.273.914H.62V.567H.273z"/><path id="E" d="M.144.97H.49V.625H.144z"/><path id="G" d="M.571 1.033h.347V.685H.57z"/><path id="I" d="M.043.39H.39V.043H.043z"/><path id="K" d="M.683.791h.348V.444H.683z"/></defs><g fill="none" fill-rule="evenodd"><g transform="matrix(1 0 0 -1 27.938 115.828)"><mask id="b" fill="#fff"><use xlink:href="#a"/></mask><g mask="url(#b)" fill-rule="nonzero" fill="url(#c)"><path d="M37.85 74.98h-.425.426C17.294 74.98.63 58.314.63 37.76.63 17.203 17.293.54 37.85.54h-.426H76.09a7.444 7.444 0 0 1 0 14.888h-5.025a7.444 7.444 0 0 0 0 14.887h29.292a7.444 7.444 0 1 1 0 14.888H91.63a7.444 7.444 0 0 0-7.442 7.444 7.443 7.443 0 0 0 7.442 7.444h3.034a7.443 7.443 0 0 1 7.443 7.445 7.444 7.444 0 0 1-7.443 7.443H37.85zm38.24-59.552h.638-.638z"/></g></g><g transform="matrix(1 0 0 -1 33.93 121.82)"><mask id="e" fill="#fff"><use xlink:href="#d"/></mask><g mask="url(#e)" fill-rule="nonzero" fill="url(#f)"><path d="M.767 31.584C.767 14.209 14.851.123 32.227.123s31.461 14.086 31.461 31.46c0 17.377-14.085 31.461-31.46 31.461C14.85 63.044.767 48.96.767 31.584"/></g></g><g transform="matrix(1 0 0 -1 33.93 121.82)"><mask id="h" fill="#fff"><use xlink:href="#g"/></mask><g mask="url(#h)"><g transform="translate(20.974 22.971)"><mask id="j" fill="#fff"><use xlink:href="#i"/></mask><g opacity=".16" mask="url(#j)"><path d="M51.523 25.81C51.523 11.68 40.068.225 25.935.225 11.803.224.347 11.679.347 25.81s11.456 25.588 25.588 25.588c14.133 0 25.588-11.456 25.588-25.588" fill="#FFF" fill-rule="nonzero"/></g></g><g transform="translate(27.965 28.964)"><mask id="l" fill="#fff"><use xlink:href="#k"/></mask><g opacity=".16" mask="url(#l)" fill-rule="nonzero" fill="#FFF"><path d="M40.337 20.658C40.337 9.77 31.51.943 20.622.943 9.733.943.906 9.77.906 20.658c0 10.887 8.827 19.714 19.716 19.714 10.888 0 19.715-8.827 19.715-19.714"/></g></g></g></g><g transform="matrix(1 0 0 -1 21.945 65.89)"><mask id="n" fill="#fff"><use xlink:href="#m"/></mask><g mask="url(#n)" fill-rule="nonzero" fill="url(#o)"><path d="M8.928 20.688L7.423 17.64a2.481 2.481 0 0 0-1.868-1.356l-3.363-.49C.158 15.5-.655 12.998.817 11.562L3.251 9.19c.584-.569.852-1.39.713-2.196L3.39 3.645C3.042 1.618 5.17.073 6.99 1.03l3.008 1.58a2.474 2.474 0 0 0 2.31 0l3.007-1.58c1.82-.956 3.948.589 3.6 2.616l-.574 3.35a2.477 2.477 0 0 0 .713 2.195l2.434 2.372c1.473 1.436.66 3.938-1.375 4.232l-3.363.49a2.483 2.483 0 0 0-1.869 1.356l-1.503 3.048a2.453 2.453 0 0 1-2.225 1.383c-.886 0-1.77-.461-2.225-1.383"/></g></g><g transform="matrix(1 0 0 -1 108.836 80.871)"><mask id="q" fill="#fff"><use xlink:href="#p"/></mask><g mask="url(#q)" fill-rule="nonzero" fill="url(#r)"><path d="M.268 5.117a4.495 4.495 0 0 1 8.989 0A4.494 4.494 0 0 1 4.761 9.61 4.493 4.493 0 0 1 .268 5.117"/></g></g><g transform="matrix(1 0 0 -1 -22 177.75)"><mask id="t" fill="#fff"><use xlink:href="#s"/></mask><g mask="url(#t)"><path d="M125.111 130.46a1.998 1.998 0 1 0-3.996.002 1.998 1.998 0 0 0 3.996-.002" fill="#F2D581" fill-rule="nonzero"/><g transform="translate(91.885 93.883)"><mask id="v" fill="#fff"><use xlink:href="#u"/></mask><g opacity=".35" mask="url(#v)"><path d="M27.733 13.606C27.733 6.16 21.697.123 14.25.123 6.803.123.767 6.16.767 13.606c0 7.447 6.036 13.483 13.483 13.483 7.447 0 13.483-6.036 13.483-13.483" fill="#FFE5A4" fill-rule="nonzero"/></g></g><path fill="#546BEF" fill-rule="nonzero" d="M90.342 88.453l9.384 8.378 3.522-3.955-6.579-5.86 6.58-5.86-3.523-3.956-9.384 8.378z"/><path fill="#FFF" fill-rule="nonzero" d="M72.482 83.826h14.149v-5.02H72.482z"/><g transform="translate(141.823 114.856)"><mask id="x" fill="#fff"><use xlink:href="#w"/></mask><g opacity=".95" mask="url(#x)"><path d="M.096.164A.307.307 0 1 0 .53.6.307.307 0 0 0 .096.164" fill="#FFF" fill-rule="nonzero"/></g></g><g transform="translate(139.825 122.846)"><mask id="z" fill="#fff"><use xlink:href="#y"/></mask><g opacity=".95" mask="url(#z)"><path d="M.83.482a.307.307 0 0 0 .433.435A.307.307 0 0 0 .83.482" fill="#FFF" fill-rule="nonzero"/></g></g><g transform="translate(138.826 108.864)"><mask id="B" fill="#fff"><use xlink:href="#A"/></mask><g opacity=".95" mask="url(#B)"><path d="M.486.091a.174.174 0 1 0 .246.244.174.174 0 0 0-.246-.244" fill="#FFF" fill-rule="nonzero"/></g></g><g transform="translate(126.841 123.845)"><mask id="D" fill="#fff"><use xlink:href="#C"/></mask><g opacity=".95" mask="url(#D)"><path d="M.324.618a.174.174 0 1 0 .245.245.174.174 0 0 0-.245-.245" fill="#FFF" fill-rule="nonzero"/></g></g><g transform="translate(111.86 110.861)"><mask id="F" fill="#fff"><use xlink:href="#E"/></mask><g opacity=".95" mask="url(#F)"><path d="M.195.675A.174.174 0 1 0 .44.92.174.174 0 0 0 .195.675" fill="#FFF" fill-rule="nonzero"/></g></g><g transform="translate(135.83 129.838)"><mask id="H" fill="#fff"><use xlink:href="#G"/></mask><g opacity=".95" mask="url(#H)"><path d="M.622.737A.174.174 0 1 0 .868.98.174.174 0 0 0 .622.737" fill="#FFF" fill-rule="nonzero"/></g></g><g transform="translate(149.813 101.873)"><mask id="J" fill="#fff"><use xlink:href="#I"/></mask><g opacity=".95" mask="url(#J)"><path d="M.094.094A.174.174 0 1 0 .34.338.174.174 0 0 0 .094.094" fill="#FFF" fill-rule="nonzero"/></g></g><g transform="translate(142.821 93.883)"><mask id="L" fill="#fff"><use xlink:href="#K"/></mask><g opacity=".95" mask="url(#L)"><path d="M.734.495A.174.174 0 1 0 .979.74.174.174 0 0 0 .734.495" fill="#FFF" fill-rule="nonzero"/></g></g></g></g></g></svg>