<?xml version="1.0" encoding="UTF-8"?>
<svg width="256px" height="256px" viewBox="0 0 256 256" version="1.1" xmlns="http://www.w3.org/2000/svg" xmlns:xlink="http://www.w3.org/1999/xlink">
    <!-- Generator: Sketch 46.2 (44496) - http://www.bohemiancoding.com/sketch -->
    <title>empty_achievement</title>
    <desc>Created with Sketch.</desc>
    <defs>
        <path d="M13.841333,44.5306656 C11.4239997,44.5306656 9.4653331,42.5706656 9.4653331,40.1546657 L9.4653331,40.1546657 C9.4653331,37.7373324 11.4239997,35.7773324 13.841333,35.7773324 L13.841333,35.7773324 L13.465333,35.7773324 L14.8839996,35.7773324 L14.4466663,35.7773324 L18.8759995,35.7773324 C19.4946662,35.7773324 19.9959995,35.2773325 19.9959995,34.6586658 L19.9959995,34.6586658 C19.9959995,34.0413325 19.4946662,33.5399992 18.8759995,33.5399992 L18.8759995,33.5399992 L18.9093329,33.5399992 L8.38266646,33.5399992 C4.16666656,33.5399992 0.749333315,30.1226659 0.749333315,25.906666 L0.749333315,25.906666 C0.749333315,21.6906661 4.16666656,18.2746662 8.38266646,18.2746662 L8.38266646,18.2746662 L26.5159993,18.2746662 C28.9319993,18.2746662 30.8906659,16.3146663 30.8906659,13.8986663 L30.8906659,13.8986663 C30.8906659,11.481333 28.9319993,9.5213331 26.5159993,9.5213331 L26.5159993,9.5213331 L26.9519993,9.5213331 L25.906666,9.5213331 C23.4893327,9.5213331 21.5306661,7.56266648 21.5306661,5.1453332 L21.5306661,5.1453332 C21.5306661,2.72933327 23.4893327,0.769333314 25.906666,0.769333314 L25.906666,0.769333314 L74.7839981,0.769333314 L74.7839981,44.5306656 L75.0346648,44.5306656 L13.841333,44.5306656 Z M74.7839981,0.769333314 L75.0346648,0.769333314 L74.7839981,0.769333314 Z" id="path-1"></path>
        <linearGradient x1="136.344276%" y1="46.5319034%" x2="-41.630434%" y2="55.4176085%" id="linearGradient-3">
            <stop stop-color="#000000" offset="0%"></stop>
            <stop stop-color="#000000" offset="10.26964%"></stop>
            <stop stop-color="#7E5FAA" offset="100%"></stop>
        </linearGradient>
        <polygon id="path-4" points="0 266.66666 266.66666 266.66666 266.66666 0 0 0"></polygon>
        <polygon id="path-6" points="0.407466656 67.2653317 96.5839976 67.2653317 96.5839976 0.462266655 0.407466656 0.462266655"></polygon>
        <path d="M33.4266658,67.2653317 L84.7946645,67.2653317 C88.4839978,67.2653317 91.4746644,64.2746651 91.4746644,60.5853318 C91.4746644,56.8959986 88.4839978,53.9039987 84.7946645,53.9039987 L81.4053313,53.9039987 L82.0733313,53.9039987 C78.383998,53.9039987 75.3933314,50.9133321 75.3933314,47.2253322 C75.3933314,43.5346656 78.383998,40.543999 82.0733313,40.543999 L89.9026644,40.543999 C93.5919977,40.543999 96.5839976,37.5533324 96.5839976,33.8639992 C96.5839976,30.1746659 93.5919977,27.182666 89.9026644,27.182666 L63.0439984,27.182666 L63.6159984,27.182666 C59.9266652,27.182666 56.9359986,24.1919994 56.9359986,20.5039995 C56.9359986,16.8133329 59.9266652,13.8226663 63.6159984,13.8226663 L62.9479984,13.8226663 L68.6999983,13.8226663 L68.126665,13.8226663 C71.8159982,13.8226663 74.8066648,10.8319997 74.8066648,7.14266649 C74.8066648,3.45199991 71.8159982,0.461333322 68.126665,0.461333322 L33.4266658,0.461333322 L33.8093325,0.461333322 C15.3613329,0.461333322 0.40799999,15.4159996 0.40799999,33.8639992 C0.40799999,52.3106654 15.3613329,67.2653317 33.8093325,67.2653317 L33.4266658,67.2653317 Z" id="path-8"></path>
        <linearGradient x1="-0.000486607886%" y1="50.0005189%" x2="99.9994871%" y2="50.0005189%" id="linearGradient-10">
            <stop stop-color="#000000" offset="0%"></stop>
            <stop stop-color="#000000" offset="10.26964%"></stop>
            <stop stop-color="#7E5FAA" offset="100%"></stop>
        </linearGradient>
        <path d="M1.03866664,43.9999989 C1.03866664,19.8999995 20.5759995,0.362666658 44.6759989,0.362666658 L44.6759989,0.362666658 C68.7759983,0.362666658 88.3133311,19.8999995 88.3133311,43.9999989 L88.3133311,43.9999989 C88.3133311,68.0999983 68.7759983,87.6373311 44.6759989,87.6373311 L44.6759989,87.6373311 C20.5759995,87.6373311 1.03866664,68.0999983 1.03866664,43.9999989" id="path-11"></path>
        <linearGradient x1="-6.4243889%" y1="10.0793816%" x2="99.9167319%" y2="85.3165394%" id="linearGradient-13">
            <stop stop-color="#8A9098" offset="0%"></stop>
            <stop stop-color="#635E74" offset="19.269538%"></stop>
            <stop stop-color="#635E74" offset="25.483%"></stop>
            <stop stop-color="#C5C7C9" offset="100%"></stop>
        </linearGradient>
        <path d="M1.03866664,43.9999989 C1.03866664,19.8999995 20.5759995,0.362666658 44.6759989,0.362666658 L44.6759989,0.362666658 C68.7759983,0.362666658 88.3133311,19.8999995 88.3133311,43.9999989 L88.3133311,43.9999989 C88.3133311,68.0999983 68.7759983,87.6373311 44.6759989,87.6373311 L44.6759989,87.6373311 C20.5759995,87.6373311 1.03866664,68.0999983 1.03866664,43.9999989" id="path-14"></path>
        <polygon id="path-16" points="0.78679998 71.7626649 71.7693315 71.7626649 71.7693315 0.78039998 0.78679998 0.78039998"></polygon>
        <polygon id="path-18" points="0 266.66666 266.66666 266.66666 266.66666 0 0 0"></polygon>
    </defs>
    <g id="Page-1" stroke="none" stroke-width="1" fill="none" fill-rule="evenodd">
        <g id="empty_achievement">
            <g id="parts-test-00" transform="translate(-6.000000, -6.000000)">
                <g id="g10" transform="translate(133.333330, 133.333340) scale(-1, 1) rotate(-180.000000) translate(-133.333330, -133.333340) translate(0.000000, 0.000010)">
                    <g id="g12" transform="translate(54.666665, 97.333331)">
                        <g id="g14-Clipped">
                            <mask id="mask-2" fill="white">
                                <use xlink:href="#path-1"></use>
                            </mask>
                            <g id="path16"></g>
                            <g id="g14" mask="url(#mask-2)" fill-rule="nonzero" fill="url(#linearGradient-3)">
                                <g id="g20">
                                    <g id="g22">
                                        <path d="M13.841333,44.5306656 C11.4239997,44.5306656 9.4653331,42.5706656 9.4653331,40.1546657 L9.4653331,40.1546657 C9.4653331,37.7373324 11.4239997,35.7773324 13.841333,35.7773324 L13.841333,35.7773324 L13.465333,35.7773324 L14.8839996,35.7773324 L14.4466663,35.7773324 L18.8759995,35.7773324 C19.4946662,35.7773324 19.9959995,35.2773325 19.9959995,34.6586658 L19.9959995,34.6586658 C19.9959995,34.0413325 19.4946662,33.5399992 18.8759995,33.5399992 L18.8759995,33.5399992 L18.9093329,33.5399992 L8.38266646,33.5399992 C4.16666656,33.5399992 0.749333315,30.1226659 0.749333315,25.906666 L0.749333315,25.906666 C0.749333315,21.6906661 4.16666656,18.2746662 8.38266646,18.2746662 L8.38266646,18.2746662 L26.5159993,18.2746662 C28.9319993,18.2746662 30.8906659,16.3146663 30.8906659,13.8986663 L30.8906659,13.8986663 C30.8906659,11.481333 28.9319993,9.5213331 26.5159993,9.5213331 L26.5159993,9.5213331 L26.9519993,9.5213331 L25.906666,9.5213331 C23.4893327,9.5213331 21.5306661,7.56266648 21.5306661,5.1453332 L21.5306661,5.1453332 C21.5306661,2.72933327 23.4893327,0.769333314 25.906666,0.769333314 L25.906666,0.769333314 L74.7839981,0.769333314 L74.7839981,44.5306656 L75.0346648,44.5306656 L13.841333,44.5306656 Z M74.7839981,0.769333314 L75.0346648,0.769333314 L74.7839981,0.769333314 Z" id="path32"></path>
                                    </g>
                                </g>
                            </g>
                        </g>
                    </g>
                    <g id="g34">
                        <g id="g36-Clipped">
                            <mask id="mask-5" fill="white">
                                <use xlink:href="#path-4"></use>
                            </mask>
                            <g id="path38"></g>
                            <g id="g36" mask="url(#mask-5)">
                                <g transform="translate(114.666664, 107.999997)" id="g42">
                                    <g>
                                        <g id="g74">
                                            <g id="g72-Clipped">
                                                <mask id="mask-7" fill="white">
                                                    <use xlink:href="#path-6"></use>
                                                </mask>
                                                <g id="path46"></g>
                                                <g id="g72" opacity="0.66999799" mask="url(#mask-7)">
                                                    <g id="g70">
                                                        <g id="g68-Clipped">
                                                            <mask id="mask-9" fill="white">
                                                                <use xlink:href="#path-8"></use>
                                                            </mask>
                                                            <g id="path50"></g>
                                                            <g id="g68" mask="url(#mask-9)" fill-rule="nonzero" fill="url(#linearGradient-10)">
                                                                <g id="g66">
                                                                    <g id="g64">
                                                                        <path d="M33.4266658,67.2653317 L84.7946645,67.2653317 C88.4839978,67.2653317 91.4746644,64.2746651 91.4746644,60.5853318 C91.4746644,56.8959986 88.4839978,53.9039987 84.7946645,53.9039987 L81.4053313,53.9039987 L82.0733313,53.9039987 C78.383998,53.9039987 75.3933314,50.9133321 75.3933314,47.2253322 C75.3933314,43.5346656 78.383998,40.543999 82.0733313,40.543999 L89.9026644,40.543999 C93.5919977,40.543999 96.5839976,37.5533324 96.5839976,33.8639992 C96.5839976,30.1746659 93.5919977,27.182666 89.9026644,27.182666 L63.0439984,27.182666 L63.6159984,27.182666 C59.9266652,27.182666 56.9359986,24.1919994 56.9359986,20.5039995 C56.9359986,16.8133329 59.9266652,13.8226663 63.6159984,13.8226663 L62.9479984,13.8226663 L68.6999983,13.8226663 L68.126665,13.8226663 C71.8159982,13.8226663 74.8066648,10.8319997 74.8066648,7.14266649 C74.8066648,3.45199991 71.8159982,0.461333322 68.126665,0.461333322 L33.4266658,0.461333322 L33.8093325,0.461333322 C15.3613329,0.461333322 0.40799999,15.4159996 0.40799999,33.8639992 C0.40799999,52.3106654 15.3613329,67.2653317 33.8093325,67.2653317 L33.4266658,67.2653317 Z" id="path62"></path>
                                                                    </g>
                                                                </g>
                                                            </g>
                                                        </g>
                                                    </g>
                                                </g>
                                            </g>
                                        </g>
                                    </g>
                                </g>
                            </g>
                        </g>
                    </g>
                    <g id="g76" transform="translate(89.333331, 89.333331)">
                        <g id="g78-Clipped">
                            <mask id="mask-12" fill="white">
                                <use xlink:href="#path-11"></use>
                            </mask>
                            <g id="path80"></g>
                            <g id="g78" mask="url(#mask-12)" fill-rule="nonzero" fill="url(#linearGradient-13)">
                                <g id="g84">
                                    <g id="g86">
                                        <path d="M1.03866664,43.9999989 C1.03866664,19.8999995 20.5759995,0.362666658 44.6759989,0.362666658 L44.6759989,0.362666658 C68.7759983,0.362666658 88.3133311,19.8999995 88.3133311,43.9999989 L88.3133311,43.9999989 C88.3133311,68.0999983 68.7759983,87.6373311 44.6759989,87.6373311 L44.6759989,87.6373311 C20.5759995,87.6373311 1.03866664,68.0999983 1.03866664,43.9999989" id="path98"></path>
                                    </g>
                                </g>
                            </g>
                        </g>
                    </g>
                    <g id="g100" transform="translate(89.333331, 89.333331)">
                        <g id="g102-Clipped">
                            <mask id="mask-15" fill="white">
                                <use xlink:href="#path-14"></use>
                            </mask>
                            <g id="path104"></g>
                            <g id="g102" mask="url(#mask-15)">
                                <g transform="translate(30.666666, 33.333333)" id="g108">
                                    <g>
                                        <g id="g122">
                                            <g id="g120-Clipped">
                                                <mask id="mask-17" fill="white">
                                                    <use xlink:href="#path-16"></use>
                                                </mask>
                                                <g id="path112"></g>
                                                <g id="g120" opacity="0.19999701" mask="url(#mask-17)">
                                                    <g transform="translate(-1.333333, 0.000000)" id="g118">
                                                        <g transform="translate(1.103067, 0.271733)">
                                                            <path d="M71.9999982,35.9999991 C71.9999982,16.3986663 56.1106653,0.509333321 36.5079991,0.509333321 C16.9066662,0.509333321 1.01733331,16.3986663 1.01733331,35.9999991 C1.01733331,55.6013319 16.9066662,71.4919982 36.5079991,71.4919982 C56.1106653,71.4919982 71.9999982,55.6013319 71.9999982,35.9999991" id="path116" fill="#697FFF" fill-rule="nonzero"></path>
                                                        </g>
                                                    </g>
                                                </g>
                                            </g>
                                        </g>
                                    </g>
                                </g>
                            </g>
                        </g>
                    </g>
                    <g id="g124">
                        <g id="g126-Clipped">
                            <mask id="mask-19" fill="white">
                                <use xlink:href="#path-18"></use>
                            </mask>
                            <g id="path128"></g>
                            <g id="g126" mask="url(#mask-19)">
                                <g transform="translate(101.333331, 99.999998)">
                                    <g id="g132" transform="translate(60.899732, 0.461733)">
                                        <path d="M14.6666663,7.9999998 C14.6666663,4.21733323 11.5999997,1.15066664 7.81733314,1.15066664 C4.03466657,1.15066664 0.967999976,4.21733323 0.967999976,7.9999998 C0.967999976,11.7826664 4.03466657,14.849333 7.81733314,14.849333 C11.5999997,14.849333 14.6666663,11.7826664 14.6666663,7.9999998" id="path134" fill="#6ACCEF" fill-rule="nonzero"></path>
                                    </g>
                                    <g id="g136" transform="translate(0.148000, 62.629732)">
                                        <path d="M6.6666665,3.9999999 C6.6666665,2.31866661 5.30399987,0.955999976 3.62266658,0.955999976 C1.94133328,0.955999976 0.578666652,2.31866661 0.578666652,3.9999999 C0.578666652,5.68133319 1.94133328,7.04399982 3.62266658,7.04399982 C5.30399987,7.04399982 6.6666665,5.68133319 6.6666665,3.9999999" id="path138" fill="#F2D581" fill-rule="nonzero"></path>
                                    </g>
                                </g>
                            </g>
                        </g>
                    </g>
                </g>
            </g>
        </g>
    </g>
</svg>