<svg width="156" height="155" viewBox="0 0 156 155" xmlns="http://www.w3.org/2000/svg" xmlns:xlink="http://www.w3.org/1999/xlink"><defs><path d="M6.795 48.227a8.645 8.645 0 0 1 0-12.226l5.58-5.579a1.267 1.267 0 0 0 0-1.793 1.266 1.266 0 0 0-1.794 0l-.722.723.35-.351-.836.836a4.956 4.956 0 1 1-7.01-7.01h.001L24.273.92 45.3 21.947l-26.28 26.28a8.617 8.617 0 0 1-6.113 2.532 8.621 8.621 0 0 1-6.113-2.532zm2.578-18.39l-.3.3.3-.3z" id="a"/><linearGradient x1="-120.085%" y1="136.128%" x2="94.441%" y2="22.489%" id="c"><stop offset="0%"/><stop stop-color="#6975C1" offset="51.354%"/><stop stop-color="#6975C1" offset="67.913%"/><stop stop-color="#D5FFFE" offset="100%"/></linearGradient><path d="M40.827 62.666c-2.44-2.441-2.469-6.37-.064-8.775l-.372.372 1.412-1.412-.436.436.88-.878a1.59 1.59 0 0 0-.018-2.245 1.588 1.588 0 0 0-2.245-.015l.033-.032-6.24 6.239c-4.196 4.196-11.048 4.147-15.305-.11-4.258-4.257-4.307-11.11-.111-15.305l3.204-3.205c2.407-2.406 2.378-6.335-.063-8.776-2.44-2.44-6.369-2.468-8.775-.063l.436-.435-2.454 2.453c-2.405 2.406-6.334 2.377-8.774-.064-2.441-2.44-2.47-6.369-.064-8.774L22.987.96 67.18 45.152 49.602 62.73a6.097 6.097 0 0 1-4.329 1.784 6.28 6.28 0 0 1-4.446-1.848" id="d"/><linearGradient x1="-21.126%" y1="95.605%" x2="83.446%" y2="30.388%" id="f"><stop offset="0%"/><stop stop-color="#6975C1" offset="51.354%"/><stop stop-color="#6975C1" offset="67.913%"/><stop stop-color="#D5FFFE" offset="100%"/></linearGradient><path id="g" d="M0 199.75h199.75V0H0z"/><path id="i" d="M.15 64.514h87.006V.96H.15z"/><path d="M11.031 22.774l-1.717-3.48a2.835 2.835 0 0 0-2.133-1.55l-3.84-.556c-2.323-.34-3.251-3.195-1.57-4.833l2.778-2.71a2.835 2.835 0 0 0 .815-2.507L4.71 3.314A2.793 2.793 0 0 1 5.698.649l16.538 16.538-.267.266-2.005.292a2.83 2.83 0 0 0-2.133 1.55l-1.718 3.479a2.799 2.799 0 0 1-2.541 1.58 2.799 2.799 0 0 1-2.54-1.58" id="k"/><linearGradient x1="-.001%" y1="48.62%" x2="118.738%" y2="48.62%" id="m"><stop stop-color="#844EC6" offset="0%"/><stop stop-color="#844EC6" offset="6.795%"/><stop stop-color="#9071FF" offset="100%"/></linearGradient><path d="M1.935 10.876c-2.441-2.44-2.47-6.369-.064-8.774L3.54.432c1.365.324 2.426 1.653 2.153 3.243l-.656 3.826a2.837 2.837 0 0 0 .814 2.507l2.47 2.406a6.186 6.186 0 0 1-1.942.312 6.272 6.272 0 0 1-4.445-1.85" id="n"/><linearGradient x1="-193.228%" y1="98.458%" x2="114.182%" y2="98.458%" id="p"><stop stop-color="#844EC6" offset="0%"/><stop stop-color="#844EC6" offset="6.795%"/><stop stop-color="#9071FF" offset="100%"/></linearGradient><path id="q" d="M.094 8.625H8.69V.031H.094z"/><path d="M23.3 39.26L1.959 17.919a3.361 3.361 0 0 1 0-4.741L13.182 1.953a3.363 3.363 0 0 1 4.74 0l21.344 21.343a3.362 3.362 0 0 1 0 4.74L28.04 39.261a3.344 3.344 0 0 1-2.37.977 3.34 3.34 0 0 1-2.37-.977" id="s"/><linearGradient x1="-120.581%" y1="114.959%" x2="251.363%" y2="-26.68%" id="u"><stop stop-color="#C2C0D3" offset="0%"/><stop stop-color="#EBEDEE" offset="75.617%"/><stop stop-color="#EBEDEE" offset="100%"/></linearGradient><path d="M7.63 23.59l-6.122-6.122a3.363 3.363 0 0 1 0-4.74L12.732 1.502a3.361 3.361 0 0 1 4.741 0l6.122 6.122a3.36 3.36 0 0 1 0 4.74L12.37 23.59a3.337 3.337 0 0 1-2.37.977 3.34 3.34 0 0 1-2.37-.977" id="v"/><linearGradient x1="-279.405%" y1="175.429%" x2="327.152%" y2="-55.533%" id="x"><stop stop-color="#C2C0D3" offset="0%"/><stop stop-color="#EBEDEE" offset="75.617%"/><stop stop-color="#EBEDEE" offset="100%"/></linearGradient><path d="M15.796 30.782a2.13 2.13 0 0 1-1.797-1 3.08 3.08 0 0 1-.466-.378L1.288 17.16a3.144 3.144 0 0 1 0-4.434L12.82 1.194a3.142 3.142 0 0 1 4.432 0l12.246 12.245c.144.144.269.3.379.465a2.13 2.13 0 0 1 1 1.798v12.944c0 1.175-.961 2.136-2.136 2.136H15.796z" id="y"/><linearGradient x1="0%" y1="50.001%" x2="99.999%" y2="50.001%" id="A"><stop stop-color="#A0A5D3" offset="0%"/><stop stop-color="#D4CFDD" offset="75.617%"/><stop stop-color="#D4CFDD" offset="100%"/></linearGradient><path id="B" d="M0 199.75h199.75V0H0z"/><path d="M1.54 10.18a3.145 3.145 0 0 1 0-4.434l4.462-4.463a3.144 3.144 0 0 1 4.434 0L26.163 17.01l-8.897 8.897L1.54 10.18z" id="D"/><linearGradient x1="-120.518%" y1="33%" x2="125.274%" y2="57.829%" id="F"><stop stop-color="#C2C0D3" offset="0%"/><stop stop-color="#EBEDEE" offset="75.617%"/><stop stop-color="#EBEDEE" offset="100%"/></linearGradient><path d="M2.027 10.187C1.373 10.187.838 9.653.838 9L9.24.595c.656 0 1.191.535 1.191 1.19v7.214c0 .654-.535 1.188-1.19 1.188H2.026z" id="G"/><linearGradient x1="-539.814%" y1="-9.582%" x2="159.566%" y2="61.07%" id="I"><stop stop-color="#C2C0D3" offset="0%"/><stop stop-color="#EBEDEE" offset="75.617%"/><stop stop-color="#EBEDEE" offset="100%"/></linearGradient><path id="J" d="M0 199.75h199.75V0H0z"/></defs><g fill="none" fill-rule="evenodd"><g transform="matrix(1 0 0 -1 72.881 70.884)"><mask id="b" fill="#fff"><use xlink:href="#a"/></mask><g mask="url(#b)" fill-rule="nonzero" fill="url(#c)"><path d="M6.795 48.227a8.645 8.645 0 0 1 0-12.226l5.58-5.579a1.267 1.267 0 0 0 0-1.793 1.266 1.266 0 0 0-1.794 0l-.722.723.35-.351-.836.836a4.956 4.956 0 1 1-7.01-7.01h.001L24.273.92 45.3 21.947l-26.28 26.28a8.617 8.617 0 0 1-6.113 2.532 8.621 8.621 0 0 1-6.113-2.532zm2.578-18.39l-.3.3.3-.3z"/></g></g><g transform="matrix(1 0 0 -1 27.938 115.828)"><mask id="e" fill="#fff"><use xlink:href="#d"/></mask><g mask="url(#e)" fill-rule="nonzero" fill="url(#f)"><path d="M40.827 62.666c-2.44-2.441-2.469-6.37-.064-8.775l-.372.372 1.412-1.412-.436.436.88-.878a1.59 1.59 0 0 0-.018-2.245 1.588 1.588 0 0 0-2.245-.015l.033-.032-6.24 6.239c-4.196 4.196-11.048 4.147-15.305-.11-4.258-4.257-4.307-11.11-.111-15.305l3.204-3.205c2.407-2.406 2.378-6.335-.063-8.776-2.44-2.44-6.369-2.468-8.775-.063l.436-.435-2.454 2.453c-2.405 2.406-6.334 2.377-8.774-.064-2.441-2.44-2.47-6.369-.064-8.774L22.987.96 67.18 45.152 49.602 62.73a6.097 6.097 0 0 1-4.329 1.784 6.28 6.28 0 0 1-4.446-1.848"/></g></g><g transform="matrix(1 0 0 -1 -22 177.75)"><mask id="h" fill="#fff"><use xlink:href="#g"/></mask><g mask="url(#h)"><g transform="translate(33.958 61.923)"><mask id="j" fill="#fff"><use xlink:href="#i"/></mask><g opacity=".65" mask="url(#j)"><g transform="translate(60.924 27.965)"><mask id="l" fill="#fff"><use xlink:href="#k"/></mask><g mask="url(#l)" fill-rule="nonzero" fill="url(#m)"><path d="M11.031 22.774l-1.717-3.48a2.835 2.835 0 0 0-2.133-1.55l-3.84-.556c-2.323-.34-3.251-3.195-1.57-4.833l2.778-2.71a2.835 2.835 0 0 0 .815-2.507L4.71 3.314A2.793 2.793 0 0 1 5.698.649l16.538 16.538-.267.266-2.005.292a2.83 2.83 0 0 0-2.133 1.55l-1.718 3.479a2.799 2.799 0 0 1-2.541 1.58 2.799 2.799 0 0 1-2.54-1.58"/></g></g><g transform="translate(15.98 19.975)"><mask id="o" fill="#fff"><use xlink:href="#n"/></mask><g mask="url(#o)" fill-rule="nonzero" fill="url(#p)"><path d="M1.935 10.876c-2.441-2.44-2.47-6.369-.064-8.774L3.54.432c1.365.324 2.426 1.653 2.153 3.243l-.656 3.826a2.837 2.837 0 0 0 .814 2.507l2.47 2.406a6.186 6.186 0 0 1-1.942.312 6.272 6.272 0 0 1-4.445-1.85"/></g></g></g></g><path d="M67.336 66.255c-1.65-1.65-3.974-2.003-3.974-2.003s.353 2.322 2.003 3.973c1.65 1.65 3.973 2.003 3.973 2.003s-.353-2.323-2.002-3.973" fill="#FFCA9F" fill-rule="nonzero"/><path d="M74.763 55.034c-5.405-5.405-13.014-6.56-13.014-6.56s1.155 7.608 6.56 13.013c5.406 5.406 13.015 6.561 13.015 6.561s-1.156-7.608-6.561-13.014" fill="#FF7D4A" fill-rule="nonzero"/><path fill="#615777" fill-rule="nonzero" d="M70.879 64.18l-7.412 7.412 3.369 3.369 7.412-7.412zM84.746 50.312l-7.411 7.412 3.369 3.37 7.412-7.414z"/><path d="M83.927 66.29l-4.559 4.558a4.006 4.006 0 0 0 0 5.65l53.713 53.713a4.006 4.006 0 0 0 5.65 0l4.558-4.557a4.007 4.007 0 0 0 0-5.651L89.577 66.29a4.006 4.006 0 0 0-5.65 0" fill="#96BCD6" fill-rule="nonzero"/><g transform="translate(66.916 53.933)"><mask id="r" fill="#fff"><use xlink:href="#q"/></mask><g opacity=".65" mask="url(#r)"><path d="M5.808 2.911C3.435.538.094.031.094.031s.507 3.34 2.88 5.714c2.375 2.374 5.714 2.88 5.714 2.88s-.507-3.34-2.88-5.714" fill="#FFCA9F" fill-rule="nonzero"/></g></g><path fill="#000" fill-rule="nonzero" d="M76.924 55.274L68.54 63.66l3.81 3.812 8.387-8.386z"/></g></g><g transform="matrix(1 0 0 -1 50.909 117.825)"><mask id="t" fill="#fff"><use xlink:href="#s"/></mask><g mask="url(#t)" fill-rule="nonzero" fill="url(#u)"><path d="M23.3 39.26L1.959 17.919a3.361 3.361 0 0 1 0-4.741L13.182 1.953a3.363 3.363 0 0 1 4.74 0l21.344 21.343a3.362 3.362 0 0 1 0 4.74L28.04 39.261a3.344 3.344 0 0 1-2.37.977 3.34 3.34 0 0 1-2.37-.977"/></g></g><g transform="matrix(1 0 0 -1 81.87 86.864)"><mask id="w" fill="#fff"><use xlink:href="#v"/></mask><g mask="url(#w)" fill-rule="nonzero" fill="url(#x)"><path d="M7.63 23.59l-6.122-6.122a3.363 3.363 0 0 1 0-4.74L12.732 1.502a3.361 3.361 0 0 1 4.741 0l6.122 6.122a3.36 3.36 0 0 1 0 4.74L12.37 23.59a3.337 3.337 0 0 1-2.37.977 3.34 3.34 0 0 1-2.37-.977"/></g></g><g transform="matrix(1 0 0 -1 96.851 71.883)"><mask id="z" fill="#fff"><use xlink:href="#y"/></mask><g mask="url(#z)" fill-rule="nonzero" fill="url(#A)"><path d="M15.796 30.782a2.13 2.13 0 0 1-1.797-1 3.08 3.08 0 0 1-.466-.378L1.288 17.16a3.144 3.144 0 0 1 0-4.434L12.82 1.194a3.142 3.142 0 0 1 4.432 0l12.246 12.245c.144.144.269.3.379.465a2.13 2.13 0 0 1 1 1.798v12.944c0 1.175-.961 2.136-2.136 2.136H15.796z"/></g></g><g transform="matrix(1 0 0 -1 -22 177.75)"><mask id="C" fill="#fff"><use xlink:href="#B"/></mask><g mask="url(#C)"><path d="M88.885 80.725l-13.06-13.06a3.144 3.144 0 0 0-4.433 0l-4.464 4.464a3.144 3.144 0 0 0 0 4.433l13.06 13.06" fill="#96BCD6" fill-rule="nonzero"/><path d="M79.54 88.693c0 .655.534 1.19 1.189 1.19h7.214c.654 0 1.19-.535 1.19-1.19V81.48c0-.654-.536-1.19-1.19-1.19M102.753 66.857l-13.06-13.06a3.144 3.144 0 0 0-4.433 0l-4.464 4.464a3.144 3.144 0 0 0 0 4.434l13.06 13.058" fill="#96BCD6" fill-rule="nonzero"/><path d="M93.422 74.796c0 .654.535 1.19 1.19 1.19h7.213c.654 0 1.19-.536 1.19-1.19v-7.214c0-.654-.536-1.19-1.19-1.19" fill="#96BCD6" fill-rule="nonzero"/></g></g><g transform="matrix(1 0 0 -1 48.911 119.823)"><mask id="E" fill="#fff"><use xlink:href="#D"/></mask><g mask="url(#E)" fill-rule="nonzero" fill="url(#F)"><path d="M1.54 10.18a3.145 3.145 0 0 1 0-4.434l4.462-4.463a3.144 3.144 0 0 1 4.434 0L26.163 17.01l-8.897 8.897L1.54 10.18z"/></g></g><g transform="matrix(1 0 0 -1 64.891 103.843)"><mask id="H" fill="#fff"><use xlink:href="#G"/></mask><g mask="url(#H)" fill-rule="nonzero" fill="url(#I)"><path d="M2.027 10.187C1.373 10.187.838 9.653.838 9L9.24.595c.656 0 1.191.535 1.191 1.19v7.214c0 .654-.535 1.188-1.19 1.188H2.026z"/></g></g><g transform="matrix(1 0 0 -1 -22 177.75)"><mask id="K" fill="#fff"><use xlink:href="#J"/></mask><g mask="url(#K)"><path d="M135.869 118.955a3.806 3.806 0 0 0-2.712 1.123 3.84 3.84 0 0 0 0 5.423 3.81 3.81 0 0 0 2.712 1.124c1.023 0 1.987-.4 2.711-1.124a3.84 3.84 0 0 0 0-5.423 3.807 3.807 0 0 0-2.711-1.123" fill="#9CD7FF" fill-rule="nonzero"/><path d="M135.869 127.356a4.538 4.538 0 0 1-3.23-1.337 4.571 4.571 0 0 1 0-6.458 4.537 4.537 0 0 1 3.23-1.338 4.54 4.54 0 0 1 3.229 1.338 4.54 4.54 0 0 1 1.337 3.23 4.538 4.538 0 0 1-1.337 3.228 4.54 4.54 0 0 1-3.23 1.337m0-1.463a3.102 3.102 0 1 0 0-6.206 3.102 3.102 0 1 0 0 6.206" fill="#403559" fill-rule="nonzero"/><path d="M133.213 120.137l-7.378-7.378M118.171 105.281l-3.89-3.89" stroke="#403559" stroke-width="1.463"/></g></g></g></svg>