<svg width="155" height="155" viewBox="0 0 155 155" xmlns="http://www.w3.org/2000/svg" xmlns:xlink="http://www.w3.org/1999/xlink"><defs><path d="M6.795 48.227a8.645 8.645 0 0 1 0-12.226l5.58-5.579a1.267 1.267 0 0 0 0-1.793 1.266 1.266 0 0 0-1.794 0l-.722.723.35-.351-.836.836a4.956 4.956 0 1 1-7.01-7.01h.001L24.273.92 45.3 21.947l-26.28 26.28a8.617 8.617 0 0 1-6.113 2.532 8.621 8.621 0 0 1-6.113-2.532zm2.578-18.39l-.3.3.3-.3z" id="a"/><linearGradient x1="-120.085%" y1="136.128%" x2="94.441%" y2="22.489%" id="c"><stop offset="0%"/><stop stop-color="#6975C1" offset="51.354%"/><stop stop-color="#6975C1" offset="67.913%"/><stop stop-color="#D5FFFE" offset="100%"/></linearGradient><path d="M40.827 62.666c-2.44-2.441-2.469-6.37-.064-8.775l-.372.372 1.412-1.412-.436.436.88-.878a1.59 1.59 0 0 0-.018-2.245 1.588 1.588 0 0 0-2.245-.015l.033-.032-6.24 6.239c-4.196 4.196-11.048 4.147-15.305-.11-4.258-4.257-4.307-11.11-.111-15.305l3.204-3.205c2.407-2.406 2.378-6.335-.063-8.776-2.44-2.44-6.369-2.468-8.775-.063l.436-.435-2.454 2.453c-2.405 2.406-6.334 2.377-8.774-.064-2.441-2.44-2.47-6.369-.064-8.774L22.987.96 67.18 45.152 49.602 62.73a6.097 6.097 0 0 1-4.329 1.784 6.28 6.28 0 0 1-4.446-1.848" id="d"/><linearGradient x1="0%" y1="50.001%" x2="99.999%" y2="50.001%" id="f"><stop offset="0%"/><stop stop-color="#6975C1" offset="51.354%"/><stop stop-color="#6975C1" offset="67.913%"/><stop stop-color="#D5FFFE" offset="100%"/></linearGradient><path id="g" d="M0 199.75h199.75V0H0z"/><path id="i" d="M.15 74.17h89.197V.96H.15z"/><path d="M.968 13.232l2.776-2.708a2.835 2.835 0 0 0 .816-2.508l-.656-3.824C3.508 1.878 5.937.112 8.015 1.205l3.434 1.806c.232.122.478.21.73.263L1.662 13.79c-.462.461-.98.834-1.534 1.116.073-.6.342-1.19.84-1.675" id="k"/><linearGradient x1="-.165%" y1="86.783%" x2="209.938%" y2="86.783%" id="m"><stop stop-color="#844EC6" offset="0%"/><stop stop-color="#844EC6" offset="6.795%"/><stop stop-color="#9071FF" offset="100%"/></linearGradient><path d="M1.935 10.876c-2.441-2.44-2.47-6.369-.064-8.774L3.54.432c1.365.324 2.426 1.653 2.153 3.243l-.656 3.826a2.837 2.837 0 0 0 .814 2.507l2.47 2.406a6.186 6.186 0 0 1-1.942.312 6.272 6.272 0 0 1-4.445-1.85" id="n"/><linearGradient x1="-193.228%" y1="98.458%" x2="114.182%" y2="98.458%" id="p"><stop stop-color="#844EC6" offset="0%"/><stop stop-color="#844EC6" offset="6.795%"/><stop stop-color="#9071FF" offset="100%"/></linearGradient><path id="q" d="M.094 8.625H8.69V.031H.094z"/><path d="M23.3 39.26L1.959 17.919a3.361 3.361 0 0 1 0-4.741L13.182 1.953a3.363 3.363 0 0 1 4.74 0l21.344 21.343a3.362 3.362 0 0 1 0 4.74L28.04 39.261a3.344 3.344 0 0 1-2.37.977 3.34 3.34 0 0 1-2.37-.977" id="s"/><linearGradient x1="-120.581%" y1="114.959%" x2="251.363%" y2="-26.68%" id="u"><stop stop-color="#C2C0D3" offset="0%"/><stop stop-color="#EBEDEE" offset="75.617%"/><stop stop-color="#EBEDEE" offset="100%"/></linearGradient><path d="M7.63 23.59l-6.122-6.122a3.363 3.363 0 0 1 0-4.74L12.732 1.502a3.361 3.361 0 0 1 4.741 0l6.122 6.122a3.36 3.36 0 0 1 0 4.74L12.37 23.59a3.337 3.337 0 0 1-2.37.977 3.34 3.34 0 0 1-2.37-.977" id="v"/><linearGradient x1="-279.405%" y1="175.429%" x2="327.152%" y2="-55.533%" id="x"><stop stop-color="#C2C0D3" offset="0%"/><stop stop-color="#EBEDEE" offset="75.617%"/><stop stop-color="#EBEDEE" offset="100%"/></linearGradient><path d="M15.796 30.782a2.13 2.13 0 0 1-1.797-1 3.08 3.08 0 0 1-.466-.378L1.288 17.16a3.144 3.144 0 0 1 0-4.434L12.82 1.194a3.142 3.142 0 0 1 4.432 0l12.246 12.245c.144.144.269.3.379.465a2.13 2.13 0 0 1 1 1.798v12.944c0 1.175-.961 2.136-2.136 2.136H15.796z" id="y"/><linearGradient x1="0%" y1="50.001%" x2="99.999%" y2="50.001%" id="A"><stop stop-color="#A0A5D3" offset="0%"/><stop stop-color="#D4CFDD" offset="75.617%"/><stop stop-color="#D4CFDD" offset="100%"/></linearGradient><path id="B" d="M0 199.75h199.75V0H0z"/><path d="M1.54 10.18a3.145 3.145 0 0 1 0-4.434l4.462-4.464a3.145 3.145 0 0 1 4.434 0L26.163 17.01l-8.897 8.897L1.54 10.18z" id="D"/><linearGradient x1="-120.518%" y1="33.001%" x2="125.274%" y2="57.829%" id="F"><stop stop-color="#C2C0D3" offset="0%"/><stop stop-color="#EBEDEE" offset="75.617%"/><stop stop-color="#EBEDEE" offset="100%"/></linearGradient><path d="M2.027 10.187C1.373 10.187.838 9.653.838 9L9.24.595c.656 0 1.191.535 1.191 1.19v7.214c0 .654-.535 1.188-1.19 1.188H2.026z" id="G"/><linearGradient x1="-539.814%" y1="-9.582%" x2="159.566%" y2="61.07%" id="I"><stop stop-color="#C2C0D3" offset="0%"/><stop stop-color="#EBEDEE" offset="75.617%"/><stop stop-color="#EBEDEE" offset="100%"/></linearGradient><path id="J" d="M0 199.75h199.75V0H0z"/><path id="L" d="M.872 2.058h1.807V.251H.872z"/><path id="N" d="M.159 1.11h.767V.341H.159z"/><path id="P" d="M.463 1.314h.767V.547H.463z"/><path id="R" d="M.863 1.211h.767V.444H.863z"/><path id="T" d="M.325.46H.76V.027H.325z"/><path id="V" d="M.038 1.284h.434V.851H.038z"/><path id="X" d="M.56 1.43h.433V.994H.56z"/><path id="Z" d="M.18 2.068h1.808V.262H.18z"/><path id="ab" d="M.7 1.119h.767V.352H.7z"/><path id="ad" d="M.768 1.5h.767V.733H.768z"/><path id="af" d="M.783.447h.433V.013H.783z"/><path id="ah" d="M.787.977h.433V.543H.787z"/><path id="aj" d="M.197 1.2h.434V.768H.197z"/><path id="al" d="M.205 1.155H.64V.721H.205z"/></defs><g fill="none" fill-rule="evenodd"><g transform="matrix(1 0 0 -1 72.881 70.884)"><mask id="b" fill="#fff"><use xlink:href="#a"/></mask><g mask="url(#b)" fill-rule="nonzero" fill="url(#c)"><path d="M6.795 48.227a8.645 8.645 0 0 1 0-12.226l5.58-5.579a1.267 1.267 0 0 0 0-1.793 1.266 1.266 0 0 0-1.794 0l-.722.723.35-.351-.836.836a4.956 4.956 0 1 1-7.01-7.01h.001L24.273.92 45.3 21.947l-26.28 26.28a8.617 8.617 0 0 1-6.113 2.532 8.621 8.621 0 0 1-6.113-2.532zm2.578-18.39l-.3.3.3-.3z"/></g></g><g transform="matrix(1 0 0 -1 27.938 115.828)"><mask id="e" fill="#fff"><use xlink:href="#d"/></mask><g mask="url(#e)" fill-rule="nonzero" fill="url(#f)"><path d="M40.827 62.666c-2.44-2.441-2.469-6.37-.064-8.775l-.372.372 1.412-1.412-.436.436.88-.878a1.59 1.59 0 0 0-.018-2.245 1.588 1.588 0 0 0-2.245-.015l.033-.032-6.24 6.239c-4.196 4.196-11.048 4.147-15.305-.11-4.258-4.257-4.307-11.11-.111-15.305l3.204-3.205c2.407-2.406 2.378-6.335-.063-8.776-2.44-2.44-6.369-2.468-8.775-.063l.436-.435-2.454 2.453c-2.405 2.406-6.334 2.377-8.774-.064-2.441-2.44-2.47-6.369-.064-8.774L22.987.96 67.18 45.152 49.602 62.73a6.097 6.097 0 0 1-4.329 1.784 6.28 6.28 0 0 1-4.446-1.848"/></g></g><g transform="matrix(1 0 0 -1 -22 177.75)"><mask id="h" fill="#fff"><use xlink:href="#g"/></mask><g mask="url(#h)"><g transform="translate(33.958 61.923)"><mask id="j" fill="#fff"><use xlink:href="#i"/></mask><g opacity=".65" mask="url(#j)"><g transform="translate(63.92 48.939)"><mask id="l" fill="#fff"><use xlink:href="#k"/></mask><g mask="url(#l)" fill-rule="nonzero" fill="url(#m)"><path d="M.968 13.232l2.776-2.708a2.835 2.835 0 0 0 .816-2.508l-.656-3.824C3.508 1.878 5.937.112 8.015 1.205l3.434 1.806c.232.122.478.21.73.263L1.662 13.79c-.462.461-.98.834-1.534 1.116.073-.6.342-1.19.84-1.675"/></g></g><g transform="translate(15.98 19.975)"><mask id="o" fill="#fff"><use xlink:href="#n"/></mask><g mask="url(#o)" fill-rule="nonzero" fill="url(#p)"><path d="M1.935 10.876c-2.441-2.44-2.47-6.369-.064-8.774L3.54.432c1.365.324 2.426 1.653 2.153 3.243l-.656 3.826a2.837 2.837 0 0 0 .814 2.507l2.47 2.406a6.186 6.186 0 0 1-1.942.312 6.272 6.272 0 0 1-4.445-1.85"/></g></g></g></g><path d="M137.957 150.978a1.645 1.645 0 1 0 0-3.29 1.645 1.645 0 0 0 0 3.29" fill="#6ACCEF" fill-rule="nonzero"/><path d="M67.336 66.255c-1.65-1.65-3.974-2.003-3.974-2.003s.353 2.322 2.003 3.973c1.65 1.65 3.973 2.003 3.973 2.003s-.353-2.323-2.002-3.973M81.179 52.412c-1.65-1.65-3.973-2.003-3.973-2.003s.352 2.322 2.002 3.973c1.651 1.65 3.973 2.004 3.973 2.004s-.352-2.324-2.002-3.974" fill="#FFCA9F" fill-rule="nonzero"/><path d="M71.363 51.837c-5.405-5.405-13.013-6.56-13.013-6.56s1.155 7.608 6.56 13.013c5.406 5.405 13.014 6.56 13.014 6.56s-1.155-7.608-6.56-13.013" fill="#FF7D4A" fill-rule="nonzero"/><path fill="#615777" fill-rule="nonzero" d="M70.879 64.18l-7.412 7.412 3.369 3.369 7.412-7.412zM84.746 50.312l-7.411 7.413 3.369 3.368 7.412-7.412z"/><path d="M83.927 66.29l-4.559 4.558a4.006 4.006 0 0 0 0 5.65l53.713 53.713a4.006 4.006 0 0 0 5.65 0l4.558-4.557a4.007 4.007 0 0 0 0-5.651L89.577 66.29a4.006 4.006 0 0 0-5.65 0" fill="#96BCD6" fill-rule="nonzero"/><g transform="translate(66.916 53.933)"><mask id="r" fill="#fff"><use xlink:href="#q"/></mask><g opacity=".65" mask="url(#r)"><path d="M5.808 2.911C3.435.538.094.031.094.031s.507 3.34 2.88 5.714c2.375 2.374 5.714 2.88 5.714 2.88s-.507-3.34-2.88-5.714" fill="#FFCA9F" fill-rule="nonzero"/></g></g><path fill="#000" fill-rule="nonzero" d="M76.924 55.274L68.54 63.66l3.81 3.812 8.387-8.386z"/></g></g><g transform="matrix(1 0 0 -1 50.909 117.825)"><mask id="t" fill="#fff"><use xlink:href="#s"/></mask><g mask="url(#t)" fill-rule="nonzero" fill="url(#u)"><path d="M23.3 39.26L1.959 17.919a3.361 3.361 0 0 1 0-4.741L13.182 1.953a3.363 3.363 0 0 1 4.74 0l21.344 21.343a3.362 3.362 0 0 1 0 4.74L28.04 39.261a3.344 3.344 0 0 1-2.37.977 3.34 3.34 0 0 1-2.37-.977"/></g></g><g transform="matrix(1 0 0 -1 81.87 86.864)"><mask id="w" fill="#fff"><use xlink:href="#v"/></mask><g mask="url(#w)" fill-rule="nonzero" fill="url(#x)"><path d="M7.63 23.59l-6.122-6.122a3.363 3.363 0 0 1 0-4.74L12.732 1.502a3.361 3.361 0 0 1 4.741 0l6.122 6.122a3.36 3.36 0 0 1 0 4.74L12.37 23.59a3.337 3.337 0 0 1-2.37.977 3.34 3.34 0 0 1-2.37-.977"/></g></g><g transform="matrix(1 0 0 -1 96.851 71.883)"><mask id="z" fill="#fff"><use xlink:href="#y"/></mask><g mask="url(#z)" fill-rule="nonzero" fill="url(#A)"><path d="M15.796 30.782a2.13 2.13 0 0 1-1.797-1 3.08 3.08 0 0 1-.466-.378L1.288 17.16a3.144 3.144 0 0 1 0-4.434L12.82 1.194a3.142 3.142 0 0 1 4.432 0l12.246 12.245c.144.144.269.3.379.465a2.13 2.13 0 0 1 1 1.798v12.944c0 1.175-.961 2.136-2.136 2.136H15.796z"/></g></g><g transform="matrix(1 0 0 -1 -22 177.75)"><mask id="C" fill="#fff"><use xlink:href="#B"/></mask><g mask="url(#C)"><path d="M88.885 80.725l-13.06-13.06a3.144 3.144 0 0 0-4.433 0l-4.464 4.464a3.144 3.144 0 0 0 0 4.433l13.06 13.06" fill="#96BCD6" fill-rule="nonzero"/><path d="M79.54 88.694c0 .654.534 1.189 1.189 1.189h7.214c.654 0 1.19-.535 1.19-1.19V81.48c0-.655-.536-1.19-1.19-1.19M102.753 66.857l-13.06-13.06a3.144 3.144 0 0 0-4.433 0l-4.464 4.464a3.144 3.144 0 0 0 0 4.434l13.06 13.058" fill="#96BCD6" fill-rule="nonzero"/><path d="M93.422 74.796c0 .654.535 1.19 1.19 1.19h7.213c.654 0 1.19-.536 1.19-1.19v-7.214c0-.654-.536-1.19-1.19-1.19" fill="#96BCD6" fill-rule="nonzero"/></g></g><g transform="matrix(1 0 0 -1 48.911 119.823)"><mask id="E" fill="#fff"><use xlink:href="#D"/></mask><g mask="url(#E)" fill-rule="nonzero" fill="url(#F)"><path d="M1.54 10.18a3.145 3.145 0 0 1 0-4.434l4.462-4.464a3.145 3.145 0 0 1 4.434 0L26.163 17.01l-8.897 8.897L1.54 10.18z"/></g></g><g transform="matrix(1 0 0 -1 64.891 103.843)"><mask id="H" fill="#fff"><use xlink:href="#G"/></mask><g mask="url(#H)" fill-rule="nonzero" fill="url(#I)"><path d="M2.027 10.187C1.373 10.187.838 9.653.838 9L9.24.595c.656 0 1.191.535 1.191 1.19v7.214c0 .654-.535 1.188-1.19 1.188H2.026z"/></g></g><g transform="matrix(1 0 0 -1 -22 177.75)"><mask id="K" fill="#fff"><use xlink:href="#J"/></mask><g mask="url(#K)"><path d="M135.869 118.955a3.806 3.806 0 0 0-2.712 1.123 3.84 3.84 0 0 0 0 5.423 3.81 3.81 0 0 0 2.712 1.124c1.023 0 1.987-.4 2.711-1.124a3.84 3.84 0 0 0 0-5.423 3.807 3.807 0 0 0-2.711-1.123" fill="#9CD7FF" fill-rule="nonzero"/><path d="M135.869 127.356a4.538 4.538 0 0 1-3.23-1.337 4.571 4.571 0 0 1 0-6.458 4.537 4.537 0 0 1 3.23-1.338 4.54 4.54 0 0 1 3.229 1.338 4.54 4.54 0 0 1 1.337 3.23 4.538 4.538 0 0 1-1.337 3.228 4.54 4.54 0 0 1-3.23 1.337m0-1.463a3.102 3.102 0 1 0 0-6.206 3.102 3.102 0 1 0 0 6.206" fill="#403559" fill-rule="nonzero"/><path d="M133.213 120.137l-7.378-7.378M118.171 105.281l-3.89-3.89" stroke="#403559" stroke-width="1.463"/><g transform="translate(96.879 112.859)"><mask id="M" fill="#fff"><use xlink:href="#L"/></mask><g opacity=".95" mask="url(#M)"><path d="M1.342 1.947a.904.904 0 1 0 0 0" fill="#FFF" fill-rule="nonzero"/></g></g><g transform="translate(77.903 94.881)"><mask id="O" fill="#fff"><use xlink:href="#N"/></mask><g opacity=".95" mask="url(#O)"><path d="M.358 1.063A.384.384 0 1 0 .725.388a.384.384 0 0 0-.367.675" fill="#FFF" fill-rule="nonzero"/></g></g><g transform="translate(91.885 125.843)"><mask id="Q" fill="#fff"><use xlink:href="#P"/></mask><g opacity=".95" mask="url(#Q)"><path d="M.663 1.268a.383.383 0 1 0 .368-.673.383.383 0 0 0-.368.673" fill="#FFF" fill-rule="nonzero"/></g></g><g transform="translate(93.883 107.865)"><mask id="S" fill="#fff"><use xlink:href="#R"/></mask><g opacity=".95" mask="url(#S)" fill-rule="nonzero" fill="#FFF"><path d="M1.062 1.165A.383.383 0 1 0 1.43.492a.383.383 0 0 0-.368.673"/></g></g><g transform="translate(77.903 91.885)"><mask id="U" fill="#fff"><use xlink:href="#T"/></mask><g opacity=".95" mask="url(#U)"><path d="M.438.434A.217.217 0 1 0 .352.139a.217.217 0 0 0 .086.295" fill="#FFF" fill-rule="nonzero"/></g></g><g transform="translate(90.886 122.846)"><mask id="W" fill="#fff"><use xlink:href="#V"/></mask><g opacity=".95" mask="url(#W)"><path d="M.151 1.258a.215.215 0 0 0 .294-.087.216.216 0 1 0-.38-.208.217.217 0 0 0 .086.295" fill="#FFF" fill-rule="nonzero"/></g></g><g transform="translate(97.878 107.865)"><mask id="Y" fill="#fff"><use xlink:href="#X"/></mask><g opacity=".95" mask="url(#Y)"><path d="M.673 1.402a.215.215 0 0 0 .293-.087.216.216 0 0 0-.086-.293.218.218 0 0 0-.294.086.218.218 0 0 0 .087.294" fill="#FFF" fill-rule="nonzero"/></g></g><g transform="translate(106.866 149.813)"><mask id="aa" fill="#fff"><use xlink:href="#Z"/></mask><g opacity=".95" mask="url(#aa)"><path d="M1.003.265a.903.903 0 1 0 .16 1.799.903.903 0 0 0-.16-1.799" fill="#FFF" fill-rule="nonzero"/></g></g><g transform="translate(106.866 128.839)"><mask id="ac" fill="#fff"><use xlink:href="#ab"/></mask><g opacity=".95" mask="url(#ac)"><path d="M1.05.353a.383.383 0 1 0 .068.763.383.383 0 0 0-.068-.763" fill="#FFF" fill-rule="nonzero"/></g></g><g transform="translate(114.856 144.819)"><mask id="ae" fill="#fff"><use xlink:href="#ad"/></mask><g opacity=".95" mask="url(#ae)"><path d="M1.117.735a.383.383 0 1 0 .068.764.383.383 0 0 0-.068-.764" fill="#FFF" fill-rule="nonzero"/></g></g><g transform="translate(109.863 130.836)"><mask id="ag" fill="#fff"><use xlink:href="#af"/></mask><g opacity=".95" mask="url(#ag)"><path d="M.98.014A.216.216 0 0 0 .783.25c.011.12.116.208.236.198A.218.218 0 0 0 1.216.21.217.217 0 0 0 .98.014" fill="#FFF" fill-rule="nonzero"/></g></g><g transform="translate(111.86 146.816)"><mask id="ai" fill="#fff"><use xlink:href="#ah"/></mask><g opacity=".95" mask="url(#ai)"><path d="M.984.544a.217.217 0 1 0 .04.432.217.217 0 0 0-.04-.432" fill="#FFF" fill-rule="nonzero"/></g></g><g transform="translate(65.918 80.899)"><mask id="ak" fill="#fff"><use xlink:href="#aj"/></mask><g opacity=".95" mask="url(#ak)"><path d="M.31 1.174a.215.215 0 0 0 .294-.087.216.216 0 1 0-.38-.208.217.217 0 0 0 .086.295" fill="#FFF" fill-rule="nonzero"/></g></g><g transform="translate(57.928 82.896)"><mask id="am" fill="#fff"><use xlink:href="#al"/></mask><g opacity=".95" mask="url(#am)"><path d="M.318 1.128A.217.217 0 1 0 .231.833a.218.218 0 0 0 .087.295" fill="#FFF" fill-rule="nonzero"/></g></g></g></g></g></svg>