<svg width="155" height="155" viewBox="0 0 155 155" xmlns="http://www.w3.org/2000/svg" xmlns:xlink="http://www.w3.org/1999/xlink"><defs><path d="M6.795 48.227a8.645 8.645 0 0 1 0-12.226l5.605-5.605-.025.026a1.268 1.268 0 0 0 0-1.794 1.27 1.27 0 0 0-1.794 0l-.722.723.35-.35-1.136 1.136.3-.3a4.956 4.956 0 1 1-7.01-7.01h.001L24.273.92 45.3 21.947l-26.28 26.28a8.617 8.617 0 0 1-6.113 2.532 8.621 8.621 0 0 1-6.113-2.532" id="a"/><linearGradient x1="-76.007%" y1="167.718%" x2="136.003%" y2="-39.325%" id="c"><stop offset="0%"/><stop stop-color="#6975C1" offset="51.354%"/><stop stop-color="#6975C1" offset="67.913%"/><stop stop-color="#D5FFFE" offset="100%"/></linearGradient><path d="M40.827 62.667c-2.419-2.421-2.468-6.304-.124-8.715l1.1-1.1-.436.435.88-.878a1.59 1.59 0 0 0-.018-2.245 1.59 1.59 0 0 0-2.245-.016l.033-.032-6.24 6.24c-4.196 4.196-11.048 4.146-15.305-.11-4.258-4.258-4.307-11.11-.111-15.305l3.204-3.206c2.407-2.405 2.378-6.333-.063-8.774-2.44-2.441-6.369-2.47-8.775-.064l.436-.436-2.454 2.454c-2.405 2.405-6.334 2.377-8.774-.063-2.441-2.44-2.47-6.37-.064-8.775L22.987.96 67.18 45.152 49.602 62.73a6.096 6.096 0 0 1-4.33 1.785 6.277 6.277 0 0 1-4.445-1.848zm-.064-8.776l-.06.06-.312.313.372-.373z" id="d"/><linearGradient x1="0%" y1="50%" x2="99.999%" y2="50%" id="f"><stop offset="0%"/><stop stop-color="#6975C1" offset="51.354%"/><stop stop-color="#6975C1" offset="67.913%"/><stop stop-color="#D5FFFE" offset="100%"/></linearGradient><path id="g" d="M0 199.75h199.75V0H0z"/><path id="i" d="M.15 67.614H83.16V.96H.15z"/><path d="M22.726 11.005l.206-.206 1.92 1.871c1.682 1.64.754 4.495-1.571 4.832l-1.766.257c-.97-2.243-.57-4.923 1.21-6.754zM.668 13.471c.139-.285.332-.557.581-.8l2.779-2.71c.668-.65.973-1.588.816-2.507l-.656-3.825C3.79 1.314 6.22-.45 8.298.643l3.434 1.805a2.832 2.832 0 0 0 2.638 0L17.804.643c2.078-1.093 4.507.671 4.11 2.986l-.656 3.825c-.03.178-.043.358-.04.536L15.8 13.41a10.632 10.632 0 0 1-7.551 3.114c-2.72 0-5.454-1.018-7.58-3.053zm22.118-2.527l-.06.061-.313.313.373-.374z" id="k"/><linearGradient x1="-1.105%" y1="69.801%" y2="69.801%" id="m"><stop stop-color="#844EC6" offset="0%"/><stop stop-color="#844EC6" offset="6.795%"/><stop stop-color="#9071FF" offset="100%"/></linearGradient><path d="M1.935 10.877c-2.441-2.44-2.47-6.37-.064-8.775L3.54.432c1.365.324 2.426 1.654 2.153 3.244l-.656 3.825a2.837 2.837 0 0 0 .814 2.507l2.47 2.406a6.187 6.187 0 0 1-1.943.312 6.275 6.275 0 0 1-4.444-1.849" id="n"/><linearGradient x1="-193.228%" y1="98.458%" x2="114.182%" y2="98.458%" id="p"><stop stop-color="#844EC6" offset="0%"/><stop stop-color="#844EC6" offset="6.795%"/><stop stop-color="#9071FF" offset="100%"/></linearGradient><path id="q" d="M.377 15.59h15.33V.26H.377z"/><path id="s" d="M.094 8.625H8.69V.031H.094z"/><path d="M23.3 39.26L1.959 17.918a3.36 3.36 0 0 1 0-4.74L13.182 1.953a3.361 3.361 0 0 1 4.74 0l21.344 21.343a3.362 3.362 0 0 1 0 4.74L28.04 39.261a3.344 3.344 0 0 1-2.37.977 3.34 3.34 0 0 1-2.37-.977" id="u"/><linearGradient x1="-120.581%" y1="114.958%" x2="251.363%" y2="-26.677%" id="w"><stop stop-color="#C2C0D3" offset="0%"/><stop stop-color="#EBEDEE" offset="75.617%"/><stop stop-color="#EBEDEE" offset="100%"/></linearGradient><path d="M7.63 23.59l-6.122-6.122a3.364 3.364 0 0 1 0-4.742L12.732 1.503a3.363 3.363 0 0 1 4.741 0l6.122 6.121a3.363 3.363 0 0 1 0 4.742L12.37 23.59a3.34 3.34 0 0 1-2.37.976 3.344 3.344 0 0 1-2.37-.976" id="x"/><linearGradient x1="-279.405%" y1="175.431%" x2="327.152%" y2="-55.538%" id="z"><stop stop-color="#C2C0D3" offset="0%"/><stop stop-color="#EBEDEE" offset="75.617%"/><stop stop-color="#EBEDEE" offset="100%"/></linearGradient><path d="M15.796 30.783c-.756 0-1.42-.403-1.797-1.001a3.027 3.027 0 0 1-.466-.379L1.288 17.158a3.142 3.142 0 0 1 0-4.433L12.82 1.194a3.142 3.142 0 0 1 4.432 0l12.246 12.244c.144.146.269.302.379.465.598.38 1 1.043 1 1.798v12.945c0 1.176-.961 2.137-2.136 2.137H15.796z" id="A"/><linearGradient x1="0%" y1="49.999%" x2="99.999%" y2="49.999%" id="C"><stop stop-color="#A0A5D3" offset="0%"/><stop stop-color="#D4CFDD" offset="75.617%"/><stop stop-color="#D4CFDD" offset="100%"/></linearGradient><path id="D" d="M0 199.75h199.75V0H0z"/><path d="M1.54 10.18a3.144 3.144 0 0 1 0-4.434l4.462-4.464a3.145 3.145 0 0 1 4.434 0L26.163 17.01l-8.897 8.897L1.54 10.179z" id="F"/><linearGradient x1="-120.518%" y1="33.001%" x2="125.274%" y2="57.829%" id="H"><stop stop-color="#C2C0D3" offset="0%"/><stop stop-color="#EBEDEE" offset="75.617%"/><stop stop-color="#EBEDEE" offset="100%"/></linearGradient><path d="M2.027 10.187C1.373 10.187.838 9.653.838 9L9.24.595c.656 0 1.191.536 1.191 1.189v7.215c0 .654-.535 1.188-1.19 1.188H2.026z" id="I"/><linearGradient x1="-539.814%" y1="-9.582%" x2="159.566%" y2="61.07%" id="K"><stop stop-color="#C2C0D3" offset="0%"/><stop stop-color="#EBEDEE" offset="75.617%"/><stop stop-color="#EBEDEE" offset="100%"/></linearGradient><path id="L" d="M0 199.75h199.75V0H0z"/><path id="N" d="M.872 2.058h1.807V.251H.872z"/><path id="P" d="M.159 1.11h.767V.341H.159z"/><path id="R" d="M.463 1.314h.767V.547H.463z"/><path id="T" d="M.863 1.211h.767V.444H.863z"/><path id="V" d="M.325.46H.76V.027H.325z"/><path id="X" d="M.038 1.284h.434V.851H.038z"/><path id="Z" d="M.56 1.43h.433V.994H.56z"/><path id="ab" d="M.18 2.068h1.808V.262H.18z"/><path id="ad" d="M.7 1.119h.767V.352H.7z"/><path id="af" d="M.768 1.5h.767V.733H.768z"/><path id="ah" d="M.783.447h.433V.013H.783z"/><path id="aj" d="M.787.977h.433V.543H.787z"/><path id="al" d="M.197 1.2h.434V.768H.197z"/><path id="an" d="M.205 1.155H.64V.721H.205z"/></defs><g fill="none" fill-rule="evenodd"><g transform="matrix(1 0 0 -1 72.881 70.884)"><mask id="b" fill="#fff"><use xlink:href="#a"/></mask><g mask="url(#b)" fill-rule="nonzero" fill="url(#c)"><path d="M6.795 48.227a8.645 8.645 0 0 1 0-12.226l5.605-5.605-.025.026a1.268 1.268 0 0 0 0-1.794 1.27 1.27 0 0 0-1.794 0l-.722.723.35-.35-1.136 1.136.3-.3a4.956 4.956 0 1 1-7.01-7.01h.001L24.273.92 45.3 21.947l-26.28 26.28a8.617 8.617 0 0 1-6.113 2.532 8.621 8.621 0 0 1-6.113-2.532"/></g></g><g transform="matrix(1 0 0 -1 27.938 115.828)"><mask id="e" fill="#fff"><use xlink:href="#d"/></mask><g mask="url(#e)" fill-rule="nonzero" fill="url(#f)"><path d="M40.827 62.667c-2.419-2.421-2.468-6.304-.124-8.715l1.1-1.1-.436.435.88-.878a1.59 1.59 0 0 0-.018-2.245 1.59 1.59 0 0 0-2.245-.016l.033-.032-6.24 6.24c-4.196 4.196-11.048 4.146-15.305-.11-4.258-4.258-4.307-11.11-.111-15.305l3.204-3.206c2.407-2.405 2.378-6.333-.063-8.774-2.44-2.441-6.369-2.47-8.775-.064l.436-.436-2.454 2.454c-2.405 2.405-6.334 2.377-8.774-.063-2.441-2.44-2.47-6.37-.064-8.775L22.987.96 67.18 45.152 49.602 62.73a6.096 6.096 0 0 1-4.33 1.785 6.277 6.277 0 0 1-4.445-1.848zm-.064-8.776l-.06.06-.312.313.372-.373z"/></g></g><g transform="matrix(1 0 0 -1 -22 177.75)"><mask id="h" fill="#fff"><use xlink:href="#g"/></mask><g mask="url(#h)"><g transform="translate(33.958 61.923)"><mask id="j" fill="#fff"><use xlink:href="#i"/></mask><g opacity=".65" mask="url(#j)"><g transform="translate(33.958 42.946)"><mask id="l" fill="#fff"><use xlink:href="#k"/></mask><g mask="url(#l)" fill-rule="nonzero" fill="url(#m)"><path d="M22.726 11.005l.206-.206 1.92 1.871c1.682 1.64.754 4.495-1.571 4.832l-1.766.257c-.97-2.243-.57-4.923 1.21-6.754zM.668 13.471c.139-.285.332-.557.581-.8l2.779-2.71c.668-.65.973-1.588.816-2.507l-.656-3.825C3.79 1.314 6.22-.45 8.298.643l3.434 1.805a2.832 2.832 0 0 0 2.638 0L17.804.643c2.078-1.093 4.507.671 4.11 2.986l-.656 3.825c-.03.178-.043.358-.04.536L15.8 13.41a10.632 10.632 0 0 1-7.551 3.114c-2.72 0-5.454-1.018-7.58-3.053zm22.118-2.527l-.06.061-.313.313.373-.374z"/></g></g><g transform="translate(15.98 19.975)"><mask id="o" fill="#fff"><use xlink:href="#n"/></mask><g mask="url(#o)" fill-rule="nonzero" fill="url(#p)"><path d="M1.935 10.877c-2.441-2.44-2.47-6.37-.064-8.775L3.54.432c1.365.324 2.426 1.654 2.153 3.244l-.656 3.825a2.837 2.837 0 0 0 .814 2.507l2.47 2.406a6.187 6.187 0 0 1-1.943.312 6.275 6.275 0 0 1-4.444-1.849"/></g></g></g></g><path d="M137.957 150.977a1.644 1.644 0 1 0 0-3.29 1.646 1.646 0 1 0 0 3.29" fill="#6ACCEF" fill-rule="nonzero"/><g transform="translate(55.93 56.929)"><mask id="r" fill="#fff"><use xlink:href="#q"/></mask><g opacity=".7" mask="url(#r)"><path d="M10.569 5.398C6.336 1.165.376.259.376.259s.906 5.96 5.139 10.193c4.233 4.233 10.192 5.138 10.192 5.138s-.905-5.96-5.138-10.192" fill="#FF7D4A" fill-rule="nonzero"/></g></g><path d="M67.336 66.255c-1.65-1.65-3.974-2.003-3.974-2.003s.353 2.323 2.003 3.974c1.65 1.649 3.973 2.002 3.973 2.002s-.353-2.323-2.002-3.973M81.179 52.412c-1.65-1.65-3.973-2.003-3.973-2.003s.352 2.323 2.002 3.974c1.651 1.65 3.973 2.002 3.973 2.002s-.352-2.323-2.002-3.973" fill="#FFCA9F" fill-rule="nonzero"/><path d="M71.363 51.837c-5.405-5.406-13.013-6.56-13.013-6.56s1.155 7.608 6.56 13.014c5.406 5.404 13.014 6.56 13.014 6.56s-1.155-7.61-6.56-13.014" fill="#FF7D4A" fill-rule="nonzero"/><path fill="#615777" fill-rule="nonzero" d="M70.879 64.18l-7.412 7.412 3.369 3.37 7.412-7.414zM84.746 50.312l-7.411 7.412 3.369 3.37 7.412-7.413z"/><path d="M83.927 66.29l-4.559 4.558a4.007 4.007 0 0 0 0 5.65l53.713 53.713a4.006 4.006 0 0 0 5.65 0l4.558-4.558a4.006 4.006 0 0 0 0-5.65L89.577 66.29a4.006 4.006 0 0 0-5.65 0" fill="#96BCD6" fill-rule="nonzero"/><g transform="translate(66.916 53.933)"><mask id="t" fill="#fff"><use xlink:href="#s"/></mask><g opacity=".65" mask="url(#t)"><path d="M5.808 2.911C3.435.538.094.031.094.031s.507 3.34 2.88 5.714c2.375 2.373 5.714 2.88 5.714 2.88s-.507-3.34-2.88-5.714" fill="#FFCA9F" fill-rule="nonzero"/></g></g><path fill="#000" fill-rule="nonzero" d="M76.924 55.275L68.54 63.66l3.81 3.812 8.387-8.386z"/></g></g><g transform="matrix(1 0 0 -1 50.909 117.825)"><mask id="v" fill="#fff"><use xlink:href="#u"/></mask><g mask="url(#v)" fill-rule="nonzero" fill="url(#w)"><path d="M23.3 39.26L1.959 17.918a3.36 3.36 0 0 1 0-4.74L13.182 1.953a3.361 3.361 0 0 1 4.74 0l21.344 21.343a3.362 3.362 0 0 1 0 4.74L28.04 39.261a3.344 3.344 0 0 1-2.37.977 3.34 3.34 0 0 1-2.37-.977"/></g></g><g transform="matrix(1 0 0 -1 81.87 86.864)"><mask id="y" fill="#fff"><use xlink:href="#x"/></mask><g mask="url(#y)" fill-rule="nonzero" fill="url(#z)"><path d="M7.63 23.59l-6.122-6.122a3.364 3.364 0 0 1 0-4.742L12.732 1.503a3.363 3.363 0 0 1 4.741 0l6.122 6.121a3.363 3.363 0 0 1 0 4.742L12.37 23.59a3.34 3.34 0 0 1-2.37.976 3.344 3.344 0 0 1-2.37-.976"/></g></g><g transform="matrix(1 0 0 -1 96.851 71.883)"><mask id="B" fill="#fff"><use xlink:href="#A"/></mask><g mask="url(#B)" fill-rule="nonzero" fill="url(#C)"><path d="M15.796 30.783c-.756 0-1.42-.403-1.797-1.001a3.027 3.027 0 0 1-.466-.379L1.288 17.158a3.142 3.142 0 0 1 0-4.433L12.82 1.194a3.142 3.142 0 0 1 4.432 0l12.246 12.244c.144.146.269.302.379.465.598.38 1 1.043 1 1.798v12.945c0 1.176-.961 2.137-2.136 2.137H15.796z"/></g></g><g transform="matrix(1 0 0 -1 -22 177.75)"><mask id="E" fill="#fff"><use xlink:href="#D"/></mask><g mask="url(#E)"><path d="M88.885 80.724l-13.06-13.058a3.144 3.144 0 0 0-4.433 0l-4.464 4.463a3.144 3.144 0 0 0 0 4.434l13.06 13.058" fill="#96BCD6" fill-rule="nonzero"/><path d="M79.54 88.693c0 .654.534 1.19 1.189 1.19h7.214c.654 0 1.19-.536 1.19-1.19v-7.214c0-.654-.536-1.19-1.19-1.19M102.753 66.857l-13.06-13.06a3.144 3.144 0 0 0-4.433 0l-4.464 4.464a3.144 3.144 0 0 0 0 4.433l13.06 13.06" fill="#96BCD6" fill-rule="nonzero"/><path d="M93.422 74.796c0 .654.535 1.19 1.19 1.19h7.213c.654 0 1.19-.536 1.19-1.19v-7.214c0-.654-.536-1.19-1.19-1.19" fill="#96BCD6" fill-rule="nonzero"/></g></g><g transform="matrix(1 0 0 -1 48.911 119.823)"><mask id="G" fill="#fff"><use xlink:href="#F"/></mask><g mask="url(#G)" fill-rule="nonzero" fill="url(#H)"><path d="M1.54 10.18a3.144 3.144 0 0 1 0-4.434l4.462-4.464a3.145 3.145 0 0 1 4.434 0L26.163 17.01l-8.897 8.897L1.54 10.179z"/></g></g><g transform="matrix(1 0 0 -1 64.891 103.843)"><mask id="J" fill="#fff"><use xlink:href="#I"/></mask><g mask="url(#J)" fill-rule="nonzero" fill="url(#K)"><path d="M2.027 10.187C1.373 10.187.838 9.653.838 9L9.24.595c.656 0 1.191.536 1.191 1.189v7.215c0 .654-.535 1.188-1.19 1.188H2.026z"/></g></g><g transform="matrix(1 0 0 -1 -22 177.75)"><mask id="M" fill="#fff"><use xlink:href="#L"/></mask><g mask="url(#M)"><path d="M135.869 118.955a3.806 3.806 0 0 0-2.712 1.123 3.84 3.84 0 0 0 0 5.424 3.81 3.81 0 0 0 2.712 1.123c1.023 0 1.987-.4 2.711-1.122a3.84 3.84 0 0 0 0-5.425 3.807 3.807 0 0 0-2.711-1.123" fill="#9CD7FF" fill-rule="nonzero"/><path d="M135.869 127.357a4.538 4.538 0 0 1-3.23-1.338 4.571 4.571 0 0 1 0-6.458 4.535 4.535 0 0 1 3.23-1.338c1.219 0 2.366.475 3.229 1.338a4.538 4.538 0 0 1 1.337 3.23 4.54 4.54 0 0 1-1.337 3.228 4.54 4.54 0 0 1-3.23 1.338m0-1.464a3.103 3.103 0 1 0 0-6.207 3.103 3.103 0 0 0 0 6.207" fill="#403559" fill-rule="nonzero"/><path d="M133.213 120.136l-7.378-7.378M118.171 105.28l-3.89-3.89" stroke="#403559" stroke-width="1.463"/><g transform="translate(96.879 112.859)"><mask id="O" fill="#fff"><use xlink:href="#N"/></mask><g opacity=".95" mask="url(#O)"><path d="M1.342 1.948A.904.904 0 1 0 2.208.359a.904.904 0 0 0-.866 1.589" fill="#FFF" fill-rule="nonzero"/></g></g><g transform="translate(77.903 94.881)"><mask id="Q" fill="#fff"><use xlink:href="#P"/></mask><g opacity=".95" mask="url(#Q)"><path d="M.358 1.062A.383.383 0 1 0 .726.39a.383.383 0 0 0-.368.673" fill="#FFF" fill-rule="nonzero"/></g></g><g transform="translate(91.885 125.843)"><mask id="S" fill="#fff"><use xlink:href="#R"/></mask><g opacity=".95" mask="url(#S)"><path d="M.663 1.268a.383.383 0 1 0 .368-.673.383.383 0 0 0-.368.673" fill="#FFF" fill-rule="nonzero"/></g></g><g transform="translate(93.883 107.865)"><mask id="U" fill="#fff"><use xlink:href="#T"/></mask><g opacity=".95" mask="url(#U)" fill-rule="nonzero" fill="#FFF"><path d="M1.062 1.165A.384.384 0 1 0 1.431.49a.384.384 0 0 0-.369.674"/></g></g><g transform="translate(77.903 91.885)"><mask id="W" fill="#fff"><use xlink:href="#V"/></mask><g opacity=".95" mask="url(#W)"><path d="M.438.434A.217.217 0 1 0 .646.052a.218.218 0 0 0-.208.382" fill="#FFF" fill-rule="nonzero"/></g></g><g transform="translate(90.886 122.846)"><mask id="Y" fill="#fff"><use xlink:href="#X"/></mask><g opacity=".95" mask="url(#Y)"><path d="M.151 1.258A.217.217 0 1 0 .359.876a.217.217 0 0 0-.208.382" fill="#FFF" fill-rule="nonzero"/></g></g><g transform="translate(97.878 107.865)"><mask id="aa" fill="#fff"><use xlink:href="#Z"/></mask><g opacity=".95" mask="url(#aa)"><path d="M.673 1.403a.217.217 0 1 0-.087-.295.218.218 0 0 0 .087.295" fill="#FFF" fill-rule="nonzero"/></g></g><g transform="translate(106.866 149.813)"><mask id="ac" fill="#fff"><use xlink:href="#ab"/></mask><g opacity=".95" mask="url(#ac)"><path d="M1.003.265a.904.904 0 1 0 .163 1.798.904.904 0 0 0-.163-1.798" fill="#FFF" fill-rule="nonzero"/></g></g><g transform="translate(106.866 128.839)"><mask id="ae" fill="#fff"><use xlink:href="#ad"/></mask><g opacity=".95" mask="url(#ae)"><path d="M1.05.353a.383.383 0 1 0 .068.763.383.383 0 0 0-.068-.763" fill="#FFF" fill-rule="nonzero"/></g></g><g transform="translate(114.856 144.819)"><mask id="ag" fill="#fff"><use xlink:href="#af"/></mask><g opacity=".95" mask="url(#ag)"><path d="M1.117.734a.384.384 0 1 0 .071.766.384.384 0 0 0-.07-.766" fill="#FFF" fill-rule="nonzero"/></g></g><g transform="translate(109.863 130.836)"><mask id="ai" fill="#fff"><use xlink:href="#ah"/></mask><g opacity=".95" mask="url(#ai)"><path d="M.98.015a.216.216 0 0 0-.197.234.219.219 0 0 0 .236.198.218.218 0 0 0 .197-.237A.216.216 0 0 0 .98.015" fill="#FFF" fill-rule="nonzero"/></g></g><g transform="translate(111.86 146.816)"><mask id="ak" fill="#fff"><use xlink:href="#aj"/></mask><g opacity=".95" mask="url(#ak)"><path d="M.984.544a.217.217 0 1 0 .04.432.217.217 0 0 0-.04-.432" fill="#FFF" fill-rule="nonzero"/></g></g><g transform="translate(65.918 80.899)"><mask id="am" fill="#fff"><use xlink:href="#al"/></mask><g opacity=".95" mask="url(#am)"><path d="M.31 1.174A.217.217 0 1 0 .518.792a.217.217 0 0 0-.208.382" fill="#FFF" fill-rule="nonzero"/></g></g><g transform="translate(57.928 82.896)"><mask id="ao" fill="#fff"><use xlink:href="#an"/></mask><g opacity=".95" mask="url(#ao)"><path d="M.318 1.129A.217.217 0 1 0 .526.747a.22.22 0 0 0-.295.087.218.218 0 0 0 .087.295" fill="#FFF" fill-rule="nonzero"/></g></g></g></g></g></svg>