<svg width="155" height="155" viewBox="0 0 155 155" xmlns="http://www.w3.org/2000/svg" xmlns:xlink="http://www.w3.org/1999/xlink"><defs><path d="M6.795 48.226a8.644 8.644 0 0 1 0-12.225l5.605-5.605-.025.025a1.267 1.267 0 0 0 0-1.793 1.27 1.27 0 0 0-1.794 0l-.722.723.35-.35-.836.837a4.957 4.957 0 0 1-7.01-7.01h.001L24.273.917 45.3 21.947l-26.28 26.279a8.614 8.614 0 0 1-6.113 2.533 8.618 8.618 0 0 1-6.113-2.533zm2.578-18.388l-.3.3.3-.3z" id="a"/><linearGradient x1="0%" y1="50%" x2="99.999%" y2="50%" id="c"><stop offset="0%"/><stop stop-color="#6975C1" offset="51.354%"/><stop stop-color="#6975C1" offset="67.913%"/><stop stop-color="#D5FFFE" offset="100%"/></linearGradient><path d="M40.827 62.666c-2.44-2.441-2.469-6.37-.064-8.775l-.372.372 1.412-1.412-.436.436.88-.878a1.588 1.588 0 0 0-.018-2.244 1.588 1.588 0 0 0-2.245-.017l-6.207 6.209c-4.196 4.196-11.048 4.145-15.305-.11-4.258-4.258-4.307-11.11-.111-15.306l3.204-3.206c2.407-2.404 2.378-6.333-.063-8.774-2.44-2.441-6.369-2.47-8.775-.063l.436-.436-2.454 2.454c-2.405 2.404-6.334 2.376-8.774-.064-2.441-2.442-2.47-6.37-.064-8.775L22.987.96 67.18 45.152 49.602 62.729a6.092 6.092 0 0 1-4.33 1.785 6.277 6.277 0 0 1-4.445-1.848" id="d"/><linearGradient x1="0%" y1="50.001%" x2="99.999%" y2="50.001%" id="f"><stop offset="0%"/><stop stop-color="#6975C1" offset="51.354%"/><stop stop-color="#6975C1" offset="67.913%"/><stop stop-color="#D5FFFE" offset="100%"/></linearGradient><path d="M22.786 10.944l.146-.145 1.92 1.87c1.682 1.64.754 4.496-1.571 4.832l-1.766.257c-.98-2.268-.56-4.983 1.27-6.814zM.668 13.47c.139-.285.332-.557.581-.8l2.779-2.708a2.837 2.837 0 0 0 .816-2.51L4.188 3.63C3.79 1.315 6.22-.45 8.298.642l3.434 1.806a2.838 2.838 0 0 0 2.638 0L17.804.642c2.078-1.092 4.507.673 4.11 2.987l-.656 3.824c-.03.18-.043.36-.04.537L15.8 13.41a10.632 10.632 0 0 1-7.55 3.115c-2.72 0-5.455-1.02-7.58-3.055zm22.118-2.526l-.373.373.373-.373z" id="g"/><linearGradient x1="-1.105%" y1="69.805%" y2="69.805%" id="i"><stop stop-color="#844EC6" offset="0%"/><stop stop-color="#844EC6" offset="6.795%"/><stop stop-color="#9071FF" offset="100%"/></linearGradient><path d="M1.935 10.877c-2.441-2.442-2.47-6.37-.064-8.775L3.54.432c1.365.324 2.426 1.654 2.153 3.244l-.656 3.825a2.838 2.838 0 0 0 .814 2.507l2.469 2.406a6.175 6.175 0 0 1-1.941.312 6.275 6.275 0 0 1-4.445-1.849" id="j"/><linearGradient x1="-193.251%" y1="98.458%" x2="114.196%" y2="98.458%" id="l"><stop stop-color="#844EC6" offset="0%"/><stop stop-color="#844EC6" offset="6.795%"/><stop stop-color="#9071FF" offset="100%"/></linearGradient><path id="m" d="M0 199.75h199.75V0H0z"/><path id="o" d="M.485 16.746h16.564V.183H.485z"/><path d="M.814 3.807a3.01 3.01 0 0 1 6.016 0 3.008 3.008 0 1 1-6.016 0" id="q"/><linearGradient x1="-47.884%" y1="50%" x2="261%" y2="50%" id="s"><stop stop-color="#844EC6" offset="0%"/><stop stop-color="#844EC6" offset="6.795%"/><stop stop-color="#9071FF" offset="100%"/></linearGradient><path id="t" d="M0 199.75h199.75V0H0z"/><path id="v" d="M.377 15.59h15.33V.26H.377z"/><path id="x" d="M.262 15.704h15.33V.374H.262z"/><path id="z" d="M.094 8.625H8.69V.031H.094z"/><path d="M23.3 39.26L1.959 17.919a3.361 3.361 0 0 1 0-4.741L13.182 1.953a3.363 3.363 0 0 1 4.74 0l21.344 21.343a3.362 3.362 0 0 1 0 4.74L28.04 39.261a3.344 3.344 0 0 1-2.37.977 3.34 3.34 0 0 1-2.37-.977" id="B"/><linearGradient x1="-120.581%" y1="114.959%" x2="251.363%" y2="-26.68%" id="D"><stop stop-color="#C2C0D3" offset="0%"/><stop stop-color="#EBEDEE" offset="75.617%"/><stop stop-color="#EBEDEE" offset="100%"/></linearGradient><path d="M7.63 23.59l-6.122-6.122a3.364 3.364 0 0 1 0-4.742L12.732 1.502a3.365 3.365 0 0 1 4.741 0l6.122 6.122a3.363 3.363 0 0 1 0 4.742L12.37 23.59a3.337 3.337 0 0 1-2.37.977 3.34 3.34 0 0 1-2.37-.977" id="E"/><linearGradient x1="-279.405%" y1="175.43%" x2="327.152%" y2="-55.537%" id="G"><stop stop-color="#C2C0D3" offset="0%"/><stop stop-color="#EBEDEE" offset="75.617%"/><stop stop-color="#EBEDEE" offset="100%"/></linearGradient><path d="M15.796 30.783a2.13 2.13 0 0 1-1.797-1 3.15 3.15 0 0 1-.466-.379L1.288 17.16a3.144 3.144 0 0 1 0-4.434L12.82 1.194a3.142 3.142 0 0 1 4.432 0l12.246 12.244c.144.145.269.302.379.466a2.13 2.13 0 0 1 1 1.798v12.945c0 1.175-.961 2.136-2.136 2.136H15.796z" id="H"/><linearGradient x1="0%" y1="49.999%" x2="99.999%" y2="49.999%" id="J"><stop stop-color="#A0A5D3" offset="0%"/><stop stop-color="#D4CFDD" offset="75.617%"/><stop stop-color="#D4CFDD" offset="100%"/></linearGradient><path id="K" d="M0 199.75h199.75V0H0z"/><path d="M1.54 10.18a3.145 3.145 0 0 1 0-4.434l4.462-4.463a3.144 3.144 0 0 1 4.434 0L26.163 17.01l-8.897 8.898L1.54 10.18z" id="M"/><linearGradient x1="-120.518%" y1="33%" x2="125.274%" y2="57.829%" id="O"><stop stop-color="#C2C0D3" offset="0%"/><stop stop-color="#EBEDEE" offset="75.617%"/><stop stop-color="#EBEDEE" offset="100%"/></linearGradient><path d="M2.027 10.187C1.373 10.187.838 9.652.838 9L9.24.595c.656 0 1.191.535 1.191 1.189v7.215c0 .653-.535 1.188-1.19 1.188H2.026z" id="P"/><linearGradient x1="-539.814%" y1="-9.582%" x2="159.566%" y2="61.07%" id="R"><stop stop-color="#C2C0D3" offset="0%"/><stop stop-color="#EBEDEE" offset="75.617%"/><stop stop-color="#EBEDEE" offset="100%"/></linearGradient><path id="S" d="M0 199.75h199.75V0H0z"/><path id="U" d="M.872 2.058h1.807V.251H.872z"/><path id="W" d="M.159 1.11h.767V.341H.159z"/><path id="Y" d="M.463 1.314h.767V.547H.463z"/><path id="aa" d="M.863 1.211h.767V.444H.863z"/><path id="ac" d="M.325.46H.76V.027H.325z"/><path id="ae" d="M.038 1.284h.434V.851H.038z"/><path id="ag" d="M.56 1.43h.433V.994H.56z"/><path id="ai" d="M.18 2.068h1.808V.262H.18z"/><path id="ak" d="M.7 1.119h.767V.352H.7z"/><path id="am" d="M.768 1.5h.767V.733H.768z"/><path id="ao" d="M.783.447h.433V.013H.783z"/><path id="aq" d="M.787.977h.433V.543H.787z"/><path id="as" d="M.197 1.2h.434V.768H.197z"/><path id="au" d="M.205 1.155H.64V.721H.205z"/></defs><g fill="none" fill-rule="evenodd"><g transform="matrix(1 0 0 -1 72.881 70.884)"><mask id="b" fill="#fff"><use xlink:href="#a"/></mask><g mask="url(#b)" fill-rule="nonzero" fill="url(#c)"><path d="M6.795 48.226a8.644 8.644 0 0 1 0-12.225l5.605-5.605-.025.025a1.267 1.267 0 0 0 0-1.793 1.27 1.27 0 0 0-1.794 0l-.722.723.35-.35-.836.837a4.957 4.957 0 0 1-7.01-7.01h.001L24.273.917 45.3 21.947l-26.28 26.279a8.614 8.614 0 0 1-6.113 2.533 8.618 8.618 0 0 1-6.113-2.533zm2.578-18.388l-.3.3.3-.3z"/></g></g><g transform="matrix(1 0 0 -1 27.938 115.828)"><mask id="e" fill="#fff"><use xlink:href="#d"/></mask><g mask="url(#e)" fill-rule="nonzero" fill="url(#f)"><path d="M40.827 62.666c-2.44-2.441-2.469-6.37-.064-8.775l-.372.372 1.412-1.412-.436.436.88-.878a1.588 1.588 0 0 0-.018-2.244 1.588 1.588 0 0 0-2.245-.017l-6.207 6.209c-4.196 4.196-11.048 4.145-15.305-.11-4.258-4.258-4.307-11.11-.111-15.306l3.204-3.206c2.407-2.404 2.378-6.333-.063-8.774-2.44-2.441-6.369-2.47-8.775-.063l.436-.436-2.454 2.454c-2.405 2.404-6.334 2.376-8.774-.064-2.441-2.442-2.47-6.37-.064-8.775L22.987.96 67.18 45.152 49.602 62.729a6.092 6.092 0 0 1-4.33 1.785 6.277 6.277 0 0 1-4.445-1.848"/></g></g><g transform="matrix(1 0 0 -1 45.915 72.881)"><mask id="h" fill="#fff"><use xlink:href="#g"/></mask><g mask="url(#h)" fill-rule="nonzero" fill="url(#i)"><path d="M22.786 10.944l.146-.145 1.92 1.87c1.682 1.64.754 4.496-1.571 4.832l-1.766.257c-.98-2.268-.56-4.983 1.27-6.814zM.668 13.47c.139-.285.332-.557.581-.8l2.779-2.708a2.837 2.837 0 0 0 .816-2.51L4.188 3.63C3.79 1.315 6.22-.45 8.298.642l3.434 1.806a2.838 2.838 0 0 0 2.638 0L17.804.642c2.078-1.092 4.507.673 4.11 2.987l-.656 3.824c-.03.18-.043.36-.04.537L15.8 13.41a10.632 10.632 0 0 1-7.55 3.115c-2.72 0-5.455-1.02-7.58-3.055zm22.118-2.526l-.373.373.373-.373z"/></g></g><g transform="matrix(1 0 0 -1 27.938 95.853)"><mask id="k" fill="#fff"><use xlink:href="#j"/></mask><g mask="url(#k)" fill-rule="nonzero" fill="url(#l)"><path d="M1.935 10.877c-2.441-2.442-2.47-6.37-.064-8.775L3.54.432c1.365.324 2.426 1.654 2.153 3.244l-.656 3.825a2.838 2.838 0 0 0 .814 2.507l2.469 2.406a6.175 6.175 0 0 1-1.941.312 6.275 6.275 0 0 1-4.445-1.849"/></g></g><g transform="matrix(1 0 0 -1 -22 177.75)"><mask id="n" fill="#fff"><use xlink:href="#m"/></mask><g mask="url(#n)"><g transform="translate(89.888 139.825)"><mask id="p" fill="#fff"><use xlink:href="#o"/></mask><g opacity=".35" mask="url(#p)"><path d="M14.623 14.321A8.282 8.282 0 1 0 2.91 2.608a8.282 8.282 0 0 0 11.712 11.713" fill="#FFE5A4" fill-rule="nonzero"/></g></g></g></g><g transform="matrix(1 0 0 -1 101.845 27.938)"><mask id="r" fill="#fff"><use xlink:href="#q"/></mask><g mask="url(#r)" fill-rule="nonzero" fill="url(#s)"><path d="M.814 3.807a3.01 3.01 0 0 1 6.016 0 3.008 3.008 0 1 1-6.016 0"/></g></g><g transform="matrix(1 0 0 -1 -22 177.75)"><mask id="u" fill="#fff"><use xlink:href="#t"/></mask><g mask="url(#u)"><path d="M137.957 150.978a1.644 1.644 0 1 0 0-3.291 1.646 1.646 0 1 0 0 3.29" fill="#6ACCEF" fill-rule="nonzero"/><g transform="translate(55.93 56.929)"><mask id="w" fill="#fff"><use xlink:href="#v"/></mask><g opacity=".7" mask="url(#w)"><path d="M10.569 5.398C6.336 1.165.376.259.376.259s.906 5.959 5.139 10.193c4.233 4.233 10.192 5.137 10.192 5.137S14.802 9.63 10.57 5.398" fill="#FF7D4A" fill-rule="nonzero"/></g></g><g transform="translate(69.913 42.946)"><mask id="y" fill="#fff"><use xlink:href="#x"/></mask><g opacity=".7" mask="url(#y)"><path d="M10.454 5.513C6.221 1.279.262.374.262.374S1.168 6.333 5.4 10.567c4.233 4.232 10.193 5.137 10.193 5.137s-.905-5.958-5.139-10.191" fill="#FF7D4A" fill-rule="nonzero"/></g></g><path d="M67.336 66.255c-1.65-1.65-3.974-2.003-3.974-2.003s.353 2.323 2.003 3.973c1.65 1.65 3.973 2.003 3.973 2.003s-.353-2.324-2.002-3.973M81.179 52.412c-1.65-1.65-3.973-2.003-3.973-2.003s.352 2.323 2.002 3.973c1.651 1.65 3.973 2.003 3.973 2.003s-.352-2.323-2.002-3.973" fill="#FFCA9F" fill-rule="nonzero"/><path d="M71.363 51.837c-5.405-5.405-13.013-6.56-13.013-6.56s1.155 7.607 6.56 13.013c5.406 5.405 13.014 6.56 13.014 6.56s-1.155-7.608-6.56-13.013" fill="#FF7D4A" fill-rule="nonzero"/><path fill="#615777" fill-rule="nonzero" d="M70.879 64.18l-7.412 7.413 3.369 3.368 7.412-7.412zM84.746 50.311l-7.411 7.413 3.369 3.369 7.412-7.412z"/><path d="M83.927 66.29l-4.559 4.558a4.007 4.007 0 0 0 0 5.65l53.713 53.714a4.006 4.006 0 0 0 5.65 0l4.558-4.559a4.007 4.007 0 0 0 0-5.65L89.577 66.29a4.006 4.006 0 0 0-5.65 0" fill="#96BCD6" fill-rule="nonzero"/><g transform="translate(66.916 53.933)"><mask id="A" fill="#fff"><use xlink:href="#z"/></mask><g opacity=".65" mask="url(#A)"><path d="M5.808 2.912C3.435.538.094.03.094.03s.507 3.341 2.88 5.715c2.375 2.373 5.714 2.88 5.714 2.88s-.507-3.34-2.88-5.713" fill="#FFCA9F" fill-rule="nonzero"/></g></g><path fill="#000" fill-rule="nonzero" d="M76.924 55.275L68.54 63.66l3.81 3.813 8.387-8.387z"/></g></g><g transform="matrix(1 0 0 -1 50.909 117.825)"><mask id="C" fill="#fff"><use xlink:href="#B"/></mask><g mask="url(#C)" fill-rule="nonzero" fill="url(#D)"><path d="M23.3 39.26L1.959 17.919a3.361 3.361 0 0 1 0-4.741L13.182 1.953a3.363 3.363 0 0 1 4.74 0l21.344 21.343a3.362 3.362 0 0 1 0 4.74L28.04 39.261a3.344 3.344 0 0 1-2.37.977 3.34 3.34 0 0 1-2.37-.977"/></g></g><g transform="matrix(1 0 0 -1 81.87 86.864)"><mask id="F" fill="#fff"><use xlink:href="#E"/></mask><g mask="url(#F)" fill-rule="nonzero" fill="url(#G)"><path d="M7.63 23.59l-6.122-6.122a3.364 3.364 0 0 1 0-4.742L12.732 1.502a3.365 3.365 0 0 1 4.741 0l6.122 6.122a3.363 3.363 0 0 1 0 4.742L12.37 23.59a3.337 3.337 0 0 1-2.37.977 3.34 3.34 0 0 1-2.37-.977"/></g></g><g transform="matrix(1 0 0 -1 96.851 71.883)"><mask id="I" fill="#fff"><use xlink:href="#H"/></mask><g mask="url(#I)" fill-rule="nonzero" fill="url(#J)"><path d="M15.796 30.783a2.13 2.13 0 0 1-1.797-1 3.15 3.15 0 0 1-.466-.379L1.288 17.16a3.144 3.144 0 0 1 0-4.434L12.82 1.194a3.142 3.142 0 0 1 4.432 0l12.246 12.244c.144.145.269.302.379.466a2.13 2.13 0 0 1 1 1.798v12.945c0 1.175-.961 2.136-2.136 2.136H15.796z"/></g></g><g transform="matrix(1 0 0 -1 -22 177.75)"><mask id="L" fill="#fff"><use xlink:href="#K"/></mask><g mask="url(#L)"><path d="M88.885 80.724l-13.06-13.058a3.142 3.142 0 0 0-4.433 0l-4.464 4.463a3.144 3.144 0 0 0 0 4.434l13.06 13.058" fill="#96BCD6" fill-rule="nonzero"/><path d="M79.54 88.693c0 .654.534 1.19 1.189 1.19h7.214c.654 0 1.19-.536 1.19-1.19V81.48c0-.654-.536-1.19-1.19-1.19M102.753 66.857l-13.06-13.06a3.144 3.144 0 0 0-4.433 0l-4.464 4.464a3.144 3.144 0 0 0 0 4.433l13.06 13.06" fill="#96BCD6" fill-rule="nonzero"/><path d="M93.422 74.796c0 .655.535 1.19 1.19 1.19h7.213c.654 0 1.19-.535 1.19-1.19v-7.214c0-.654-.536-1.19-1.19-1.19" fill="#96BCD6" fill-rule="nonzero"/></g></g><g transform="matrix(1 0 0 -1 48.911 119.823)"><mask id="N" fill="#fff"><use xlink:href="#M"/></mask><g mask="url(#N)" fill-rule="nonzero" fill="url(#O)"><path d="M1.54 10.18a3.145 3.145 0 0 1 0-4.434l4.462-4.463a3.144 3.144 0 0 1 4.434 0L26.163 17.01l-8.897 8.898L1.54 10.18z"/></g></g><g transform="matrix(1 0 0 -1 64.891 103.843)"><mask id="Q" fill="#fff"><use xlink:href="#P"/></mask><g mask="url(#Q)" fill-rule="nonzero" fill="url(#R)"><path d="M2.027 10.187C1.373 10.187.838 9.652.838 9L9.24.595c.656 0 1.191.535 1.191 1.189v7.215c0 .653-.535 1.188-1.19 1.188H2.026z"/></g></g><g transform="matrix(1 0 0 -1 -22 177.75)"><mask id="T" fill="#fff"><use xlink:href="#S"/></mask><g mask="url(#T)"><path d="M135.869 118.955a3.806 3.806 0 0 0-2.712 1.124 3.808 3.808 0 0 0-1.124 2.711c0 1.024.4 1.987 1.124 2.71a3.81 3.81 0 0 0 2.712 1.125c1.023 0 1.987-.4 2.711-1.124a3.81 3.81 0 0 0 1.124-2.71c0-1.026-.4-1.988-1.124-2.712a3.807 3.807 0 0 0-2.711-1.124" fill="#9CD7FF" fill-rule="nonzero"/><path d="M135.869 127.357a4.538 4.538 0 0 1-3.23-1.338 4.572 4.572 0 0 1 0-6.459 4.538 4.538 0 0 1 3.23-1.337 4.54 4.54 0 0 1 3.229 1.337 4.572 4.572 0 0 1 0 6.46 4.54 4.54 0 0 1-3.23 1.337m0-1.463a3.103 3.103 0 1 0 0-6.207 3.103 3.103 0 0 0 0 6.207" fill="#403559" fill-rule="nonzero"/><path d="M133.213 120.136l-7.378-7.378M118.171 105.28l-3.89-3.89" stroke="#403559" stroke-width="1.463"/><g transform="translate(96.879 112.859)"><mask id="V" fill="#fff"><use xlink:href="#U"/></mask><g opacity=".95" mask="url(#V)"><path d="M1.342 1.947A.904.904 0 1 0 2.21.36a.904.904 0 0 0-.867 1.587" fill="#FFF" fill-rule="nonzero"/></g></g><g transform="translate(77.903 94.881)"><mask id="X" fill="#fff"><use xlink:href="#W"/></mask><g opacity=".95" mask="url(#X)"><path d="M.358 1.062A.383.383 0 1 0 .726.39a.383.383 0 0 0-.368.673" fill="#FFF" fill-rule="nonzero"/></g></g><g transform="translate(91.885 125.843)"><mask id="Z" fill="#fff"><use xlink:href="#Y"/></mask><g opacity=".95" mask="url(#Z)"><path d="M.663 1.267a.383.383 0 1 0 .369-.671.383.383 0 0 0-.369.671" fill="#FFF" fill-rule="nonzero"/></g></g><g transform="translate(93.883 107.865)"><mask id="ab" fill="#fff"><use xlink:href="#aa"/></mask><g opacity=".95" mask="url(#ab)" fill-rule="nonzero" fill="#FFF"><path d="M1.062 1.165A.383.383 0 1 0 1.43.492a.383.383 0 0 0-.368.673"/></g></g><g transform="translate(77.903 91.885)"><mask id="ad" fill="#fff"><use xlink:href="#ac"/></mask><g opacity=".95" mask="url(#ad)"><path d="M.438.434A.217.217 0 1 0 .646.052a.217.217 0 0 0-.208.382" fill="#FFF" fill-rule="nonzero"/></g></g><g transform="translate(90.886 122.846)"><mask id="af" fill="#fff"><use xlink:href="#ae"/></mask><g opacity=".95" mask="url(#af)"><path d="M.151 1.257c.105.058.237.02.294-.085a.217.217 0 1 0-.294.086" fill="#FFF" fill-rule="nonzero"/></g></g><g transform="translate(97.878 107.865)"><mask id="ah" fill="#fff"><use xlink:href="#ag"/></mask><g opacity=".95" mask="url(#ah)"><path d="M.673 1.402a.217.217 0 1 0 .207-.38.217.217 0 0 0-.207.38" fill="#FFF" fill-rule="nonzero"/></g></g><g transform="translate(106.866 149.813)"><mask id="aj" fill="#fff"><use xlink:href="#ai"/></mask><g opacity=".95" mask="url(#aj)"><path d="M1.003.265a.903.903 0 1 0 .16 1.798.903.903 0 0 0-.16-1.798" fill="#FFF" fill-rule="nonzero"/></g></g><g transform="translate(106.866 128.839)"><mask id="al" fill="#fff"><use xlink:href="#ak"/></mask><g opacity=".95" mask="url(#al)"><path d="M1.05.352a.384.384 0 0 0 .068.765.385.385 0 0 0-.068-.765" fill="#FFF" fill-rule="nonzero"/></g></g><g transform="translate(114.856 144.819)"><mask id="an" fill="#fff"><use xlink:href="#am"/></mask><g opacity=".95" mask="url(#an)"><path d="M1.117.735a.384.384 0 1 0 .071.765.384.384 0 0 0-.07-.765" fill="#FFF" fill-rule="nonzero"/></g></g><g transform="translate(109.863 130.836)"><mask id="ap" fill="#fff"><use xlink:href="#ao"/></mask><g opacity=".95" mask="url(#ap)"><path d="M.98.014a.217.217 0 1 0 .039.432A.217.217 0 0 0 .98.014" fill="#FFF" fill-rule="nonzero"/></g></g><g transform="translate(111.86 146.816)"><mask id="ar" fill="#fff"><use xlink:href="#aq"/></mask><g opacity=".95" mask="url(#ar)"><path d="M.984.545a.217.217 0 1 0 .04.432.217.217 0 0 0-.04-.432" fill="#FFF" fill-rule="nonzero"/></g></g><g transform="translate(65.918 80.899)"><mask id="at" fill="#fff"><use xlink:href="#as"/></mask><g opacity=".95" mask="url(#at)"><path d="M.31 1.174a.217.217 0 0 0 .208-.38.217.217 0 0 0-.208.38" fill="#FFF" fill-rule="nonzero"/></g></g><g transform="translate(57.928 82.896)"><mask id="av" fill="#fff"><use xlink:href="#au"/></mask><g opacity=".95" mask="url(#av)"><path d="M.318 1.129A.217.217 0 1 0 .231.834a.218.218 0 0 0 .087.295" fill="#FFF" fill-rule="nonzero"/></g></g></g></g></g></svg>