<?xml version="1.0" encoding="UTF-8"?>
<svg width="155px" height="155px" viewBox="0 0 155 155" version="1.1" xmlns="http://www.w3.org/2000/svg" xmlns:xlink="http://www.w3.org/1999/xlink">
    <!-- Generator: Sketch 46.2 (44496) - http://www.bohemiancoding.com/sketch -->
    <title>1</title>
    <desc>Created with Sketch.</desc>
    <defs>
        <path d="M22.7156049,49.3433196 L22.7156049,37.7378268 C22.7156049,34.7026209 20.2546811,32.2406983 17.2194752,32.2406983 L17.2194752,32.2406983 C14.1842693,32.2406983 11.7243443,34.7026209 11.7243443,37.7378268 L11.7243443,37.7378268 L11.7243443,38.4978767 C11.7243443,41.5340814 9.26342049,43.9950051 6.22821458,43.9950051 L6.22821458,43.9950051 C3.19400741,43.9950051 0.733083627,41.5340814 0.733083627,38.4978767 L0.733083627,38.4978767 L0.733083627,0.367540565 L0.733083627,0.681148547 L75.1720331,1.16554304 L75.1720331,0.603245927 L75.1720331,1.16554304 L75.1720331,32.0339568 C75.1720331,37.4681639 70.7675388,41.8726581 65.3343305,41.8726581 L65.3343305,41.8726581 C59.9001233,41.8726581 55.4956291,37.4681639 55.4956291,32.0339568 L55.4956291,32.0339568 L55.4956291,30.6676647 C55.4956291,25.2334575 51.0911348,20.8289633 45.6579264,20.8289633 L45.6579264,20.8289633 C40.2247181,20.8289633 35.8192251,25.2334575 35.8192251,30.6676647 L35.8192251,30.6676647 L35.8192251,49.3433196 C35.8192251,52.9617964 32.8868906,55.8961284 29.267415,55.8961284 L29.267415,55.8961284 C25.6489382,55.8961284 22.7156049,52.9617964 22.7156049,49.3433196 L22.7156049,49.3433196 Z M11.7243443,38.4978767 L11.7243443,38.9692874 L11.7243443,38.4978767 Z" id="path-1"></path>
        <linearGradient x1="49.5783422%" y1="102.034444%" x2="50.0956362%" y2="11.8847045%" id="linearGradient-3">
            <stop stop-color="#000000" offset="0%"></stop>
            <stop stop-color="#000000" offset="10.26964%"></stop>
            <stop stop-color="#7E5FAA" offset="100%"></stop>
        </linearGradient>
        <path d="M75.1720331,51.0102359 L75.1720331,51.4347053 L75.1720331,51.0102359 Z M0.733083627,22.4988758 C0.733083627,18.3880145 4.0659175,15.0551806 8.17677882,15.0551806 L8.17677882,15.0551806 C12.2876401,15.0551806 15.620474,18.3880145 15.620474,22.4988758 L15.620474,22.4988758 L15.620474,24.2746561 L15.620474,23.5305862 L15.620474,31.0661665 C15.620474,32.1178519 16.4734078,32.9707857 17.5250932,32.9707857 L17.5250932,32.9707857 C18.5767786,32.9707857 19.4297124,32.1178519 19.4297124,31.0661665 L19.4297124,31.0661665 L19.4297124,13.2144816 C19.4297124,6.04344554 25.2424463,0.230711605 32.4124836,0.230711605 L32.4124836,0.230711605 C39.5835196,0.230711605 45.3972523,6.04344554 45.3972523,13.2144816 L45.3972523,13.2144816 L45.3972523,25.9335824 C45.3972523,30.0454424 48.7290874,33.3772776 52.8409475,33.3772776 L52.8409475,33.3772776 C56.9518088,33.3772776 60.2836439,30.0454424 60.2836439,25.9335824 L60.2836439,25.9335824 L60.2836439,24.8988758 C60.2836439,20.7880145 63.6174766,17.4561793 67.7273391,17.4561793 L67.7273391,17.4561793 C71.8391992,17.4561793 75.1720331,20.7880145 75.1720331,24.8988758 L75.1720331,24.8988758 L75.1720331,51.0102359 L0.733083627,51.0102359 L0.733083627,51.4347053 L0.733083627,22.4988758 Z M15.620474,22.4988758 L15.620474,21.8616724 L15.620474,22.4988758 C15.620474,22.4988758 15.620474,22.4988758 15.620474,22.4988758 L15.620474,22.4988758 Z" id="path-4"></path>
        <linearGradient x1="49.3075283%" y1="202.591383%" x2="49.8248224%" y2="104.827764%" id="linearGradient-6">
            <stop stop-color="#000000" offset="0%"></stop>
            <stop stop-color="#000000" offset="10.26964%"></stop>
            <stop stop-color="#7E5FAA" offset="100%"></stop>
        </linearGradient>
        <polygon id="path-7" points="0 199.750307 199.750307 199.750307 199.750307 0 0 0"></polygon>
        <polygon id="path-9" points="0.638002481 15.9139072 15.9106113 15.9139072 15.9106113 0.605243431 0.638002481 0.605243431"></polygon>
        <polygon id="path-11" points="0.0486391998 51.7912596 39.9011226 51.7912596 39.9011226 0.976079876 0.0486391998 0.976079876"></polygon>
        <path d="M39.9011226,5.55505604 C39.9011226,3.02621715 30.9872651,0.97578025 19.9910107,0.97578025 C8.99475633,0.97578025 0.0799001228,3.02621715 0.0799001228,5.55505604" id="path-13"></path>
        <linearGradient x1="0.000386245642%" y1="50.0080044%" x2="100.000697%" y2="50.0080044%" id="linearGradient-15">
            <stop stop-color="#6FC4FF" offset="0%"></stop>
            <stop stop-color="#ACECFE" offset="75.617226%"></stop>
            <stop stop-color="#ACECFE" offset="100%"></stop>
        </linearGradient>
        <polyline id="path-16" points="12.9677899 46.797502 0.0489388252 0.561298363 39.9011226 0.561298363 27.0102365 46.6986255"></polyline>
        <linearGradient x1="-0.000699213072%" y1="50.0005271%" x2="100.000697%" y2="50.0005271%" id="linearGradient-18">
            <stop stop-color="#6FC4FF" offset="0%"></stop>
            <stop stop-color="#ACECFE" offset="75.617226%"></stop>
            <stop stop-color="#ACECFE" offset="100%"></stop>
        </linearGradient>
        <path d="M0.510362035,7.74531816 C0.510362035,4.00399491 13.6968786,0.970786493 29.9625461,0.970786493 L29.9625461,0.970786493 C46.2282136,0.970786493 59.4137313,4.00399491 59.4137313,7.74531816 L59.4137313,7.74531816 C59.4137313,11.4866414 46.2282136,14.5198498 29.9625461,14.5198498 L29.9625461,14.5198498 C13.6968786,14.5198498 0.510362035,11.4866414 0.510362035,7.74531816" id="path-19"></path>
        <linearGradient x1="4.66589009%" y1="-39.3352499%" x2="94.4796666%" y2="137.647848%" id="linearGradient-21">
            <stop stop-color="#6FC4FF" offset="0%"></stop>
            <stop stop-color="#ACECFE" offset="75.617226%"></stop>
            <stop stop-color="#ACECFE" offset="100%"></stop>
        </linearGradient>
        <path d="M0.0489388252,0.609238437 L39.9011226,0.609238437 C39.9011226,11.6134829 30.9802739,20.5363291 19.9750307,20.5363291 L19.9750307,20.5363291 C8.96978754,20.5363291 0.0489388252,11.6134829 0.0489388252,0.609238437" id="path-22"></path>
        <linearGradient x1="-26.7023558%" y1="-37.286673%" x2="106.046557%" y2="83.0497694%" id="linearGradient-24">
            <stop stop-color="#6FC4FF" offset="0%"></stop>
            <stop stop-color="#ACECFE" offset="75.617226%"></stop>
            <stop stop-color="#ACECFE" offset="100%"></stop>
        </linearGradient>
        <polygon id="path-25" points="0 199.750307 199.750307 199.750307 199.750307 0 0 0"></polygon>
    </defs>
    <g id="Page-1" stroke="none" stroke-width="1" fill="none" fill-rule="evenodd">
        <g id="1">
            <g transform="translate(-22.000000, -22.000000)" id="g10">
                <g transform="translate(99.875154, 99.875161) scale(-1, 1) rotate(-180.000000) translate(-99.875154, -99.875161) translate(0.000000, 0.000007)">
                    <g id="g12" transform="translate(61.922595, 95.880147)">
                        <g id="g14-Clipped">
                            <mask id="mask-2" fill="white">
                                <use xlink:href="#path-1"></use>
                            </mask>
                            <g id="path16"></g>
                            <g id="g14" mask="url(#mask-2)" fill-rule="nonzero" fill="url(#linearGradient-3)">
                                <g id="g20">
                                    <g id="g22">
                                        <path d="M22.7156049,49.3433196 L22.7156049,37.7378268 C22.7156049,34.7026209 20.2546811,32.2406983 17.2194752,32.2406983 L17.2194752,32.2406983 C14.1842693,32.2406983 11.7243443,34.7026209 11.7243443,37.7378268 L11.7243443,37.7378268 L11.7243443,38.4978767 C11.7243443,41.5340814 9.26342049,43.9950051 6.22821458,43.9950051 L6.22821458,43.9950051 C3.19400741,43.9950051 0.733083627,41.5340814 0.733083627,38.4978767 L0.733083627,38.4978767 L0.733083627,0.367540565 L0.733083627,0.681148547 L75.1720331,1.16554304 L75.1720331,0.603245927 L75.1720331,1.16554304 L75.1720331,32.0339568 C75.1720331,37.4681639 70.7675388,41.8726581 65.3343305,41.8726581 L65.3343305,41.8726581 C59.9001233,41.8726581 55.4956291,37.4681639 55.4956291,32.0339568 L55.4956291,32.0339568 L55.4956291,30.6676647 C55.4956291,25.2334575 51.0911348,20.8289633 45.6579264,20.8289633 L45.6579264,20.8289633 C40.2247181,20.8289633 35.8192251,25.2334575 35.8192251,30.6676647 L35.8192251,30.6676647 L35.8192251,49.3433196 C35.8192251,52.9617964 32.8868906,55.8961284 29.267415,55.8961284 L29.267415,55.8961284 C25.6489382,55.8961284 22.7156049,52.9617964 22.7156049,49.3433196 L22.7156049,49.3433196 Z M11.7243443,38.4978767 L11.7243443,38.9692874 L11.7243443,38.4978767 Z" id="path32"></path>
                                    </g>
                                </g>
                            </g>
                        </g>
                    </g>
                    <g id="g34" transform="translate(61.922595, 48.938825)">
                        <g id="g36-Clipped">
                            <mask id="mask-5" fill="white">
                                <use xlink:href="#path-4"></use>
                            </mask>
                            <g id="path38"></g>
                            <g id="g36" mask="url(#mask-5)" fill-rule="nonzero" fill="url(#linearGradient-6)">
                                <g id="g42">
                                    <g id="g44">
                                        <path d="M75.1720331,51.0102359 L75.1720331,51.4347053 L75.1720331,51.0102359 Z M0.733083627,22.4988758 C0.733083627,18.3880145 4.0659175,15.0551806 8.17677882,15.0551806 L8.17677882,15.0551806 C12.2876401,15.0551806 15.620474,18.3880145 15.620474,22.4988758 L15.620474,22.4988758 L15.620474,24.2746561 L15.620474,23.5305862 L15.620474,31.0661665 C15.620474,32.1178519 16.4734078,32.9707857 17.5250932,32.9707857 L17.5250932,32.9707857 C18.5767786,32.9707857 19.4297124,32.1178519 19.4297124,31.0661665 L19.4297124,31.0661665 L19.4297124,13.2144816 C19.4297124,6.04344554 25.2424463,0.230711605 32.4124836,0.230711605 L32.4124836,0.230711605 C39.5835196,0.230711605 45.3972523,6.04344554 45.3972523,13.2144816 L45.3972523,13.2144816 L45.3972523,25.9335824 C45.3972523,30.0454424 48.7290874,33.3772776 52.8409475,33.3772776 L52.8409475,33.3772776 C56.9518088,33.3772776 60.2836439,30.0454424 60.2836439,25.9335824 L60.2836439,25.9335824 L60.2836439,24.8988758 C60.2836439,20.7880145 63.6174766,17.4561793 67.7273391,17.4561793 L67.7273391,17.4561793 C71.8391992,17.4561793 75.1720331,20.7880145 75.1720331,24.8988758 L75.1720331,24.8988758 L75.1720331,51.0102359 L0.733083627,51.0102359 L0.733083627,51.4347053 L0.733083627,22.4988758 Z M15.620474,22.4988758 L15.620474,21.8616724 L15.620474,22.4988758 C15.620474,22.4988758 15.620474,22.4988758 15.620474,22.4988758 L15.620474,22.4988758 Z" id="path54"></path>
                                    </g>
                                </g>
                            </g>
                        </g>
                    </g>
                    <g id="g56">
                        <g id="g58-Clipped">
                            <mask id="mask-8" fill="white">
                                <use xlink:href="#path-7"></use>
                            </mask>
                            <g id="path60"></g>
                            <g id="g58" mask="url(#mask-8)">
                                <g transform="translate(79.900123, 55.930086)">
                                    <g id="g64">
                                        <g id="g78">
                                            <g id="g76-Clipped">
                                                <mask id="mask-10" fill="white">
                                                    <use xlink:href="#path-9"></use>
                                                </mask>
                                                <g id="path68"></g>
                                                <g id="g76" opacity="0.25" mask="url(#mask-10)">
                                                    <g transform="translate(0.000000, -0.998752)" id="g74">
                                                        <g transform="translate(0.158302, 0.907665)">
                                                            <path d="M13.9825215,3.99500614 L11.6174779,4.04793997 C11.0481895,4.05992499 10.5108612,3.79325833 10.1772781,3.33183512 L8.79300852,1.41323342 C7.95505598,0.252684139 6.1493132,0.556304605 5.73782757,1.92759046 L5.05667902,4.19275895 C4.89388252,4.73807728 4.47340813,5.16754045 3.9320848,5.34132321 L1.67890133,6.06541808 C0.315605485,6.50387 0.0469413222,8.31460653 1.22446938,9.13058654 L3.16803987,10.4769036 C3.63645434,10.8004991 3.91410727,11.3348312 3.91210976,11.9031208 L3.9051185,14.2681644 C3.90012475,15.7013729 5.54007477,16.5163541 6.67965027,15.6484391 L8.56129816,14.2152306 C9.01373261,13.8716601 9.60699102,13.7707862 10.1473156,13.9485639 L12.3945066,14.6866413 C13.7548061,15.1330833 15.0372031,13.8267163 14.5647936,12.4744067 L13.7827712,10.242197 C13.5950059,9.70586742 13.6838948,9.11061151 14.0194753,8.6511858 L15.41573,6.74157287 C16.2606738,5.58601734 15.4147312,3.96304609 13.9825215,3.99500614" id="path72" fill="#66CC66" fill-rule="nonzero"></path>
                                                        </g>
                                                    </g>
                                                </g>
                                            </g>
                                        </g>
                                    </g>
                                    <g id="g80" transform="translate(20.462521, 19.625468)">
                                        <path d="M9.98751536,7.99001228 L9.31435682,6.51885127 C9.15255907,6.16529323 9.17553036,5.75480635 9.37428191,5.42122334 L10.2042444,4.0329587 C10.7066165,3.19200991 10.0274654,2.14132329 9.05468142,2.25318346 L7.4476902,2.43895125 C7.06117336,2.48289632 6.67765277,2.33508109 6.42197237,2.04244689 L5.35830199,0.823970017 C4.71410725,0.0868913836 3.50362039,0.407490627 3.30986259,1.36729085 L2.9902621,2.95330829 C2.91335823,3.33483138 2.65368283,3.65343312 2.29612978,3.80724085 L0.808988744,4.44144808 C-0.0918851413,4.82696617 -0.159800246,6.07640434 0.693133566,6.55680383 L2.10237198,7.3508113 C2.44094875,7.5425716 2.66367035,7.88714088 2.6996254,8.27465647 L2.84344562,9.8856427 C2.93133576,10.8614229 4.0988763,11.3128586 4.81997491,10.6496876 L6.01048674,9.55505594 C6.29712843,9.29238429 6.69463154,9.18651662 7.07315837,9.27240926 L8.65018705,9.63395731 C9.60499352,9.8506864 10.395006,8.88089865 9.98751536,7.99001228" id="path82" fill="#66CC66" fill-rule="nonzero"></path>
                                    </g>
                                    <g id="g84" transform="translate(0.000000, 4.993758)">
                                        <g id="g138">
                                            <g id="g136-Clipped">
                                                <mask id="mask-12" fill="white">
                                                    <use xlink:href="#path-11"></use>
                                                </mask>
                                                <g id="path88"></g>
                                                <g id="g136" opacity="0.35000604" mask="url(#mask-12)">
                                                    <g id="g124">
                                                        <g id="g122-Clipped">
                                                            <mask id="mask-14" fill="white">
                                                                <use xlink:href="#path-13"></use>
                                                            </mask>
                                                            <g id="path92"></g>
                                                            <g id="g122" mask="url(#mask-14)" fill-rule="nonzero" fill="url(#linearGradient-15)">
                                                                <g id="g120">
                                                                    <g id="g118">
                                                                        <path d="M39.9011226,5.55505604 C39.9011226,3.02621715 30.9872651,0.97578025 19.9910107,0.97578025 C8.99475633,0.97578025 0.0799001228,3.02621715 0.0799001228,5.55505604" id="path116"></path>
                                                                    </g>
                                                                </g>
                                                            </g>
                                                        </g>
                                                    </g>
                                                    <g id="g134" transform="translate(0.000000, 4.993758)">
                                                        <g id="g132-Clipped">
                                                            <mask id="mask-17" fill="white">
                                                                <use xlink:href="#path-16"></use>
                                                            </mask>
                                                            <g id="path104"></g>
                                                            <g id="g132" mask="url(#mask-17)" fill-rule="nonzero" fill="url(#linearGradient-18)">
                                                                <g id="g130">
                                                                    <g id="g128">
                                                                        <polyline id="path126" points="12.9677899 46.797502 0.0489388252 0.561298363 39.9011226 0.561298363 27.0102365 46.6986255"></polyline>
                                                                    </g>
                                                                </g>
                                                            </g>
                                                        </g>
                                                    </g>
                                                </g>
                                            </g>
                                        </g>
                                    </g>
                                </g>
                            </g>
                        </g>
                    </g>
                    <g id="g140" transform="translate(69.912607, 94.881396)">
                        <g id="g142-Clipped">
                            <mask id="mask-20" fill="white">
                                <use xlink:href="#path-19"></use>
                            </mask>
                            <g id="path144"></g>
                            <g id="g142" mask="url(#mask-20)" fill-rule="nonzero" fill="url(#linearGradient-21)">
                                <g id="g148">
                                    <g id="g150">
                                        <path d="M0.510362035,7.74531816 C0.510362035,4.00399491 13.6968786,0.970786493 29.9625461,0.970786493 L29.9625461,0.970786493 C46.2282136,0.970786493 59.4137313,4.00399491 59.4137313,7.74531816 L59.4137313,7.74531816 C59.4137313,11.4866414 46.2282136,14.5198498 29.9625461,14.5198498 L29.9625461,14.5198498 C13.6968786,14.5198498 0.510362035,11.4866414 0.510362035,7.74531816" id="path160"></path>
                                    </g>
                                </g>
                            </g>
                        </g>
                    </g>
                    <g id="g162" transform="translate(79.900123, 105.867663)">
                        <g id="g164-Clipped">
                            <mask id="mask-23" fill="white">
                                <use xlink:href="#path-22"></use>
                            </mask>
                            <g id="path166"></g>
                            <g id="g164" mask="url(#mask-23)" fill-rule="nonzero" fill="url(#linearGradient-24)">
                                <g id="g170">
                                    <g id="g172">
                                        <path d="M0.0489388252,0.609238437 L39.9011226,0.609238437 C39.9011226,11.6134829 30.9802739,20.5363291 19.9750307,20.5363291 L19.9750307,20.5363291 C8.96978754,20.5363291 0.0489388252,11.6134829 0.0489388252,0.609238437" id="path182"></path>
                                    </g>
                                </g>
                            </g>
                        </g>
                    </g>
                    <g id="g184">
                        <g id="g186-Clipped">
                            <mask id="mask-26" fill="white">
                                <use xlink:href="#path-25"></use>
                            </mask>
                            <g id="path188"></g>
                            <g id="g186" mask="url(#mask-26)">
                                <g transform="translate(85.892632, 102.871408)">
                                    <g id="g192" transform="translate(0.284145, 1.910312)">
                                        <path d="M3.99500614,1.99750307 C3.99500614,0.894881376 3.10012477,0 1.99750307,0 C0.894881376,0 0,0.894881376 0,1.99750307 C0,3.10112352 0.894881376,3.99500614 1.99750307,3.99500614 C3.10012477,3.99500614 3.99500614,3.10112352 3.99500614,1.99750307" id="path194" fill="#000000" fill-rule="nonzero"></path>
                                    </g>
                                    <g id="g196" transform="translate(24.587265, 1.910312)">
                                        <path d="M3.99500614,1.99750307 C3.99500614,0.894881376 3.10012477,0 1.99750307,0 C0.894881376,0 0,0.894881376 0,1.99750307 C0,3.10112352 0.894881376,3.99500614 1.99750307,3.99500614 C3.10012477,3.99500614 3.99500614,3.10112352 3.99500614,1.99750307" id="path198" fill="#000000" fill-rule="nonzero"></path>
                                    </g>
                                    <g id="g200" transform="translate(12.435955, 0.911561)">
                                        <path d="M3.99500614,1.99750307 C3.99500614,0.894881376 3.10012477,0 1.99750307,0 C0.893882624,0 0,0.894881376 0,1.99750307 C0,3.10012477 0.893882624,3.99500614 1.99750307,3.99500614 C3.10012477,3.99500614 3.99500614,3.10012477 3.99500614,1.99750307" id="path202" fill="#000000" fill-rule="nonzero"></path>
                                    </g>
                                </g>
                            </g>
                        </g>
                    </g>
                </g>
            </g>
        </g>
    </g>
</svg>