<?xml version="1.0" encoding="UTF-8"?>
<svg width="155px" height="155px" viewBox="0 0 155 155" version="1.1" xmlns="http://www.w3.org/2000/svg" xmlns:xlink="http://www.w3.org/1999/xlink">
    <!-- Generator: Sketch 46.2 (44496) - http://www.bohemiancoding.com/sketch -->
    <title>3</title>
    <desc>Created with Sketch.</desc>
    <defs>
        <path d="M22.7156049,49.3433196 L22.7156049,37.736828 C22.7156049,34.7036196 20.2546811,32.2416971 17.2194752,32.2416971 L17.2194752,32.2416971 C14.1842693,32.2416971 11.7243443,34.7036196 11.7243443,37.736828 L11.7243443,37.736828 L11.7243443,38.4988754 C11.7243443,41.5340814 9.26342049,43.9950051 6.22821458,43.9950051 L6.22821458,43.9950051 C3.19400741,43.9950051 0.733083627,41.5340814 0.733083627,38.4988754 L0.733083627,38.4988754 L0.733083627,0.367540565 L0.733083627,0.681148547 L75.1720331,1.16554304 L75.1720331,0.602247176 L75.1720331,1.16554304 L75.1720331,32.0339568 C75.1720331,37.4681639 70.7675388,41.8726581 65.3343305,41.8726581 L65.3343305,41.8726581 C59.9001233,41.8726581 55.4956291,37.4681639 55.4956291,32.0339568 L55.4956291,32.0339568 L55.4956291,30.6676647 C55.4956291,25.2344563 51.0911348,20.8289633 45.6579264,20.8289633 L45.6579264,20.8289633 C40.2247181,20.8289633 35.8192251,25.2344563 35.8192251,30.6676647 L35.8192251,30.6676647 L35.8192251,49.3433196 C35.8192251,52.9617964 32.8868906,55.8961284 29.267415,55.8961284 L29.267415,55.8961284 C25.6489382,55.8961284 22.7156049,52.9617964 22.7156049,49.3433196 L22.7156049,49.3433196 Z M11.7243443,38.4988754 L11.7243443,38.9702862 L11.7243443,38.4988754 Z" id="path-1"></path>
        <linearGradient x1="-36.0937691%" y1="110.87406%" x2="111.493844%" y2="-22.2242527%" id="linearGradient-3">
            <stop stop-color="#000000" offset="0%"></stop>
            <stop stop-color="#000000" offset="10.26964%"></stop>
            <stop stop-color="#7E5FAA" offset="100%"></stop>
        </linearGradient>
        <path d="M75.1720331,51.0102359 L75.1720331,51.4347053 L75.1720331,51.0102359 Z M0.733083627,22.4988758 C0.733083627,18.3880145 4.0659175,15.0561794 8.17677882,15.0561794 L8.17677882,15.0561794 C12.2876401,15.0561794 15.620474,18.3880145 15.620474,22.4988758 L15.620474,22.4988758 L15.620474,24.2746561 L15.620474,23.5305862 L15.620474,31.0661665 C15.620474,32.1178519 16.4734078,32.9697869 17.5250932,32.9697869 L17.5250932,32.9697869 C18.5767786,32.9697869 19.4297124,32.1178519 19.4297124,31.0661665 L19.4297124,31.0661665 L19.4297124,13.2144816 C19.4297124,6.04444429 25.2424463,0.231710356 32.4124836,0.231710356 L32.4124836,0.231710356 C39.5835196,0.231710356 45.3972523,6.04444429 45.3972523,13.2144816 L45.3972523,13.2144816 L45.3972523,25.9325836 C45.3972523,30.0444437 48.7290874,33.3772776 52.8409475,33.3772776 L52.8409475,33.3772776 C56.9518088,33.3772776 60.2836439,30.0444437 60.2836439,25.9325836 L60.2836439,25.9325836 L60.2836439,24.8988758 C60.2836439,20.7880145 63.6174766,17.4551806 67.7273391,17.4551806 L67.7273391,17.4551806 C71.8391992,17.4551806 75.1720331,20.7880145 75.1720331,24.8988758 L75.1720331,24.8988758 L75.1720331,51.0102359 L0.733083627,51.0102359 L0.733083627,51.4347053 L0.733083627,22.4988758 Z M15.620474,22.4988758 L15.620474,21.8616724 L15.620474,22.4988758 C15.620474,22.4988758 15.620474,22.4988758 15.620474,22.4988758 L15.620474,22.4988758 Z" id="path-4"></path>
        <linearGradient x1="-55.2424006%" y1="170.801568%" x2="92.3452128%" y2="26.4592038%" id="linearGradient-6">
            <stop stop-color="#000000" offset="0%"></stop>
            <stop stop-color="#000000" offset="10.26964%"></stop>
            <stop stop-color="#7E5FAA" offset="100%"></stop>
        </linearGradient>
        <polygon id="path-7" points="0 199.750307 199.750307 199.750307 199.750307 0 0 0"></polygon>
        <polygon id="path-9" points="0.0486391998 51.7912596 39.9011226 51.7912596 39.9011226 0.976079876 0.0486391998 0.976079876"></polygon>
        <path d="M39.9011226,5.55605479 C39.9011226,3.02621715 30.9872651,0.976779002 19.9910107,0.976779002 C8.99475633,0.976779002 0.0799001228,3.02621715 0.0799001228,5.55605479" id="path-11"></path>
        <linearGradient x1="0.000386245642%" y1="49.9861941%" x2="100.000697%" y2="49.9861941%" id="linearGradient-13">
            <stop stop-color="#6FC4FF" offset="0%"></stop>
            <stop stop-color="#ACECFE" offset="75.617226%"></stop>
            <stop stop-color="#ACECFE" offset="100%"></stop>
        </linearGradient>
        <polyline id="path-14" points="12.9677899 46.7985007 0.0489388252 0.562297115 39.9011226 0.562297115 27.0102365 46.6986255"></polyline>
        <linearGradient x1="-0.000699213072%" y1="49.998367%" x2="100.000697%" y2="49.998367%" id="linearGradient-16">
            <stop stop-color="#6FC4FF" offset="0%"></stop>
            <stop stop-color="#ACECFE" offset="75.617226%"></stop>
            <stop stop-color="#ACECFE" offset="100%"></stop>
        </linearGradient>
        <path d="M0.510362035,7.74531816 C0.510362035,4.00399491 13.6968786,0.970786493 29.9625461,0.970786493 L29.9625461,0.970786493 C46.2282136,0.970786493 59.4137313,4.00399491 59.4137313,7.74531816 L59.4137313,7.74531816 C59.4137313,11.4866414 46.2282136,14.5188511 29.9625461,14.5188511 L29.9625461,14.5188511 C13.6968786,14.5188511 0.510362035,11.4866414 0.510362035,7.74531816" id="path-17"></path>
        <linearGradient x1="4.66589009%" y1="-39.3381496%" x2="94.4796666%" y2="137.657995%" id="linearGradient-19">
            <stop stop-color="#6FC4FF" offset="0%"></stop>
            <stop stop-color="#ACECFE" offset="75.617226%"></stop>
            <stop stop-color="#ACECFE" offset="100%"></stop>
        </linearGradient>
        <path d="M0.0489388252,0.608239685 L39.9011226,0.608239685 C39.9011226,11.6134829 30.9802739,20.5353303 19.9750307,20.5353303 L19.9750307,20.5353303 C8.96978754,20.5353303 0.0489388252,11.6134829 0.0489388252,0.608239685" id="path-20"></path>
        <linearGradient x1="-26.7023558%" y1="-37.281661%" x2="106.046557%" y2="83.0547815%" id="linearGradient-22">
            <stop stop-color="#6FC4FF" offset="0%"></stop>
            <stop stop-color="#ACECFE" offset="75.617226%"></stop>
            <stop stop-color="#ACECFE" offset="100%"></stop>
        </linearGradient>
        <polygon id="path-23" points="0 199.750307 199.750307 199.750307 199.750307 0 0 0"></polygon>
        <polygon id="path-25" points="0.860923824 2.43895125 2.6686641 2.43895125 2.6686641 0.631910097 0.860923824 0.631910097"></polygon>
        <polygon id="path-27" points="0.085193506 1.33593005 0.852234685 1.33593005 0.852234685 0.568888875 0.085193506 0.568888875"></polygon>
        <polygon id="path-29" points="0.712109845 1.00174779 1.47915102 1.00174779 1.47915102 0.234706611 0.712109845 0.234706611"></polygon>
        <polygon id="path-31" points="0.860923824 1.70207237 1.627965 1.70207237 1.627965 0.935031188 0.860923824 0.935031188"></polygon>
        <polygon id="path-33" points="0.711310844 1.04549311 1.14506864 1.04549311 1.14506864 0.61163544 0.711310844 0.61163544"></polygon>
        <polygon id="path-35" points="0.184769034 0.970786493 0.619225952 0.970786493 0.619225952 0.536329575 0.184769034 0.536329575"></polygon>
        <polygon id="path-37" points="0.363545559 1.3196504 0.798002477 1.3196504 0.798002477 0.885892612 0.363545559 0.885892612"></polygon>
        <polygon id="path-39" points="0.573283381 2.51985012 2.38102366 2.51985012 2.38102366 0.713108596 0.573283381 0.713108596"></polygon>
        <polygon id="path-41" points="0.619225952 0.779026198 1.38626713 0.779026198 1.38626713 0.0119850184 0.619225952 0.0119850184"></polygon>
        <polygon id="path-43" points="0.098876402 0.906866394 0.865917581 0.906866394 0.865917581 0.139825215 0.098876402 0.139825215"></polygon>
        <polygon id="path-45" points="0.0629213467 0.665168523 0.496379513 0.665168523 0.496379513 0.230711605 0.0629213467 0.230711605"></polygon>
        <polygon id="path-47" points="0.16878901 0.605243431 0.603245927 0.605243431 0.603245927 0.171785264 0.16878901 0.171785264"></polygon>
        <polygon id="path-49" points="0.297528082 1.2058926 0.731285874 1.2058926 0.731285874 0.772134812 0.297528082 0.772134812"></polygon>
        <polygon id="path-51" points="0.992359526 0.493183508 1.42611732 0.493183508 1.42611732 0.0593258412 0.992359526 0.0593258412"></polygon>
    </defs>
    <g id="Page-1" stroke="none" stroke-width="1" fill="none" fill-rule="evenodd">
        <g id="3">
            <g transform="translate(-22.000000, -22.000000)" id="g10">
                <g transform="translate(99.875154, 99.875161) scale(-1, 1) rotate(-180.000000) translate(-99.875154, -99.875161) translate(0.000000, 0.000007)">
                    <g id="g12" transform="translate(61.922595, 95.880147)">
                        <g id="g14-Clipped">
                            <mask id="mask-2" fill="white">
                                <use xlink:href="#path-1"></use>
                            </mask>
                            <g id="path16"></g>
                            <g id="g14" mask="url(#mask-2)" fill-rule="nonzero" fill="url(#linearGradient-3)">
                                <g id="g20">
                                    <g id="g22">
                                        <path d="M22.7156049,49.3433196 L22.7156049,37.736828 C22.7156049,34.7036196 20.2546811,32.2416971 17.2194752,32.2416971 L17.2194752,32.2416971 C14.1842693,32.2416971 11.7243443,34.7036196 11.7243443,37.736828 L11.7243443,37.736828 L11.7243443,38.4988754 C11.7243443,41.5340814 9.26342049,43.9950051 6.22821458,43.9950051 L6.22821458,43.9950051 C3.19400741,43.9950051 0.733083627,41.5340814 0.733083627,38.4988754 L0.733083627,38.4988754 L0.733083627,0.367540565 L0.733083627,0.681148547 L75.1720331,1.16554304 L75.1720331,0.602247176 L75.1720331,1.16554304 L75.1720331,32.0339568 C75.1720331,37.4681639 70.7675388,41.8726581 65.3343305,41.8726581 L65.3343305,41.8726581 C59.9001233,41.8726581 55.4956291,37.4681639 55.4956291,32.0339568 L55.4956291,32.0339568 L55.4956291,30.6676647 C55.4956291,25.2344563 51.0911348,20.8289633 45.6579264,20.8289633 L45.6579264,20.8289633 C40.2247181,20.8289633 35.8192251,25.2344563 35.8192251,30.6676647 L35.8192251,30.6676647 L35.8192251,49.3433196 C35.8192251,52.9617964 32.8868906,55.8961284 29.267415,55.8961284 L29.267415,55.8961284 C25.6489382,55.8961284 22.7156049,52.9617964 22.7156049,49.3433196 L22.7156049,49.3433196 Z M11.7243443,38.4988754 L11.7243443,38.9702862 L11.7243443,38.4988754 Z" id="path32"></path>
                                    </g>
                                </g>
                            </g>
                        </g>
                    </g>
                    <g id="g34" transform="translate(61.922595, 48.938825)">
                        <g id="g36-Clipped">
                            <mask id="mask-5" fill="white">
                                <use xlink:href="#path-4"></use>
                            </mask>
                            <g id="path38"></g>
                            <g id="g36" mask="url(#mask-5)" fill-rule="nonzero" fill="url(#linearGradient-6)">
                                <g id="g42">
                                    <g id="g44">
                                        <path d="M75.1720331,51.0102359 L75.1720331,51.4347053 L75.1720331,51.0102359 Z M0.733083627,22.4988758 C0.733083627,18.3880145 4.0659175,15.0561794 8.17677882,15.0561794 L8.17677882,15.0561794 C12.2876401,15.0561794 15.620474,18.3880145 15.620474,22.4988758 L15.620474,22.4988758 L15.620474,24.2746561 L15.620474,23.5305862 L15.620474,31.0661665 C15.620474,32.1178519 16.4734078,32.9697869 17.5250932,32.9697869 L17.5250932,32.9697869 C18.5767786,32.9697869 19.4297124,32.1178519 19.4297124,31.0661665 L19.4297124,31.0661665 L19.4297124,13.2144816 C19.4297124,6.04444429 25.2424463,0.231710356 32.4124836,0.231710356 L32.4124836,0.231710356 C39.5835196,0.231710356 45.3972523,6.04444429 45.3972523,13.2144816 L45.3972523,13.2144816 L45.3972523,25.9325836 C45.3972523,30.0444437 48.7290874,33.3772776 52.8409475,33.3772776 L52.8409475,33.3772776 C56.9518088,33.3772776 60.2836439,30.0444437 60.2836439,25.9325836 L60.2836439,25.9325836 L60.2836439,24.8988758 C60.2836439,20.7880145 63.6174766,17.4551806 67.7273391,17.4551806 L67.7273391,17.4551806 C71.8391992,17.4551806 75.1720331,20.7880145 75.1720331,24.8988758 L75.1720331,24.8988758 L75.1720331,51.0102359 L0.733083627,51.0102359 L0.733083627,51.4347053 L0.733083627,22.4988758 Z M15.620474,22.4988758 L15.620474,21.8616724 L15.620474,22.4988758 C15.620474,22.4988758 15.620474,22.4988758 15.620474,22.4988758 L15.620474,22.4988758 Z" id="path54"></path>
                                    </g>
                                </g>
                            </g>
                        </g>
                    </g>
                    <g id="g56">
                        <g id="g58-Clipped">
                            <mask id="mask-8" fill="white">
                                <use xlink:href="#path-7"></use>
                            </mask>
                            <g id="path60"></g>
                            <g id="g58" mask="url(#mask-8)">
                                <g transform="translate(79.900123, 54.931334)">
                                    <g id="g64" transform="translate(0.158302, 0.907166)">
                                        <path d="M13.9825215,3.99500614 L11.6174779,4.04893873 C11.0481895,4.06092374 10.5108612,3.79325833 10.1772781,3.33283387 L8.79300852,1.41423217 C7.95505598,0.252684139 6.1493132,0.557303357 5.73782757,1.92858922 L5.05667902,4.1937577 C4.89388252,4.73807728 4.47340813,5.16754045 3.9320848,5.34232196 L1.67890133,6.06541808 C0.315605485,6.50387 0.0469413222,8.31460653 1.22446938,9.13058654 L3.16803987,10.4779024 C3.63645434,10.8014979 3.91410727,11.3348312 3.91210976,11.9031208 L3.9051185,14.2691632 C3.90012475,15.7013729 5.54007477,16.5163541 6.67965027,15.6494378 L8.56129816,14.2162294 C9.01373261,13.8716601 9.60699102,13.7717849 10.1473156,13.9495627 L12.3945066,14.6876401 C13.7548061,15.134082 15.0372031,13.827715 14.5647936,12.4754054 L13.7827712,10.242197 C13.5950059,9.70586742 13.6838948,9.11061151 14.0194753,8.65218455 L15.41573,6.74257162 C16.2606738,5.58701609 15.4147312,3.96304609 13.9825215,3.99500614" id="path66" fill="#66CC66" fill-rule="nonzero"></path>
                                    </g>
                                    <g id="g68" transform="translate(27.882446, 15.859176)">
                                        <path d="M3.99500614,0.998751536 L3.41073649,2.07540569 C3.26991253,2.33508109 3.01123588,2.50886386 2.71760293,2.53982515 L1.49912605,2.6686641 C0.76104867,2.74756547 0.433458166,3.63745309 0.943820201,4.17578017 L1.788764,5.06367029 C1.99151056,5.27840187 2.07640444,5.57802733 2.0154806,5.86566777 L1.76179771,7.06516836 C1.60798997,7.79126073 2.35305862,8.37852663 3.0232209,8.05792739 L4.1298376,7.53058658 C4.39550551,7.40374513 4.70611724,7.41573015 4.96179763,7.56254663 L6.02446926,8.17478132 C6.66766525,8.54531814 7.45568021,8.01697858 7.35880131,7.28189745 L7.19800232,6.06541808 C7.15905101,5.77378263 7.26691617,5.48114843 7.48664151,5.28439437 L8.39650416,4.46342061 C8.94681626,3.96604235 8.68913836,3.05318344 7.95905099,2.91835199 L6.75355788,2.69463164 C6.46391994,2.64169781 6.21922581,2.44893877 6.09937563,2.1802746 L5.59900111,1.06067413 C5.29737814,0.382521838 4.34856419,0.346566783 3.99500614,0.998751536" id="path70" fill="#66CC66" fill-rule="nonzero"></path>
                                    </g>
                                    <g id="g72" transform="translate(10.179975, 33.486541)">
                                        <path d="M9.98751536,7.99001228 L9.31435682,6.51885127 C9.15255907,6.16629198 9.17553036,5.7558051 9.37428191,5.42222209 L10.2042444,4.0329587 C10.7066165,3.19200991 10.0274654,2.14132329 9.05468142,2.25418222 L7.4476902,2.43895125 C7.06117336,2.48389507 6.67865152,2.33607984 6.42197237,2.04344564 L5.35830199,0.823970017 C4.71410725,0.0868913836 3.50362039,0.408489378 3.30986259,1.3682896 L2.9902621,2.95430704 C2.91335823,3.33483138 2.65468158,3.65343312 2.29612978,3.80724085 L0.808988744,4.44244683 C-0.0908863897,4.82696617 -0.159800246,6.07740309 0.693133566,6.55780258 L2.10237198,7.35181005 C2.44094875,7.5425716 2.66367035,7.88813963 2.6996254,8.27565522 L2.84444437,9.8856427 C2.93133576,10.8614229 4.0988763,11.3128586 4.81997491,10.6506864 L6.01148549,9.55505594 C6.29712843,9.29238429 6.69463154,9.18651662 7.07415713,9.27340801 L8.65018705,9.63395731 C9.60499352,9.85168515 10.395006,8.88089865 9.98751536,7.99001228" id="path74" fill="#66CC66" fill-rule="nonzero"></path>
                                    </g>
                                    <g id="g76" transform="translate(0.000000, 5.992509)">
                                        <g id="g130">
                                            <g id="g128-Clipped">
                                                <mask id="mask-10" fill="white">
                                                    <use xlink:href="#path-9"></use>
                                                </mask>
                                                <g id="path80"></g>
                                                <g id="g128" opacity="0.35000604" mask="url(#mask-10)">
                                                    <g id="g116">
                                                        <g id="g114-Clipped">
                                                            <mask id="mask-12" fill="white">
                                                                <use xlink:href="#path-11"></use>
                                                            </mask>
                                                            <g id="path84"></g>
                                                            <g id="g114" mask="url(#mask-12)" fill-rule="nonzero" fill="url(#linearGradient-13)">
                                                                <g id="g112">
                                                                    <g id="g110">
                                                                        <path d="M39.9011226,5.55605479 C39.9011226,3.02621715 30.9872651,0.976779002 19.9910107,0.976779002 C8.99475633,0.976779002 0.0799001228,3.02621715 0.0799001228,5.55605479" id="path108"></path>
                                                                    </g>
                                                                </g>
                                                            </g>
                                                        </g>
                                                    </g>
                                                    <g id="g126" transform="translate(0.000000, 4.993758)">
                                                        <g id="g124-Clipped">
                                                            <mask id="mask-15" fill="white">
                                                                <use xlink:href="#path-14"></use>
                                                            </mask>
                                                            <g id="path96"></g>
                                                            <g id="g124" mask="url(#mask-15)" fill-rule="nonzero" fill="url(#linearGradient-16)">
                                                                <g id="g122">
                                                                    <g id="g120">
                                                                        <polyline id="path118" points="12.9677899 46.7985007 0.0489388252 0.562297115 39.9011226 0.562297115 27.0102365 46.6986255"></polyline>
                                                                    </g>
                                                                </g>
                                                            </g>
                                                        </g>
                                                    </g>
                                                </g>
                                            </g>
                                        </g>
                                    </g>
                                </g>
                            </g>
                        </g>
                    </g>
                    <g id="g132" transform="translate(69.912607, 94.881396)">
                        <g id="g134-Clipped">
                            <mask id="mask-18" fill="white">
                                <use xlink:href="#path-17"></use>
                            </mask>
                            <g id="path136"></g>
                            <g id="g134" mask="url(#mask-18)" fill-rule="nonzero" fill="url(#linearGradient-19)">
                                <g id="g140">
                                    <g id="g142">
                                        <path d="M0.510362035,7.74531816 C0.510362035,4.00399491 13.6968786,0.970786493 29.9625461,0.970786493 L29.9625461,0.970786493 C46.2282136,0.970786493 59.4137313,4.00399491 59.4137313,7.74531816 L59.4137313,7.74531816 C59.4137313,11.4866414 46.2282136,14.5188511 29.9625461,14.5188511 L29.9625461,14.5188511 C13.6968786,14.5188511 0.510362035,11.4866414 0.510362035,7.74531816" id="path152"></path>
                                    </g>
                                </g>
                            </g>
                        </g>
                    </g>
                    <g id="g154" transform="translate(79.900123, 105.867663)">
                        <g id="g156-Clipped">
                            <mask id="mask-21" fill="white">
                                <use xlink:href="#path-20"></use>
                            </mask>
                            <g id="path158"></g>
                            <g id="g156" mask="url(#mask-21)" fill-rule="nonzero" fill="url(#linearGradient-22)">
                                <g id="g162">
                                    <g id="g164">
                                        <path d="M0.0489388252,0.608239685 L39.9011226,0.608239685 C39.9011226,11.6134829 30.9802739,20.5353303 19.9750307,20.5353303 L19.9750307,20.5353303 C8.96978754,20.5353303 0.0489388252,11.6134829 0.0489388252,0.608239685" id="path174"></path>
                                    </g>
                                </g>
                            </g>
                        </g>
                    </g>
                    <g id="g176">
                        <g id="g178-Clipped">
                            <mask id="mask-24" fill="white">
                                <use xlink:href="#path-23"></use>
                            </mask>
                            <g id="path180"></g>
                            <g id="g178" mask="url(#mask-24)">
                                <g transform="translate(56.928838, 78.901371)">
                                    <g id="g184" transform="translate(29.247939, 25.880848)">
                                        <path d="M3.99500614,1.99750307 C3.99500614,0.894881376 3.10012477,0 1.99750307,0 C0.894881376,0 0,0.894881376 0,1.99750307 C0,3.10012477 0.894881376,3.99500614 1.99750307,3.99500614 C3.10012477,3.99500614 3.99500614,3.10012477 3.99500614,1.99750307" id="path186" fill="#000000" fill-rule="nonzero"></path>
                                    </g>
                                    <g id="g188" transform="translate(53.551060, 25.880848)">
                                        <path d="M3.99500614,1.99750307 C3.99500614,0.894881376 3.10012477,0 1.99750307,0 C0.894881376,0 0,0.894881376 0,1.99750307 C0,3.10012477 0.894881376,3.99500614 1.99750307,3.99500614 C3.10012477,3.99500614 3.99500614,3.10012477 3.99500614,1.99750307" id="path190" fill="#66CC66" fill-rule="nonzero"></path>
                                    </g>
                                    <g id="g192" transform="translate(41.399749, 24.882097)">
                                        <path d="M3.99500614,1.99750307 C3.99500614,0.894881376 3.10012477,0 1.99750307,0 C0.893882624,0 0,0.894881376 0,1.99750307 C0,3.10012477 0.893882624,3.99500614 1.99750307,3.99500614 C3.10012477,3.99500614 3.99500614,3.10012477 3.99500614,1.99750307" id="path194" fill="#000000" fill-rule="nonzero"></path>
                                    </g>
                                    <g id="g196" transform="translate(48.938825, 13.982521)">
                                        <g id="g210">
                                            <g id="g208-Clipped">
                                                <mask id="mask-26" fill="white">
                                                    <use xlink:href="#path-25"></use>
                                                </mask>
                                                <g id="path200"></g>
                                                <g id="g208" opacity="0.94999701" mask="url(#mask-26)" fill-rule="nonzero" fill="#FFFFFF">
                                                    <g id="g206" transform="translate(0.727890, 0.440949)">
                                                        <path d="M0.998751536,1.99750307 C1.4981273,2.01847685 1.9186017,1.63096126 1.93957548,1.13258424 C1.96054926,0.634207225 1.57303367,0.212734077 1.07465665,0.191760295 C0.576279636,0.170786513 0.154806488,0.558302108 0.133832706,1.05667912 C0.112858924,1.55605489 0.500374519,1.97652929 0.998751536,1.99750307" id="path204"></path>
                                                    </g>
                                                </g>
                                            </g>
                                        </g>
                                    </g>
                                    <g id="g212" transform="translate(23.970037, 6.991261)">
                                        <g id="g226">
                                            <g id="g224-Clipped">
                                                <mask id="mask-28" fill="white">
                                                    <use xlink:href="#path-27"></use>
                                                </mask>
                                                <g id="path216"></g>
                                                <g id="g224" opacity="0.94999701" mask="url(#mask-28)">
                                                    <g transform="translate(-0.998752, 0.000000)" id="g222">
                                                        <g transform="translate(0.452834, 0.336579)">
                                                            <path d="M0.998751536,0.998751536 C1.21048686,1.0077403 1.38926339,0.843945048 1.3972534,0.632209722 C1.40624216,0.420474396 1.24244691,0.241697872 1.03071158,0.232709108 C0.818976259,0.223720344 0.640199734,0.388514347 0.63121097,0.600249673 C0.623220958,0.811984998 0.78701621,0.989762772 0.998751536,0.998751536" id="path220" fill="#FFFFFF" fill-rule="nonzero"></path>
                                                        </g>
                                                    </g>
                                                </g>
                                            </g>
                                        </g>
                                    </g>
                                    <g id="g228" transform="translate(49.937577, 28.963795)">
                                        <g id="g242">
                                            <g id="g240-Clipped">
                                                <mask id="mask-30" fill="white">
                                                    <use xlink:href="#path-29"></use>
                                                </mask>
                                                <g id="path232"></g>
                                                <g id="g240" opacity="0.94999701" mask="url(#mask-30)" fill-rule="nonzero" fill="#FFFFFF">
                                                    <g id="g238" transform="translate(0.080799, 0.001998)">
                                                        <path d="M0.998751536,0.998751536 C1.21048686,1.00873905 1.38926339,0.843945048 1.39825215,0.632209722 C1.40724091,0.420474396 1.24244691,0.241697872 1.03071158,0.232709108 C0.818976259,0.224719096 0.640199734,0.388514347 0.63121097,0.600249673 C0.623220958,0.811984998 0.78701621,0.989762772 0.998751536,0.998751536" id="path236"></path>
                                                    </g>
                                                </g>
                                            </g>
                                        </g>
                                    </g>
                                    <g id="g244" transform="translate(43.945068, 10.986267)">
                                        <g id="g258">
                                            <g id="g256-Clipped">
                                                <mask id="mask-32" fill="white">
                                                    <use xlink:href="#path-31"></use>
                                                </mask>
                                                <g id="path248"></g>
                                                <g id="g256" opacity="0.94999701" mask="url(#mask-32)" fill-rule="nonzero" fill="#FFFFFF">
                                                    <g id="g254" transform="translate(0.229513, 0.703321)">
                                                        <path d="M0.998751536,0.998751536 C1.21048686,1.0077403 1.38926339,0.842946296 1.39825215,0.63121097 C1.40724091,0.419475645 1.24244691,0.24069912 1.03071158,0.231710356 C0.818976259,0.223720344 0.641198486,0.387515596 0.63121097,0.599250921 C0.623220958,0.810986247 0.78701621,0.989762772 0.998751536,0.998751536" id="path252"></path>
                                                    </g>
                                                </g>
                                            </g>
                                        </g>
                                    </g>
                                    <g id="g260" transform="translate(21.972534, 3.995006)">
                                        <g id="g274">
                                            <g id="g272-Clipped">
                                                <mask id="mask-34" fill="white">
                                                    <use xlink:href="#path-33"></use>
                                                </mask>
                                                <g id="path264"></g>
                                                <g id="g272" opacity="0.94999701" mask="url(#mask-34)">
                                                    <g transform="translate(-0.998752, 0.000000)" id="g270">
                                                        <g transform="translate(0.919051, 0.046941)">
                                                            <path d="M0.998751536,0.998751536 C1.11860172,1.00374529 1.21947562,0.909862649 1.22446938,0.791011216 C1.22946314,0.671161032 1.13657925,0.569288375 1.01672906,0.564294618 C0.896878879,0.560299611 0.796004974,0.652184753 0.791011216,0.772034937 C0.786017459,0.892883873 0.878901351,0.993757778 0.998751536,0.998751536" id="path268" fill="#FFFFFF" fill-rule="nonzero"></path>
                                                        </g>
                                                    </g>
                                                </g>
                                            </g>
                                        </g>
                                    </g>
                                    <g id="g276" transform="translate(47.940074, 26.966291)">
                                        <g id="g290">
                                            <g id="g288-Clipped">
                                                <mask id="mask-36" fill="white">
                                                    <use xlink:href="#path-35"></use>
                                                </mask>
                                                <g id="path280"></g>
                                                <g id="g288" opacity="0.94999701" mask="url(#mask-36)">
                                                    <g transform="translate(-0.998752, -0.998752)" id="g286">
                                                        <g transform="translate(0.392909, 0.970587)">
                                                            <path d="M0.998751536,0.998751536 C1.11860172,1.00374529 1.21947562,0.9108614 1.22446938,0.791011216 C1.22946314,0.671161032 1.13657925,0.570287127 1.01772781,0.564294618 C0.896878879,0.560299611 0.796004974,0.653183504 0.791011216,0.772034937 C0.786017459,0.892883873 0.878901351,0.993757778 0.998751536,0.998751536" id="path284" fill="#FFFFFF" fill-rule="nonzero"></path>
                                                        </g>
                                                    </g>
                                                </g>
                                            </g>
                                        </g>
                                    </g>
                                    <g id="g292" transform="translate(47.940074, 9.987515)">
                                        <g id="g306">
                                            <g id="g304-Clipped">
                                                <mask id="mask-38" fill="white">
                                                    <use xlink:href="#path-37"></use>
                                                </mask>
                                                <g id="path296"></g>
                                                <g id="g304" opacity="0.94999701" mask="url(#mask-38)">
                                                    <g transform="translate(-0.998752, 0.000000)" id="g302">
                                                        <g transform="translate(0.571885, 0.320999)">
                                                            <path d="M0.998751536,0.998751536 C1.11860172,1.00374529 1.21947562,0.9108614 1.22446938,0.791011216 C1.22946314,0.671161032 1.13657925,0.570287127 1.01672906,0.564294618 C0.896878879,0.560299611 0.796004974,0.653183504 0.791011216,0.772034937 C0.786017459,0.892883873 0.878901351,0.993757778 0.998751536,0.998751536" id="path300" fill="#FFFFFF" fill-rule="nonzero"></path>
                                                        </g>
                                                    </g>
                                                </g>
                                            </g>
                                        </g>
                                    </g>
                                    <g id="g308" transform="translate(73.907614, 42.946316)">
                                        <g id="g322">
                                            <g id="g320-Clipped">
                                                <mask id="mask-40" fill="white">
                                                    <use xlink:href="#path-39"></use>
                                                </mask>
                                                <g id="path312"></g>
                                                <g id="g320" opacity="0.94999701" mask="url(#mask-40)">
                                                    <g transform="translate(0.000000, -0.998752)" id="g318">
                                                        <g transform="translate(0.008090, 0.845743)">
                                                            <path d="M0.998751536,0.998751536 C0.57228463,1.25842693 0.437453173,1.81373279 0.698127323,2.24019969 C0.956803971,2.6666666 1.51310858,2.80149806 1.93957548,2.54082391 C2.36604239,2.28114851 2.49987509,1.72584265 2.24019969,1.29937575 C1.9805243,0.872908842 1.42521844,0.738077385 0.998751536,0.998751536" id="path316" fill="#FFFFFF" fill-rule="nonzero"></path>
                                                        </g>
                                                    </g>
                                                </g>
                                            </g>
                                        </g>
                                    </g>
                                    <g id="g324" transform="translate(64.918850, 24.968788)">
                                        <g id="g338">
                                            <g id="g336-Clipped">
                                                <mask id="mask-42" fill="white">
                                                    <use xlink:href="#path-41"></use>
                                                </mask>
                                                <g id="path328"></g>
                                                <g id="g336" opacity="0.94999701" mask="url(#mask-42)">
                                                    <g transform="translate(-0.998752, -0.998752)" id="g334">
                                                        <g transform="translate(0.802996, 0.068315)">
                                                            <path d="M0.998751536,0.998751536 C0.817977508,1.1086142 0.76104867,1.34531832 0.870911339,1.52509359 C0.980774008,1.70686637 1.21747812,1.76479396 1.39825215,1.65293379 C1.57902618,1.54307112 1.63595502,1.30736576 1.52609235,1.12659173 C1.41523093,0.945817704 1.17952556,0.888888867 0.998751536,0.998751536" id="path332" fill="#FFFFFF" fill-rule="nonzero"></path>
                                                        </g>
                                                    </g>
                                                </g>
                                            </g>
                                        </g>
                                    </g>
                                    <g id="g340" transform="translate(79.900123, 35.955055)">
                                        <g id="g354">
                                            <g id="g352-Clipped">
                                                <mask id="mask-44" fill="white">
                                                    <use xlink:href="#path-43"></use>
                                                </mask>
                                                <g id="path344"></g>
                                                <g id="g352" opacity="0.94999701" mask="url(#mask-44)">
                                                    <g transform="translate(-0.998752, -0.998752)" id="g350">
                                                        <g transform="translate(0.283146, 0.196155)">
                                                            <path d="M0.998751536,0.998751536 C0.817977508,1.1086142 0.760049919,1.34531832 0.870911339,1.52509359 C0.980774008,1.70686637 1.21747812,1.76379521 1.3972534,1.65293379 C1.57902618,1.54307112 1.63595502,1.30736576 1.52509359,1.12659173 C1.41523093,0.944818953 1.17952556,0.888888867 0.998751536,0.998751536" id="path348" fill="#FFFFFF" fill-rule="nonzero"></path>
                                                        </g>
                                                    </g>
                                                </g>
                                            </g>
                                        </g>
                                    </g>
                                    <g id="g356" transform="translate(68.913856, 24.968788)">
                                        <g id="g370">
                                            <g id="g368-Clipped">
                                                <mask id="mask-46" fill="white">
                                                    <use xlink:href="#path-45"></use>
                                                </mask>
                                                <g id="path360"></g>
                                                <g id="g368" opacity="0.94999701" mask="url(#mask-46)">
                                                    <g transform="translate(-0.998752, -0.998752)" id="g366">
                                                        <g transform="translate(0.166592, 0.262472)">
                                                            <path d="M0.998751536,0.998751536 C0.895880127,1.06067413 0.863920078,1.19450684 0.926841425,1.29737824 C0.98876402,1.3992509 1.12259673,1.4322097 1.22446938,1.36928836 C1.32734079,1.30736576 1.35930084,1.17353305 1.29637949,1.07066165 C1.2344569,0.96878899 1.10162294,0.93682894 0.998751536,0.998751536" id="path364" fill="#FFFFFF" fill-rule="nonzero"></path>
                                                        </g>
                                                    </g>
                                                </g>
                                            </g>
                                        </g>
                                    </g>
                                    <g id="g372" transform="translate(77.902620, 38.951310)">
                                        <g id="g386">
                                            <g id="g384-Clipped">
                                                <mask id="mask-48" fill="white">
                                                    <use xlink:href="#path-47"></use>
                                                </mask>
                                                <g id="path376"></g>
                                                <g id="g384" opacity="0.94999701" mask="url(#mask-48)">
                                                    <g transform="translate(-0.998752, -0.998752)" id="g382">
                                                        <g transform="translate(0.272959, 0.202946)">
                                                            <path d="M0.998751536,0.998751536 C0.895880127,1.06067413 0.863920078,1.19450684 0.926841425,1.29737824 C0.98876402,1.3992509 1.12259673,1.4322097 1.22446938,1.36928836 C1.32734079,1.30736576 1.35930084,1.17353305 1.29637949,1.07066165 C1.2344569,0.969787741 1.10162294,0.93682894 0.998751536,0.998751536" id="path380" fill="#FFFFFF" fill-rule="nonzero"></path>
                                                        </g>
                                                    </g>
                                                </g>
                                            </g>
                                        </g>
                                    </g>
                                    <g id="g388" transform="translate(6.991261, 0.000000)">
                                        <g id="g402">
                                            <g id="g400-Clipped">
                                                <mask id="mask-50" fill="white">
                                                    <use xlink:href="#path-49"></use>
                                                </mask>
                                                <g id="path392"></g>
                                                <g id="g400" opacity="0.94999701" mask="url(#mask-50)">
                                                    <g transform="translate(-0.998752, 0.000000)" id="g398">
                                                        <g transform="translate(0.505568, 0.206841)">
                                                            <path d="M0.998751536,0.998751536 C1.11860172,1.00374529 1.21947562,0.9108614 1.22446938,0.791011216 C1.22946314,0.672159783 1.13657925,0.570287127 1.01672906,0.565293369 C0.896878879,0.561298363 0.796004974,0.653183504 0.791011216,0.773033689 C0.786017459,0.892883873 0.878901351,0.993757778 0.998751536,0.998751536" id="path396" fill="#FFFFFF" fill-rule="nonzero"></path>
                                                        </g>
                                                    </g>
                                                </g>
                                            </g>
                                        </g>
                                    </g>
                                    <g id="g404" transform="translate(0.000000, 5.992509)">
                                        <g id="g418">
                                            <g id="g416-Clipped">
                                                <mask id="mask-52" fill="white">
                                                    <use xlink:href="#path-51"></use>
                                                </mask>
                                                <g id="path408"></g>
                                                <g id="g416" opacity="0.94999701" mask="url(#mask-52)">
                                                    <g transform="translate(0.000000, -0.998752)" id="g414">
                                                        <g transform="translate(0.201248, 0.492584)">
                                                            <path d="M0.998751536,0.998751536 C1.11860172,1.00374529 1.21947562,0.9108614 1.22446938,0.791011216 C1.22946314,0.672159783 1.13657925,0.570287127 1.01772781,0.565293369 C0.896878879,0.561298363 0.796004974,0.653183504 0.791011216,0.773033689 C0.786017459,0.893882624 0.878901351,0.993757778 0.998751536,0.998751536" id="path412" fill="#FFFFFF" fill-rule="nonzero"></path>
                                                        </g>
                                                    </g>
                                                </g>
                                            </g>
                                        </g>
                                    </g>
                                </g>
                            </g>
                        </g>
                    </g>
                </g>
            </g>
        </g>
    </g>
</svg>