<svg width="155" height="155" viewBox="0 0 155 155" xmlns="http://www.w3.org/2000/svg" xmlns:xlink="http://www.w3.org/1999/xlink"><defs><path id="a" d="M0 199.75h199.75V0H0z"/><path d="M.182 31.476C.182 14.1 14.267.015 31.642.015c17.376 0 31.461 14.085 31.461 31.46 0 17.376-14.085 31.461-31.46 31.461-17.376 0-31.461-14.085-31.461-31.46" id="c"/><linearGradient x1="9.179%" y1="21.12%" x2="90.82%" y2="78.881%" id="e"><stop stop-color="#A9AEFF" offset="0%"/><stop stop-color="#398BFF" offset="19.27%"/><stop stop-color="#398BFF" offset="25.483%"/><stop stop-color="#7AECFE" offset="100%"/></linearGradient><path d="M.182 31.476C.182 14.1 14.267.015 31.642.015c17.376 0 31.461 14.085 31.461 31.46 0 17.376-14.085 31.461-31.46 31.461-17.376 0-31.461-14.085-31.461-31.46" id="f"/><path id="h" d="M.84 51.77h51.177V.594H.841z"/><path d="M.848 4.676a4.495 4.495 0 0 1 8.989 0 4.494 4.494 0 1 1-8.989 0" id="j"/><linearGradient x1="-47.868%" y1="49.999%" x2="260.957%" y2="49.999%" id="l"><stop stop-color="#844EC6" offset="0%"/><stop stop-color="#844EC6" offset="6.795%"/><stop stop-color="#9071FF" offset="100%"/></linearGradient><path id="m" d="M0 199.75h199.75V0H0z"/><path d="M11.113 67.33c-1.025-.71-1.83-1.776-2.412-3.197-.884-2.206-1.423-4.98-1.617-8.325l-.55-17.402c0-11.277.398-20.356 1.198-27.238.193-1.703.29-3.015.29-3.932 0-.722-.12-1.235-.357-1.541-.237-.306-.539-.459-.906-.459-.433 0-.958.348-1.585 1.048-.627.7-1.372 1.05-2.234 1.05-.84 0-1.536-.296-2.086-.885-.55-.59-.828-1.377-.828-2.36 0-1.159.356-2.11 1.07-2.852C1.805.494 2.723.124 3.847.124c1.725 0 3.171.73 4.338 2.195 1.769 2.272 2.738 6.632 2.91 13.078.348 11.383.52 17.806.52 19.273 0 5.57-.401 12.836-1.197 21.793-.195 2.25-.29 3.835-.29 4.752 0 .766.12 1.307.37 1.623.249.317.557.476.924.476.366 0 .797-.22 1.294-.656.884-.786 1.704-1.18 2.458-1.18.841 0 1.551.31 2.122.936.572.622.858 1.446.858 2.474 0 .874-.405 1.676-1.215 2.409-.81.732-1.754 1.098-2.83 1.098-.973 0-1.971-.355-2.996-1.065" id="o"/><linearGradient x1=".002%" y1="50%" x2="100.002%" y2="50%" id="q"><stop stop-color="#844EC6" offset="0%"/><stop stop-color="#844EC6" offset="6.795%"/><stop stop-color="#9071FF" offset="100%"/></linearGradient></defs><g fill="none" fill-rule="evenodd"><g transform="matrix(1 0 0 -1 -22 177.75)"><mask id="b" fill="#fff"><use xlink:href="#a"/></mask><g mask="url(#b)"><path d="M120.418 92.83v45.938a5.974 5.974 0 1 1-11.948 0v-3.03.597a5.974 5.974 0 1 0-11.948 0v7.002a5.974 5.974 0 1 1-11.948 0v-24.02.512a5.976 5.976 0 0 0-11.949 0v-.597 5.142-.512a5.974 5.974 0 1 1-11.948 0V92.831v.341c0-16.497 13.373-29.87 29.87-29.87 16.498 0 29.871 13.373 29.871 29.87v-.341z" fill="#000" fill-rule="nonzero"/></g></g><g transform="matrix(1 0 0 -1 54.904 129.81)"><mask id="d" fill="#fff"><use xlink:href="#c"/></mask><g mask="url(#d)" fill-rule="nonzero" fill="url(#e)"><path d="M.182 31.476C.182 14.1 14.267.015 31.642.015c17.376 0 31.461 14.085 31.461 31.46 0 17.376-14.085 31.461-31.46 31.461-17.376 0-31.461-14.085-31.461-31.46"/></g></g><g transform="matrix(1 0 0 -1 54.904 129.81)"><mask id="g" fill="#fff"><use xlink:href="#f"/></mask><g mask="url(#g)"><g transform="translate(-11.985 19.975)"><mask id="i" fill="#fff"><use xlink:href="#h"/></mask><g opacity=".16" mask="url(#i)"><path d="M26.429 51.77c14.132 0 25.588-11.456 25.588-25.587C52.017 12.05 40.56.595 26.429.595 12.297.595.84 12.05.84 26.183c0 14.131 11.456 25.588 25.588 25.588" fill="#FFF" fill-rule="nonzero"/></g></g></g></g><g transform="matrix(1 0 0 -1 49.91 29.935)"><mask id="k" fill="#fff"><use xlink:href="#j"/></mask><g mask="url(#k)" fill-rule="nonzero" fill="url(#l)"><path d="M.848 4.676a4.495 4.495 0 0 1 8.989 0 4.494 4.494 0 1 1-8.989 0"/></g></g><g transform="matrix(1 0 0 -1 -22 177.75)"><mask id="n" fill="#fff"><use xlink:href="#m"/></mask><g mask="url(#n)"><path fill="#FFF" fill-rule="nonzero" d="M77.36 79.82V88h-8.12v3.42h8.12v8.118h3.457V91.42h8.12V88h-8.12v-8.18z"/><path d="M77.631 80.092h2.915v8.18h8.12v2.875h-8.12v8.12H77.63v-8.12h-8.12v-2.875h8.12v-8.18zm3.458-.543h-4.001v8.18h-8.12v3.961h8.12v8.12h4v-8.12h8.12v-3.962h-8.12v-8.18z" fill="#FFF" fill-rule="nonzero"/><path d="M122.77 139.691a1.998 1.998 0 1 0-3.995 0 1.998 1.998 0 0 0 3.995 0" fill="#F2D581" fill-rule="nonzero"/></g></g><g transform="matrix(1 0 0 -1 87.863 118.824)"><mask id="p" fill="#fff"><use xlink:href="#o"/></mask><g mask="url(#p)" fill-rule="nonzero" fill="url(#q)"><path d="M11.113 67.33c-1.025-.71-1.83-1.776-2.412-3.197-.884-2.206-1.423-4.98-1.617-8.325l-.55-17.402c0-11.277.398-20.356 1.198-27.238.193-1.703.29-3.015.29-3.932 0-.722-.12-1.235-.357-1.541-.237-.306-.539-.459-.906-.459-.433 0-.958.348-1.585 1.048-.627.7-1.372 1.05-2.234 1.05-.84 0-1.536-.296-2.086-.885-.55-.59-.828-1.377-.828-2.36 0-1.159.356-2.11 1.07-2.852C1.805.494 2.723.124 3.847.124c1.725 0 3.171.73 4.338 2.195 1.769 2.272 2.738 6.632 2.91 13.078.348 11.383.52 17.806.52 19.273 0 5.57-.401 12.836-1.197 21.793-.195 2.25-.29 3.835-.29 4.752 0 .766.12 1.307.37 1.623.249.317.557.476.924.476.366 0 .797-.22 1.294-.656.884-.786 1.704-1.18 2.458-1.18.841 0 1.551.31 2.122.936.572.622.858 1.446.858 2.474 0 .874-.405 1.676-1.215 2.409-.81.732-1.754 1.098-2.83 1.098-.973 0-1.971-.355-2.996-1.065"/></g></g></g></svg>