<svg width="155" height="155" viewBox="0 0 155 155" xmlns="http://www.w3.org/2000/svg" xmlns:xlink="http://www.w3.org/1999/xlink"><defs><path id="a" d="M0 199.75h199.75V0H0z"/><path d="M11.77 63.334c-1.025-.71-1.831-1.775-2.413-3.196-.884-2.206-1.423-4.98-1.617-8.325L7.191 34.41c0-11.275.398-20.355 1.198-27.237.192-1.704.29-3.015.29-3.932 0-.721-.12-1.235-.357-1.542-.238-.305-.54-.459-.906-.459-.433 0-.96.35-1.587 1.05-.626.7-1.37 1.048-2.232 1.048-.841 0-1.537-.295-2.087-.885A2.9 2.9 0 0 1 .883 1.4 29.91 29.91 0 0 1 8.65.38c.457 0 .912.01 1.364.03 1.03 2.488 1.608 6.15 1.738 10.99.347 11.385.52 17.808.52 19.274 0 5.572-.402 12.837-1.198 21.794-.194 2.252-.29 3.836-.29 4.753 0 .766.12 1.307.37 1.622.249.317.557.477.924.477.366 0 .796-.22 1.294-.656.883-.787 1.704-1.18 2.458-1.18.841 0 1.551.31 2.123.934.57.624.857 1.448.857 2.475 0 .874-.405 1.676-1.215 2.409-.809.731-1.754 1.097-2.83 1.097-.973 0-1.97-.354-2.995-1.065" id="c"/><linearGradient x1="-1.117%" y1="46.679%" x2="100.002%" y2="46.679%" id="e"><stop stop-color="#844EC6" offset="0%"/><stop stop-color="#844EC6" offset="6.795%"/><stop stop-color="#9071FF" offset="100%"/></linearGradient><path d="M.182 31.477C.182 14.1 14.267.016 31.642.016c17.376 0 31.461 14.084 31.461 31.46 0 17.375-14.085 31.461-31.46 31.461-17.376 0-31.461-14.086-31.461-31.46" id="f"/><linearGradient x1="9.179%" y1="21.118%" x2="90.82%" y2="78.88%" id="h"><stop stop-color="#A9AEFF" offset="0%"/><stop stop-color="#398BFF" offset="19.27%"/><stop stop-color="#398BFF" offset="25.483%"/><stop stop-color="#7AECFE" offset="100%"/></linearGradient><path d="M.182 31.477C.182 14.1 14.267.016 31.642.016c17.376 0 31.461 14.084 31.461 31.46 0 17.375-14.085 31.461-31.46 31.461-17.376 0-31.461-14.086-31.461-31.46" id="i"/><path id="k" d="M.84 51.77h51.177V.594H.841z"/><path d="M.848 4.675a4.495 4.495 0 0 1 8.989 0A4.494 4.494 0 0 1 5.342 9.17 4.493 4.493 0 0 1 .848 4.675" id="m"/><linearGradient x1="-47.868%" y1="50.01%" x2="260.957%" y2="50.01%" id="o"><stop stop-color="#844EC6" offset="0%"/><stop stop-color="#844EC6" offset="6.795%"/><stop stop-color="#9071FF" offset="100%"/></linearGradient><path id="p" d="M0 199.75h199.75V0H0z"/></defs><g fill="none" fill-rule="evenodd"><g transform="matrix(1 0 0 -1 -22 177.75)"><mask id="b" fill="#fff"><use xlink:href="#a"/></mask><g mask="url(#b)"><path d="M120.418 92.831v45.938a5.975 5.975 0 0 1-11.948 0v-3.031.598a5.975 5.975 0 1 0-11.948 0v7.001a5.974 5.974 0 1 1-11.948 0v-24.02.512a5.975 5.975 0 0 0-11.949 0v-.597 5.143-.513a5.974 5.974 0 1 1-11.948 0v-31.03.34c0-16.497 13.373-29.87 29.87-29.87 16.498 0 29.871 13.373 29.871 29.87v-.34z" fill="#000" fill-rule="nonzero"/></g></g><g transform="matrix(1 0 0 -1 59.898 114.829)"><mask id="d" fill="#fff"><use xlink:href="#c"/></mask><g mask="url(#d)" fill-rule="nonzero" fill="url(#e)"><path d="M11.77 63.334c-1.025-.71-1.831-1.775-2.413-3.196-.884-2.206-1.423-4.98-1.617-8.325L7.191 34.41c0-11.275.398-20.355 1.198-27.237.192-1.704.29-3.015.29-3.932 0-.721-.12-1.235-.357-1.542-.238-.305-.54-.459-.906-.459-.433 0-.96.35-1.587 1.05-.626.7-1.37 1.048-2.232 1.048-.841 0-1.537-.295-2.087-.885A2.9 2.9 0 0 1 .883 1.4 29.91 29.91 0 0 1 8.65.38c.457 0 .912.01 1.364.03 1.03 2.488 1.608 6.15 1.738 10.99.347 11.385.52 17.808.52 19.274 0 5.572-.402 12.837-1.198 21.794-.194 2.252-.29 3.836-.29 4.753 0 .766.12 1.307.37 1.622.249.317.557.477.924.477.366 0 .796-.22 1.294-.656.883-.787 1.704-1.18 2.458-1.18.841 0 1.551.31 2.123.934.57.624.857 1.448.857 2.475 0 .874-.405 1.676-1.215 2.409-.809.731-1.754 1.097-2.83 1.097-.973 0-1.97-.354-2.995-1.065"/></g></g><g transform="matrix(1 0 0 -1 54.904 129.81)"><mask id="g" fill="#fff"><use xlink:href="#f"/></mask><g mask="url(#g)" fill-rule="nonzero" fill="url(#h)"><path d="M.182 31.477C.182 14.1 14.267.016 31.642.016c17.376 0 31.461 14.084 31.461 31.46 0 17.375-14.085 31.461-31.46 31.461-17.376 0-31.461-14.086-31.461-31.46"/></g></g><g transform="matrix(1 0 0 -1 54.904 129.81)"><mask id="j" fill="#fff"><use xlink:href="#i"/></mask><g mask="url(#j)"><g transform="translate(-11.985 19.975)"><mask id="l" fill="#fff"><use xlink:href="#k"/></mask><g opacity=".16" mask="url(#l)"><path d="M26.429 51.77c14.132 0 25.588-11.456 25.588-25.588C52.017 12.05 40.56.594 26.429.594 12.297.594.84 12.05.84 26.182c0 14.132 11.456 25.588 25.588 25.588" fill="#FFF" fill-rule="nonzero"/></g></g></g></g><g transform="matrix(1 0 0 -1 49.91 29.935)"><mask id="n" fill="#fff"><use xlink:href="#m"/></mask><g mask="url(#n)" fill-rule="nonzero" fill="url(#o)"><path d="M.848 4.675a4.495 4.495 0 0 1 8.989 0A4.494 4.494 0 0 1 5.342 9.17 4.493 4.493 0 0 1 .848 4.675"/></g></g><g transform="matrix(1 0 0 -1 -22 177.75)"><mask id="q" fill="#fff"><use xlink:href="#p"/></mask><g mask="url(#q)"><path fill="#FFF" fill-rule="nonzero" d="M77.36 79.82V88h-8.12v3.42h8.12v8.119h3.457v-8.12h8.12V88h-8.12v-8.18z"/><path d="M77.631 80.091h2.915v8.181h8.12v2.876h-8.12v8.118H77.63v-8.118h-8.12v-2.876h8.12v-8.18zm3.458-.543h-4.001v8.18h-8.12v3.963h8.12v8.119h4v-8.12h8.12V87.73h-8.12v-8.18z" fill="#FFF" fill-rule="nonzero"/><path d="M122.77 139.692a1.998 1.998 0 1 0-3.995 0 1.998 1.998 0 0 0 3.995 0" fill="#F2D581" fill-rule="nonzero"/></g></g></g></svg>