<svg width="155" height="155" viewBox="0 0 155 155" xmlns="http://www.w3.org/2000/svg" xmlns:xlink="http://www.w3.org/1999/xlink"><defs><path id="a" d="M0 199.75h199.75V0H0z"/><path d="M24.648 80.416V56.908a5.974 5.974 0 0 0-11.948 0v4.034a5.975 5.975 0 0 1-11.948 0V29.91v.341C.752 13.755 14.126.381 30.622.381c16.498 0 29.871 13.374 29.871 29.871v-.341 45.936a5.975 5.975 0 0 1-11.948 0v-2.434a5.975 5.975 0 0 0-11.948 0v7.003a5.975 5.975 0 0 1-11.95 0h.001zM12.7 60.942v.511-.511z" id="c"/><path id="e" d="M.933 33.743h32.85V.893H.933z"/><path d="M33.783 17.318c0-9.071-7.354-16.424-16.425-16.424C8.287.894.933 8.247.933 17.318s7.354 16.425 16.425 16.425c9.071 0 16.425-7.354 16.425-16.425" id="g"/><linearGradient x1=".001%" y1="50%" x2="100.001%" y2="50%" id="i"><stop stop-color="#844EC6" offset="0%"/><stop stop-color="#844EC6" offset="6.795%"/><stop stop-color="#9071FF" offset="100%"/></linearGradient><path d="M11.77 63.334c-1.025-.71-1.831-1.775-2.413-3.196-.884-2.206-1.423-4.98-1.617-8.325l-.549-17.402c0-11.276.398-20.357 1.198-27.238.192-1.704.29-3.015.29-3.932 0-.721-.12-1.235-.357-1.542-.238-.305-.54-.459-.906-.459-.433 0-.96.349-1.587 1.05-.626.7-1.37 1.048-2.232 1.048-.841 0-1.537-.295-2.087-.885A2.91 2.91 0 0 1 .883 1.4 29.91 29.91 0 0 1 8.65.38c.457 0 .912.01 1.364.03 1.03 2.488 1.608 6.152 1.738 10.992.347 11.384.52 17.806.52 19.273 0 5.572-.402 12.835-1.198 21.794-.194 2.25-.29 3.835-.29 4.752 0 .766.12 1.306.37 1.623.249.316.557.476.924.476.366 0 .796-.22 1.294-.656.883-.787 1.704-1.18 2.458-1.18.841 0 1.551.31 2.123.935.57.622.857 1.447.857 2.474 0 .873-.405 1.677-1.215 2.409-.809.731-1.754 1.097-2.83 1.097-.973 0-1.97-.354-2.995-1.065" id="j"/><linearGradient x1="-1.117%" y1="46.679%" x2="100.002%" y2="46.679%" id="l"><stop stop-color="#844EC6" offset="0%"/><stop stop-color="#844EC6" offset="6.795%"/><stop stop-color="#9071FF" offset="100%"/></linearGradient><path d="M.182 31.476C.182 14.1 14.267.015 31.642.015c17.376 0 31.461 14.085 31.461 31.46 0 17.376-14.085 31.461-31.46 31.461-17.376 0-31.461-14.085-31.461-31.46" id="m"/><linearGradient x1="9.179%" y1="21.12%" x2="90.82%" y2="78.881%" id="o"><stop stop-color="#A9AEFF" offset="0%"/><stop stop-color="#398BFF" offset="19.27%"/><stop stop-color="#398BFF" offset="25.483%"/><stop stop-color="#7AECFE" offset="100%"/></linearGradient><path d="M.182 31.476C.182 14.1 14.267.015 31.642.015c17.376 0 31.461 14.085 31.461 31.46 0 17.376-14.085 31.461-31.46 31.461-17.376 0-31.461-14.085-31.461-31.46" id="p"/><path id="r" d="M.84 51.77h51.177V.594H.841z"/><path id="t" d="M.844 39.837h39.43V.407H.845z"/><path d="M.848 4.676a4.495 4.495 0 0 1 8.989 0 4.494 4.494 0 1 1-8.989 0" id="v"/><linearGradient x1="-47.868%" y1="49.999%" x2="260.957%" y2="49.999%" id="x"><stop stop-color="#844EC6" offset="0%"/><stop stop-color="#844EC6" offset="6.795%"/><stop stop-color="#9071FF" offset="100%"/></linearGradient><path id="y" d="M0 199.75h199.75V0H0z"/><path id="A" d="M.73 35.403h52.606V.603H.73z"/></defs><g fill="none" fill-rule="evenodd"><g transform="matrix(1 0 0 -1 -22 177.75)"><mask id="b" fill="#fff"><use xlink:href="#a"/></mask><g mask="url(#b)"><path d="M120.418 92.831v45.937a5.975 5.975 0 1 1-11.948 0v-3.03.597a5.975 5.975 0 0 0-11.948 0v7.002a5.975 5.975 0 0 1-11.948 0v-24.02.512a5.975 5.975 0 0 0-11.949 0v-.598 5.144-.512a5.974 5.974 0 1 1-11.948 0V92.83v.342c0-16.497 13.373-29.87 29.87-29.87 16.498 0 29.871 13.373 29.871 29.87v-.342z" fill="#000" fill-rule="nonzero"/></g></g><g transform="matrix(1 0 0 -1 37.925 114.829)"><mask id="d" fill="#fff"><use xlink:href="#c"/></mask><g mask="url(#d)"><g transform="translate(-19.975 49.938)"><mask id="f" fill="#fff"><use xlink:href="#e"/></mask><g opacity=".25" mask="url(#f)"><mask id="h" fill="#fff"><use xlink:href="#g"/></mask><g mask="url(#h)" fill-rule="nonzero" fill="url(#i)"><path d="M33.783 17.318c0-9.071-7.354-16.424-16.425-16.424C8.287.894.933 8.247.933 17.318s7.354 16.425 16.425 16.425c9.071 0 16.425-7.354 16.425-16.425"/></g></g></g></g></g><g transform="matrix(1 0 0 -1 59.898 114.829)"><mask id="k" fill="#fff"><use xlink:href="#j"/></mask><g mask="url(#k)" fill-rule="nonzero" fill="url(#l)"><path d="M11.77 63.334c-1.025-.71-1.831-1.775-2.413-3.196-.884-2.206-1.423-4.98-1.617-8.325l-.549-17.402c0-11.276.398-20.357 1.198-27.238.192-1.704.29-3.015.29-3.932 0-.721-.12-1.235-.357-1.542-.238-.305-.54-.459-.906-.459-.433 0-.96.349-1.587 1.05-.626.7-1.37 1.048-2.232 1.048-.841 0-1.537-.295-2.087-.885A2.91 2.91 0 0 1 .883 1.4 29.91 29.91 0 0 1 8.65.38c.457 0 .912.01 1.364.03 1.03 2.488 1.608 6.152 1.738 10.992.347 11.384.52 17.806.52 19.273 0 5.572-.402 12.835-1.198 21.794-.194 2.25-.29 3.835-.29 4.752 0 .766.12 1.306.37 1.623.249.316.557.476.924.476.366 0 .796-.22 1.294-.656.883-.787 1.704-1.18 2.458-1.18.841 0 1.551.31 2.123.935.57.622.857 1.447.857 2.474 0 .873-.405 1.677-1.215 2.409-.809.731-1.754 1.097-2.83 1.097-.973 0-1.97-.354-2.995-1.065"/></g></g><g transform="matrix(1 0 0 -1 54.904 129.81)"><mask id="n" fill="#fff"><use xlink:href="#m"/></mask><g mask="url(#n)" fill-rule="nonzero" fill="url(#o)"><path d="M.182 31.476C.182 14.1 14.267.015 31.642.015c17.376 0 31.461 14.085 31.461 31.46 0 17.376-14.085 31.461-31.46 31.461-17.376 0-31.461-14.085-31.461-31.46"/></g></g><g transform="matrix(1 0 0 -1 54.904 129.81)"><mask id="q" fill="#fff"><use xlink:href="#p"/></mask><g mask="url(#q)"><g transform="translate(-11.985 19.975)"><mask id="s" fill="#fff"><use xlink:href="#r"/></mask><g opacity=".16" mask="url(#s)"><path d="M26.429 51.77c14.132 0 25.588-11.456 25.588-25.588C52.017 12.05 40.56.594 26.429.594 12.297.594.84 12.05.84 26.182c0 14.132 11.456 25.588 25.588 25.588" fill="#FFF" fill-rule="nonzero"/></g></g><g transform="translate(43.945 8.989)"><mask id="u" fill="#fff"><use xlink:href="#t"/></mask><g opacity=".16" mask="url(#u)"><path d="M20.56 39.837c10.888 0 19.715-8.827 19.715-19.715 0-10.89-8.827-19.716-19.716-19.716C9.671.406.844 9.232.844 20.122c0 10.888 8.827 19.715 19.715 19.715" fill="#FFF" fill-rule="nonzero"/></g></g></g></g><g transform="matrix(1 0 0 -1 49.91 29.935)"><mask id="w" fill="#fff"><use xlink:href="#v"/></mask><g mask="url(#w)" fill-rule="nonzero" fill="url(#x)"><path d="M.848 4.676a4.495 4.495 0 0 1 8.989 0 4.494 4.494 0 1 1-8.989 0"/></g></g><g transform="matrix(1 0 0 -1 -22 177.75)"><mask id="z" fill="#fff"><use xlink:href="#y"/></mask><g mask="url(#z)"><g transform="translate(92.884 65.918)"><mask id="B" fill="#fff"><use xlink:href="#A"/></mask><g opacity=".8" mask="url(#B)"><path d="M8.851 16.682a6.052 6.052 0 0 1-3.129-7.957 6.052 6.052 0 0 1 7.955-3.13c2.03.883 6.335 6.173 9.635 10.789-5.628.729-12.431 1.181-14.46.298M15.34 1.773C10.177-.475 4.148 1.897 1.9 7.063c-2.248 5.163.124 11.193 5.287 13.44 4.455 1.94 17.514-.062 20.086-.485l3.19-.522-1.792-2.69c-1.443-2.17-8.876-13.093-13.33-15.033" fill="#FFF" fill-rule="nonzero"/><path d="M8.98 16.387a5.73 5.73 0 0 1-2.963-7.533A5.73 5.73 0 0 1 13.55 5.89c1.932.842 6.081 5.944 9.186 10.242-5.261.657-11.822 1.097-13.756.255M13.805 5.3a6.375 6.375 0 0 0-8.378 3.298 6.374 6.374 0 0 0 3.296 8.38c2.117.921 8.947.462 14.63-.275l.534-.07-.313-.436C20.24 11.534 15.923 6.222 13.805 5.3m-6.49 14.908c-5-2.177-7.297-8.016-5.12-13.017 2.177-5.002 8.017-7.3 13.018-5.123 4.374 1.905 11.756 12.76 13.191 14.917l1.515 2.274-2.697.442c-2.556.42-15.53 2.412-19.907.507m8.154-18.73C10.144-.84 3.924 1.606 1.605 6.934c-2.32 5.326.127 11.546 5.454 13.865 4.541 1.976 17.679-.038 20.266-.463l3.682-.602-2.068-3.106c-1.452-2.183-8.93-13.173-13.47-15.15" fill="#FFF" fill-rule="nonzero"/><path d="M30.753 19.623c5.627-.729 12.432-1.182 14.461-.298a6.052 6.052 0 0 1 3.13 7.956 6.052 6.052 0 0 1-7.957 3.13c-2.028-.883-6.334-6.173-9.634-10.788m16.125-4.12c-4.454-1.94-17.514.063-20.088.484l-3.188.523 1.79 2.69c1.445 2.171 8.878 13.094 13.331 15.033 5.165 2.247 11.195-.125 13.443-5.288 2.248-5.165-.124-11.194-5.288-13.443" fill="#FFF" fill-rule="nonzero"/><path d="M31.33 19.874c5.262-.656 11.821-1.097 13.755-.255a5.73 5.73 0 0 1 2.964 7.533 5.73 5.73 0 0 1-7.532 2.964c-1.935-.843-6.083-5.944-9.187-10.242zm14.013-.845c-2.119-.922-8.946-.463-14.631.276l-.532.068.311.438c3.334 4.661 7.65 9.972 9.768 10.895a6.376 6.376 0 0 0 8.38-3.297 6.376 6.376 0 0 0-3.296-8.38zm-21.197-2.282l2.697-.442c2.558-.418 15.536-2.41 19.906-.508 5.002 2.178 7.299 8.017 5.121 13.019-2.177 5.001-8.016 7.299-13.017 5.121C34.48 32.035 27.096 21.18 25.66 19.021l-1.514-2.274zm22.86-1.54c-4.535-1.974-17.678.04-20.267.463l-3.682.603 2.068 3.105c1.453 2.184 8.934 13.174 13.47 15.15 5.327 2.318 11.547-.128 13.866-5.455 2.319-5.327-.128-11.547-5.454-13.866z" fill="#FFF" fill-rule="nonzero"/></g></g><path fill="#FFF" fill-rule="nonzero" d="M77.36 79.82V88h-8.12v3.419h8.12v8.12h3.457v-8.12h8.12V88h-8.12v-8.18z"/><path d="M77.631 80.092h2.915v8.18h8.12v2.876h-8.12v8.119H77.63v-8.12h-8.12v-2.876h8.12v-8.18zm3.458-.544h-4.001v8.18h-8.12v3.963h8.12v8.119h4V91.69h8.12v-3.963h-8.12v-8.18z" fill="#FFF" fill-rule="nonzero"/><path d="M122.77 139.692a1.998 1.998 0 1 0-3.995 0 1.998 1.998 0 0 0 3.995 0" fill="#F2D581" fill-rule="nonzero"/></g></g></g></svg>