<svg width="155" height="155" viewBox="0 0 155 155" xmlns="http://www.w3.org/2000/svg" xmlns:xlink="http://www.w3.org/1999/xlink"><defs><path id="a" d="M0 199.75h199.75V0H0z"/><path d="M.752 10.005V.241C6.224 1.382 10.7 5.246 12.69 10.353a5.975 5.975 0 0 1-11.938-.348zm11.948.373v.139-.139z" id="c"/><linearGradient x1="-165.667%" y1="102.157%" x2="109.272%" y2="102.157%" id="e"><stop stop-color="#844EC6" offset="0%"/><stop stop-color="#844EC6" offset="6.795%"/><stop stop-color="#9071FF" offset="100%"/></linearGradient><path d="M11.77 63.334c-1.025-.71-1.831-1.775-2.413-3.195-.884-2.207-1.423-4.982-1.617-8.326l-.549-17.402c0-11.276.398-20.357 1.198-27.238.192-1.704.29-3.015.29-3.932 0-.721-.12-1.235-.357-1.542-.238-.305-.54-.458-.906-.458-.433 0-.96.348-1.587 1.048-.626.7-1.37 1.049-2.232 1.049-.841 0-1.537-.295-2.087-.885A2.91 2.91 0 0 1 .883 1.4 29.91 29.91 0 0 1 8.65.38c.457 0 .912.01 1.364.03 1.03 2.488 1.608 6.152 1.738 10.992.347 11.384.52 17.806.52 19.273 0 5.572-.402 12.835-1.198 21.794-.194 2.25-.29 3.835-.29 4.752 0 .766.12 1.306.37 1.623.249.316.557.476.924.476.366 0 .796-.22 1.294-.656.883-.787 1.704-1.18 2.458-1.18.841 0 1.551.31 2.123.935.57.622.857 1.447.857 2.474 0 .873-.405 1.677-1.215 2.409-.809.731-1.754 1.097-2.83 1.097-.973 0-1.97-.354-2.995-1.065" id="f"/><linearGradient x1="-1.117%" y1="46.679%" x2="100.002%" y2="46.679%" id="h"><stop stop-color="#844EC6" offset="0%"/><stop stop-color="#844EC6" offset="6.795%"/><stop stop-color="#9071FF" offset="100%"/></linearGradient><path d="M.182 31.476C.182 14.1 14.267.015 31.642.015c17.376 0 31.461 14.085 31.461 31.46 0 17.376-14.085 31.461-31.46 31.461-17.376 0-31.461-14.085-31.461-31.46" id="i"/><linearGradient x1="9.179%" y1="21.12%" x2="90.82%" y2="78.881%" id="k"><stop stop-color="#A9AEFF" offset="0%"/><stop stop-color="#398BFF" offset="19.27%"/><stop stop-color="#398BFF" offset="25.483%"/><stop stop-color="#7AECFE" offset="100%"/></linearGradient><path d="M.182 31.476C.182 14.1 14.267.015 31.642.015c17.376 0 31.461 14.085 31.461 31.46 0 17.376-14.085 31.461-31.46 31.461-17.376 0-31.461-14.085-31.461-31.46" id="l"/><path id="n" d="M.84 51.77h51.177V.594H.841z"/><path id="p" d="M.88 39.586h39.432V.155H.88z"/><path d="M.848 4.676a4.495 4.495 0 0 1 8.989 0 4.494 4.494 0 1 1-8.989 0" id="r"/><linearGradient x1="-47.868%" y1="49.999%" x2="260.957%" y2="49.999%" id="t"><stop stop-color="#844EC6" offset="0%"/><stop stop-color="#844EC6" offset="6.795%"/><stop stop-color="#9071FF" offset="100%"/></linearGradient><path id="u" d="M0 199.75h199.75V0H0z"/></defs><g fill="none" fill-rule="evenodd"><g transform="matrix(1 0 0 -1 -22 177.75)"><mask id="b" fill="#fff"><use xlink:href="#a"/></mask><g mask="url(#b)"><path d="M120.418 92.831v45.937a5.975 5.975 0 1 1-11.948 0v-3.03.597a5.974 5.974 0 1 0-11.948 0v7.002a5.975 5.975 0 0 1-11.948 0v-24.02.512a5.975 5.975 0 0 0-11.949 0v-.598 5.144-.512a5.974 5.974 0 1 1-11.948 0V92.83v.342c0-16.497 13.373-29.87 29.87-29.87 16.498 0 29.871 13.373 29.871 29.87v-.342z" fill="#000" fill-rule="nonzero"/></g></g><g transform="matrix(1 0 0 -1 37.925 63.893)"><mask id="d" fill="#fff"><use xlink:href="#c"/></mask><g mask="url(#d)" fill-rule="nonzero" fill="url(#e)"><path d="M.752 10.005V.241C6.224 1.382 10.7 5.246 12.69 10.353a5.975 5.975 0 0 1-11.938-.348zm11.948.373v.139-.139z"/></g></g><g transform="matrix(1 0 0 -1 59.898 114.829)"><mask id="g" fill="#fff"><use xlink:href="#f"/></mask><g mask="url(#g)" fill-rule="nonzero" fill="url(#h)"><path d="M11.77 63.334c-1.025-.71-1.831-1.775-2.413-3.195-.884-2.207-1.423-4.982-1.617-8.326l-.549-17.402c0-11.276.398-20.357 1.198-27.238.192-1.704.29-3.015.29-3.932 0-.721-.12-1.235-.357-1.542-.238-.305-.54-.458-.906-.458-.433 0-.96.348-1.587 1.048-.626.7-1.37 1.049-2.232 1.049-.841 0-1.537-.295-2.087-.885A2.91 2.91 0 0 1 .883 1.4 29.91 29.91 0 0 1 8.65.38c.457 0 .912.01 1.364.03 1.03 2.488 1.608 6.152 1.738 10.992.347 11.384.52 17.806.52 19.273 0 5.572-.402 12.835-1.198 21.794-.194 2.25-.29 3.835-.29 4.752 0 .766.12 1.306.37 1.623.249.316.557.476.924.476.366 0 .796-.22 1.294-.656.883-.787 1.704-1.18 2.458-1.18.841 0 1.551.31 2.123.935.57.622.857 1.447.857 2.474 0 .873-.405 1.677-1.215 2.409-.809.731-1.754 1.097-2.83 1.097-.973 0-1.97-.354-2.995-1.065"/></g></g><g transform="matrix(1 0 0 -1 54.904 129.81)"><mask id="j" fill="#fff"><use xlink:href="#i"/></mask><g mask="url(#j)" fill-rule="nonzero" fill="url(#k)"><path d="M.182 31.476C.182 14.1 14.267.015 31.642.015c17.376 0 31.461 14.085 31.461 31.46 0 17.376-14.085 31.461-31.46 31.461-17.376 0-31.461-14.085-31.461-31.46"/></g></g><g transform="matrix(1 0 0 -1 54.904 129.81)"><mask id="m" fill="#fff"><use xlink:href="#l"/></mask><g mask="url(#m)"><g transform="translate(-11.985 19.975)"><mask id="o" fill="#fff"><use xlink:href="#n"/></mask><g opacity=".16" mask="url(#o)"><path d="M26.429 51.77c14.132 0 25.588-11.456 25.588-25.588C52.017 12.05 40.56.594 26.429.594 12.297.594.84 12.05.84 26.182c0 14.132 11.456 25.588 25.588 25.588" fill="#FFF" fill-rule="nonzero"/></g></g><g transform="translate(-6.991 27.965)"><mask id="q" fill="#fff"><use xlink:href="#p"/></mask><g opacity=".16" mask="url(#q)"><path d="M20.596 39.586c10.888 0 19.715-8.827 19.715-19.716C40.311 8.982 31.484.156 20.596.156S.881 8.982.881 19.87c0 10.889 8.827 19.716 19.715 19.716" fill="#FFF" fill-rule="nonzero"/></g></g></g></g><g transform="matrix(1 0 0 -1 49.91 29.935)"><mask id="s" fill="#fff"><use xlink:href="#r"/></mask><g mask="url(#s)" fill-rule="nonzero" fill="url(#t)"><path d="M.848 4.676a4.495 4.495 0 0 1 8.989 0 4.494 4.494 0 1 1-8.989 0"/></g></g><g transform="matrix(1 0 0 -1 -22 177.75)"><mask id="v" fill="#fff"><use xlink:href="#u"/></mask><g mask="url(#v)"><path d="M101.735 82.6a6.052 6.052 0 0 1-3.13-7.957 6.052 6.052 0 0 1 7.956-3.13c2.03.883 6.335 6.172 9.635 10.789-5.628.729-12.432 1.181-14.461.297m6.49-14.908c-5.164-2.248-11.193.124-13.441 5.29-2.248 5.163.124 11.192 5.287 13.44 4.455 1.94 17.514-.063 20.086-.485l3.19-.522-1.792-2.69c-1.443-2.17-8.876-13.094-13.33-15.033" fill="#FFF" fill-rule="nonzero"/><path d="M101.863 82.305a5.73 5.73 0 0 1-2.962-7.533 5.73 5.73 0 0 1 7.532-2.964c1.932.842 6.081 5.943 9.186 10.242-5.261.656-11.822 1.097-13.756.255m4.826-11.088a6.375 6.375 0 0 0-8.378 3.298 6.374 6.374 0 0 0 3.296 8.38c2.117.922 8.946.462 14.63-.275l.534-.069-.313-.436c-3.335-4.663-7.651-9.976-9.769-10.898m-6.49 14.909c-5-2.177-7.298-8.016-5.12-13.018 2.177-5.002 8.017-7.3 13.017-5.122 4.375 1.904 11.757 12.759 13.192 14.917l1.515 2.274-2.698.441c-2.555.42-15.53 2.412-19.906.508m8.154-18.73c-5.325-2.319-11.545.128-13.865 5.455-2.319 5.327.128 11.547 5.455 13.865 4.541 1.977 17.679-.038 20.266-.462l3.682-.603-2.068-3.106c-1.452-2.182-8.93-13.172-13.47-15.15" fill="#FFF" fill-rule="nonzero"/><path d="M123.637 85.54c5.627-.728 12.432-1.182 14.461-.298a6.052 6.052 0 0 1 3.13 7.956 6.052 6.052 0 0 1-7.957 3.13c-2.028-.883-6.334-6.172-9.634-10.787m16.125-4.121c-4.454-1.939-17.514.064-20.088.484l-3.188.524 1.79 2.69c1.445 2.17 8.878 13.094 13.331 15.033 5.165 2.247 11.194-.125 13.443-5.289 2.248-5.164-.124-11.194-5.288-13.442" fill="#FFF" fill-rule="nonzero"/><path d="M124.214 85.791c5.261-.656 11.821-1.096 13.755-.254a5.73 5.73 0 0 1 2.964 7.532 5.73 5.73 0 0 1-7.532 2.965c-1.935-.843-6.083-5.944-9.187-10.243zm14.013-.844c-2.119-.922-8.946-.463-14.631.275l-.533.07.312.437c3.334 4.66 7.65 9.972 9.768 10.895a6.376 6.376 0 0 0 8.38-3.297 6.376 6.376 0 0 0-3.296-8.38zm-21.197-2.283l2.697-.441c2.557-.419 15.536-2.41 19.906-.508 5.002 2.178 7.299 8.017 5.121 13.018-2.177 5.002-8.016 7.3-13.017 5.122-4.372-1.903-11.757-12.758-13.193-14.916l-1.514-2.275zm22.86-1.54c-4.535-1.973-17.678.04-20.267.464l-3.682.603 2.068 3.105c1.453 2.183 8.934 13.174 13.47 15.15 5.327 2.317 11.547-.129 13.866-5.455 2.319-5.327-.128-11.548-5.455-13.867zM77.36 79.82V88h-8.12v3.419h8.12v8.12h3.457v-8.12h8.12V88h-8.12v-8.18z" fill="#FFF" fill-rule="nonzero"/><path d="M77.631 80.092h2.915v8.18h8.12v2.876h-8.12v8.119H77.63v-8.12h-8.12v-2.876h8.12v-8.18zm3.458-.544h-4.001v8.18h-8.12v3.963h8.12v8.119h4V91.69h8.12v-3.963h-8.12v-8.18z" fill="#FFF" fill-rule="nonzero"/><path d="M122.77 139.692a1.998 1.998 0 1 0-3.995 0 1.998 1.998 0 0 0 3.995 0" fill="#F2D581" fill-rule="nonzero"/></g></g></g></svg>